<?xml version="1.0" encoding="UTF-8"?>
<svg id="Capa_1" data-name="Capa 1" xmlns="http://www.w3.org/2000/svg" version="1.1" viewBox="0 0 71.29 25.61">
  <defs>
    <style>
      .cls-1 {
        fill: none;
        stroke: #fff;
        stroke-miterlimit: 10;
        stroke-width: 1.32px;
      }

      .cls-2 {
        fill: #fff;
        stroke-width: 0px;
      }
    </style>
  </defs>
  <path id="Trazado_14823" data-name="Trazado 14823" class="cls-1" d="M68.75,17.46c-.7,0-1.35-.37-1.63-1.02l-4.93-9.87-4.93,9.87c-.47.88-1.58,1.26-2.47.79s-1.26-1.54-.79-2.42l6.56-13.13c.47-.93,1.54-1.26,2.47-.84.37.19.65.47.84.84l6.56,13.13c.47.93.09,2-.84,2.47-.28.09-.56.19-.84.19"/>
  <g>
    <g>
      <path id="Trazado_14796" data-name="Trazado 14796" class="cls-2" d="M1.68,25.51H.47c-.19,0-.37-.19-.37-.37v-3.31c0-.19.14-.37.37-.37h1.12c.79,0,1.26.42,1.26,1.02,0,.42-.28.74-.65.88.51.05.88.47.88.98,0,.65-.47,1.16-1.4,1.16M1.58,22.11h-.74v.98h.74c.28,0,.51-.19.51-.42v-.05c0-.28-.19-.47-.47-.51h-.05M.84,24.86h.84c.42,0,.65-.23.65-.56s-.28-.56-.61-.56h-.88v1.12Z"/>
      <path id="Trazado_14797" data-name="Trazado 14797" class="cls-2" d="M4.7,25.6c-.74.05-1.44-.51-1.49-1.3s.51-1.44,1.3-1.49c.74-.05,1.44.51,1.49,1.3v.09c.05.7-.51,1.35-1.21,1.4h-.09M4.7,23.42c-.37,0-.61.37-.61.79s.19.79.61.79c.37,0,.61-.37.61-.79s-.19-.79-.61-.79"/>
      <path id="Trazado_14798" data-name="Trazado 14798" class="cls-2" d="M6.94,25.56c-.19,0-.37-.14-.37-.37h0v-3.44c0-.19.14-.37.37-.37s.37.14.37.37v3.44c0,.23-.19.37-.37.37h0"/>
      <path id="Trazado_14799" data-name="Trazado 14799" class="cls-2" d="M8.89,25.6c-.33,0-.61-.09-.88-.28-.09-.09-.14-.19-.14-.28,0-.14.09-.23.23-.23h0c.09,0,.19.05.23.09.14.14.33.19.51.19.23,0,.33-.09.33-.23s-.14-.23-.42-.33c-.7-.19-.98-.47-.98-.93,0-.51.51-.79,1.02-.79.23,0,.47.05.65.14s.33.23.33.37-.09.23-.23.28h-.05c-.09,0-.19-.05-.23-.09-.14-.09-.33-.14-.51-.14s-.33.05-.33.19.09.23.47.33c.65.19.93.37.93.88.14.47-.23.84-.93.84"/>
      <path id="Trazado_14800" data-name="Trazado 14800" class="cls-2" d="M12.38,25.56c-.19,0-.33-.14-.37-.33v-.05h0c-.14.23-.42.42-.74.37-.47.05-.84-.28-.88-.7v-.09c0-.51.42-.79.93-.79.23,0,.51.09.65.23v-.23c.05-.28-.14-.51-.42-.56h-.14c-.14,0-.23,0-.37.05-.09.05-.19.05-.33.09-.14,0-.28-.09-.28-.28h0c0-.19.19-.28.37-.37.23-.05.42-.09.65-.09.79,0,1.21.42,1.21,1.16v1.26c.09.14-.05.33-.28.33h0M12.01,24.77c0-.19-.23-.33-.47-.33s-.47.14-.47.33.19.33.47.33c.23,0,.47-.14.47-.33"/>
      <path id="Trazado_14801" data-name="Trazado 14801" class="cls-2" d="M15.69,25.19c0,.19-.19.37-.37.37s-.33-.14-.37-.37v-3.4c0-.19.14-.37.37-.37.19,0,.37.14.37.37v3.4Z"/>
      <path id="Trazado_14802" data-name="Trazado 14802" class="cls-2" d="M18.57,25.56c-.19,0-.37-.14-.37-.37h0v-1.16c0-.33-.14-.61-.47-.61-.37,0-.51.28-.51.65v1.07c0,.19-.14.37-.37.37-.19,0-.37-.14-.37-.37v-2c0-.19.14-.37.37-.37.19,0,.37.14.37.37v.05c.14-.28.42-.42.74-.42.65,0,.98.51.98,1.21v1.16c0,.28-.19.42-.37.42h0"/>
      <path id="Trazado_14803" data-name="Trazado 14803" class="cls-2" d="M20.48,25.6c-.33,0-.61-.09-.88-.28-.09-.09-.14-.19-.14-.28,0-.14.09-.23.23-.23h0c.09,0,.19.05.23.09.14.14.33.19.51.19.23,0,.33-.09.33-.23s-.14-.23-.42-.33c-.7-.19-.98-.47-.98-.93,0-.51.51-.79,1.02-.79.23,0,.47.05.65.14s.33.23.33.37-.09.28-.23.28h-.05c-.09,0-.19-.05-.23-.09-.14-.09-.33-.14-.51-.14s-.33.05-.33.19.09.23.47.33c.65.19.93.37.93.88.14.47-.19.84-.93.84"/>
      <path id="Trazado_14804" data-name="Trazado 14804" class="cls-2" d="M22.72,25.56c-.19,0-.37-.14-.37-.33h0v-1.72h-.28c-.19,0-.33-.14-.33-.28s.14-.33.28-.33h.33v-.74c0-.19.14-.37.37-.37.19,0,.37.14.37.37v.74h.37c.19,0,.28.14.28.28s-.14.28-.28.28h-.37v1.72c-.05.23-.19.37-.37.37h0"/>
      <path id="Trazado_14805" data-name="Trazado 14805" class="cls-2" d="M24.44,22.49c-.23,0-.42-.19-.42-.42s.19-.42.42-.42.42.19.42.42c-.05.23-.23.42-.42.42h0M24.44,25.56c-.19,0-.37-.14-.37-.37h0v-2c0-.19.19-.37.37-.33.19,0,.33.14.33.33v2c0,.23-.14.37-.33.37h0"/>
      <path id="Trazado_14806" data-name="Trazado 14806" class="cls-2" d="M26.11,25.56c-.19,0-.37-.14-.37-.33h0v-1.72h-.28c-.19,0-.33-.14-.33-.28s.14-.33.28-.33h.33v-.74c0-.19.14-.37.37-.37.19,0,.37.14.37.37v.74h.37c.19,0,.28.14.28.28,0,.19-.14.28-.28.28h-.37v1.72c0,.23-.19.37-.37.37h0"/>
      <path id="Trazado_14807" data-name="Trazado 14807" class="cls-2" d="M27.79,22.86c.19,0,.37.14.37.37h0v1.16c0,.33.14.56.47.56.37,0,.51-.28.51-.65v-1.07c0-.19.14-.37.33-.37s.37.14.37.33v2.05c0,.19-.14.37-.33.37s-.37-.14-.37-.33v-.09c-.14.28-.42.42-.74.42-.65,0-.98-.51-.98-1.21v-1.16c0-.23.19-.37.37-.37h0"/>
      <path id="Trazado_14808" data-name="Trazado 14808" class="cls-2" d="M32.63,23.28c.05.09.09.19.09.28,0,.14-.14.28-.28.28h0c-.09,0-.19-.05-.23-.14-.09-.19-.28-.28-.47-.28-.42,0-.61.37-.61.79s.19.79.61.79c.19,0,.37-.09.47-.28.05-.09.14-.14.23-.14.14,0,.28.09.28.28h0c0,.09-.05.19-.09.28-.23.28-.56.47-.93.47-.74-.05-1.35-.7-1.3-1.49.05-.7.61-1.26,1.3-1.3.42,0,.74.14.93.47"/>
      <path id="Trazado_14809" data-name="Trazado 14809" class="cls-2" d="M33.61,22.49c-.23,0-.42-.19-.42-.42s.19-.42.42-.42.42.19.42.42c0,.23-.19.42-.42.42t0,0M33.61,25.56c-.19,0-.37-.14-.37-.37h0v-2c0-.19.14-.37.37-.37.19,0,.37.14.37.37v2c0,.23-.14.37-.37.37t0,0"/>
      <path id="Trazado_14810" data-name="Trazado 14810" class="cls-2" d="M35.84,25.6c-.74.05-1.44-.51-1.49-1.3-.05-.74.51-1.44,1.3-1.49.74-.05,1.44.51,1.49,1.3v.09c.05.7-.51,1.35-1.21,1.4h-.09M35.84,23.42c-.37,0-.61.37-.61.79s.19.79.61.79c.37,0,.61-.37.61-.79s-.19-.79-.61-.79"/>
      <path id="Trazado_14811" data-name="Trazado 14811" class="cls-2" d="M39.8,25.56c-.19,0-.37-.14-.37-.37h0v-1.16c0-.33-.14-.61-.47-.61-.37,0-.51.28-.51.65v1.07c0,.19-.14.37-.37.37-.19,0-.37-.14-.37-.37h0v-2c0-.19.14-.37.37-.37.19,0,.37.14.37.37v.05c.14-.28.42-.42.74-.42.65,0,.98.51.98,1.21v1.16c0,.28-.19.42-.37.42h0"/>
      <path id="Trazado_14812" data-name="Trazado 14812" class="cls-2" d="M42.73,25.56c-.19,0-.33-.14-.37-.33v-.05h0c-.14.23-.42.42-.74.37-.47.05-.84-.28-.88-.7v-.09c0-.51.42-.79.93-.79.23,0,.47.09.65.23v-.23c.05-.28-.14-.51-.42-.56h-.14c-.14,0-.23,0-.37.05-.09.05-.19.05-.33.09-.14,0-.28-.09-.28-.28h0c0-.19.19-.28.37-.37.23-.05.42-.09.65-.09.79,0,1.21.42,1.21,1.16v1.26c0,.19-.09.33-.28.37v-.05M42.36,24.77c0-.19-.23-.33-.47-.33s-.47.14-.47.33.19.33.47.33c.23,0,.47-.14.47-.33"/>
      <path id="Trazado_14813" data-name="Trazado 14813" class="cls-2" d="M47.62,22.81c.28,0,.56.14.74.42v-1.44c0-.19.14-.37.37-.37.19,0,.37.14.37.37v3.4c0,.19-.14.37-.33.37h0c-.19,0-.33-.14-.33-.33h0v-.09c-.14.28-.42.47-.74.47-.74,0-1.16-.65-1.16-1.4s.33-1.4,1.07-1.4M47.76,25c.37,0,.56-.37.56-.79s-.19-.79-.56-.79-.61.33-.61.79c0,.47.23.79.61.79"/>
      <path id="Trazado_14814" data-name="Trazado 14814" class="cls-2" d="M52.04,24.21c0,.14-.09.23-.23.23h-1.49c0,.33.23.56.56.61h.05c.19,0,.37-.05.51-.19.05-.09.19-.14.28-.14.14,0,.28.09.28.23h0c0,.14-.09.23-.19.33-.23.19-.56.28-.88.28-.7,0-1.3-.51-1.3-1.21v-.14c-.05-.7.47-1.35,1.16-1.4h.09c.74,0,1.16.61,1.16,1.4M50.88,23.37c-.28,0-.47.23-.51.56h1.02c-.05-.33-.23-.56-.51-.56"/>
      <path id="Trazado_14815" data-name="Trazado 14815" class="cls-2" d="M55.07,24.39l.93-2.7c.05-.14.19-.28.33-.23.19,0,.33.14.33.28v.05s0,.09-.05.14l-1.26,3.44c-.05.14-.19.23-.33.23s-.28-.09-.33-.23l-1.26-3.44s0-.09-.05-.14c0-.19.14-.33.33-.33.14,0,.28.09.33.28l1.02,2.65Z"/>
      <path id="Trazado_14816" data-name="Trazado 14816" class="cls-2" d="M58.61,25.56c-.19,0-.33-.14-.37-.33v-.05h0c-.14.23-.42.42-.7.37-.47.05-.84-.28-.88-.7v-.09c0-.51.42-.79.93-.79.23,0,.47.09.65.23v-.23c.05-.28-.14-.51-.42-.56h-.14c-.14,0-.23,0-.37.05-.09.05-.19.05-.33.09-.14,0-.28-.09-.28-.28h0c0-.19.19-.28.37-.37.23-.05.42-.09.65-.09.79,0,1.21.42,1.21,1.16v1.26c0,.19-.09.33-.28.37t-.05-.05M58.23,24.77c0-.19-.23-.33-.47-.33s-.42.14-.42.33.19.33.42.33c.28,0,.47-.14.47-.33"/>
      <path id="Trazado_14817" data-name="Trazado 14817" class="cls-2" d="M60.05,25.56c-.19,0-.37-.14-.37-.37h0v-3.44c0-.19.14-.37.37-.37.19,0,.37.14.37.37v3.44c-.05.23-.19.37-.37.37h0"/>
      <path id="Trazado_14818" data-name="Trazado 14818" class="cls-2" d="M44.13,25.56c-.19,0-.37-.14-.37-.37h0v-3.44c0-.19.14-.37.37-.37s.37.14.37.37h0v3.44c0,.23-.14.37-.37.37h0"/>
      <path id="Trazado_14819" data-name="Trazado 14819" class="cls-2" d="M62.24,25.6c-.74.05-1.44-.51-1.49-1.3-.05-.74.51-1.44,1.3-1.49.74-.05,1.44.51,1.49,1.3v.09c.05.7-.51,1.35-1.21,1.4h-.09M62.24,23.42c-.37,0-.61.37-.61.79s.19.79.61.79.61-.37.61-.79-.19-.79-.61-.79"/>
      <path id="Trazado_14820" data-name="Trazado 14820" class="cls-2" d="M65.4,23.46c-.37,0-.56.28-.56.74v.98c0,.19-.14.37-.37.37s-.37-.14-.37-.37h0v-2c0-.19.14-.37.37-.37.19,0,.37.14.37.37v.09c.05-.28.28-.47.56-.47.19,0,.33.09.33.28v.05c0,.19-.09.33-.28.33h-.05"/>
      <path id="Trazado_14821" data-name="Trazado 14821" class="cls-2" d="M68.29,24.21c0,.14-.09.23-.23.23h-1.49c0,.33.23.56.56.61h.05c.19,0,.37-.05.51-.19.05-.09.19-.14.28-.14.14,0,.28.09.28.23h0c0,.14-.09.23-.19.33-.23.19-.56.28-.88.28-.7,0-1.3-.51-1.3-1.21v-.14c-.05-.7.47-1.35,1.16-1.4h.09c.74,0,1.16.61,1.16,1.4M67.12,23.37c-.28,0-.47.23-.51.56h1.02c-.05-.33-.23-.56-.51-.56"/>
      <path id="Trazado_14822" data-name="Trazado 14822" class="cls-2" d="M69.69,25.6c-.33,0-.61-.09-.88-.28-.09-.09-.14-.19-.14-.28,0-.14.09-.23.23-.23h0c.09,0,.19.05.23.09.14.14.33.19.56.19s.33-.09.33-.23-.14-.23-.42-.33c-.7-.19-.98-.47-.98-.93,0-.51.51-.79,1.02-.79.23,0,.47.05.65.14s.33.23.33.37-.09.23-.23.28h-.05c-.09,0-.19-.05-.23-.09-.14-.09-.33-.14-.51-.14s-.33.05-.33.19.09.23.47.33c.65.19.93.37.93.88.09.47-.28.84-.98.84"/>
    </g>
    <g>
      <path id="Trazado_14824" data-name="Trazado 14824" class="cls-2" d="M41.71,17.46c-.7,0-1.35-.37-1.63-1.02l-6.56-13.13c-.47-.93-.09-2,.84-2.47s2-.09,2.47.84h0l4.93,9.87,4.93-9.87c.47-.88,1.58-1.26,2.47-.79s1.26,1.54.79,2.42l-6.56,13.13c-.37.61-.98,1.02-1.68,1.02"/>
      <path id="Trazado_14825" data-name="Trazado 14825" class="cls-2" d="M24.11,17.46c-1.02,0-1.86-.84-1.86-1.86h0V2.47c0-1.02.79-1.86,1.82-1.86s1.86.79,1.86,1.82v13.22c0,.98-.84,1.82-1.82,1.82h0"/>
      <path id="Trazado_14826" data-name="Trazado 14826" class="cls-2" d="M7.82,14.11c1.58,0,2.56-.56,2.56-1.77v-.05c0-1.12-.84-1.77-2.7-1.77H3.49v3.63h4.33v-.05ZM6.84,7.45c1.58,0,2.61-.51,2.61-1.72v-.05c0-1.07-.84-1.68-2.37-1.68h-3.58v3.49l3.35-.05ZM0,2.61C0,1.63.79.79,1.77.79h5.87c1.86,0,3.35.51,4.28,1.44.74.74,1.16,1.77,1.12,2.79v.05c.05,1.49-.79,2.89-2.14,3.54,1.91.74,3.07,1.82,3.07,4.05v.05c0,3.03-2.42,4.52-6.14,4.52H1.82c-.98,0-1.82-.79-1.82-1.77V2.61Z"/>
    </g>
  </g>
</svg>