<?xml version="1.0" encoding="UTF-8"?>
<svg id="Layer_1" xmlns="http://www.w3.org/2000/svg" version="1.1" viewBox="0 0 151.83 53.71">
  <!-- Generator: Adobe Illustrator 29.1.0, SVG Export Plug-In . SVG Version: 2.1.0 Build 142)  -->
  <defs>
    <style>
      .st0 {
        fill: #00a1ed;
      }

      .st1 {
        fill: #56575a;
      }
    </style>
  </defs>
  <path id="Trazado_14823" class="st0" d="M147.7,36.2c-1.5,0-2.9-.8-3.5-2.2l-10.6-21.2-10.6,21.2c-1,1.9-3.4,2.7-5.3,1.7-1.9-1-2.7-3.3-1.7-5.2l14.1-28.2c1-2,3.3-2.7,5.3-1.8.8.4,1.4,1,1.8,1.8l14.1,28.2c1,2,.2,4.3-1.8,5.3-.6.2-1.2.4-1.8.4"/>
  <g>
    <g>
      <path id="Trazado_14796" class="st1" d="M3.6,53.5H1c-.4,0-.8-.4-.8-.8v-7.1c0-.4.3-.8.8-.8h2.4c1.7,0,2.7.9,2.7,2.2,0,.9-.6,1.6-1.4,1.9,1.1.1,1.9,1,1.9,2.1,0,1.4-1,2.5-3,2.5M3.4,46.2h-1.6v2.1h1.6c.6,0,1.1-.4,1.1-.9v-.1c0-.6-.4-1-1-1.1h-.1M1.8,52.1h1.8c.9,0,1.4-.5,1.4-1.2s-.6-1.2-1.3-1.2h-1.9v2.4Z"/>
      <path id="Trazado_14797" class="st1" d="M10.1,53.7c-1.6.1-3.1-1.1-3.2-2.8-.1-1.7,1.1-3.1,2.8-3.2,1.6-.1,3.1,1.1,3.2,2.8v.2c.1,1.5-1.1,2.9-2.6,3h-.2M10.1,49c-.8,0-1.3.8-1.3,1.7s.4,1.7,1.3,1.7c.8,0,1.3-.8,1.3-1.7s-.4-1.7-1.3-1.7"/>
      <path id="Trazado_14798" class="st1" d="M14.9,53.6c-.4,0-.8-.3-.8-.8h0v-7.4c0-.4.3-.8.8-.8s.8.3.8.8v7.4c0,.5-.4.8-.8.8h0"/>
      <path id="Trazado_14799" class="st1" d="M19.1,53.7c-.7,0-1.3-.2-1.9-.6-.2-.2-.3-.4-.3-.6,0-.3.2-.5.5-.5h0c.2,0,.4.1.5.2.3.3.7.4,1.1.4.5,0,.7-.2.7-.5s-.3-.5-.9-.7c-1.5-.4-2.1-1-2.1-2,0-1.1,1.1-1.7,2.2-1.7.5,0,1,.1,1.4.3s.7.5.7.8-.2.5-.5.6h-.1c-.2,0-.4-.1-.5-.2-.3-.2-.7-.3-1.1-.3s-.7.1-.7.4.2.5,1,.7c1.4.4,2,.8,2,1.9.3,1-.5,1.8-2,1.8"/>
      <path id="Trazado_14800" class="st1" d="M26.6,53.6c-.4,0-.7-.3-.8-.7v-.1h0c-.3.5-.9.9-1.6.8-1,.1-1.8-.6-1.9-1.5v-.2c0-1.1.9-1.7,2-1.7.5,0,1.1.2,1.4.5v-.5c.1-.6-.3-1.1-.9-1.2h-.3c-.3,0-.5,0-.8.1-.2.1-.4.1-.7.2-.3,0-.6-.2-.6-.6h0c0-.4.4-.6.8-.8.5-.1.9-.2,1.4-.2,1.7,0,2.6.9,2.6,2.5v2.7c.2.3-.1.7-.6.7h0M25.8,51.9c0-.4-.5-.7-1-.7s-1,.3-1,.7.4.7,1,.7c.5,0,1-.3,1-.7"/>
      <path id="Trazado_14801" class="st1" d="M33.7,52.8c0,.4-.4.8-.8.8s-.7-.3-.8-.8v-7.3c0-.4.3-.8.8-.8.4,0,.8.3.8.8v7.3Z"/>
      <path id="Trazado_14802" class="st1" d="M39.9,53.6c-.4,0-.8-.3-.8-.8h0v-2.5c0-.7-.3-1.3-1-1.3-.8,0-1.1.6-1.1,1.4v2.3c0,.4-.3.8-.8.8-.4,0-.8-.3-.8-.8v-4.3c0-.4.3-.8.8-.8.4,0,.8.3.8.8v.1c.3-.6.9-.9,1.6-.9,1.4,0,2.1,1.1,2.1,2.6v2.5c0,.6-.4.9-.8.9h0"/>
      <path id="Trazado_14803" class="st1" d="M44,53.7c-.7,0-1.3-.2-1.9-.6-.2-.2-.3-.4-.3-.6,0-.3.2-.5.5-.5h0c.2,0,.4.1.5.2.3.3.7.4,1.1.4.5,0,.7-.2.7-.5s-.3-.5-.9-.7c-1.5-.4-2.1-1-2.1-2,0-1.1,1.1-1.7,2.2-1.7.5,0,1,.1,1.4.3s.7.5.7.8-.2.6-.5.6h-.1c-.2,0-.4-.1-.5-.2-.3-.2-.7-.3-1.1-.3s-.7.1-.7.4.2.5,1,.7c1.4.4,2,.8,2,1.9.3,1-.4,1.8-2,1.8"/>
      <path id="Trazado_14804" class="st1" d="M48.8,53.6c-.4,0-.8-.3-.8-.7h0v-3.7h-.6c-.4,0-.7-.3-.7-.6s.3-.7.6-.7h.7v-1.6c0-.4.3-.8.8-.8.4,0,.8.3.8.8v1.6h.8c.4,0,.6.3.6.6s-.3.6-.6.6h-.8v3.7c-.1.5-.4.8-.8.8h0"/>
      <path id="Trazado_14805" class="st1" d="M52.5,47c-.5,0-.9-.4-.9-.9s.4-.9.9-.9.9.4.9.9c-.1.5-.5.9-.9.9h0M52.5,53.6c-.4,0-.8-.3-.8-.8h0v-4.3c0-.4.4-.8.8-.7.4,0,.7.3.7.7v4.3c0,.5-.3.8-.7.8h0"/>
      <path id="Trazado_14806" class="st1" d="M56.1,53.6c-.4,0-.8-.3-.8-.7h0v-3.7h-.6c-.4,0-.7-.3-.7-.6s.3-.7.6-.7h.7v-1.6c0-.4.3-.8.8-.8.4,0,.8.3.8.8v1.6h.8c.4,0,.6.3.6.6,0,.4-.3.6-.6.6h-.8v3.7c0,.5-.4.8-.8.8h0"/>
      <path id="Trazado_14807" class="st1" d="M59.7,47.8c.4,0,.8.3.8.8h0v2.5c0,.7.3,1.2,1,1.2.8,0,1.1-.6,1.1-1.4v-2.3c0-.4.3-.8.7-.8s.8.3.8.7v4.4c0,.4-.3.8-.7.8s-.8-.3-.8-.7v-.2c-.3.6-.9.9-1.6.9-1.4,0-2.1-1.1-2.1-2.6v-2.5c0-.5.4-.8.8-.8h0"/>
      <path id="Trazado_14808" class="st1" d="M70.1,48.7c.1.2.2.4.2.6,0,.3-.3.6-.6.6h0c-.2,0-.4-.1-.5-.3-.2-.4-.6-.6-1-.6-.9,0-1.3.8-1.3,1.7s.4,1.7,1.3,1.7c.4,0,.8-.2,1-.6.1-.2.3-.3.5-.3.3,0,.6.2.6.6h0c0,.2-.1.4-.2.6-.5.6-1.2,1-2,1-1.6-.1-2.9-1.5-2.8-3.2.1-1.5,1.3-2.7,2.8-2.8.9,0,1.6.3,2,1"/>
      <path id="Trazado_14809" class="st1" d="M72.2,47c-.5,0-.9-.4-.9-.9s.4-.9.9-.9.9.4.9.9c0,.5-.4.9-.9.9q.1,0,0,0M72.2,53.6c-.4,0-.8-.3-.8-.8h0v-4.3c0-.4.3-.8.8-.8.4,0,.8.3.8.8v4.3c0,.5-.3.8-.8.8q.1,0,0,0"/>
      <path id="Trazado_14810" class="st1" d="M77,53.7c-1.6.1-3.1-1.1-3.2-2.8-.1-1.6,1.1-3.1,2.8-3.2,1.6-.1,3.1,1.1,3.2,2.8v.2c.1,1.5-1.1,2.9-2.6,3h-.2M77,49c-.8,0-1.3.8-1.3,1.7s.4,1.7,1.3,1.7c.8,0,1.3-.8,1.3-1.7s-.4-1.7-1.3-1.7"/>
      <path id="Trazado_14811" class="st1" d="M85.5,53.6c-.4,0-.8-.3-.8-.8h0v-2.5c0-.7-.3-1.3-1-1.3-.8,0-1.1.6-1.1,1.4v2.3c0,.4-.3.8-.8.8-.4,0-.8-.3-.8-.8h0v-4.3c0-.4.3-.8.8-.8.4,0,.8.3.8.8v.1c.3-.6.9-.9,1.6-.9,1.4,0,2.1,1.1,2.1,2.6v2.5c0,.6-.4.9-.8.9h0"/>
      <path id="Trazado_14812" class="st1" d="M91.8,53.6c-.4,0-.7-.3-.8-.7v-.1h0c-.3.5-.9.9-1.6.8-1,.1-1.8-.6-1.9-1.5v-.2c0-1.1.9-1.7,2-1.7.5,0,1,.2,1.4.5v-.5c.1-.6-.3-1.1-.9-1.2h-.3c-.3,0-.5,0-.8.1-.2.1-.4.1-.7.2-.3,0-.6-.2-.6-.6h0c0-.4.4-.6.8-.8.5-.1.9-.2,1.4-.2,1.7,0,2.6.9,2.6,2.5v2.7c0,.4-.2.7-.6.8v-.1M91,51.9c0-.4-.5-.7-1-.7s-1,.3-1,.7.4.7,1,.7c.5,0,1-.3,1-.7"/>
      <path id="Trazado_14813" class="st1" d="M102.3,47.7c.6,0,1.2.3,1.6.9v-3.1c0-.4.3-.8.8-.8.4,0,.8.3.8.8v7.3c0,.4-.3.8-.7.8h0c-.4,0-.7-.3-.7-.7h0v-.2c-.3.6-.9,1-1.6,1-1.6,0-2.5-1.4-2.5-3s.7-3,2.3-3M102.6,52.4c.8,0,1.2-.8,1.2-1.7s-.4-1.7-1.2-1.7-1.3.7-1.3,1.7c0,1,.5,1.7,1.3,1.7"/>
      <path id="Trazado_14814" class="st1" d="M111.8,50.7c0,.3-.2.5-.5.5h-3.2c0,.7.5,1.2,1.2,1.3h.1c.4,0,.8-.1,1.1-.4.1-.2.4-.3.6-.3.3,0,.6.2.6.5h0c0,.3-.2.5-.4.7-.5.4-1.2.6-1.9.6-1.5,0-2.8-1.1-2.8-2.6v-.3c-.1-1.5,1-2.9,2.5-3h.2c1.6,0,2.5,1.3,2.5,3M109.3,48.9c-.6,0-1,.5-1.1,1.2h2.2c-.1-.7-.5-1.2-1.1-1.2"/>
      <path id="Trazado_14815" class="st1" d="M118.3,51.1l2-5.8c.1-.3.4-.6.7-.5.4,0,.7.3.7.6v.1c0,.1,0,.2-.1.3l-2.7,7.4c-.1.3-.4.5-.7.5s-.6-.2-.7-.5l-2.7-7.4c0-.1,0-.2-.1-.3,0-.4.3-.7.7-.7.3,0,.6.2.7.6l2.2,5.7Z"/>
      <path id="Trazado_14816" class="st1" d="M125.9,53.6c-.4,0-.7-.3-.8-.7v-.1h0c-.3.5-.9.9-1.5.8-1,.1-1.8-.6-1.9-1.5v-.2c0-1.1.9-1.7,2-1.7.5,0,1,.2,1.4.5v-.5c.1-.6-.3-1.1-.9-1.2h-.3c-.3,0-.5,0-.8.1-.2.1-.4.1-.7.2-.3,0-.6-.2-.6-.6h0c0-.4.4-.6.8-.8.5-.1.9-.2,1.4-.2,1.7,0,2.6.9,2.6,2.5v2.7c0,.4-.2.7-.6.8q0-.1-.1-.1M125.1,51.9c0-.4-.5-.7-1-.7s-.9.3-.9.7.4.7.9.7c.6,0,1-.3,1-.7"/>
      <path id="Trazado_14817" class="st1" d="M129,53.6c-.4,0-.8-.3-.8-.8h0v-7.4c0-.4.3-.8.8-.8.4,0,.8.3.8.8v7.4c-.1.5-.4.8-.8.8h0"/>
      <path id="Trazado_14818" class="st1" d="M94.8,53.6c-.4,0-.8-.3-.8-.8h0v-7.4c0-.4.3-.8.8-.8s.8.3.8.8h0v7.4c0,.5-.3.8-.8.8h0"/>
      <path id="Trazado_14819" class="st1" d="M133.7,53.7c-1.6.1-3.1-1.1-3.2-2.8-.1-1.6,1.1-3.1,2.8-3.2,1.6-.1,3.1,1.1,3.2,2.8v.2c.1,1.5-1.1,2.9-2.6,3h-.2M133.7,49c-.8,0-1.3.8-1.3,1.7s.4,1.7,1.3,1.7,1.3-.8,1.3-1.7-.4-1.7-1.3-1.7"/>
      <path id="Trazado_14820" class="st1" d="M140.5,49.1c-.8,0-1.2.6-1.2,1.6v2.1c0,.4-.3.8-.8.8s-.8-.3-.8-.8h0v-4.3c0-.4.3-.8.8-.8.4,0,.8.3.8.8v.2c.1-.6.6-1,1.2-1,.4,0,.7.2.7.6v.1c0,.4-.2.7-.6.7h-.1"/>
      <path id="Trazado_14821" class="st1" d="M146.7,50.7c0,.3-.2.5-.5.5h-3.2c0,.7.5,1.2,1.2,1.3h.1c.4,0,.8-.1,1.1-.4.1-.2.4-.3.6-.3.3,0,.6.2.6.5h0c0,.3-.2.5-.4.7-.5.4-1.2.6-1.9.6-1.5,0-2.8-1.1-2.8-2.6v-.3c-.1-1.5,1-2.9,2.5-3h.2c1.6,0,2.5,1.3,2.5,3M144.2,48.9c-.6,0-1,.5-1.1,1.2h2.2c-.1-.7-.5-1.2-1.1-1.2"/>
      <path id="Trazado_14822" class="st1" d="M149.7,53.7c-.7,0-1.3-.2-1.9-.6-.2-.2-.3-.4-.3-.6,0-.3.2-.5.5-.5h0c.2,0,.4.1.5.2.3.3.7.4,1.2.4s.7-.2.7-.5-.3-.5-.9-.7c-1.5-.4-2.1-1-2.1-2,0-1.1,1.1-1.7,2.2-1.7.5,0,1,.1,1.4.3s.7.5.7.8-.2.5-.5.6h-.1c-.2,0-.4-.1-.5-.2-.3-.2-.7-.3-1.1-.3s-.7.1-.7.4.2.5,1,.7c1.4.4,2,.8,2,1.9.2,1-.6,1.8-2.1,1.8"/>
    </g>
    <g>
      <path id="Trazado_14824" class="st1" d="M89.6,36.2c-1.5,0-2.9-.8-3.5-2.2l-14.1-28.2c-1-2-.2-4.3,1.8-5.3s4.3-.2,5.3,1.8h0l10.6,21.2,10.6-21.2c1-1.9,3.4-2.7,5.3-1.7s2.7,3.3,1.7,5.2l-14.1,28.2c-.8,1.3-2.1,2.2-3.6,2.2"/>
      <path id="Trazado_14825" class="st1" d="M51.8,36.2c-2.2,0-4-1.8-4-4h0V4c0-2.2,1.7-4,3.9-4s4,1.7,4,3.9v28.4c0,2.1-1.8,3.9-3.9,3.9h0"/>
      <path id="Trazado_14826" class="st1" d="M16.8,29c3.4,0,5.5-1.2,5.5-3.8v-.1c0-2.4-1.8-3.8-5.8-3.8H7.5v7.8h9.3v-.1ZM14.7,14.7c3.4,0,5.6-1.1,5.6-3.7v-.1c0-2.3-1.8-3.6-5.1-3.6h-7.7v7.5l7.2-.1ZM0,4.3C0,2.2,1.7.4,3.8.4h12.6c4,0,7.2,1.1,9.2,3.1,1.6,1.6,2.5,3.8,2.4,6v.1c.1,3.2-1.7,6.2-4.6,7.6,4.1,1.6,6.6,3.9,6.6,8.7v.1c0,6.5-5.2,9.7-13.2,9.7H3.9c-2.1,0-3.9-1.7-3.9-3.8V4.3Z"/>
    </g>
  </g>
</svg>