<?xml version="1.0" encoding="UTF-8"?>
<svg id="Layer_1" xmlns="http://www.w3.org/2000/svg" xmlns:xlink="http://www.w3.org/1999/xlink" version="1.1" viewBox="0 0 425.55 466.73">
  <!-- Generator: Adobe Illustrator 29.1.0, SVG Export Plug-In . SVG Version: 2.1.0 Build 142)  -->
  <defs>
    <style>
      .st0 {
        fill: #fff;
      }

      .st1 {
        fill: url(#Degradado_sin_nombre_31);
      }

      .st1, .st2, .st3, .st4 {
        stroke: #fff;
        stroke-miterlimit: 10;
        stroke-width: .24px;
      }

      .st2 {
        fill: url(#Degradado_sin_nombre_33);
      }

      .st3 {
        fill: url(#Degradado_sin_nombre_32);
      }

      .st4 {
        fill: url(#Degradado_sin_nombre_3);
      }

      .st5 {
        fill: #009ed9;
      }
    </style>
    <linearGradient id="Degradado_sin_nombre_3" data-name="Degradado sin nombre 3" x1="265.28" y1="402.45" x2="281.07" y2="402.45" gradientUnits="userSpaceOnUse">
      <stop offset="0" stop-color="#d0e4ee"/>
      <stop offset=".72" stop-color="#f3f8fa"/>
      <stop offset=".92" stop-color="#fff"/>
    </linearGradient>
    <linearGradient id="Degradado_sin_nombre_31" data-name="Degradado sin nombre 3" x1="352.13" y1="146.64" x2="367.92" y2="146.64" xlink:href="#Degradado_sin_nombre_3"/>
    <linearGradient id="Degradado_sin_nombre_32" data-name="Degradado sin nombre 3" y1="62.96" y2="62.96" xlink:href="#Degradado_sin_nombre_3"/>
    <linearGradient id="Degradado_sin_nombre_33" data-name="Degradado sin nombre 3" x1="352.13" y1="318.76" x2="367.92" y2="318.76" xlink:href="#Degradado_sin_nombre_3"/>
  </defs>
  <g>
    <path class="st0" d="M143.38,227.38c2.02,0,3.56.71,4.63,1.9.48.48.95,1.07,1.9,1.07,1.31,0,2.26-.95,2.26-2.14,0-.59-.36-1.19-.83-1.66-1.66-1.9-4.51-3.33-8.08-3.33-7.37,0-11.29,5.23-11.29,10.81s3.92,10.81,11.29,10.81c3.56,0,6.42-1.43,8.08-3.33.48-.48.83-1.07.83-1.66,0-1.19-.83-2.14-2.26-2.14-.95,0-1.43.59-1.9,1.07-1.19,1.19-2.73,1.9-4.63,1.9-4.16,0-6.3-3.09-6.3-6.53s2.14-6.65,6.3-6.77Z"/>
    <path class="st0" d="M179.97,240.22h-10.1v-4.04h5.58c1.19,0,2.14-.95,2.14-2.14s-.95-2.14-2.14-2.14h-5.58v-3.8h9.74c1.19,0,2.14-.95,2.14-2.14s-.95-2.14-2.14-2.14h-12.24c-1.43,0-2.5,1.19-2.5,2.5v15.68c0,1.43,1.19,2.49,2.5,2.49h12.59c1.19,0,2.14-.95,2.14-2.14s-.95-2.14-2.14-2.14Z"/>
    <path class="st0" d="M211.1,223.46c-1.31,0-2.38,1.07-2.38,2.38v10.81l-10.57-12.24c-.59-.59-1.19-.95-1.9-.95-1.54,0-2.38,1.19-2.38,2.38v16.52c0,1.31,1.07,2.38,2.38,2.38s2.38-1.07,2.38-2.38v-10.57l10.69,12.12c.48.59.95.83,1.78.83,1.54,0,2.38-1.19,2.38-2.38v-16.52c0-1.31-1.07-2.38-2.38-2.38Z"/>
    <path class="st0" d="M236.29,227.38c2.02,0,3.56.71,4.63,1.9.36.48.95,1.07,1.9,1.07,1.31,0,2.26-.95,2.26-2.14,0-.59-.36-1.19-.83-1.66-1.66-1.9-4.52-3.33-8.08-3.33-7.37,0-11.29,5.23-11.29,10.81s3.92,10.81,11.29,10.81c3.56,0,6.42-1.43,8.08-3.33.48-.48.83-1.07.83-1.66,0-1.19-.83-2.14-2.26-2.14-.95,0-1.43.59-1.9,1.07-1.19,1.19-2.73,1.9-4.63,1.9-4.16,0-6.3-3.09-6.3-6.53s2.14-6.65,6.3-6.77Z"/>
    <path class="st0" d="M266.94,223.22c-6.77,0-11.17,4.63-11.17,10.81s4.4,10.81,11.17,10.81,11.17-4.52,11.17-10.81-4.4-10.81-11.17-10.81ZM266.94,240.69c-3.92,0-6.3-2.85-6.3-6.53s2.5-6.53,6.3-6.53,6.3,2.73,6.3,6.53-2.5,6.53-6.3,6.53Z"/>
    <path class="st0" d="M305.44,235.94c2.73-1.07,3.92-3.21,3.92-5.7,0-3.56-2.5-6.42-8.32-6.42h-8.67c-1.43,0-2.5,1.19-2.5,2.5v15.92c0,1.43,1.19,2.5,2.5,2.5,1.43,0,2.49-1.19,2.49-2.5v-5.58h5.7l3.8,6.89c.36.71,1.07,1.19,2.14,1.19,1.31,0,2.26-1.07,2.26-2.26,0-.48-.12-.83-.36-1.19l-2.97-5.35ZM301.88,232.61h-7.01v-4.75h7.01c1.9,0,2.73,1.19,2.73,2.38,0,1.07-.83,2.38-2.73,2.38Z"/>
    <path class="st0" d="M108.68,218.95l-18.06-10.46s0,0,0,0l-1.42-.32v9.45l12.95,7.43s0,0,0,0c0,0,0,0,0,0,.06.03.11.08.16.12.03.02.06.04.09.07.04.04.06.08.1.12.03.04.07.08.09.12.02.04.03.08.05.11.03.06.06.11.07.17.01.04,0,.08.02.12,0,.06.02.12.02.18h0v15.81c0,.42-.23.82-.59,1.03l-12.96,7.5-.11,9.54c.57-.1,1.1-.27,1.54-.49l18.06-10.57c.89-.52,1.69-1.5,2.16-2.57.28-.64.45-1.32.45-1.94v-20.91c0-.21-.02-.42-.05-.64-.25-1.51-1.31-3.15-2.56-3.88Z"/>
    <path class="st0" d="M73.15,241.88v-15.8c0-.08.02-.16.03-.24,0-.02,0-.04,0-.06.02-.09.06-.17.11-.25,0,0,0-.02.01-.03.05-.08.11-.16.18-.23,0,0,0,0,0-.01.07-.07.16-.14.25-.19l13.07-7.57v-9.46c-.52.1-1,.26-1.41.46,0,0-.01,0-.02,0l-18.18,10.46c-1.25.73-2.31,2.37-2.56,3.88-.04.22-.05.43-.05.64v20.91c0,.62.17,1.3.45,1.94.47,1.07,1.27,2.05,2.16,2.57l18.06,10.46c.44.22.98.39,1.54.49v-9.42l-13.07-7.5c-.37-.21-.6-.6-.6-1.03Z"/>
    <polygon class="st0" points="75.53 241.19 86.82 247.67 86.82 234.61 75.53 228.13 75.53 241.19"/>
    <polygon class="st0" points="100.48 241.19 100.48 228.07 89.19 234.6 89.19 247.67 100.48 241.19"/>
    <polygon class="st0" points="88.01 219.6 76.73 226.08 88 232.55 99.23 226.05 88.01 219.6"/>
  </g>
  <path class="st5" d="M182.8,87.4v-22.07c-86.6,3.8-156.1,73.31-159.91,159.91h22.07c3.76-74.41,63.43-134.07,137.83-137.83Z"/>
  <path class="st5" d="M335.58,225.23h22.07c-3.77-85.88-72.17-154.96-157.77-159.8v22.13c73.41,4.79,131.97,63.98,135.7,137.67Z"/>
  <path class="st5" d="M45.13,242.31h-22.13c4.84,85.6,73.92,154,159.8,157.77v-22.07c-73.69-3.73-132.88-62.29-137.67-135.7Z"/>
  <path class="st5" d="M199.88,377.84v22.13c84.89-4.8,152.87-72.78,157.67-157.67h-22.13c-4.74,72.69-62.84,130.79-135.54,135.54Z"/>
  <path class="st0" d="M170.82,421.99c-46.62-4.73-89.73-26.52-121.39-61.36C17.55,325.57,0,280.13,0,232.7s17.55-92.87,49.43-127.94c31.66-34.83,74.77-56.62,121.39-61.36l.16,1.57c-46.23,4.7-88.99,26.3-120.38,60.85C18.99,140.61,1.58,185.67,1.58,232.7s17.41,92.09,49.02,126.87c31.39,34.54,74.15,56.15,120.38,60.85l-.16,1.57Z"/>
  <g>
    <path class="st0" d="M191.97,422.97v-1.58c50.03-.44,97.02-20.26,132.28-55.81,35.28-35.58,54.72-82.76,54.72-132.87s-19.43-97.3-54.72-132.87c-35.26-35.55-82.25-55.38-132.29-55.81v-1.58c50.48.44,97.86,20.43,133.42,56.28,35.58,35.87,55.17,83.46,55.17,133.99s-19.59,98.11-55.17,133.99c-35.56,35.85-82.93,55.84-133.4,56.28Z"/>
    <path class="st0" d="M192.01,45.04c-.98-.02-1.76-.84-1.74-1.83.02-.98.84-1.76,1.83-1.74.98.02,1.76.84,1.74,1.83-.02.98-.84,1.76-1.83,1.74Z"/>
    <path class="st0" d="M192.01,420.36c-.98.02-1.76.84-1.74,1.83.02.98.84,1.76,1.83,1.74.98-.02,1.76-.84,1.74-1.83-.02-.98-.84-1.76-1.83-1.74Z"/>
  </g>
  <path class="st0" d="M190.27,392.07c-87.87,0-159.37-71.49-159.37-159.37S102.4,73.34,190.27,73.34s159.37,71.49,159.37,159.37-71.49,159.37-159.37,159.37ZM190.27,78.07c-85.26,0-154.63,69.37-154.63,154.63s69.37,154.63,154.63,154.63,154.63-69.37,154.63-154.63-69.37-154.63-154.63-154.63Z"/>
  <circle class="st4" cx="273.17" cy="402.45" r="7.9"/>
  <circle class="st1" cx="360.02" cy="146.64" r="7.9"/>
  <circle class="st3" cx="273.17" cy="62.96" r="7.9"/>
  <circle class="st2" cx="360.02" cy="318.76" r="7.9"/>
  <path class="st0" d="M310.88,465.16c0-.88.7-1.58,1.58-1.58h0c.87,0,1.58.7,1.58,1.58h0c0,.87-.71,1.57-1.58,1.57h0c-.88,0-1.58-.7-1.58-1.57ZM299.82,465.16c0-.88.71-1.58,1.58-1.58h0c.88,0,1.58.7,1.58,1.58h0c0,.87-.7,1.57-1.58,1.57h0c-.87,0-1.58-.7-1.58-1.57ZM288.77,465.16c0-.88.71-1.58,1.58-1.58h0c.87,0,1.58.7,1.58,1.58h0c0,.87-.71,1.57-1.58,1.57h0c-.87,0-1.58-.7-1.58-1.57ZM278.87,464.37h0c-.75-.45-.99-1.42-.55-2.17h0c.44-.75,1.41-.99,2.16-.55h0c.75.45,1,1.41.56,2.16h0c-.3.5-.83.78-1.37.78h0c-.27,0-.55-.07-.8-.22ZM272.39,454.15c-.03-.88.66-1.6,1.53-1.62h0c.87-.03,1.6.66,1.62,1.53h0c.03.87-.66,1.6-1.53,1.62h-.05c-.85,0-1.55-.68-1.57-1.53ZM272.38,443.05c0-.87.71-1.58,1.58-1.58h0c.87,0,1.58.71,1.58,1.58h0c0,.87-.71,1.58-1.58,1.58h0c-.87,0-1.58-.71-1.58-1.58ZM272.38,432c0-.88.71-1.58,1.58-1.58h0c.87,0,1.58.7,1.58,1.58h0c0,.87-.71,1.57-1.58,1.57h0c-.87,0-1.58-.7-1.58-1.57ZM272.38,420.94c0-.87.71-1.58,1.58-1.58h0c.87,0,1.58.71,1.58,1.58h0c0,.88-.71,1.58-1.58,1.58h0c-.87,0-1.58-.7-1.58-1.58Z"/>
  <path class="st0" d="M272.9,43.55c0-.87.71-1.58,1.58-1.58h0c.88,0,1.58.71,1.58,1.58h0c0,.88-.7,1.58-1.58,1.58h0c-.87,0-1.58-.7-1.58-1.58ZM272.9,32.5c0-.87.71-1.58,1.58-1.58h0c.88,0,1.58.71,1.58,1.58h0c0,.87-.7,1.58-1.58,1.58h0c-.87,0-1.58-.71-1.58-1.58ZM272.9,21.45c0-.88.71-1.58,1.58-1.58h0c.88,0,1.58.7,1.58,1.58h0c0,.87-.7,1.57-1.58,1.57h0c-.87,0-1.58-.7-1.58-1.57ZM274.4,11.95c-.84-.23-1.34-1.09-1.11-1.94h0c.22-.84,1.09-1.34,1.93-1.11h0c.84.23,1.34,1.09,1.12,1.93h0c-.19.71-.83,1.17-1.53,1.17h0c-.13,0-.27-.01-.41-.05ZM280.71,3.3c-.32-.8.07-1.72.88-2.05h0c.81-.33,1.73.07,2.05.88h0c.33.8-.07,1.72-.87,2.05h0c-.2.08-.39.11-.59.11h0c-.63,0-1.22-.37-1.47-.99ZM313.61,1.58c0-.87.71-1.58,1.58-1.58h0c.88,0,1.58.71,1.58,1.58h0c0,.88-.7,1.58-1.58,1.58h0c-.87,0-1.58-.7-1.58-1.58ZM302.56,1.58c0-.87.71-1.58,1.58-1.58h0c.87,0,1.58.71,1.58,1.58h0c0,.88-.71,1.58-1.58,1.58h0c-.87,0-1.58-.7-1.58-1.58ZM291.51,1.58c0-.87.7-1.58,1.58-1.58h0c.87,0,1.58.71,1.58,1.58h0c0,.88-.71,1.58-1.58,1.58h0c-.88,0-1.58-.7-1.58-1.58Z"/>
  <path class="st0" d="M422.39,147.77c0-.87.71-1.58,1.58-1.58h0c.87,0,1.58.71,1.58,1.58h0c0,.87-.71,1.58-1.58,1.58h0c-.87,0-1.58-.71-1.58-1.58ZM411.34,147.77c0-.87.7-1.58,1.58-1.58h0c.87,0,1.58.71,1.58,1.58h0c0,.87-.71,1.58-1.58,1.58h0c-.88,0-1.58-.71-1.58-1.58ZM400.29,147.77c0-.87.7-1.58,1.57-1.58h0c.88,0,1.58.71,1.58,1.58h0c0,.87-.7,1.58-1.58,1.58h0c-.87,0-1.57-.71-1.57-1.58ZM389.23,147.77c0-.87.71-1.58,1.58-1.58h0c.87,0,1.58.71,1.58,1.58h0c0,.87-.71,1.58-1.58,1.58h0c-.87,0-1.58-.71-1.58-1.58ZM378.18,147.77c0-.87.7-1.58,1.58-1.58h0c.87,0,1.58.71,1.58,1.58h0c0,.87-.71,1.58-1.58,1.58h0c-.88,0-1.58-.71-1.58-1.58Z"/>
  <path class="st0" d="M422.39,318.31c0-.88.71-1.58,1.58-1.58h0c.87,0,1.58.7,1.58,1.58h0c0,.87-.71,1.57-1.58,1.57h0c-.87,0-1.58-.7-1.58-1.57ZM411.34,318.31c0-.88.7-1.58,1.58-1.58h0c.87,0,1.58.7,1.58,1.58h0c0,.87-.71,1.57-1.58,1.57h0c-.88,0-1.58-.7-1.58-1.57ZM400.29,318.31c0-.88.7-1.58,1.57-1.58h0c.88,0,1.58.7,1.58,1.58h0c0,.87-.7,1.57-1.58,1.57h0c-.87,0-1.57-.7-1.57-1.57ZM389.23,318.31c0-.88.71-1.58,1.58-1.58h0c.87,0,1.58.7,1.58,1.58h0c0,.87-.71,1.57-1.58,1.57h0c-.87,0-1.58-.7-1.58-1.57ZM378.18,318.31c0-.88.7-1.58,1.58-1.58h0c.87,0,1.58.7,1.58,1.58h0c0,.87-.71,1.57-1.58,1.57h0c-.88,0-1.58-.7-1.58-1.57Z"/>
</svg>