<?xml version="1.0" encoding="UTF-8"?>
<svg id="Layer_1" xmlns="http://www.w3.org/2000/svg" version="1.1" viewBox="0 0 412.42 120.16">
  <!-- Generator: Adobe Illustrator 29.1.0, SVG Export Plug-In . SVG Version: 2.1.0 Build 142)  -->
  <defs>
    <style>
      .st0 {
        fill: #161b4e;
      }

      .st1 {
        fill: #fff;
      }

      .st2 {
        fill: #009ed9;
      }
    </style>
  </defs>
  <path class="st0" d="M71.76,11.66h296.45c24.4,0,44.21,19.81,44.21,44.21v.79c0,24.4-19.81,44.21-44.21,44.21H71.76V11.66h0Z"/>
  <g>
    <path class="st1" d="M274.19,58.82c-.44.42-1.11.64-2.01.64h-1.48v3.22h-1.01v-7.7h2.49c.87,0,1.53.21,1.98.63s.68.96.68,1.62-.22,1.17-.66,1.6ZM273.41,58.27c.27-.25.4-.61.4-1.06s-.13-.82-.4-1.08c-.27-.25-.68-.38-1.24-.38h-1.48v2.9h1.48c.55,0,.96-.13,1.23-.38Z"/>
    <path class="st1" d="M277.86,56.83c.33-.22.73-.33,1.2-.33v1.04h-.26c-1.13,0-1.69.61-1.69,1.83v3.29h-1.01v-6.06h1.01v1.15c.18-.4.43-.71.76-.93Z"/>
    <path class="st1" d="M281.32,62.38c-.46-.26-.82-.62-1.08-1.1-.26-.48-.39-1.03-.39-1.65s.13-1.17.4-1.64c.27-.48.63-.84,1.1-1.09.46-.25.98-.38,1.56-.38s1.09.13,1.56.38c.46.25.83.62,1.1,1.09.27.47.4,1.02.4,1.65s-.14,1.18-.42,1.65c-.28.47-.65.84-1.12,1.1-.47.26-1,.39-1.57.39s-1.08-.13-1.54-.39ZM283.88,61.66c.32-.17.57-.43.77-.78.2-.35.29-.76.29-1.25s-.1-.9-.29-1.24-.44-.6-.75-.77c-.31-.17-.64-.25-1.01-.25s-.71.08-1.01.25c-.31.17-.55.43-.74.77s-.28.76-.28,1.24.09.91.27,1.25.42.6.72.77c.3.17.63.26.99.26s.7-.09,1.02-.26Z"/>
    <path class="st1" d="M289.55,61.72l1.88-5.11h1.08l-2.38,6.06h-1.18l-2.38-6.06h1.08l1.89,5.11Z"/>
    <path class="st1" d="M298.99,59.98h-4.84c.03.6.23,1.07.6,1.41.37.35.83.52,1.37.52.43,0,.8-.1,1.09-.3.29-.2.5-.47.61-.81h1.08c-.16.58-.49,1.06-.97,1.42-.49.36-1.09.55-1.81.55-.57,0-1.09-.13-1.54-.39s-.81-.62-1.07-1.1c-.26-.48-.39-1.03-.39-1.65s.12-1.17.38-1.65c.25-.47.6-.83,1.06-1.09s.97-.38,1.56-.38,1.08.12,1.52.38c.44.25.78.59,1.02,1.03s.36.92.36,1.47c0,.18-.01.38-.03.6ZM297.73,58.23c-.17-.28-.4-.5-.69-.65-.29-.15-.61-.22-.97-.22-.52,0-.95.17-1.32.5-.36.34-.56.8-.6,1.39h3.82c0-.4-.08-.74-.25-1.02Z"/>
    <path class="st1" d="M305.84,59.98h-4.84c.03.6.23,1.07.6,1.41.37.35.83.52,1.37.52.43,0,.8-.1,1.09-.3.29-.2.5-.47.61-.81h1.08c-.16.58-.49,1.06-.97,1.42-.49.36-1.09.55-1.81.55-.58,0-1.09-.13-1.54-.39s-.81-.62-1.07-1.1c-.26-.48-.39-1.03-.39-1.65s.13-1.17.38-1.65c.25-.47.6-.83,1.06-1.09s.97-.38,1.56-.38,1.08.12,1.52.38c.44.25.78.59,1.02,1.03s.37.92.37,1.47c0,.18-.01.38-.03.6ZM304.58,58.23c-.17-.28-.4-.5-.69-.65-.29-.15-.61-.22-.97-.22-.52,0-.95.17-1.31.5-.36.34-.56.8-.6,1.39h3.83c0-.4-.08-.74-.25-1.02Z"/>
    <path class="st1" d="M307.2,57.99c.25-.47.59-.83,1.03-1.09s.93-.39,1.48-.39c.47,0,.91.11,1.32.33.41.22.71.5.93.86v-3.21h1.02v8.18h-1.02v-1.14c-.2.36-.49.66-.88.89-.39.23-.85.35-1.37.35s-1.03-.13-1.46-.4c-.44-.26-.78-.64-1.03-1.12-.25-.48-.38-1.02-.38-1.64s.12-1.16.38-1.63ZM311.67,58.43c-.18-.34-.43-.6-.75-.78-.31-.18-.66-.27-1.03-.27s-.72.09-1.03.26-.56.44-.74.77c-.18.34-.28.74-.28,1.19s.09.87.28,1.21c.18.34.43.6.74.79s.65.27,1.03.27.72-.09,1.03-.27c.31-.18.56-.44.75-.79.18-.34.28-.74.28-1.2s-.09-.85-.28-1.19Z"/>
    <path class="st1" d="M315.77,62.38c-.46-.26-.82-.62-1.08-1.1-.26-.48-.39-1.03-.39-1.65s.13-1.17.4-1.64c.27-.48.63-.84,1.1-1.09.46-.25.98-.38,1.56-.38s1.09.13,1.56.38c.46.25.83.62,1.1,1.09.27.47.4,1.02.4,1.65s-.14,1.18-.42,1.65c-.28.47-.65.84-1.12,1.1-.47.26-1,.39-1.57.39s-1.08-.13-1.54-.39ZM318.33,61.66c.32-.17.57-.43.77-.78.2-.35.29-.76.29-1.25s-.1-.9-.29-1.24-.44-.6-.75-.77c-.31-.17-.64-.25-1.01-.25s-.71.08-1.01.25c-.31.17-.55.43-.74.77s-.28.76-.28,1.24.09.91.27,1.25.42.6.72.77c.3.17.63.26.99.26s.7-.09,1.02-.26Z"/>
    <path class="st1" d="M323.51,56.83c.33-.22.73-.33,1.2-.33v1.04h-.27c-1.13,0-1.69.61-1.69,1.83v3.29h-1.01v-6.06h1.01v1.15c.18-.4.43-.71.76-.93Z"/>
    <path class="st1" d="M329.16,57.99c.25-.47.59-.83,1.03-1.09s.93-.39,1.48-.39c.47,0,.91.11,1.32.33.41.22.71.5.93.86v-3.21h1.02v8.18h-1.02v-1.14c-.2.36-.49.66-.88.89-.39.23-.85.35-1.37.35s-1.03-.13-1.46-.4c-.44-.26-.78-.64-1.03-1.12-.25-.48-.38-1.02-.38-1.64s.12-1.16.38-1.63ZM333.64,58.43c-.18-.34-.43-.6-.75-.78-.31-.18-.66-.27-1.03-.27s-.72.09-1.03.26-.56.44-.74.77c-.18.34-.28.74-.28,1.19s.09.87.28,1.21c.18.34.43.6.74.79s.65.27,1.03.27.72-.09,1.03-.27c.31-.18.56-.44.75-.79.18-.34.28-.74.28-1.2s-.09-.85-.28-1.19Z"/>
    <path class="st1" d="M342.13,59.98h-4.84c.03.6.23,1.07.6,1.41.37.35.83.52,1.37.52.43,0,.8-.1,1.09-.3.29-.2.5-.47.61-.81h1.08c-.16.58-.49,1.06-.97,1.42-.49.36-1.09.55-1.81.55-.58,0-1.09-.13-1.54-.39s-.81-.62-1.07-1.1c-.26-.48-.39-1.03-.39-1.65s.13-1.17.38-1.65c.25-.47.6-.83,1.06-1.09s.97-.38,1.56-.38,1.08.12,1.52.38c.44.25.78.59,1.02,1.03s.37.92.37,1.47c0,.18-.01.38-.03.6ZM340.87,58.23c-.17-.28-.4-.5-.69-.65-.29-.15-.61-.22-.97-.22-.52,0-.95.17-1.31.5-.36.34-.56.8-.6,1.39h3.83c0-.4-.08-.74-.25-1.02Z"/>
    <path class="st1" d="M348.68,56.86c.39-.23.85-.35,1.38-.35s1.03.13,1.46.39.78.62,1.03,1.09c.25.47.38,1.01.38,1.63s-.13,1.16-.38,1.64c-.25.48-.59.85-1.03,1.12-.44.27-.93.4-1.46.4s-.97-.12-1.37-.35c-.39-.23-.69-.52-.9-.87v3.99h-1.01v-8.93h1.01v1.12c.2-.35.5-.64.89-.87ZM351.62,58.42c-.18-.34-.43-.6-.75-.77s-.66-.26-1.03-.26-.71.09-1.02.27-.56.44-.75.79c-.19.34-.28.74-.28,1.19s.09.86.28,1.2c.19.34.44.6.75.79s.65.27,1.02.27.72-.09,1.03-.27.56-.44.75-.79c.18-.34.28-.75.28-1.21s-.09-.85-.28-1.19Z"/>
    <path class="st1" d="M356.02,56.83c.33-.22.73-.33,1.2-.33v1.04h-.27c-1.13,0-1.69.61-1.69,1.83v3.29h-1.01v-6.06h1.01v1.15c.18-.4.43-.71.76-.93Z"/>
    <path class="st1" d="M363.87,59.98h-4.84c.03.6.23,1.07.6,1.41.37.35.83.52,1.37.52.43,0,.8-.1,1.09-.3.29-.2.5-.47.61-.81h1.08c-.16.58-.49,1.06-.97,1.42-.49.36-1.09.55-1.81.55-.57,0-1.09-.13-1.54-.39s-.81-.62-1.07-1.1c-.26-.48-.39-1.03-.39-1.65s.12-1.17.38-1.65c.25-.47.6-.83,1.06-1.09s.97-.38,1.56-.38,1.08.12,1.52.38c.44.25.78.59,1.02,1.03s.36.92.36,1.47c0,.18-.01.38-.03.6ZM362.61,58.23c-.17-.28-.4-.5-.69-.65-.29-.15-.61-.22-.97-.22-.52,0-.95.17-1.32.5-.36.34-.56.8-.6,1.39h3.82c0-.4-.08-.74-.25-1.02Z"/>
    <path class="st1" d="M365.23,57.99c.25-.47.6-.83,1.04-1.09.45-.26.96-.39,1.53-.39.75,0,1.36.18,1.84.54.48.36.8.86.96,1.5h-1.08c-.1-.37-.3-.66-.6-.87-.3-.21-.67-.32-1.11-.32-.57,0-1.04.2-1.39.59-.35.39-.53.95-.53,1.67s.18,1.29.53,1.69c.35.4.82.6,1.39.6.44,0,.81-.1,1.11-.31.29-.21.5-.5.61-.88h1.08c-.16.62-.49,1.11-.97,1.49s-1.09.56-1.82.56c-.57,0-1.08-.13-1.53-.39-.45-.26-.79-.62-1.04-1.09-.25-.47-.38-1.02-.38-1.66s.13-1.17.38-1.64Z"/>
    <path class="st1" d="M371.97,55.43c-.13-.13-.2-.29-.2-.49s.07-.35.2-.49c.13-.13.29-.2.49-.2s.34.07.47.2c.13.13.19.29.19.49s-.06.35-.19.49c-.13.13-.29.2-.47.2s-.35-.07-.49-.2ZM372.94,56.61v6.06h-1.01v-6.06h1.01Z"/>
    <path class="st1" d="M375.76,62.38c-.46-.26-.82-.62-1.08-1.1-.26-.48-.39-1.03-.39-1.65s.13-1.17.4-1.64c.27-.48.64-.84,1.1-1.09.46-.25.98-.38,1.56-.38s1.09.13,1.56.38.83.62,1.1,1.09c.27.47.4,1.02.4,1.65s-.14,1.18-.41,1.65c-.28.47-.65.84-1.12,1.1s-1,.39-1.57.39-1.08-.13-1.54-.39ZM378.31,61.66c.32-.17.57-.43.77-.78.2-.35.29-.76.29-1.25s-.1-.9-.29-1.24c-.19-.34-.44-.6-.75-.77-.31-.17-.65-.25-1.01-.25s-.71.08-1.01.25c-.31.17-.55.43-.73.77-.18.34-.28.76-.28,1.24s.09.91.27,1.25.42.6.72.77c.3.17.63.26,1,.26s.7-.09,1.02-.26Z"/>
    <path class="st1" d="M382.62,62.53c-.37-.16-.65-.38-.87-.66-.21-.28-.33-.61-.35-.98h1.04c.03.32.17.57.43.77s.59.3,1,.3c.39,0,.69-.09.91-.26.22-.17.33-.4.33-.68s-.12-.46-.35-.59c-.24-.13-.6-.26-1.09-.38-.45-.12-.81-.24-1.09-.35-.28-.12-.52-.29-.72-.52-.2-.23-.3-.54-.3-.92,0-.32.09-.61.27-.87.18-.26.43-.47.77-.63.33-.15.72-.23,1.17-.23.67,0,1.21.17,1.62.51.41.34.63.8.66,1.39h-1.01c-.02-.33-.15-.6-.38-.8-.23-.2-.54-.3-.93-.3-.37,0-.66.08-.87.24s-.31.38-.31.64c0,.21.07.37.2.5.13.13.29.23.49.3.19.07.46.16.82.26.44.12.8.23,1.06.35.26.12.49.28.68.5.19.22.29.52.29.88,0,.34-.09.64-.27.91s-.44.48-.77.63c-.33.16-.72.23-1.16.23s-.88-.08-1.24-.24Z"/>
  </g>
  <circle class="st2" cx="64.64" cy="55.52" r="51.57" transform="translate(-7.64 10.39) rotate(-8.68)"/>
  <path class="st0" d="M107.45,90.88l-6.08-5.03c7.03-8.5,10.9-19.27,10.9-30.33,0-26.26-21.37-47.62-47.63-47.62-5.77,0-11.41,1.02-16.75,3.03l-2.78-7.39c6.24-2.35,12.81-3.53,19.53-3.53,30.61,0,55.52,24.91,55.52,55.52,0,12.89-4.51,25.44-12.71,35.36Z"/>
  <path class="st1" d="M64.64,120.16C29,120.16,0,91.16,0,55.52c0-7.19,1.17-14.26,3.49-21l7.47,2.56c-2.03,5.91-3.06,12.12-3.06,18.44,0,31.29,25.46,56.75,56.75,56.75,3.24,0,6.49-.28,9.65-.82l1.33,7.78c-3.6.62-7.3.93-10.98.93Z"/>
  <g>
    <path class="st1" d="M32.27,66.39v-1.67l2.14-2.07c5.14-4.89,7.46-7.49,7.49-10.52,0-2.04-.99-3.93-3.99-3.93-1.83,0-3.34.93-4.27,1.7l-.87-1.92c1.39-1.18,3.37-2.04,5.69-2.04,4.33,0,6.16,2.97,6.16,5.85,0,3.71-2.69,6.72-6.93,10.8l-1.61,1.49v.06h9.04v2.26h-12.84Z"/>
    <path class="st1" d="M61.51,56.12c0,6.84-2.54,10.61-6.99,10.61-3.93,0-6.59-3.68-6.65-10.34,0-6.75,2.91-10.46,6.99-10.46s6.65,3.77,6.65,10.18ZM50.59,56.43c0,5.23,1.61,8.2,4.08,8.2,2.79,0,4.12-3.25,4.12-8.39s-1.27-8.2-4.08-8.2c-2.38,0-4.12,2.91-4.12,8.39Z"/>
    <path class="st1" d="M77.39,56.12c0,6.84-2.54,10.61-6.99,10.61-3.93,0-6.59-3.68-6.65-10.34,0-6.75,2.91-10.46,6.99-10.46s6.65,3.77,6.65,10.18ZM66.46,56.43c0,5.23,1.61,8.2,4.08,8.2,2.79,0,4.12-3.25,4.12-8.39s-1.27-8.2-4.08-8.2c-2.38,0-4.12,2.91-4.12,8.39Z"/>
    <path class="st1" d="M93.26,56.12c0,6.84-2.54,10.61-6.99,10.61-3.93,0-6.59-3.68-6.65-10.34,0-6.75,2.91-10.46,6.99-10.46s6.65,3.77,6.65,10.18ZM82.34,56.43c0,5.23,1.61,8.2,4.08,8.2,2.79,0,4.12-3.25,4.12-8.39s-1.27-8.2-4.08-8.2c-2.38,0-4.12,2.91-4.12,8.39Z"/>
  </g>
  <g>
    <path class="st1" d="M162.38,45.47c2.04,1.7,3.06,4.04,3.06,7.03s-1.02,5.32-3.06,7.02c-2.04,1.7-4.84,2.55-8.4,2.55h-6.79v8.32h-3.92v-27.47h10.71c3.56,0,6.36.85,8.4,2.55M159.55,57.07c1.31-1.06,1.96-2.58,1.96-4.57s-.65-3.51-1.96-4.57c-1.31-1.06-3.21-1.59-5.69-1.59h-6.67v12.32h6.67c2.49,0,4.38-.53,5.69-1.59"/>
    <rect class="st1" x="178.31" y="49.6" width="3.77" height="20.8"/>
    <path class="st1" d="M216.93,45.47c2.04,1.7,3.06,4.04,3.06,7.03s-1.02,5.32-3.06,7.02c-2.04,1.7-4.84,2.55-8.4,2.55h-6.79v8.32h-3.92v-27.47h10.71c3.56,0,6.36.85,8.4,2.55M214.1,57.07c1.31-1.06,1.96-2.58,1.96-4.57s-.65-3.51-1.96-4.57c-1.31-1.06-3.21-1.59-5.69-1.59h-6.67v12.32h6.67c2.49,0,4.38-.53,5.69-1.59"/>
    <path class="st1" d="M178.37,44.89c-.48-.47-.73-1.05-.73-1.73s.24-1.26.73-1.75c.48-.48,1.09-.73,1.82-.73s1.34.23,1.83.69c.48.46.73,1.03.73,1.71s-.24,1.3-.73,1.79c-.48.49-1.09.73-1.83.73s-1.34-.24-1.82-.71"/>
  </g>
</svg>