<?xml version="1.0" encoding="UTF-8"?>
<svg id="Layer_1" xmlns="http://www.w3.org/2000/svg" version="1.1" viewBox="0 0 29.08 29.08">
  <!-- Generator: Adobe Illustrator 29.1.0, SVG Export Plug-In . SVG Version: 2.1.0 Build 142)  -->
  <defs>
    <style>
      .st0 {
        fill: #fff;
      }

      .st1 {
        fill: none;
        stroke: #fff;
        stroke-miterlimit: 10;
        stroke-width: .55px;
      }
    </style>
  </defs>
  <g>
    <path class="st0" d="M18.43,9.81c-.48,0-.86.39-.86.86s.39.86.86.86.86-.39.86-.86-.39-.86-.86-.86Z"/>
    <path class="st0" d="M14.6,10.92c-2,0-3.62,1.62-3.62,3.62s1.62,3.62,3.62,3.62,3.62-1.62,3.62-3.62-1.62-3.62-3.62-3.62ZM14.6,16.86c-1.28,0-2.32-1.04-2.32-2.32s1.04-2.32,2.32-2.32,2.32,1.04,2.32,2.32-1.04,2.32-2.32,2.32Z"/>
    <path class="st0" d="M17.48,21.89h-5.87c-2.44,0-4.42-1.98-4.42-4.42v-5.87c0-2.44,1.98-4.42,4.42-4.42h5.87c2.44,0,4.42,1.98,4.42,4.42v5.87c0,2.44-1.98,4.42-4.42,4.42ZM11.61,8.57c-1.67,0-3.03,1.36-3.03,3.03v5.87c0,1.67,1.36,3.03,3.03,3.03h5.87c1.67,0,3.03-1.36,3.03-3.03v-5.87c0-1.67-1.36-3.03-3.03-3.03h-5.87Z"/>
  </g>
  <circle class="st1" cx="14.54" cy="14.54" r="14.27"/>
</svg>