<?xml version="1.0" encoding="UTF-8"?>
<svg id="Capa_1" data-name="Capa 1" xmlns="http://www.w3.org/2000/svg" version="1.1" viewBox="0 0 37.66 25">
  <defs>
    <style>
      .cls-1 {
        fill: #fff;
        stroke-width: 0px;
      }
    </style>
  </defs>
  <g id="Group_7" data-name="Group 7">
    <g id="Group_6" data-name="Group 6">
      <g id="Grupo_6223-2" data-name="Grupo 6223-2">
        <g id="Group_5" data-name="Group 5">
          <path id="Path_33" data-name="Path 33" class="cls-1" d="M32.44,3.58l-7.15-.5,1.76,8.07,7.81-.65-2.42-6.92ZM28.49,9.28l-1.14-4.61,4.3.18,1.38,4.21-2.16.1-2.37.11Z"/>
        </g>
      </g>
    </g>
  </g>
  <g id="Group_11" data-name="Group 11">
    <g id="Grupo_6224" data-name="Grupo 6224">
      <g id="Group_10" data-name="Group 10">
        <path id="Path_34" data-name="Path 34" class="cls-1" d="M25.76,5.24l-3.47-2.68-1.22,1.01,4.24,3.26-3.3,3.68,1.79,1.35,2.67-3.34,1.34-1.68-2.06-1.59Z"/>
      </g>
    </g>
  </g>
  <g id="Group_16" data-name="Group 16">
    <g id="Grupo_6225" data-name="Grupo 6225">
      <g id="Group_15" data-name="Group 15">
        <path id="Path_35" data-name="Path 35" class="cls-1" d="M34.24,6.83l1.36-2.45-1.16-.91-2.12,3.36,4.9,3.81.44-1.14-3.42-2.67Z"/>
      </g>
    </g>
  </g>
  <g id="Grupo_6226" data-name="Grupo 6226">
    <g id="Group_20" data-name="Group 20">
      <path id="Path_36" data-name="Path 36" class="cls-1" d="M30.79,9.22l2.01,1.55h0s3.32,2.55,3.32,2.55l-.56,1.46-4.06-3.12-2.39,4.28-1.75-1.32,2.28-3.61,1.15-1.81Z"/>
    </g>
  </g>
  <g id="Group_26" data-name="Group 26">
    <g id="Grupo_6227" data-name="Grupo 6227">
      <g id="Group_25" data-name="Group 25">
        <path id="Path_37" data-name="Path 37" class="cls-1" d="M31.99,1.62l-1.18-.93-1.87,2.08-3.55-2.78-.94.78,3.17,2.47h.01l1.87,1.46,1.01-1.26h0l1.47-1.84Z"/>
      </g>
    </g>
  </g>
  <g id="Grupo_6231" data-name="Grupo 6231">
    <g id="Grupo_6230" data-name="Grupo 6230">
      <g id="Group_32" data-name="Group 32">
        <g id="Group_31" data-name="Group 31">
          <g id="Grupo_6229" data-name="Grupo 6229">
            <g id="Grupo_6228" data-name="Grupo 6228">
              <g id="Group_30" data-name="Group 30">
                <path id="Path_38" data-name="Path 38" class="cls-1" d="M9.16,25h-2.26v-5.48l-1.61,3.81h-1.54l-1.61-3.81v5.48H0v-8.76h2.63l1.95,4.4,1.94-4.4h2.63v8.76Z"/>
                <path id="Path_39" data-name="Path 39" class="cls-1" d="M17.37,25h-6.33v-8.76h6.33v1.69h-4.07v1.7h3.79v1.69h-3.79v1.97h4.07v1.7Z"/>
                <path id="Path_40" data-name="Path 40" class="cls-1" d="M24.17,25h-5.13v-1.69h1.44v-5.37h-1.44v-1.69h5.13v1.69h-1.44v5.37h1.44v1.69Z"/>
              </g>
            </g>
          </g>
        </g>
      </g>
    </g>
  </g>
</svg>