<?xml version="1.0" encoding="UTF-8"?>
<svg id="Layer_1" xmlns="http://www.w3.org/2000/svg" version="1.1" viewBox="0 0 77.83 78.08">
  <!-- Generator: Adobe Illustrator 29.1.0, SVG Export Plug-In . SVG Version: 2.1.0 Build 142)  -->
  <defs>
    <style>
      .st0 {
        fill: #fff;
      }
    </style>
  </defs>
  <path class="st0" d="M56.14,28.21c3.13,4.38,4.97,9.73,4.97,15.51,0,14.75-12,26.76-26.76,26.76S7.6,58.48,7.6,43.72s12-26.76,26.76-26.76c5.78,0,11.13,1.85,15.51,4.97l5.43-5.43c-5.8-4.48-13.06-7.15-20.94-7.15C15.41,9.36,0,24.78,0,43.72s15.41,34.36,34.36,34.36,34.36-15.41,34.36-34.36c0-7.88-2.67-15.14-7.15-20.94l-5.43,5.43Z"/>
  <path class="st0" d="M52.14,32.22l-4.02,4.02c1.22,2.23,1.91,4.78,1.91,7.49,0,8.64-7.03,15.67-15.67,15.67s-15.67-7.03-15.67-15.67,7.03-15.67,15.67-15.67c2.71,0,5.26.69,7.49,1.91l4.02-4.02c-3.31-2.15-7.26-3.4-11.5-3.4-11.69,0-21.18,9.48-21.18,21.18s9.48,21.18,21.18,21.18,21.18-9.48,21.18-21.18c0-4.24-1.25-8.19-3.4-11.5Z"/>
  <circle class="st0" cx="34.36" cy="43.72" r="9.06"/>
  <polygon class="st0" points="77.83 7.97 71.78 6.14 70.29 0 59.19 10.51 60.39 15.45 33.24 42.6 35.48 44.84 62.98 17.34 66.73 18.47 77.83 7.97"/>
</svg>