<?xml version="1.0" encoding="UTF-8"?>
<svg id="Layer_1" xmlns="http://www.w3.org/2000/svg" version="1.1" viewBox="0 0 124.22 48.1">
  <!-- Generator: Adobe Illustrator 29.1.0, SVG Export Plug-In . SVG Version: 2.1.0 Build 142)  -->
  <defs>
    <style>
      .st0 {
        fill: #161b4e;
      }

      .st1 {
        fill: #e4322a;
      }
    </style>
  </defs>
  <path class="st0" d="M30.94,7.75c3.3,2.75,4.96,6.54,4.96,11.37s-1.65,8.62-4.96,11.37c-3.3,2.75-7.84,4.13-13.6,4.13H6.35v13.47H0V3.62h17.35c5.76,0,10.29,1.38,13.6,4.13M26.37,26.53c2.12-1.72,3.18-4.18,3.18-7.4s-1.06-5.69-3.18-7.4c-2.12-1.72-5.19-2.57-9.21-2.57H6.35v19.95h10.8c4.02,0,7.09-.86,9.21-2.57"/>
  <rect class="st0" x="56.74" y="14.42" width="6.1" height="33.68"/>
  <path class="st0" d="M119.26,7.75c3.3,2.75,4.96,6.54,4.96,11.37s-1.65,8.62-4.96,11.37c-3.3,2.75-7.84,4.13-13.6,4.13h-10.99v13.47h-6.35V3.62h17.35c5.76,0,10.29,1.38,13.6,4.13M114.69,26.53c2.12-1.72,3.18-4.18,3.18-7.4s-1.06-5.69-3.18-7.4c-2.12-1.72-5.19-2.57-9.21-2.57h-10.8v19.95h10.8c4.02,0,7.09-.86,9.21-2.57"/>
  <path class="st1" d="M56.84,6.8c-.78-.76-1.18-1.69-1.18-2.8s.39-2.04,1.18-2.83c.78-.78,1.77-1.18,2.95-1.18s2.17.37,2.96,1.11c.78.74,1.18,1.66,1.18,2.76s-.39,2.11-1.18,2.89c-.78.79-1.77,1.18-2.96,1.18s-2.17-.38-2.95-1.14"/>
</svg>