<?xml version="1.0" encoding="UTF-8"?>
<svg id="Capa_1" data-name="Capa 1" xmlns="http://www.w3.org/2000/svg" version="1.1" viewBox="0 0 498.61 146.94">
  <defs>
    <style>
      .cls-1 {
        fill: #009ac7;
      }

      .cls-1, .cls-2 {
        stroke-width: 0px;
      }

      .cls-2 {
        fill: #221f20;
      }
    </style>
  </defs>
  <path class="cls-2" d="M97.55,61.56c0-18.94-5.2-34.56-13.55-42.45-9.61-9.15-17.65-13.41-29.16-13.41-7.25,0-16.39,1.42-25.22,10.26-10.4,10.41-13.71,26.04-13.71,39.14,0,21.15,9.14,36.45,16.86,43.87,11.98,11.36,20.01,12.47,24.43,12.47,31.83,0,40.34-36.46,40.34-49.87M98.18,16.9c10.72,11.21,15.44,25.57,15.13,39.77.32,16.89-6.78,32.19-16.23,41.51-9.3,9.31-17.49,13.73-27.42,17.04v.63c16.23,6,29.47,9.15,40.35,11.52,39.87,9,63.53,7.26,66.53,7.26,4.41,0,7.88-2.05,9.77-3.47.47-.47.95-.79,1.42-.16l1.1,1.58c.32.48.16,1.11-.47,1.58-2.05,2.05-12.29,12.78-21.12,12.78-4.73,0-32.02-.32-59.6-7.42-15.76-3.95-38.61-12.31-60.52-22.57-3.15-1.11-17.34-3.47-31.84-18.94C6.78,89.34,0,75.29,0,56.36c0-15.15,6.62-30.62,18.12-41.19C30.26,4.12,47.43-.3,55.79.02c18.44-.32,32.62,6.63,42.39,16.88"/>
  <path class="cls-2" d="M190.54,82.08c0,7.58,0,15.31.31,18.62.47,4.89,2.21,5.52,4.1,5.52.95,0,3.31,0,5.2-.47,1.26-.32,1.73,0,1.89.63l.47,2.05c.16.95-.16,1.26-.79,1.42l-16.55,5.52c-.95.32-1.89.63-3.15.63-.63,0-1.26-.32-1.42-1.9l-1.26-9.15h-.32c-4.41,6.15-13.55,11.05-21.43,11.05-4.41,0-9.61-.47-14.81-7.26-6.46-8.37-6.15-13.57-6.15-30.93v-18.31c-.16-4.42-2.36-5.52-5.99-6-2.68-.16-3.47-.32-3.47-1.1v-2.84c0-.95.31-1.26,1.73-1.26h14.03c.94,0,1.57-.16,2.21-.32.63,0,1.26-.16,1.73-.16,1.1,0,1.89.79,1.73,1.89-.16,1.42-.63,8.84-.63,18.15v11.21c0,6.31-1.58,16.41,3.47,23.67,3.94,5.68,8.35,6,12.61,6s10.56-4.1,13.55-7.89c.63-.79,1.58-2.84,1.58-4.26v-37.56c-.32-4.42-2.84-5.21-6.78-5.53-2.68,0-3.47-.32-3.47-1.1v-2.68c0-1.26.32-1.42,1.89-1.42h14.66c1.1,0,1.89-.16,2.68-.32.79,0,1.42-.16,1.89-.16.95,0,1.58.79,1.42,1.58-.16,1.42-.94,5.53-.94,20.99v11.68Z"/>
  <path class="cls-2" d="M247.29,79.4c-5.67,4.26-21.12,7.42-21.12,20.52,0,5.84,3.47,8.68,8.2,8.68s12.92-5.52,12.92-9.78v-19.41ZM258.79,95.34c0,9,1.89,11.83,4.73,11.83,2.52,0,4.73-1.26,5.51-2.37.63-.79.95-1.1,1.58-.63l1.58,1.26c.47.47.79,1.26-.16,2.84-1.26,2.37-4.25,7.74-12.29,7.74-5.67,0-9.77-4.1-11.19-10.57h-.32c-3.31,3.95-8.51,7.26-15.6,9.63-2.99.95-5.83.95-9.3.95-3.78,0-9.46-3.16-9.46-13.1,0-7.26,3.31-13.57,15.76-19.1,7.09-3.16,15.29-6.94,17.81-9.15v-10.1c-.31-2.68-.48-6.79-2.21-8.84-1.73-2.05-4.88-3.47-9.45-3.47-3.15,0-8.04,1.26-10.25,3.31-2.2,2.05-.79,4.42-.79,7.26,0,5.52-1.89,8.99-8.35,8.99-2.52,0-3.78-1.42-3.78-5.05,0-5.05,4.41-11.05,10.88-14.83,6.62-3.95,12.13-5.52,19.23-5.52s10.4,2.21,12.61,4.26c3.31,3.32,3.47,6.94,3.47,11.21v33.46Z"/>
  <path class="cls-2" d="M342.95,105.59c0,2.53,1.42,3.32,3.47,3.32h5.04c1.42,0,1.73.48,1.73,1.42v2.53c0,1.1-.31,1.74-1.26,1.74-1.1,0-5.99-.48-14.97-.48-8.04,0-13.08.48-14.18.48-.95,0-1.26-.48-1.26-1.74v-2.53c0-1.1.47-1.42,2.05-1.42h4.57c1.73,0,3-.79,3.15-3.63.15-4.1.31-9.15.31-13.26v-20.83c0-6.31,0-10.89-4.57-14.2-3.78-2.84-7.56-2.84-11.51-2.84-2.52,0-8.04,1.1-12.76,6.15-3.15,3.47-3.63,7.74-3.63,10.73v32.67c0,4.26.48,5.21,3.79,5.21h3.94c1.26,0,1.58.48,1.58,1.58v2.68c0,.95-.32,1.42-1.11,1.42-1.1,0-5.36-.48-13.71-.48s-13.08.48-14.03.48c-.79,0-1.1-.48-1.1-1.42v-2.84c0-.94.32-1.42,1.57-1.42h4.57c2.05,0,3.15-.47,3.15-3.16v-36.93c0-4.73-2.52-7.42-6.46-9.31l-1.26-.63c-1.1-.47-1.26-.95-1.26-1.42v-.79c0-.79.63-1.26,1.42-1.58l13.56-7.58c1.26-.63,2.2-1.1,2.84-1.1.79,0,1.1.63,1.26,1.89l1.1,9.63h.32c4.57-5.68,13.71-11.52,21.59-11.52,4.73,0,9.61.94,13.4,3.47,4.73,3.16,8.67,11.05,8.67,14.99v40.71Z"/>
  <path class="cls-2" d="M379.68,94.39c0,11.83,5.36,13.89,8.2,13.89,3.62,0,8.2-.63,10.4-2.05.79-.47,1.42-.32,1.89.32l.79,1.42c.47.63.16,1.26-.32,1.73-1.58,1.58-8.04,6.32-17.49,6.32-7.73,0-15.29-7.42-15.29-13.41,0-6.47.48-20.36.48-22.57v-3.47c0-2.84.16-13.42.32-20.04h-9.62c-1.42,0-2.37-.63-2.37-1.89s.95-1.74,2.84-2.84c3.78-2.21,15.91-14.52,17.97-19.89.47-1.26,1.26-1.58,2.21-1.58,1.26,0,1.58,1.1,1.58,2.37l-.79,15.62h21.91c.95,0,1.42.79,1.1,1.42l-1.58,5.52c-.16.79-.48,1.26-1.42,1.26h-20.33c-.32,7.26-.47,14.83-.47,22.1v15.78Z"/>
  <path class="cls-2" d="M423.33,68.19c0-5.36-.95-8.21-8.82-9.47-1.1-.16-1.42-.48-1.42-1.11v-1.42c0-.47.32-.79,1.1-1.1,5.04-1.9,11.03-4.42,17.02-7.73,1.26-.63,2.05-.94,3-.94.79,0,.94.79.79,1.89-.32,2.68-.32,12.63-.32,25.72v17.2c0,6.15,0,11.83.16,13.57.31,3,.79,4.1,2.52,4.1h7.26c1.26,0,1.58.48,1.58,1.42v2.68c0,1.1-.32,1.58-1.42,1.58-1.26,0-8.52-.48-15.14-.48-9.14,0-15.28.48-17.01.48-.79,0-1.26-.32-1.26-1.26v-3.15c0-.95.47-1.27,1.57-1.27h7.72c1.73,0,2.36-.63,2.52-3.16.16-4.73.16-9.63.16-14.36v-23.2Z"/>
  <path class="cls-2" d="M474.72,94.39c0,11.83,5.36,13.89,8.19,13.89,3.63,0,8.2-.63,10.4-2.05.79-.47,1.42-.32,1.89.32l.79,1.42c.47.63.16,1.26-.32,1.73-1.57,1.58-8.03,6.32-17.49,6.32-7.72,0-15.29-7.42-15.29-13.41,0-6.47.48-20.36.48-22.57v-3.47c0-2.84.16-13.42.32-20.04h-9.61c-1.42,0-2.36-.63-2.36-1.89s.94-1.74,2.83-2.84c3.78-2.21,15.92-14.52,17.97-19.89.47-1.26,1.26-1.58,2.21-1.58,1.26,0,1.58,1.1,1.58,2.37l-.79,15.62h21.91c.95,0,1.42.79,1.1,1.42l-1.58,5.52c-.15.79-.47,1.26-1.42,1.26h-20.33c-.32,7.26-.47,14.83-.47,22.1v15.78Z"/>
  <path class="cls-1" d="M420.53,18.32c0-3.95,3.31-8.21,9.61-8.21,5.51,0,8.2,4.26,8.2,7.73,0,4.1-2.84,8.68-9.14,8.68-3.47,0-8.67-3.16-8.67-8.21"/>
</svg>