<?xml version="1.0" encoding="UTF-8"?>
<svg id="Layer_1" xmlns="http://www.w3.org/2000/svg" version="1.1" viewBox="0 0 83.86 48.59">
  <!-- Generator: Adobe Illustrator 29.1.0, SVG Export Plug-In . SVG Version: 2.1.0 Build 142)  -->
  <defs>
    <style>
      .st0 {
        fill: #fff;
      }
    </style>
  </defs>
  <path class="st0" d="M48.48,13.31c6.82,2.95,11.59,9.73,11.59,17.64s-4.77,14.69-11.59,17.64c24.09-2.7,35.38-17.64,35.38-17.64,0,0-11.29-14.94-35.38-17.64Z"/>
  <path class="st0" d="M21.65,30.95c0-7.88,4.75-14.65,11.55-17.61C9.57,16.1,0,30.95,0,30.95c0,0,9.57,14.85,33.2,17.61-6.79-2.96-11.55-9.73-11.55-17.61Z"/>
  <path class="st0" d="M40.86,18.25c-7.01,0-12.7,5.69-12.7,12.7s5.69,12.7,12.7,12.7,12.7-5.69,12.7-12.7-5.69-12.7-12.7-12.7ZM40.86,35.91c-2.74,0-4.96-2.22-4.96-4.96s2.22-4.96,4.96-4.96,4.96,2.22,4.96,4.96-2.22,4.96-4.96,4.96ZM47.64,25.17c-1,0-1.81-.81-1.81-1.81s.81-1.81,1.81-1.81,1.81.81,1.81,1.81-.81,1.81-1.81,1.81Z"/>
  <path class="st0" d="M17.75,11.98c1.55-.49,3.17-.95,4.87-1.36l-7.72-7.72c-1.68.41-3.31.85-4.89,1.33l7.75,7.75Z"/>
  <path class="st0" d="M40.21,0c-.52,0-1.03,0-1.55.01v8.61c.65-.01,1.3-.04,1.96-.04.83,0,1.63.02,2.44.05V.04c-.94-.02-1.89-.04-2.85-.04Z"/>
  <path class="st0" d="M66.64,3.1l-7.57,7.57c1.7.4,3.32.85,4.89,1.33l7.58-7.58c-1.59-.47-3.22-.92-4.9-1.33Z"/>
</svg>