<?xml version="1.0" encoding="UTF-8"?>
<svg id="Layer_1" xmlns="http://www.w3.org/2000/svg" version="1.1" viewBox="0 0 373 112.5">
  <!-- Generator: Adobe Illustrator 29.1.0, SVG Export Plug-In . SVG Version: 2.1.0 Build 142)  -->
  <defs>
    <style>
      .st0 {
        fill: #b3b2c6;
      }

      .st1 {
        fill: #aae1fa;
      }

      .st2 {
        fill: #00aeef;
      }

      .st3 {
        fill: #fff;
      }

      .st4 {
        fill: #00263a;
      }
    </style>
  </defs>
  <path class="st2" d="M57.5.2c.4,0,.6.3.6.7v2.8c0,1,.5,1.7,1.6,1.7,1,0,1.6-.8,1.6-1.7V.9c0-.4.3-.7.7-.7s.6.3.6.7v4.9c0,.4-.3.7-.6.7-.4,0-.7-.2-.7-.7v-.4c-.4.7-1.1,1.2-2,1.2-1.6,0-2.5-1.2-2.5-2.8V1c0-.5.3-.8.7-.8"/>
  <path class="st2" d="M69.9,6.4c-.4,0-.7-.3-.7-.7v-2.8c0-1-.5-1.7-1.6-1.7-1,0-1.6.8-1.6,1.7v2.8c0,.4-.3.7-.6.7-.4,0-.7-.3-.7-.7V.8c0-.4.3-.7.7-.7s.6.2.6.7v.4C66.4.5,67.1,0,68,0,69.6,0,70.5,1.2,70.5,2.8v2.8c0,.5-.2.8-.6.8"/>
  <path class="st2" d="M77.1,6.4c-.4,0-.6-.3-.6-.7v-.1c-.4.5-1.1.8-2,.8-1.3,0-2.3-.8-2.3-1.9,0-1.2,1-1.9,2.4-1.9.8,0,1.4.3,1.9.7v-.6c0-1.1-.5-1.6-1.7-1.6-.6,0-1,.1-1.4.3-.1,0-.3.1-.4.1-.3,0-.6-.2-.6-.5s.3-.5.6-.6c.5-.2,1.2-.3,1.9-.3,1.8,0,2.9.9,2.9,2.6v3c-.1.4-.3.7-.7.7M74.9,3.6c-.9,0-1.4.4-1.4,1s.6,1,1.4,1,1.5-.4,1.5-1-.7-1-1.5-1"/>
  <path class="st2" d="M89.3,3.3c0,.2-.1.4-.5.4h-4.1c.1,1,.7,1.7,1.9,1.7.7,0,1.1-.2,1.6-.7.1-.1.3-.2.4-.2.3,0,.5.2.5.5,0,.1-.1.3-.2.4-.5.6-1.5,1-2.5,1-2.1,0-3.2-1.4-3.2-3.2s1.3-3.2,3.1-3.2c1.9.1,3,1.5,3,3.3M86.4,1.1c-1,0-1.6.7-1.7,1.5h3.4c-.1-.7-.7-1.5-1.7-1.5"/>
  <path class="st2" d="M100.5,6.4c-.4,0-.7-.3-.7-.7v-2.8c0-1-.5-1.7-1.5-1.7s-1.6.8-1.6,1.7v2.8c0,.4-.2.7-.7.7-.4,0-.7-.3-.7-.7v-2.8c0-1-.5-1.7-1.5-1.7-1.1,0-1.6.8-1.6,1.7v2.8c0,.4-.3.7-.6.7-.4,0-.7-.3-.7-.7V.8c0-.4.3-.7.7-.7s.6.3.6.7v.4C92.6.5,93.3,0,94.2,0,95.2,0,95.9.5,96.3,1.2,96.8.4,97.6,0,98.6,0,100.3,0,101.1,1.1,101.1,2.8v2.9c.1.4-.2.7-.6.7"/>
  <path class="st2" d="M106.6,6.5c-.9,0-1.7-.5-2.1-1.2v3.1c0,.4-.3.7-.7.7s-.7-.3-.7-.7V.9c0-.4.2-.6.6-.6s.6.3.6.7v.5c.4-.7,1.2-1.2,2.2-1.2,1.6,0,2.9,1.3,2.9,3.2.1,1.7-1.2,3-2.8,3M106.4,1.2c-1.1,0-1.9,1-1.9,2.1s.7,2.1,1.9,2.1c1.1,0,1.9-.8,1.9-2.1-.1-1.3-.8-2.1-1.9-2.1"/>
  <path class="st2" d="M114.3,1.4c-1.1,0-1.8.7-1.8,2.1v2.3c0,.4-.3.7-.7.7s-.7-.3-.7-.7V.9c0-.4.3-.7.7-.7s.6.3.6.7v.6c.2-.8.9-1.3,1.8-1.3.4,0,.6.3.6.6.1.3-.2.6-.5.6"/>
  <path class="st2" d="M121.7,3.3c0,.2-.1.4-.5.4h-4.1c.1,1,.7,1.7,1.9,1.7.7,0,1.1-.2,1.6-.7.1-.1.3-.2.4-.2.3,0,.5.2.5.5,0,.1-.1.3-.2.4-.5.6-1.5,1-2.5,1-2.1,0-3.2-1.4-3.2-3.2s1.3-3.2,3.1-3.2c1.8.1,3,1.5,3,3.3M118.8,1.1c-1,0-1.6.7-1.7,1.5h3.4c-.1-.7-.8-1.5-1.7-1.5"/>
  <path class="st2" d="M125.6,6.5c-.9,0-1.6-.3-2.2-.7-.2-.2-.3-.4-.3-.5,0-.3.2-.5.5-.5.2,0,.4.1.5.2.4.3.9.5,1.6.5s1.1-.3,1.1-.7c0-.5-.4-.7-1.4-.9-1.7-.5-2.3-1-2.3-2s1-1.7,2.5-1.7c.6,0,1.2.1,1.7.4.4.2.6.4.6.7,0,.2-.1.5-.5.5-.2,0-.4-.1-.6-.2-.4-.2-.8-.3-1.3-.3-.7,0-1.2.2-1.2.7s.4.6,1.4.9c1.5.4,2.3.8,2.3,2,.2.8-.7,1.6-2.4,1.6"/>
  <path class="st2" d="M134.3,6.4c-.4,0-.6-.3-.6-.7v-.1c-.4.5-1.1.8-2,.8-1.3,0-2.3-.8-2.3-1.9,0-1.2,1-1.9,2.4-1.9.8,0,1.4.3,1.9.7v-.6c0-1.1-.5-1.6-1.7-1.6-.6,0-1,.1-1.4.3-.1,0-.3.1-.4.1-.3,0-.6-.2-.6-.5s.3-.5.6-.6c.5-.2,1.2-.3,1.9-.3,1.8,0,2.9.9,2.9,2.6v3c0,.4-.3.7-.7.7M132.2,3.6c-.9,0-1.4.4-1.4,1s.6,1,1.4,1,1.5-.4,1.5-1-.8-1-1.5-1"/>
  <g>
    <path class="st2" d="M19.7,36.8l-11.5-6.6v-13.3l11.5-6.6h0V1.6c-.8,0-1.6.2-2.2.5L2.2,10.9c-1.2.7-2.2,2.4-2.2,3.8v17.6c0,1.4,1,3.1,2.2,3.8l15.2,8.8c.6.3,1.4.5,2.2.5l.1-8.6h0Z"/>
    <path class="st4" d="M37.1,36.1c1.2-.7,2.2-2.4,2.2-3.8V14.7c0-1.4-1-3.1-2.2-3.8L21.9,2.1c-.6-.3-1.4-.5-2.2-.5v8.7l11.5,6.6v13.3l-11.5,6.6v8.7c.8,0,1.6-.2,2.2-.5l15.2-8.9Z"/>
    <polygon class="st1" points="8.2 16.9 19.7 23.5 19.7 36.8 8.2 30.2 8.2 16.9"/>
    <polygon class="st0" points="31.1 16.9 19.7 23.5 19.7 36.8 31.1 30.2 31.1 16.9"/>
    <polygon class="st3" points="8.2 16.9 19.6 10.3 31.1 16.9 19.7 23.5 8.2 16.9"/>
    <path class="st4" d="M61,23.7c0,2.9,1.8,5.5,5.3,5.5,1.6,0,2.9-.6,3.9-1.6.4-.4.8-.9,1.6-.9,1.2,0,1.9.8,1.9,1.8,0,.5-.3,1-.7,1.4-1.4,1.6-3.8,2.8-6.8,2.8-6.2,0-9.5-4.3-9.5-9.1s3.3-9.1,9.5-9.1c3,0,5.4,1.2,6.8,2.8.4.4.7.9.7,1.4,0,1-.8,1.8-1.9,1.8-.8,0-1.2-.5-1.6-.9-.9-1-2.2-1.6-3.9-1.6-3.5.1-5.3,2.8-5.3,5.7"/>
    <path class="st4" d="M88.5,28.8h8.6c1,0,1.8.8,1.8,1.8s-.8,1.8-1.8,1.8h-10.6c-1.1,0-2.1-.9-2.1-2.1v-13.2c0-1.1.9-2.1,2.1-2.1h10.3c1,0,1.8.8,1.8,1.8s-.8,1.8-1.8,1.8h-8.2v3.2h4.7c1,0,1.8.8,1.8,1.8s-.8,1.8-1.8,1.8h-4.7v3.4h-.1Z"/>
    <path class="st4" d="M121.3,25.8v-9.1c0-1.1.9-2,2-2s2,.9,2,2v13.9c0,1-.7,2-2,2-.7,0-1.1-.2-1.5-.7l-9-10.2v8.9c0,1.1-.9,2-2,2s-2-.9-2-2v-13.9c0-1,.7-2,2-2,.6,0,1.1.3,1.6.8l8.9,10.3Z"/>
    <path class="st4" d="M139.2,23.7c0,2.9,1.8,5.5,5.3,5.5,1.6,0,2.9-.6,3.9-1.6.4-.4.8-.9,1.6-.9,1.2,0,1.9.8,1.9,1.8,0,.5-.3,1-.7,1.4-1.4,1.6-3.8,2.8-6.8,2.8-6.2,0-9.5-4.3-9.5-9.1s3.3-9.1,9.5-9.1c3,0,5.4,1.2,6.8,2.8.4.4.7.9.7,1.4,0,1-.8,1.8-1.9,1.8-.8,0-1.3-.5-1.6-.9-.9-1-2.2-1.6-3.9-1.6-3.5.1-5.3,2.8-5.3,5.7"/>
    <path class="st4" d="M170.3,32.7c-5.7,0-9.4-3.9-9.4-9.1s3.7-9.1,9.4-9.1,9.4,3.9,9.4,9.1c0,5.3-3.8,9.1-9.4,9.1M170.3,29.2c3.2,0,5.3-2.4,5.3-5.5s-2-5.5-5.3-5.5-5.3,2.4-5.3,5.5c0,3.1,2,5.5,5.3,5.5"/>
    <path class="st4" d="M193.8,30.5c0,1.1-.9,2.1-2.1,2.1-1.1,0-2.1-.9-2.1-2.1v-13.4c0-1.1.9-2.1,2.1-2.1h7.3c4.9,0,7,2.4,7,5.4,0,2.1-1,3.9-3.3,4.8l2.5,4.5c.2.3.3.6.3,1,0,1-.8,1.9-1.9,1.9-.9,0-1.5-.4-1.8-1l-3.2-5.8h-4.8v4.7ZM199.7,18.4h-5.9v4h5.9c1.6,0,2.3-1.1,2.3-2,0-1-.7-2-2.3-2"/>
  </g>
  <g>
    <path class="st4" d="M67,77.4c.2-.3.4-.5.7-.5.4,0,.8.3.8.8v10.2c0,.4-.3.8-.8.8s-.8-.4-.8-.8v-7l-3.6,7.3c-.1.3-.3.5-.7.5s-.6-.2-.7-.5l-3.6-7.3v7c0,.4-.3.8-.8.8s-.8-.4-.8-.8v-10.2c0-.5.3-.8.8-.8.4,0,.6.2.7.5l4.4,8.9,4.4-8.9Z"/>
    <path class="st4" d="M76.9,88.7c-.5,0-.8-.4-.8-.8v-.2c-.5.7-1.3,1-2.4,1-1.7,0-2.9-.9-2.9-2.3,0-1.5,1.3-2.3,2.9-2.3,1,0,1.8.4,2.3.9v-.8c0-1.4-.6-2-2.1-2-.7,0-1.2.1-1.7.3-.2.1-.3.1-.5.1-.4,0-.7-.3-.7-.7s.3-.6.8-.8c.6-.2,1.5-.4,2.3-.4,2.3,0,3.6,1.2,3.6,3.3v3.8c0,.5-.2.9-.8.9ZM74.2,85.2c-1.1,0-1.8.4-1.8,1.2s.7,1.2,1.8,1.2c1,0,1.9-.5,1.9-1.2,0-.8-.9-1.2-1.9-1.2ZM73.7,78.7l1-1.3c.1-.2.3-.3.6-.3.4,0,.7.2.7.6,0,.2-.1.3-.2.4l-.9,1.3c-.1.2-.3.3-.6.3-.4,0-.7-.3-.7-.6-.1-.1,0-.3.1-.4Z"/>
    <path class="st4" d="M82.9,88.7c-1.1,0-2.1-.3-2.7-.9-.2-.2-.3-.4-.3-.7s.3-.6.6-.6.4.1.6.2c.5.3,1.1.7,1.9.7.9,0,1.4-.3,1.4-.9s-.5-.8-1.7-1.1c-2.1-.6-2.9-1.3-2.9-2.5,0-1.3,1.2-2.1,3.1-2.1.7,0,1.5.2,2.1.5.5.2.8.5.8.8s-.2.6-.6.6c-.2,0-.4-.1-.7-.2-.5-.3-1-.4-1.6-.4-.9,0-1.4.2-1.4.8s.5.8,1.8,1.1c1.9.5,2.8,1,2.8,2.4,0,1.4-1.1,2.3-3.2,2.3Z"/>
    <path class="st4" d="M96.1,80.8c1.2,0,2.1.6,2.7,1.5v-4.6c0-.4.3-.8.8-.8s.8.4.8.8v10.1c0,.4-.3.8-.8.8s-.8-.4-.8-.8v-.6c-.5.9-1.6,1.5-2.7,1.5-2,0-3.6-1.7-3.6-3.9,0-2.4,1.6-4,3.6-4ZM96.4,87.4c1.4,0,2.3-1.2,2.3-2.6s-.9-2.6-2.3-2.6-2.3,1.1-2.3,2.6.9,2.6,2.3,2.6Z"/>
    <path class="st4" d="M109.9,84.8c0,.3-.2.6-.6.6h-5.2c.1,1.2.9,2.1,2.3,2.1.9,0,1.4-.3,2-.8.1-.1.3-.3.5-.3.4,0,.7.3.7.7,0,.2-.1.3-.2.5-.7.8-1.8,1.3-3.1,1.3-2.6,0-3.9-1.8-3.9-3.9,0-2.3,1.6-3.9,3.9-3.9,2.1-.3,3.6,1.5,3.6,3.7ZM106.3,82.1c-1.2,0-2,.8-2.2,1.9h4.2c-.1-1-.9-1.9-2-1.9Z"/>
    <path class="st4" d="M124.7,88.5h-7.4c-.4,0-.7-.3-.7-.7,0-2.8,1.3-3.8,3.8-5.1,2.1-1.1,3.3-1.7,3.3-2.8s-1-1.6-2.6-1.6c-1.2,0-2.1.3-3.1,1-.1.1-.2.1-.4.1-.4,0-.7-.3-.7-.7,0-.5.4-.9,1.2-1.2,1.1-.5,2.2-.7,3.1-.7,2.5,0,4.2,1,4.2,3,0,1.7-1.1,2.6-3.6,3.8-2.3,1.2-3.4,1.8-3.4,3.4h6.3c.4,0,.7.3.7.7.1.5-.3.8-.7.8Z"/>
    <path class="st4" d="M131.9,88.7c-1.6,0-3-.4-4.1-1.4-.2-.2-.3-.4-.3-.6,0-.5.3-.7.7-.7.2,0,.3.1.4.2,1.1.8,1.9,1.1,3.3,1.1,1.8,0,2.9-1,2.9-2.4s-.9-2.3-2.7-2.3c-1.1,0-1.9.3-2.8.8-.1.1-.3.1-.4.1-.5,0-.8-.3-.7-.8l.8-5.1c.1-.4.3-.7.8-.7h5.1c.4,0,.8.3.8.7s-.3.7-.8.7h-4.4l-.5,3.3c.7-.5,1.5-.7,2.4-.7,2.7,0,4.2,1.6,4.2,3.7-.2,2.3-1.8,4.1-4.7,4.1Z"/>
    <path class="st4" d="M149.3,88.7c-.5,0-.8-.4-.8-.8v-.2c-.5.7-1.3,1-2.4,1-1.7,0-2.9-.9-2.9-2.3,0-1.5,1.3-2.3,2.9-2.3,1,0,1.8.4,2.3.9v-.8c0-1.4-.6-2-2.1-2-.7,0-1.2.1-1.7.3-.2.1-.3.1-.5.1-.4,0-.7-.3-.7-.7s.3-.6.8-.8c.6-.2,1.5-.4,2.3-.4,2.3,0,3.6,1.2,3.6,3.3v3.8c0,.5-.3.9-.8.9ZM146.6,85.2c-1.1,0-1.8.4-1.8,1.2s.7,1.2,1.8,1.2c1,0,1.9-.5,1.9-1.2,0-.8-1-1.2-1.9-1.2Z"/>
    <path class="st4" d="M158.9,88.7c-.5,0-.8-.4-.8-.8v-3.4c0-1.2-.7-2.1-1.9-2.1s-2,.9-2,2.1v3.4c0,.4-.3.8-.8.8s-.8-.4-.8-.8v-6.1c0-.5.3-.8.8-.8.4,0,.8.3.8.8v.6c.5-.9,1.3-1.4,2.5-1.4,2,0,3.1,1.5,3.1,3.5v3.5c-.1.3-.4.7-.9.7ZM157.1,79.8c-.5,0-.8-.2-1.2-.4-.2-.1-.6-.3-.8-.3-.3,0-.4.1-.6.3-.2.2-.3.3-.5.3-.3,0-.6-.2-.6-.5s.2-.5.4-.7c.3-.4.7-.6,1.1-.6s.7.1,1.2.3c.4.2.7.3.9.3.6,0,.6-.5.9-.5s.6.2.6.5c0,.7-.7,1.3-1.4,1.3Z"/>
    <path class="st4" d="M165.6,88.7c-2.4,0-3.9-1.8-3.9-3.9s1.6-3.9,3.9-3.9,3.9,1.8,3.9,3.9c.1,2.2-1.5,3.9-3.9,3.9ZM165.6,82.2c-1.5,0-2.3,1.2-2.3,2.6s.8,2.6,2.3,2.6,2.3-1.2,2.3-2.6-.8-2.6-2.3-2.6Z"/>
    <path class="st4" d="M174.4,88.7c-1.1,0-2.1-.3-2.7-.9-.2-.2-.3-.4-.3-.7s.3-.6.6-.6.4.1.6.2c.5.3,1.1.7,1.9.7.9,0,1.4-.3,1.4-.9s-.5-.8-1.7-1.1c-2.1-.6-2.9-1.3-2.9-2.5,0-1.3,1.2-2.1,3.1-2.1.7,0,1.5.2,2.1.5.5.2.8.5.8.8s-.2.6-.6.6c-.2,0-.4-.1-.7-.2-.5-.3-1-.4-1.6-.4-.9,0-1.4.2-1.4.8s.5.8,1.8,1.1c1.9.5,2.8,1,2.8,2.4-.1,1.4-1.2,2.3-3.2,2.3Z"/>
    <path class="st4" d="M187.5,80.8c1.2,0,2.1.6,2.7,1.5v-4.6c0-.4.3-.8.8-.8s.8.4.8.8v10.1c0,.4-.3.8-.8.8s-.8-.4-.8-.8v-.6c-.5.9-1.6,1.5-2.7,1.5-2,0-3.6-1.7-3.6-3.9,0-2.4,1.7-4,3.6-4ZM187.9,87.4c1.4,0,2.3-1.2,2.3-2.6s-.9-2.6-2.3-2.6-2.3,1.1-2.3,2.6.9,2.6,2.3,2.6Z"/>
    <path class="st4" d="M201.3,84.8c0,.3-.2.6-.6.6h-5.2c.1,1.2.9,2.1,2.3,2.1.9,0,1.4-.3,2-.8.1-.1.3-.3.5-.3.4,0,.7.3.7.7,0,.2-.1.3-.2.5-.7.8-1.8,1.3-3.1,1.3-2.6,0-3.9-1.8-3.9-3.9,0-2.3,1.6-3.9,3.9-3.9,2.2-.3,3.6,1.5,3.6,3.7ZM197.7,82.1c-1.2,0-2,.8-2.2,1.9h4.2c0-1-.8-1.9-2-1.9Z"/>
    <path class="st4" d="M206.1,88.7c-1.1,0-2.1-.3-2.7-.9-.2-.2-.3-.4-.3-.7s.3-.6.6-.6.4.1.6.2c.5.3,1.1.7,1.9.7.9,0,1.4-.3,1.4-.9s-.5-.8-1.7-1.1c-2.1-.6-2.9-1.3-2.9-2.5,0-1.3,1.2-2.1,3.1-2.1.7,0,1.5.2,2.1.5.5.2.8.5.8.8s-.2.6-.6.6c-.2,0-.4-.1-.7-.2-.5-.3-1-.4-1.6-.4-.9,0-1.4.2-1.4.8s.5.8,1.8,1.1c1.9.5,2.8,1,2.8,2.4-.1,1.4-1.2,2.3-3.2,2.3Z"/>
    <path class="st4" d="M216.8,88.7c-.5,0-.8-.4-.8-.8v-.2c-.5.7-1.3,1-2.4,1-1.7,0-2.9-.9-2.9-2.3,0-1.5,1.3-2.3,2.9-2.3,1,0,1.8.4,2.3.9v-.8c0-1.4-.6-2-2.1-2-.7,0-1.2.1-1.7.3-.2.1-.3.1-.5.1-.4,0-.7-.3-.7-.7s.3-.6.8-.8c.6-.2,1.5-.4,2.3-.4,2.3,0,3.6,1.2,3.6,3.3v3.8c0,.5-.2.9-.8.9ZM214.2,85.2c-1.1,0-1.8.4-1.8,1.2s.7,1.2,1.8,1.2c1,0,1.9-.5,1.9-1.2-.1-.8-1-1.2-1.9-1.2Z"/>
    <path class="st4" d="M223.8,82.4c-1.4,0-2.2.9-2.2,2.6v2.8c0,.4-.3.8-.8.8s-.8-.4-.8-.8v-6.1c0-.5.3-.8.8-.8s.8.3.8.8v.7c.3-1,1.1-1.6,2.2-1.6.5,0,.8.3.8.8s-.3.8-.8.8Z"/>
    <path class="st4" d="M229.9,82.4c-1.4,0-2.2.9-2.2,2.6v2.8c0,.4-.3.8-.8.8s-.8-.4-.8-.8v-6.1c0-.5.3-.8.8-.8s.8.3.8.8v.7c.3-1,1.1-1.6,2.2-1.6.5,0,.8.3.8.8-.1.5-.4.8-.8.8Z"/>
    <path class="st4" d="M235.3,88.7c-2.4,0-3.9-1.8-3.9-3.9s1.6-3.9,3.9-3.9,3.9,1.8,3.9,3.9c.1,2.2-1.5,3.9-3.9,3.9ZM235.3,82.2c-1.5,0-2.3,1.2-2.3,2.6s.8,2.6,2.3,2.6,2.3-1.2,2.3-2.6-.8-2.6-2.3-2.6Z"/>
    <path class="st4" d="M242.1,88.7c-.5,0-.8-.4-.8-.8v-10.2c0-.4.3-.8.8-.8s.8.4.8.8v10.1c0,.5-.3.9-.8.9Z"/>
    <path class="st4" d="M246.3,88.7c-.5,0-.8-.4-.8-.8v-10.2c0-.4.3-.8.8-.8s.8.4.8.8v10.1c0,.5-.3.9-.8.9Z"/>
    <path class="st4" d="M255.3,88.7c-.5,0-.8-.4-.8-.8v-.2c-.5.7-1.3,1-2.4,1-1.7,0-2.9-.9-2.9-2.3,0-1.5,1.3-2.3,2.9-2.3,1,0,1.8.4,2.3.9v-.8c0-1.4-.6-2-2.1-2-.7,0-1.2.1-1.7.3-.2.1-.3.1-.5.1-.4,0-.7-.3-.7-.7s.3-.6.8-.8c.6-.2,1.5-.4,2.3-.4,2.3,0,3.6,1.2,3.6,3.3v3.8c0,.5-.3.9-.8.9ZM252.6,85.2c-1.1,0-1.8.4-1.8,1.2s.7,1.2,1.8,1.2c1,0,1.9-.5,1.9-1.2,0-.8-1-1.2-1.9-1.2Z"/>
    <path class="st4" d="M264.9,88.7c-.5,0-.8-.4-.8-.8v-3.4c0-1.2-.7-2.1-1.9-2.1-1.3,0-2,.9-2,2.1v3.4c0,.4-.3.8-.8.8s-.8-.4-.8-.8v-6.1c0-.5.3-.8.8-.8.4,0,.8.3.8.8v.6c.5-.9,1.3-1.4,2.5-1.4,2,0,3.1,1.5,3.1,3.5v3.5c-.1.3-.4.7-.9.7Z"/>
    <path class="st4" d="M271.3,80.8c1.2,0,2.1.6,2.7,1.5v-4.6c0-.4.3-.8.8-.8s.8.4.8.8v10.1c0,.4-.3.8-.8.8s-.8-.4-.8-.8v-.6c-.5.9-1.6,1.5-2.7,1.5-2,0-3.6-1.7-3.6-3.9,0-2.4,1.6-4,3.6-4ZM271.6,87.4c1.4,0,2.3-1.2,2.3-2.6s-.9-2.6-2.3-2.6-2.3,1.1-2.3,2.6c0,1.5.9,2.6,2.3,2.6Z"/>
    <path class="st4" d="M281.6,88.7c-2.4,0-3.9-1.8-3.9-3.9s1.6-3.9,3.9-3.9,3.9,1.8,3.9,3.9-1.5,3.9-3.9,3.9ZM281.6,82.2c-1.5,0-2.3,1.2-2.3,2.6s.8,2.6,2.3,2.6,2.3-1.2,2.3-2.6-.8-2.6-2.3-2.6Z"/>
  </g>
  <g>
    <path class="st4" d="M57.3,98.5c.5,0,.9.4.9.9s-.4.9-.9.9-.9-.4-.9-.9c-.1-.4.4-.9.9-.9ZM57.3,109.4c-.5,0-.8-.4-.8-.8v-6.1c0-.4.3-.8.8-.8s.8.4.8.8v6.1c0,.4-.3.8-.8.8Z"/>
    <path class="st4" d="M67,109.4c-.5,0-.8-.4-.8-.8v-3.4c0-1.2-.7-2.1-1.9-2.1-1.3,0-2,.9-2,2.1v3.4c0,.4-.3.8-.8.8s-.8-.4-.8-.8v-6.1c0-.5.3-.8.8-.8.4,0,.8.3.8.8v.6c.5-.9,1.3-1.4,2.5-1.4,2,0,3.1,1.5,3.1,3.5v3.5c0,.3-.3.7-.9.7Z"/>
    <path class="st4" d="M74.5,99h-.5c-.9,0-1.4.3-1.4,1.5v1.3h1.7c.4,0,.7.3.7.7s-.3.7-.7.7h-1.7v5.5c0,.4-.3.8-.8.8s-.8-.4-.8-.8v-5.5h-1c-.4,0-.7-.3-.7-.7s.3-.7.7-.7h1v-1.1c0-1.8.9-2.9,2.9-2.9h.6c.4,0,.7.3.7.7,0,.2-.3.5-.7.5Z"/>
    <path class="st4" d="M80.3,103.1c-1.4,0-2.2.9-2.2,2.6v2.8c0,.4-.3.8-.8.8s-.8-.4-.8-.8v-6.1c0-.5.3-.8.8-.8s.8.3.8.8v.7c.3-1,1.1-1.6,2.2-1.6.5,0,.8.3.8.8,0,.5-.4.8-.8.8Z"/>
    <path class="st4" d="M88.1,109.4c-.5,0-.8-.4-.8-.8v-.2c-.5.7-1.3,1-2.4,1-1.7,0-2.9-.9-2.9-2.3,0-1.5,1.3-2.3,2.9-2.3,1,0,1.8.4,2.3.9v-.7c0-1.4-.6-2-2.1-2-.7,0-1.2.1-1.7.3-.2.1-.3.1-.5.1-.4,0-.7-.3-.7-.7s.3-.6.8-.8c.6-.2,1.5-.4,2.3-.4,2.3,0,3.6,1.2,3.6,3.3v3.8c0,.4-.2.8-.8.8ZM85.5,105.9c-1.1,0-1.8.4-1.8,1.2s.7,1.2,1.8,1.2c1,0,1.9-.5,1.9-1.2-.1-.8-1-1.2-1.9-1.2Z"/>
    <path class="st4" d="M98.3,105.5c0,.3-.2.6-.6.6h-5.2c.1,1.2.9,2.1,2.3,2.1.9,0,1.4-.3,2-.8.1-.1.3-.3.5-.3.4,0,.7.3.7.7,0,.2-.1.3-.2.5-.7.8-1.8,1.3-3.1,1.3-2.6,0-3.9-1.8-3.9-3.9,0-2.3,1.6-3.9,3.9-3.9,2.2-.3,3.6,1.5,3.6,3.7ZM94.7,102.8c-1.2,0-2,.8-2.2,1.9h4.2c0-1-.8-1.9-2-1.9Z"/>
    <path class="st4" d="M103.1,109.4c-1.1,0-2.1-.3-2.7-.9-.2-.2-.3-.4-.3-.7s.3-.6.6-.6.4.1.6.2c.5.3,1.1.7,1.9.7.9,0,1.4-.3,1.4-.9s-.5-.8-1.7-1.1c-2.1-.6-2.9-1.3-2.9-2.5,0-1.3,1.2-2.1,3.1-2.1.7,0,1.5.2,2.1.5.5.2.8.5.8.8s-.2.6-.6.6c-.2,0-.4-.1-.7-.2-.5-.3-1-.4-1.6-.4-.9,0-1.4.2-1.4.8s.5.8,1.8,1.1c1.9.5,2.8,1,2.8,2.4-.1,1.4-1.2,2.3-3.2,2.3Z"/>
    <path class="st4" d="M109.9,109.4c-.5,0-.8-.4-.8-.8v-5.5h-1.3c-.4,0-.7-.3-.7-.7s.3-.7.7-.7h1.3v-2.3c0-.4.3-.8.8-.8s.8.4.8.8v2.3h1.5c.4,0,.7.3.7.7s-.3.7-.7.7h-1.5v5.5c0,.4-.4.8-.8.8Z"/>
    <path class="st4" d="M117.9,103.1c-1.4,0-2.2.9-2.2,2.6v2.8c0,.4-.3.8-.8.8s-.8-.4-.8-.8v-6.1c0-.5.3-.8.8-.8s.8.3.8.8v.7c.3-1,1.1-1.6,2.2-1.6.5,0,.8.3.8.8-.1.5-.4.8-.8.8Z"/>
    <path class="st4" d="M120.8,101.6c.5,0,.8.4.8.8v3.4c0,1.2.7,2.1,1.9,2.1,1.3,0,2-.9,2-2.1v-3.4c0-.4.3-.8.8-.8s.8.4.8.8v6.1c0,.5-.3.8-.8.8-.4,0-.8-.3-.8-.8v-.6c-.5.9-1.3,1.4-2.5,1.4-2,0-3.1-1.5-3.1-3.5v-3.5c.1-.3.4-.7.9-.7Z"/>
    <path class="st4" d="M136,102.6c.1.2.2.3.2.6s-.3.7-.7.7c-.3,0-.5-.2-.7-.4-.4-.3-.9-.5-1.5-.5-1.6,0-2.4,1.2-2.4,2.6s.8,2.6,2.4,2.6c.6,0,1.1-.2,1.5-.5.2-.2.4-.4.7-.4.5,0,.7.3.7.7,0,.3-.1.4-.2.6-.5.6-1.6,1.1-2.7,1.1-2.5,0-4-1.7-4-3.9s1.5-3.9,4-3.9c1.1-.4,2.2.1,2.7.7Z"/>
    <path class="st4" d="M140,109.4c-.5,0-.8-.4-.8-.8v-5.5h-1.3c-.4,0-.7-.3-.7-.7s.3-.7.7-.7h1.3v-2.3c0-.4.3-.8.8-.8s.8.4.8.8v2.3h1.5c.4,0,.7.3.7.7s-.3.7-.7.7h-1.5v5.5c.1.4-.3.8-.8.8Z"/>
    <path class="st4" d="M145,101.6c.5,0,.8.4.8.8v3.4c0,1.2.7,2.1,1.9,2.1,1.3,0,2-.9,2-2.1v-3.4c0-.4.3-.8.8-.8s.8.4.8.8v6.1c0,.5-.3.8-.8.8-.4,0-.8-.3-.8-.8v-.6c-.5.9-1.3,1.4-2.5,1.4-2,0-3.1-1.5-3.1-3.5v-3.5c.1-.3.4-.7.9-.7Z"/>
    <path class="st4" d="M157.7,103.1c-1.4,0-2.2.9-2.2,2.6v2.8c0,.4-.3.8-.8.8s-.8-.4-.8-.8v-6.1c0-.5.3-.8.8-.8s.8.3.8.8v.7c.3-1,1.1-1.6,2.2-1.6.5,0,.8.3.8.8s-.4.8-.8.8Z"/>
    <path class="st4" d="M165.5,109.4c-.5,0-.8-.4-.8-.8v-.2c-.5.7-1.3,1-2.4,1-1.7,0-2.9-.9-2.9-2.3,0-1.5,1.3-2.3,2.9-2.3,1,0,1.8.4,2.3.9v-.7c0-1.4-.6-2-2.1-2-.7,0-1.2.1-1.7.3-.2.1-.3.1-.5.1-.4,0-.7-.3-.7-.7s.3-.6.8-.8c.6-.2,1.5-.4,2.3-.4,2.3,0,3.6,1.2,3.6,3.3v3.8c0,.4-.2.8-.8.8ZM162.8,105.9c-1.1,0-1.8.4-1.8,1.2s.7,1.2,1.8,1.2c1,0,1.9-.5,1.9-1.2,0-.8-.9-1.2-1.9-1.2Z"/>
    <path class="st4" d="M177.9,109.4c-1.2,0-2.1-.6-2.7-1.5v3.8c0,.4-.3.8-.8.8s-.8-.4-.8-.8v-9.4c0-.4.3-.8.8-.8s.8.4.8.8v.6c.5-.9,1.6-1.5,2.7-1.5,2,0,3.6,1.7,3.6,3.9,0,2.6-1.6,4.1-3.6,4.1ZM177.6,102.9c-1.4,0-2.3,1.2-2.3,2.6s.9,2.6,2.3,2.6,2.3-1.1,2.3-2.6-.9-2.6-2.3-2.6Z"/>
    <path class="st4" d="M189.2,109.4c-.5,0-.8-.4-.8-.8v-.2c-.5.7-1.3,1-2.4,1-1.7,0-2.9-.9-2.9-2.3,0-1.5,1.3-2.3,2.9-2.3,1,0,1.8.4,2.3.9v-.7c0-1.4-.6-2-2.1-2-.7,0-1.2.1-1.7.3-.2.1-.3.1-.5.1-.4,0-.7-.3-.7-.7s.3-.6.8-.8c.6-.2,1.5-.4,2.3-.4,2.3,0,3.6,1.2,3.6,3.3v3.8c0,.4-.3.8-.8.8ZM186.5,105.9c-1.1,0-1.8.4-1.8,1.2s.7,1.2,1.8,1.2c1,0,1.9-.5,1.9-1.2,0-.8-.9-1.2-1.9-1.2Z"/>
    <path class="st4" d="M196.2,103.1c-1.4,0-2.2.9-2.2,2.6v2.8c0,.4-.3.8-.8.8s-.8-.4-.8-.8v-6.1c0-.5.3-.8.8-.8s.8.3.8.8v.7c.3-1,1.1-1.6,2.2-1.6.5,0,.8.3.8.8s-.4.8-.8.8Z"/>
    <path class="st4" d="M204,109.4c-.5,0-.8-.4-.8-.8v-.2c-.5.7-1.3,1-2.4,1-1.7,0-2.9-.9-2.9-2.3,0-1.5,1.3-2.3,2.9-2.3,1,0,1.8.4,2.3.9v-.7c0-1.4-.6-2-2.1-2-.7,0-1.2.1-1.7.3-.2.1-.3.1-.5.1-.4,0-.7-.3-.7-.7s.3-.6.8-.8c.6-.2,1.5-.4,2.3-.4,2.3,0,3.6,1.2,3.6,3.3v3.8c0,.4-.2.8-.8.8ZM201.3,105.9c-1.1,0-1.8.4-1.8,1.2s.7,1.2,1.8,1.2c1,0,1.9-.5,1.9-1.2,0-.8-.9-1.2-1.9-1.2Z"/>
    <path class="st4" d="M224,109.4c-.5,0-.8-.4-.8-.8v-3.4c0-1.2-.6-2.1-1.8-2.1s-2.1,1-2.1,2.1v3.4c0,.4-.3.8-.8.8s-.8-.4-.8-.8v-3.4c0-1.2-.6-2.1-1.9-2.1s-2,1-2,2.1v3.4c0,.4-.3.8-.8.8s-.8-.4-.8-.8v-6.1c0-.5.3-.8.8-.8.6,0,.8.4.8.8v.6c.5-.9,1.4-1.4,2.4-1.4,1.2,0,2.2.6,2.6,1.5.7-1,1.7-1.5,2.9-1.5,2.1,0,3.1,1.4,3.1,3.4v3.6c0,.3-.3.7-.8.7Z"/>
    <path class="st4" d="M234.2,105.5c0,.3-.2.6-.6.6h-5.2c.1,1.2.9,2.1,2.3,2.1.9,0,1.4-.3,2-.8.1-.1.3-.3.5-.3.4,0,.7.3.7.7,0,.2-.1.3-.2.5-.7.8-1.8,1.3-3.1,1.3-2.6,0-3.9-1.8-3.9-3.9,0-2.3,1.6-3.9,3.9-3.9,2.2-.3,3.6,1.5,3.6,3.7ZM230.6,102.8c-1.2,0-2,.8-2.2,1.9h4.2c0-1-.8-1.9-2-1.9Z"/>
    <path class="st4" d="M240.1,103.1c-1.4,0-2.2.9-2.2,2.6v2.8c0,.4-.3.8-.8.8s-.8-.4-.8-.8v-6.1c0-.5.3-.8.8-.8s.8.3.8.8v.7c.3-1,1.1-1.6,2.2-1.6.5,0,.8.3.8.8s-.4.8-.8.8Z"/>
    <path class="st4" d="M248.3,102.6c.1.2.2.3.2.6s-.3.7-.7.7c-.3,0-.5-.2-.7-.4-.4-.3-.9-.5-1.5-.5-1.6,0-2.4,1.2-2.4,2.6s.8,2.6,2.4,2.6c.6,0,1.1-.2,1.5-.5.2-.2.4-.4.7-.4.5,0,.7.3.7.7,0,.3-.1.4-.2.6-.5.6-1.6,1.1-2.7,1.1-2.5,0-4-1.7-4-3.9s1.5-3.9,4-3.9c1.1-.4,2.2.1,2.7.7Z"/>
    <path class="st4" d="M256.3,109.4c-.5,0-.8-.4-.8-.8v-.2c-.5.7-1.3,1-2.4,1-1.7,0-2.9-.9-2.9-2.3,0-1.5,1.3-2.3,2.9-2.3,1,0,1.8.4,2.3.9v-.7c0-1.4-.6-2-2.1-2-.7,0-1.2.1-1.7.3-.2.1-.3.1-.5.1-.4,0-.7-.3-.7-.7s.3-.6.8-.8c.6-.2,1.5-.4,2.3-.4,2.3,0,3.6,1.2,3.6,3.3v3.8c0,.4-.3.8-.8.8ZM253.6,105.9c-1.1,0-1.8.4-1.8,1.2s.7,1.2,1.8,1.2c1,0,1.9-.5,1.9-1.2,0-.8-1-1.2-1.9-1.2Z"/>
    <path class="st4" d="M262.6,101.5c1.2,0,2.1.6,2.7,1.5v-4.6c0-.4.3-.8.8-.8s.8.4.8.8v10.1c0,.4-.3.8-.8.8s-.8-.4-.8-.8v-.6c-.5.9-1.6,1.5-2.7,1.5-2,0-3.6-1.7-3.6-3.9,0-2.4,1.6-4,3.6-4ZM262.9,108.1c1.4,0,2.3-1.2,2.3-2.6s-.9-2.6-2.3-2.6-2.3,1.1-2.3,2.6.9,2.6,2.3,2.6Z"/>
    <path class="st4" d="M272.9,109.4c-2.4,0-3.9-1.8-3.9-3.9s1.6-3.9,3.9-3.9,3.9,1.8,3.9,3.9-1.5,3.9-3.9,3.9ZM272.9,102.9c-1.5,0-2.3,1.2-2.3,2.6s.8,2.6,2.3,2.6,2.3-1.2,2.3-2.6-.8-2.6-2.3-2.6Z"/>
    <path class="st4" d="M281.6,109.4c-1.1,0-2.1-.3-2.7-.9-.2-.2-.3-.4-.3-.7s.3-.6.6-.6.4.1.6.2c.5.3,1.1.7,1.9.7.9,0,1.4-.3,1.4-.9s-.5-.8-1.7-1.1c-2.1-.6-2.9-1.3-2.9-2.5,0-1.3,1.2-2.1,3.1-2.1.7,0,1.5.2,2.1.5.5.2.8.5.8.8s-.2.6-.6.6c-.2,0-.4-.1-.7-.2-.5-.3-1-.4-1.6-.4-.9,0-1.4.2-1.4.8s.5.8,1.8,1.1c1.9.5,2.8,1,2.8,2.4,0,1.4-1.1,2.3-3.2,2.3Z"/>
    <path class="st4" d="M295.6,99h-.5c-.9,0-1.4.3-1.4,1.5v1.3h1.7c.4,0,.7.3.7.7s-.3.7-.7.7h-1.7v5.5c0,.4-.3.8-.8.8s-.8-.4-.8-.8v-5.5h-1c-.4,0-.7-.3-.7-.7s.3-.7.7-.7h1v-1.1c0-1.8.9-2.9,2.9-2.9h.6c.4,0,.7.3.7.7,0,.2-.3.5-.7.5ZM298.5,98.5c.5,0,.9.4.9.9s-.4.9-.9.9-.9-.4-.9-.9c0-.4.4-.9.9-.9ZM298.5,109.4c-.5,0-.8-.4-.8-.8v-6.1c0-.4.3-.8.8-.8s.8.4.8.8v6.1c0,.4-.3.8-.8.8Z"/>
    <path class="st4" d="M308.3,109.4c-.5,0-.8-.4-.8-.8v-3.4c0-1.2-.7-2.1-1.9-2.1-1.3,0-2,.9-2,2.1v3.4c0,.4-.3.8-.8.8s-.8-.4-.8-.8v-6.1c0-.5.3-.8.8-.8.4,0,.8.3.8.8v.6c.5-.9,1.3-1.4,2.5-1.4,2,0,3.1,1.5,3.1,3.5v3.5c-.1.3-.4.7-.9.7Z"/>
    <path class="st4" d="M317.2,109.4c-.5,0-.8-.4-.8-.8v-.2c-.5.7-1.3,1-2.4,1-1.7,0-2.9-.9-2.9-2.3,0-1.5,1.3-2.3,2.9-2.3,1,0,1.8.4,2.3.9v-.7c0-1.4-.6-2-2.1-2-.7,0-1.2.1-1.7.3-.2.1-.3.1-.5.1-.4,0-.7-.3-.7-.7s.3-.6.8-.8c.6-.2,1.5-.4,2.3-.4,2.3,0,3.6,1.2,3.6,3.3v3.8c0,.4-.3.8-.8.8ZM314.5,105.9c-1.1,0-1.8.4-1.8,1.2s.7,1.2,1.8,1.2c1,0,1.9-.5,1.9-1.2-.1-.8-1-1.2-1.9-1.2Z"/>
    <path class="st4" d="M326.8,109.4c-.5,0-.8-.4-.8-.8v-3.4c0-1.2-.7-2.1-1.9-2.1-1.3,0-2,.9-2,2.1v3.4c0,.4-.3.8-.8.8s-.8-.4-.8-.8v-6.1c0-.5.3-.8.8-.8.4,0,.8.3.8.8v.6c.5-.9,1.3-1.4,2.5-1.4,2,0,3.1,1.5,3.1,3.5v3.5c-.1.3-.4.7-.9.7Z"/>
    <path class="st4" d="M336.3,102.6c.1.2.2.3.2.6s-.3.7-.7.7c-.3,0-.5-.2-.7-.4-.4-.3-.9-.5-1.5-.5-1.6,0-2.4,1.2-2.4,2.6s.8,2.6,2.4,2.6c.6,0,1.1-.2,1.5-.5.2-.2.4-.4.7-.4.5,0,.7.3.7.7,0,.3-.1.4-.2.6-.5.6-1.6,1.1-2.7,1.1-2.5,0-4-1.7-4-3.9s1.5-3.9,4-3.9c1.1-.4,2.2.1,2.7.7Z"/>
    <path class="st4" d="M339.4,98.5c.5,0,.9.4.9.9s-.4.9-.9.9-.9-.4-.9-.9c0-.4.4-.9.9-.9ZM339.4,109.4c-.5,0-.8-.4-.8-.8v-6.1c0-.4.3-.8.8-.8s.8.4.8.8v6.1c0,.4-.3.8-.8.8Z"/>
    <path class="st4" d="M349.7,105.5c0,.3-.2.6-.6.6h-5.2c.1,1.2.9,2.1,2.3,2.1.9,0,1.4-.3,2-.8.1-.1.3-.3.5-.3.4,0,.7.3.7.7,0,.2-.1.3-.2.5-.7.8-1.8,1.3-3.1,1.3-2.6,0-3.9-1.8-3.9-3.9,0-2.3,1.6-3.9,3.9-3.9,2.2-.3,3.6,1.5,3.6,3.7ZM346.2,102.8c-1.2,0-2,.8-2.2,1.9h4.2c-.1-1-.9-1.9-2-1.9Z"/>
    <path class="st4" d="M355.6,103.1c-1.4,0-2.2.9-2.2,2.6v2.8c0,.4-.3.8-.8.8s-.8-.4-.8-.8v-6.1c0-.5.3-.8.8-.8s.8.3.8.8v.7c.3-1,1.1-1.6,2.2-1.6.5,0,.8.3.8.8s-.4.8-.8.8Z"/>
    <path class="st4" d="M361.1,109.4c-2.4,0-3.9-1.8-3.9-3.9s1.6-3.9,3.9-3.9,3.9,1.8,3.9,3.9-1.5,3.9-3.9,3.9ZM361.1,102.9c-1.5,0-2.3,1.2-2.3,2.6s.8,2.6,2.3,2.6,2.3-1.2,2.3-2.6-.8-2.6-2.3-2.6Z"/>
    <path class="st4" d="M369.8,109.4c-1.1,0-2.1-.3-2.7-.9-.2-.2-.3-.4-.3-.7s.3-.6.6-.6.4.1.6.2c.5.3,1.1.7,1.9.7.9,0,1.4-.3,1.4-.9s-.5-.8-1.7-1.1c-2.1-.6-2.9-1.3-2.9-2.5,0-1.3,1.2-2.1,3.1-2.1.7,0,1.5.2,2.1.5.5.2.8.5.8.8s-.2.6-.6.6c-.2,0-.4-.1-.7-.2-.5-.3-1-.4-1.6-.4-.9,0-1.4.2-1.4.8s.5.8,1.8,1.1c1.9.5,2.8,1,2.8,2.4,0,1.4-1.1,2.3-3.2,2.3Z"/>
  </g>
</svg>