<?xml version="1.0" encoding="UTF-8"?>
<svg id="Capa_1" data-name="Capa 1" xmlns="http://www.w3.org/2000/svg" version="1.1" viewBox="0 0 117.84 25">
  <defs>
    <style>
      .cls-1 {
        fill: #fff;
        stroke-width: 0px;
      }
    </style>
  </defs>
  <path class="cls-1" d="M37.93,9.32c.97,0,1.72.34,2.23.92.23.23.46.51.92.51.63,0,1.09-.46,1.09-1.03,0-.29-.17-.57-.4-.8-.8-.92-2.17-1.6-3.89-1.6-3.55,0-5.43,2.52-5.43,5.21s1.89,5.21,5.43,5.21c1.72,0,3.09-.69,3.89-1.6.23-.23.4-.51.4-.8,0-.57-.4-1.03-1.09-1.03-.46,0-.69.29-.92.51-.57.57-1.32.92-2.23.92-2,0-3.03-1.49-3.03-3.15s1.03-3.2,3.03-3.26Z"/>
  <path class="cls-1" d="M55.54,15.5h-4.86v-1.94h2.69c.57,0,1.03-.46,1.03-1.03s-.46-1.03-1.03-1.03h-2.69v-1.83h4.69c.57,0,1.03-.46,1.03-1.03s-.46-1.03-1.03-1.03h-5.89c-.69,0-1.2.57-1.2,1.2v7.55c0,.69.57,1.2,1.2,1.2h6.06c.57,0,1.03-.46,1.03-1.03s-.46-1.03-1.03-1.03Z"/>
  <path class="cls-1" d="M70.53,7.43c-.63,0-1.14.51-1.14,1.14v5.21l-5.09-5.89c-.29-.29-.57-.46-.92-.46-.74,0-1.14.57-1.14,1.14v7.95c0,.63.52,1.14,1.14,1.14s1.14-.51,1.14-1.14v-5.09l5.15,5.83c.23.29.46.4.86.4.74,0,1.14-.57,1.14-1.14v-7.95c0-.63-.51-1.14-1.14-1.14Z"/>
  <path class="cls-1" d="M82.66,9.32c.97,0,1.72.34,2.23.92.17.23.46.51.92.51.63,0,1.09-.46,1.09-1.03,0-.29-.17-.57-.4-.8-.8-.92-2.17-1.6-3.89-1.6-3.55,0-5.43,2.52-5.43,5.21s1.89,5.21,5.43,5.21c1.72,0,3.09-.69,3.89-1.6.23-.23.4-.51.4-.8,0-.57-.4-1.03-1.09-1.03-.46,0-.69.29-.92.51-.57.57-1.32.92-2.23.92-2,0-3.03-1.49-3.03-3.15s1.03-3.2,3.03-3.26Z"/>
  <path class="cls-1" d="M97.42,7.32c-3.26,0-5.38,2.23-5.38,5.21s2.12,5.21,5.38,5.21,5.38-2.17,5.38-5.21-2.12-5.21-5.38-5.21ZM97.42,15.73c-1.89,0-3.03-1.37-3.03-3.15s1.2-3.15,3.03-3.15,3.03,1.32,3.03,3.15-1.2,3.15-3.03,3.15Z"/>
  <path class="cls-1" d="M115.95,13.44c1.32-.51,1.89-1.54,1.89-2.75,0-1.72-1.2-3.09-4-3.09h-4.18c-.69,0-1.2.57-1.2,1.2v7.67c0,.69.57,1.2,1.2,1.2.69,0,1.2-.57,1.2-1.2v-2.69h2.75l1.83,3.32c.17.34.52.57,1.03.57.63,0,1.09-.51,1.09-1.09,0-.23-.06-.4-.17-.57l-1.43-2.57ZM114.23,11.84h-3.38v-2.29h3.38c.92,0,1.32.57,1.32,1.14,0,.51-.4,1.14-1.32,1.14Z"/>
  <path class="cls-1" d="M21.22,5.26L12.53.23s0,0,0,0l-.69-.16v4.55l6.23,3.58s0,0,0,0c0,0,0,0,0,0,.03.02.05.04.08.06.01.01.03.02.04.03.02.02.03.04.05.06.01.02.03.04.04.06,0,.02.01.04.02.05.01.03.03.05.03.08,0,.02,0,.04,0,.06,0,.03.01.06.01.09h0v7.61c0,.2-.11.39-.29.5l-6.24,3.61-.05,4.59c.27-.05.53-.13.74-.23l8.69-5.09c.43-.25.81-.72,1.04-1.24.14-.31.22-.63.22-.93V7.43c0-.1,0-.2-.03-.31-.12-.73-.63-1.52-1.23-1.87Z"/>
  <path class="cls-1" d="M4.12,16.3v-7.61s0-.08.02-.12c0-.01,0-.02,0-.03.01-.04.03-.08.05-.12,0,0,0,0,0-.01.02-.04.05-.08.09-.11,0,0,0,0,0,0,.03-.04.08-.07.12-.09l6.29-3.64V0c-.25.05-.48.12-.68.22,0,0,0,0,0,0L1.26,5.26C.66,5.61.14,6.4.03,7.13c-.02.1-.03.21-.03.31v10.07c0,.3.08.62.22.93.23.52.61.99,1.04,1.24l8.69,5.03c.21.11.47.19.74.24v-4.54l-6.29-3.61c-.18-.1-.29-.29-.29-.5Z"/>
  <polygon class="cls-1" points="5.26 15.97 10.7 19.09 10.7 12.8 5.26 9.68 5.26 15.97"/>
  <polygon class="cls-1" points="17.28 15.97 17.28 9.65 11.84 12.8 11.84 19.09 17.28 15.97"/>
  <polygon class="cls-1" points="11.27 5.58 5.84 8.69 11.27 11.81 16.67 8.68 11.27 5.58"/>
</svg>