<?xml version="1.0" encoding="UTF-8"?>
<svg id="Layer_1" xmlns="http://www.w3.org/2000/svg" xmlns:xlink="http://www.w3.org/1999/xlink" version="1.1" viewBox="0 0 940.7 632.3">
  <!-- Generator: Adobe Illustrator 29.1.0, SVG Export Plug-In . SVG Version: 2.1.0 Build 142)  -->
  <defs>
    <style>
      .st0, .st1, .st2, .st3, .st4, .st5, .st6 {
        fill: none;
      }

      .st7 {
        fill-rule: evenodd;
      }

      .st7, .st8, .st9, .st10 {
        fill: #fff;
      }

      .st1, .st2, .st3, .st5, .st11, .st12, .st13, .st14, .st6, .st15 {
        stroke-miterlimit: 10;
      }

      .st1, .st2, .st4, .st5, .st11, .st12, .st13, .st14, .st6, .st15 {
        stroke: #fff;
      }

      .st1, .st3 {
        stroke-width: 7.9px;
      }

      .st2 {
        stroke-width: 4.7px;
      }

      .st3 {
        stroke: #161b4e;
      }

      .st4 {
        stroke-dasharray: 0 11.1;
        stroke-linecap: round;
        stroke-linejoin: round;
        stroke-width: 3.2px;
      }

      .st8 {
        font-family: Poppins-Regular, Poppins;
        font-size: 11.1px;
      }

      .st16 {
        fill: #0b9eda;
      }

      .st17 {
        fill: #161b4e;
      }

      .st5 {
        stroke-width: 1.6px;
      }

      .st11 {
        fill: url(#Degradado_sin_nombre_31);
      }

      .st11, .st12, .st13, .st14, .st15 {
        stroke-width: .2px;
      }

      .st12 {
        fill: url(#Degradado_sin_nombre_34);
      }

      .st13 {
        fill: url(#Degradado_sin_nombre_33);
      }

      .st14 {
        fill: url(#Degradado_sin_nombre_32);
      }

      .st18 {
        fill: #0a9ac7;
      }

      .st6 {
        stroke-width: 2px;
      }

      .st15 {
        fill: url(#Degradado_sin_nombre_3);
      }

      .st10 {
        font-family: Montserrat-ExtraBold, Montserrat;
        font-size: 30.9px;
        font-weight: 700;
      }
    </style>
    <linearGradient id="Degradado_sin_nombre_3" data-name="Degradado sin nombre 3" x1="218.8" y1="503.7" x2="234.6" y2="503.7" gradientUnits="userSpaceOnUse">
      <stop offset="0" stop-color="#d1e4ed"/>
      <stop offset=".7" stop-color="#f4f8fa"/>
      <stop offset=".9" stop-color="#fff"/>
    </linearGradient>
    <linearGradient id="Degradado_sin_nombre_31" data-name="Degradado sin nombre 3" y1="130.9" y2="130.9" xlink:href="#Degradado_sin_nombre_3"/>
    <linearGradient id="Degradado_sin_nombre_32" data-name="Degradado sin nombre 3" x1="325.9" y1="191.3" x2="341.7" y2="191.3" xlink:href="#Degradado_sin_nombre_3"/>
    <linearGradient id="Degradado_sin_nombre_33" data-name="Degradado sin nombre 3" x1="325.9" y1="444.2" x2="341.7" y2="444.2" xlink:href="#Degradado_sin_nombre_3"/>
    <linearGradient id="Degradado_sin_nombre_34" data-name="Degradado sin nombre 3" x1="374.9" y1="316.5" x2="390.7" y2="316.5" xlink:href="#Degradado_sin_nombre_3"/>
  </defs>
  <circle class="st15" cx="226.7" cy="503.7" r="7.9"/>
  <circle class="st11" cx="226.7" cy="130.9" r="7.9"/>
  <path class="st4" d="M227.2,522.2v32.9c0,6.2,6.2,11.3,13.8,11.3h30"/>
  <path class="st4" d="M227.2,111.5v-30.7c0-6.2,6.1-11.3,13.7-11.3h29.6"/>
  <g>
    <path class="st17" d="M333,12.3h296.5c24.4,0,44.2,19.8,44.2,44.2h0c0,24.4-19.8,44.2-44.2,44.2h-296.5V12.3h0Z"/>
    <text class="st8" transform="translate(573.7 55.2)"><tspan x="0" y="0">Corretaje </tspan><tspan x="0" y="13.3">interbancario</tspan></text>
    <circle class="st16" cx="336" cy="53.3" r="47.9" transform="translate(-4.2 55) rotate(-9.3)"/>
    <path class="st3" d="M373,83.8c6.9-8.3,11-18.9,11-30.5,0-26.5-21.5-47.9-47.9-47.9s-11.6,1.1-16.9,3.1"/>
    <path class="st1" d="M282.6,35c-2,5.7-3,11.9-3,18.3,0,31.2,25.3,56.4,56.4,56.4s6.5-.3,9.6-.8"/>
    <text class="st10" transform="translate(298.5 64.3)"><tspan x="0" y="0">1993</tspan></text>
    <g id="logo-enlace">
      <g id="enlace-horizontal-curvas">
        <g>
          <path class="st7" d="M398.1,43.9h15.6v4.1h-10.3v3.8h9.7v4h-9.7v5h11.3v4.2h-16.5v-21.1Z"/>
          <path class="st7" d="M422.1,50.8c.4-.5.9-.9,1.5-1.2.9-.4,1.9-.6,2.8-.6,1,0,1.9.2,2.8.6,1.6.9,2.1,2.3,2.1,4.7v10.7h-4.6v-8.8c0-.8,0-1.6-.2-2.3-.4-.8-1.2-1.3-2.1-1.2-2.4,0-2.4,2-2.4,3.9v8.4h-4.6v-15.6h4.6v1.4Z"/>
          <path class="st7" d="M439.7,43.9v21.1h-4.6v-21.1h4.6Z"/>
          <path class="st7" d="M443.3,53.8c0-1.3.6-2.6,1.6-3.5,1.4-1.1,3.3-1.4,5.1-1.4s6.5.5,6.5,4.5v9.1c0,1.7,0,1.9.5,2.5h-4.5v-1.4c-1.3,1.2-3,1.8-4.8,1.9-3.6,0-5.1-2.6-5.1-4.8s2-4,3.3-4.5c1.2-.5,4.2-1.1,6.2-1.4v-.8c0-.7-.1-1.9-1.8-1.9s-2.3,1.2-2.4,1.8h-4.6ZM449.1,58.5c-.8.3-2,.7-2,2,0,.9.8,1.6,1.7,1.6.6,0,1.1-.2,1.6-.5,1.5-1,1.6-2.4,1.6-4l-3,1Z"/>
          <path class="st7" d="M474.1,61.3c-.6,1.1-1.5,2-2.5,2.8-1.3.9-2.9,1.4-4.5,1.4-3,0-7.7-1.8-7.7-8.2s2.6-8.4,7.8-8.4c2.7,0,5.3,1.4,6.7,3.7l-3.4,2c-.3-.7-.7-1.2-1.3-1.6-.5-.3-1.1-.5-1.7-.5-2.5,0-3.3,2.8-3.3,4.7s1,4.7,3.5,4.7c1.4,0,2.6-1,3-2.3l3.5,1.8Z"/>
          <path class="st7" d="M491,61c-.5.9-1.2,1.6-1.9,2.3-1.6,1.5-3.7,2.2-5.9,2.2-4.6,0-7.9-3-7.9-8.1s1.9-8.6,8-8.6c2.1,0,4.1.7,5.6,2.2,2,2.2,2.2,5.2,2.2,7h-11.2c0,1.9,1.1,3.9,3.5,3.9s3.4-1.6,4-2.7l3.5,1.7ZM486.4,55.2c0-.8-.3-1.6-.9-2.2-.6-.6-1.4-.9-2.2-.9-.9,0-1.7.4-2.3,1-.5.6-.8,1.3-.9,2.1h6.4Z"/>
        </g>
        <g>
          <g>
            <path class="st0" d="M524.1,72.5v-7.1h-10.7v-7.1h10.7v-7.2h-10.7v-7.1h10.7v-7.2h-17.9v35.7h17.9Z"/>
            <path class="st9" d="M523.1,71.5v-5.1h-10.7v-9.2h10.7v-5.1h-10.7v-9.2h10.7v-5.1h-15.8v33.6h15.8M524.1,72.5h-17.9v-35.7h17.9v7.2h-10.7v7.1h10.7v7.2h-10.7v7.1h10.7v7.1Z"/>
          </g>
          <path class="st9" d="M524.1,72.5v-7.1h10.7v-7.1h-10.7v-7.2h10.7v-7.1h-10.7v-7.2h17.9v35.7h-17.9Z"/>
        </g>
      </g>
    </g>
  </g>
  <g>
    <path class="st17" d="M335.7,523.3h296.5c24.4,0,44.2,19.8,44.2,44.2h0c0,24.4-19.8,44.2-44.2,44.2h-296.5v-88.4h0Z"/>
    <text class="st8" transform="translate(532.9 573.9)"><tspan x="0" y="0">Corretaje institucional</tspan></text>
    <circle class="st16" cx="337.4" cy="567.2" r="49.1" transform="translate(-101.7 74.5) rotate(-11)"/>
    <path class="st3" d="M375.2,598.4c7-8.5,11.2-19.4,11.2-31.3,0-27.1-22-49.1-49.1-49.1s-11.9,1.1-17.3,3.1"/>
    <path class="st1" d="M282.7,548.4c-2,5.9-3.1,12.2-3.1,18.8,0,31.9,25.9,57.8,57.8,57.8s6.6-.3,9.8-.8"/>
    <text class="st10" transform="translate(299 578.3)"><tspan x="0" y="0">2018</tspan></text>
    <g>
      <path id="Trazado_14823" class="st6" d="M508.1,573.3c-1,0-2-.6-2.4-1.5l-7.3-14.6-7.3,14.6c-.7,1.3-2.3,1.9-3.6,1.2s-1.9-2.3-1.2-3.6l9.7-19.4c.7-1.4,2.3-1.9,3.6-1.2.6.3,1,.7,1.2,1.2l9.7,19.4c.7,1.4.1,3-1.2,3.6-.4.1-.8.3-1.2.3"/>
      <g>
        <g>
          <path id="Trazado_14796" class="st9" d="M408.9,585.2h-1.8c-.3,0-.6-.3-.6-.6v-4.9c0-.3.2-.6.6-.6h1.7c1.2,0,1.9.6,1.9,1.5s-.4,1.1-1,1.3c.8,0,1.3.7,1.3,1.4s-.7,1.7-2.1,1.7M408.8,580.2h-1.1v1.4h1.1c.4,0,.8-.3.8-.6h0c0-.5-.3-.8-.7-.8h0M407.7,584.2h1.2c.6,0,1-.3,1-.8s-.4-.8-.9-.8h-1.3v1.7Z"/>
          <path id="Trazado_14797" class="st9" d="M413.4,585.4c-1.1,0-2.1-.8-2.2-1.9,0-1.2.8-2.1,1.9-2.2,1.1,0,2.1.8,2.2,1.9h0c0,1.2-.8,2.1-1.8,2.2h-.1M413.4,582.1c-.6,0-.9.6-.9,1.2s.3,1.2.9,1.2.9-.6.9-1.2-.3-1.2-.9-1.2"/>
          <path id="Trazado_14798" class="st9" d="M416.7,585.3c-.3,0-.6-.2-.6-.6h0v-5.1c0-.3.2-.6.6-.6s.6.2.6.6v5.1c0,.3-.3.6-.6.6h0"/>
          <path id="Trazado_14799" class="st9" d="M419.6,585.4c-.5,0-.9-.1-1.3-.4-.1-.1-.2-.3-.2-.4,0-.2.1-.3.3-.3h0c.1,0,.3,0,.3.1.2.2.5.3.8.3s.5-.1.5-.3-.2-.3-.6-.5c-1-.3-1.4-.7-1.4-1.4s.8-1.2,1.5-1.2.7,0,1,.2.5.3.5.6-.1.3-.3.4h0c-.1,0-.3,0-.3-.1-.2-.1-.5-.2-.8-.2s-.5,0-.5.3.1.3.7.5c1,.3,1.4.6,1.4,1.3.2.7-.3,1.2-1.4,1.2"/>
          <path id="Trazado_14800" class="st9" d="M424.7,585.3c-.3,0-.5-.2-.6-.5h0c-.2.3-.6.6-1.1.5-.7,0-1.2-.4-1.3-1h0c0-.9.6-1.3,1.4-1.3s.8.1,1,.3v-.3c0-.4-.2-.8-.6-.8h-.2c-.2,0-.3,0-.6,0-.1,0-.3,0-.5.1-.2,0-.4-.1-.4-.4h0c0-.3.3-.4.6-.6.3,0,.6-.1,1-.1,1.2,0,1.8.6,1.8,1.7v1.9c.1.2,0,.5-.4.5h0M424.2,584.1c0-.3-.3-.5-.7-.5s-.7.2-.7.5.3.5.7.5c.3,0,.7-.2.7-.5"/>
          <path id="Trazado_14801" class="st9" d="M429.6,584.7c0,.3-.3.6-.6.6s-.5-.2-.6-.6v-5c0-.3.2-.6.6-.6s.6.2.6.6h0v5Z"/>
          <path id="Trazado_14802" class="st9" d="M433.9,585.3c-.3,0-.6-.2-.6-.6h0v-1.7c0-.5-.2-.9-.7-.9s-.8.4-.8,1v1.6c0,.3-.2.6-.6.6s-.6-.2-.6-.6v-3c0-.3.2-.6.6-.6s.6.2.6.6h0c.2-.3.6-.6,1.1-.6,1,0,1.4.8,1.4,1.8v1.7c0,.4-.3.6-.6.6h0"/>
          <path id="Trazado_14803" class="st9" d="M436.7,585.4c-.5,0-.9-.1-1.3-.4-.1-.1-.2-.3-.2-.4,0-.2.1-.3.3-.3h0c.1,0,.3,0,.3.1.2.2.5.3.8.3s.5-.1.5-.3-.2-.3-.6-.5c-1-.3-1.4-.7-1.4-1.4s.8-1.2,1.5-1.2.7,0,1,.2.5.3.5.6-.1.4-.3.4h0c-.1,0-.3,0-.3-.1-.2-.1-.5-.2-.8-.2s-.5,0-.5.3.1.3.7.5c1,.3,1.4.6,1.4,1.3.2.7-.3,1.2-1.4,1.2"/>
          <path id="Trazado_14804" class="st9" d="M440,585.3c-.3,0-.6-.2-.6-.5h0v-2.5h-.4c-.3,0-.5-.2-.5-.4s.2-.5.4-.5h.5v-1.1c0-.3.2-.6.6-.6s.6.2.6.6v1.1h.6c.3,0,.4.2.4.4s-.2.4-.4.4h-.6v2.5c0,.3-.3.6-.6.6h0"/>
          <path id="Trazado_14805" class="st9" d="M442.6,580.7c-.3,0-.6-.3-.6-.6s.3-.6.6-.6.6.3.6.6c0,.3-.3.6-.6.6h0M442.6,585.3c-.3,0-.6-.2-.6-.6h0v-3c0-.3.3-.6.6-.5.3,0,.5.2.5.5v3c0,.3-.2.6-.5.6h0"/>
          <path id="Trazado_14806" class="st9" d="M445.1,585.3c-.3,0-.6-.2-.6-.5h0v-2.5h-.4c-.3,0-.5-.2-.5-.4s.2-.5.4-.5h.5v-1.1c0-.3.2-.6.6-.6s.6.2.6.6v1.1h.6c.3,0,.4.2.4.4s-.2.4-.4.4h-.6v2.5c0,.3-.3.6-.6.6h0"/>
          <path id="Trazado_14807" class="st9" d="M447.5,581.3c.3,0,.6.2.6.6h0v1.7c0,.5.2.8.7.8s.8-.4.8-1v-1.6c0-.3.2-.6.5-.6s.6.2.6.5h0v3c0,.3-.2.6-.5.6s-.6-.2-.6-.5h0c-.2.3-.6.5-1.1.5-1,0-1.4-.8-1.4-1.8v-1.7c0-.3.3-.6.6-.6h0"/>
          <path id="Trazado_14808" class="st9" d="M454.7,581.9c0,.1.1.3.1.4,0,.2-.2.4-.4.4h0c-.1,0-.3,0-.3-.2-.1-.3-.4-.4-.7-.4-.6,0-.9.6-.9,1.2s.3,1.2.9,1.2.6-.1.7-.4c0-.1.2-.2.3-.2.2,0,.4.1.4.4h0c0,.1,0,.3-.1.4-.3.4-.8.7-1.4.7-1.1,0-2-1-1.9-2.2,0-1,.9-1.9,1.9-1.9.6,0,1.1.2,1.4.7"/>
          <path id="Trazado_14809" class="st9" d="M456.1,580.7c-.3,0-.6-.3-.6-.6s.3-.6.6-.6.6.3.6.6c0,.3-.3.6-.6.6q0,0,0,0M456.1,585.3c-.3,0-.6-.2-.6-.6h0v-3c0-.3.2-.6.6-.6s.6.2.6.6v3c0,.3-.2.6-.6.6q0,0,0,0"/>
          <path id="Trazado_14810" class="st9" d="M459.4,585.4c-1.1,0-2.1-.8-2.2-1.9,0-1.1.8-2.1,1.9-2.2,1.1,0,2.1.8,2.2,1.9h0c0,1.2-.8,2.1-1.8,2.2h-.1M459.4,582.1c-.6,0-.9.6-.9,1.2s.3,1.2.9,1.2.9-.6.9-1.2-.3-1.2-.9-1.2"/>
          <path id="Trazado_14811" class="st9" d="M465.3,585.3c-.3,0-.6-.2-.6-.6h0v-1.7c0-.5-.2-.9-.7-.9s-.8.4-.8,1v1.6c0,.3-.2.6-.6.6s-.6-.2-.6-.6h0v-3c0-.3.2-.6.6-.6s.6.2.6.6h0c.2-.3.6-.6,1.1-.6,1,0,1.4.8,1.4,1.8v1.7c0,.4-.3.6-.6.6h0"/>
          <path id="Trazado_14812" class="st9" d="M469.6,585.3c-.3,0-.5-.2-.6-.5h0c-.2.3-.6.6-1.1.5-.7,0-1.2-.4-1.3-1h0c0-.9.6-1.3,1.4-1.3s.7.1,1,.3v-.3c0-.4-.2-.8-.6-.8h-.2c-.2,0-.3,0-.6,0-.1,0-.3,0-.5.1-.2,0-.4-.1-.4-.4h0c0-.3.3-.4.6-.6.3,0,.6-.1,1-.1,1.2,0,1.8.6,1.8,1.7v1.9c0,.3-.1.5-.4.6h0M469.1,584.1c0-.3-.3-.5-.7-.5s-.7.2-.7.5.3.5.7.5c.3,0,.7-.2.7-.5"/>
          <path id="Trazado_14813" class="st9" d="M476.9,581.2c.4,0,.8.2,1.1.6v-2.1c0-.3.2-.6.6-.6s.6.2.6.6v5c0,.3-.2.6-.5.6h0c-.3,0-.5-.2-.5-.5h0c-.2.3-.6.6-1.1.6-1.1,0-1.7-1-1.7-2.1s.5-2.1,1.6-2.1M477.1,584.5c.6,0,.8-.6.8-1.2s-.3-1.2-.8-1.2-.9.5-.9,1.2c0,.7.3,1.2.9,1.2"/>
          <path id="Trazado_14814" class="st9" d="M483.4,583.3c0,.2-.1.3-.3.3h-2.2c0,.5.3.8.8.9h0c.3,0,.6,0,.8-.3,0-.1.3-.2.4-.2.2,0,.4.1.4.3h0c0,.2-.1.3-.3.5-.3.3-.8.4-1.3.4-1,0-1.9-.8-1.9-1.8v-.2c0-1,.7-2,1.7-2.1h.1c1.1,0,1.7.9,1.7,2.1M481.7,582c-.4,0-.7.3-.8.8h1.5c0-.5-.3-.8-.8-.8"/>
          <path id="Trazado_14815" class="st9" d="M487.9,583.6l1.4-4c0-.2.3-.4.5-.3.3,0,.5.2.5.4h0c0,.1,0,.2,0,.3l-1.9,5.1c0,.2-.3.3-.5.3s-.4-.1-.5-.3l-1.9-5.1c0,0,0-.1,0-.2,0-.3.2-.5.5-.5s.4.1.5.4l1.5,3.9Z"/>
          <path id="Trazado_14816" class="st9" d="M493.1,585.3c-.3,0-.5-.2-.6-.5h0c-.2.3-.6.6-1,.5-.7,0-1.2-.4-1.3-1h0c0-.9.6-1.3,1.4-1.3s.7.1,1,.3v-.3c0-.4-.2-.8-.6-.8h-.2c-.2,0-.3,0-.6,0-.1,0-.3,0-.5.1-.2,0-.4-.1-.4-.4h0c0-.3.3-.4.6-.6.3,0,.6-.1,1-.1,1.2,0,1.8.6,1.8,1.7v1.9c0,.3-.1.5-.4.6q0,0,0,0M492.6,584.1c0-.3-.3-.5-.7-.5s-.6.2-.6.5.3.5.6.5c.4,0,.7-.2.7-.5"/>
          <path id="Trazado_14817" class="st9" d="M495.3,585.3c-.3,0-.6-.2-.6-.6h0v-5.1c0-.3.2-.6.6-.6s.6.2.6.6v5.1c0,.3-.3.6-.6.6h0"/>
          <path id="Trazado_14818" class="st9" d="M471.7,585.3c-.3,0-.6-.2-.6-.6h0v-5.1c0-.3.2-.6.6-.6s.6.2.6.6h0v5.1c0,.3-.2.6-.6.6h0"/>
          <path id="Trazado_14819" class="st9" d="M498.5,585.4c-1.1,0-2.1-.8-2.2-1.9,0-1.1.8-2.1,1.9-2.2,1.1,0,2.1.8,2.2,1.9h0c0,1.2-.8,2.1-1.8,2.2h-.1M498.5,582.1c-.6,0-.9.6-.9,1.2s.3,1.2.9,1.2.9-.6.9-1.2-.3-1.2-.9-1.2"/>
          <path id="Trazado_14820" class="st9" d="M503.2,582.2c-.6,0-.8.4-.8,1.1v1.4c0,.3-.2.6-.6.6s-.6-.2-.6-.6h0v-3c0-.3.2-.6.6-.6s.6.2.6.6h0c0-.3.4-.6.8-.6s.5.1.5.4h0c0,.3-.1.6-.4.6h0"/>
          <path id="Trazado_14821" class="st9" d="M507.4,583.3c0,.2-.1.3-.3.3h-2.2c0,.5.3.8.8.9h0c.3,0,.6,0,.8-.3,0-.1.3-.2.4-.2.2,0,.4.1.4.3h0c0,.2-.1.3-.3.5-.3.3-.8.4-1.3.4-1,0-1.9-.8-1.9-1.8v-.2c0-1,.7-2,1.7-2.1h.1c1.1,0,1.7.9,1.7,2.1M505.7,582c-.4,0-.7.3-.8.8h1.5c0-.5-.3-.8-.8-.8"/>
          <path id="Trazado_14822" class="st9" d="M509.5,585.4c-.5,0-.9-.1-1.3-.4-.1-.1-.2-.3-.2-.4,0-.2.1-.3.3-.3h0c.1,0,.3,0,.3.1.2.2.5.3.8.3s.5-.1.5-.3-.2-.3-.6-.5c-1-.3-1.4-.7-1.4-1.4s.8-1.2,1.5-1.2.7,0,1,.2.5.3.5.6-.1.3-.3.4h0c-.1,0-.3,0-.3-.1-.2-.1-.5-.2-.8-.2s-.5,0-.5.3.1.3.7.5c1,.3,1.4.6,1.4,1.3.1.7-.4,1.2-1.4,1.2"/>
        </g>
        <g>
          <path id="Trazado_14824" class="st9" d="M468.1,573.3c-1,0-2-.6-2.4-1.5l-9.7-19.4c-.7-1.4-.1-3,1.2-3.6,1.4-.7,3-.1,3.6,1.2h0l7.3,14.6,7.3-14.6c.7-1.3,2.3-1.9,3.6-1.2,1.3.7,1.9,2.3,1.2,3.6l-9.7,19.4c-.6.9-1.4,1.5-2.5,1.5"/>
          <path id="Trazado_14825" class="st9" d="M442.1,573.3c-1.5,0-2.8-1.2-2.8-2.8h0v-19.4c0-1.5,1.2-2.8,2.7-2.8s2.8,1.2,2.8,2.7h0v19.6c0,1.4-1.2,2.7-2.7,2.7h0"/>
          <path id="Trazado_14826" class="st9" d="M418,568.3c2.3,0,3.8-.8,3.8-2.6h0c0-1.7-1.2-2.7-4-2.7h-6.2v5.4h6.4ZM416.5,558.5c2.3,0,3.9-.8,3.9-2.5h0c0-1.7-1.2-2.5-3.5-2.5h-5.3v5.2h5ZM406.4,551.3c0-1.4,1.2-2.7,2.6-2.7h8.7c2.8,0,5,.8,6.3,2.1,1.1,1.1,1.7,2.6,1.7,4.1h0c0,2.3-1.2,4.3-3.2,5.3,2.8,1.1,4.5,2.7,4.5,6h0c0,4.5-3.6,6.7-9.1,6.7h-8.9c-1.4,0-2.7-1.2-2.7-2.6h0v-19Z"/>
        </g>
      </g>
    </g>
  </g>
  <circle class="st14" cx="333.8" cy="191.3" r="7.9"/>
  <circle class="st13" cx="333.8" cy="444.2" r="7.9"/>
  <line class="st4" x1="348.5" y1="190.2" x2="397.4" y2="190.2"/>
  <line class="st4" x1="355.3" y1="443.5" x2="404.3" y2="443.5"/>
  <g>
    <path class="st17" d="M482.7,142.8h296.5c24.4,0,44.2,19.8,44.2,44.2v.8c0,24.4-19.8,44.2-44.2,44.2h-296.5v-89.2h0Z"/>
    <text class="st8" transform="translate(679.8 193.8)"><tspan x="0" y="0">Proveedor de precios</tspan></text>
    <circle class="st16" cx="475.6" cy="186.7" r="51.6" transform="translate(-22.7 73.9) rotate(-8.7)"/>
    <path class="st3" d="M515.4,219.5c7.4-8.9,11.8-20.4,11.8-32.8,0-28.5-23.1-51.6-51.6-51.6s-12.5,1.2-18.1,3.3"/>
    <path class="st1" d="M418.2,167c-2.1,6.2-3.3,12.8-3.3,19.7,0,33.5,27.2,60.7,60.7,60.7s7-.3,10.3-.9"/>
    <text class="st10" transform="translate(432.5 197.6)"><tspan x="0" y="0">2000</tspan></text>
    <g>
      <path class="st9" d="M573.3,176.6c2,1.7,3.1,4,3.1,7s-1,5.3-3.1,7c-2,1.7-4.8,2.6-8.4,2.6h-6.8v8.3h-3.9v-27.5h10.7c3.6,0,6.4.9,8.4,2.6M570.5,188.2c1.3-1.1,2-2.6,2-4.6s-.7-3.5-2-4.6c-1.3-1.1-3.2-1.6-5.7-1.6h-6.7v12.3h6.7c2.5,0,4.4-.5,5.7-1.6"/>
      <rect class="st9" x="589.3" y="180.8" width="3.8" height="20.8"/>
      <path class="st9" d="M627.9,176.6c2,1.7,3.1,4,3.1,7s-1,5.3-3.1,7c-2,1.7-4.8,2.6-8.4,2.6h-6.8v8.3h-3.9v-27.5h10.7c3.6,0,6.4.9,8.4,2.6M625.1,188.2c1.3-1.1,2-2.6,2-4.6s-.7-3.5-2-4.6c-1.3-1.1-3.2-1.6-5.7-1.6h-6.7v12.3h6.7c2.5,0,4.4-.5,5.7-1.6"/>
      <path class="st9" d="M589.3,176.1c-.5-.5-.7-1-.7-1.7s.2-1.3.7-1.7c.5-.5,1.1-.7,1.8-.7s1.3.2,1.8.7c.5.5.7,1,.7,1.7s-.2,1.3-.7,1.8c-.5.5-1.1.7-1.8.7s-1.3-.2-1.8-.7"/>
    </g>
  </g>
  <g>
    <path class="st17" d="M598.6,272.1h296.5c24.4,0,44.2,19.8,44.2,44.2v.8c0,24.4-19.8,44.2-44.2,44.2h-296.5v-89.2h0Z"/>
    <text class="st8" transform="translate(814.2 323.6)"><tspan x="0" y="0">Bolsas de valores</tspan></text>
    <circle class="st16" cx="591.6" cy="311.8" r="49.4" transform="translate(-47.2 509.7) rotate(-45)"/>
    <path class="st3" d="M629.7,343.3c7.1-8.5,11.3-19.5,11.3-31.5,0-27.3-22.1-49.4-49.4-49.4s-12,1.1-17.4,3.1"/>
    <path class="st1" d="M536.6,293c-2,5.9-3.1,12.3-3.1,18.9,0,32.1,26,58.1,58.1,58.1s6.7-.3,9.9-.8"/>
    <text class="st10" transform="translate(549.6 323)"><tspan x="0" y="0">2005</tspan></text>
    <g>
      <g id="Group_7">
        <g id="Group_6">
          <g id="Grupo_6223-2">
            <g id="Group_5">
              <path id="Path_33" class="st9" d="M739.8,292.7l-17.7-1.2,4.4,20,19.4-1.6-6-17.2ZM729.9,306.8l-2.8-11.5,10.7.5,3.4,10.5-5.3.3-5.9.3Z"/>
            </g>
          </g>
        </g>
      </g>
      <g id="Group_11">
        <g id="Grupo_6224">
          <g id="Group_10">
            <path id="Path_34" class="st9" d="M723.2,296.8l-8.6-6.6-3,2.5,10.5,8.1-8.2,9.1,4.4,3.3,6.6-8.3,3.3-4.2-5.1-3.9Z"/>
          </g>
        </g>
      </g>
      <g id="Group_16">
        <g id="Grupo_6225">
          <g id="Group_15">
            <path id="Path_35" class="st9" d="M744.2,300.7l3.4-6.1-2.9-2.3-5.3,8.3,12.2,9.5,1.1-2.8-8.5-6.6Z"/>
          </g>
        </g>
      </g>
      <g id="Grupo_6226">
        <g id="Group_20">
          <path id="Path_36" class="st9" d="M735.7,306.7l5,3.9h0s8.2,6.3,8.2,6.3l-1.4,3.6-10.1-7.7-5.9,10.6-4.3-3.3,5.7-9,2.9-4.5Z"/>
        </g>
      </g>
      <g id="Group_26">
        <g id="Grupo_6227">
          <g id="Group_25">
            <path id="Path_37" class="st9" d="M738.7,287.8l-2.9-2.3-4.6,5.2-8.8-6.9-2.3,1.9,7.9,6.1h0l4.6,3.6,2.5-3.1h0l3.6-4.6Z"/>
          </g>
        </g>
      </g>
      <g id="Grupo_6231">
        <g id="Grupo_6230">
          <g id="Group_32">
            <g id="Group_31">
              <g id="Grupo_6229">
                <g id="Grupo_6228">
                  <g id="Group_30">
                    <path id="Path_38" class="st9" d="M682,345.8h-5.6v-13.6l-4,9.5h-3.8l-4-9.5v13.6h-5.3v-21.7h6.5l4.8,10.9,4.8-10.9h6.5v21.7Z"/>
                    <path id="Path_39" class="st9" d="M702.4,345.8h-15.7v-21.7h15.7v4.2h-10.1v4.2h9.4v4.2h-9.4v4.9h10.1v4.2Z"/>
                    <path id="Path_40" class="st9" d="M719.2,345.8h-12.7v-4.2h3.6v-13.3h-3.6v-4.2h12.7v4.2h-3.6v13.3h3.6v4.2Z"/>
                  </g>
                </g>
              </g>
            </g>
          </g>
        </g>
      </g>
    </g>
  </g>
  <g>
    <g>
      <path class="st9" d="M146.1,311.2c2,0,3.6.7,4.6,1.9.5.5,1,1.1,1.9,1.1s2.3-1,2.3-2.1-.4-1.2-.8-1.7c-1.7-1.9-4.5-3.3-8.1-3.3-7.4,0-11.3,5.2-11.3,10.8s3.9,10.8,11.3,10.8,6.4-1.4,8.1-3.3c.5-.5.8-1.1.8-1.7,0-1.2-.8-2.1-2.3-2.1s-1.4.6-1.9,1.1c-1.2,1.2-2.7,1.9-4.6,1.9-4.2,0-6.3-3.1-6.3-6.5s2.1-6.7,6.3-6.8Z"/>
      <path class="st9" d="M182.7,324h-10.1v-4h5.6c1.2,0,2.1-1,2.1-2.1s-1-2.1-2.1-2.1h-5.6v-3.8h9.7c1.2,0,2.1-1,2.1-2.1s-1-2.1-2.1-2.1h-12.2c-1.4,0-2.5,1.2-2.5,2.5v15.7c0,1.4,1.2,2.5,2.5,2.5h12.6c1.2,0,2.1-1,2.1-2.1s-1-2.1-2.1-2.1Z"/>
      <path class="st9" d="M213.9,307.3c-1.3,0-2.4,1.1-2.4,2.4v10.8l-10.6-12.2c-.6-.6-1.2-1-1.9-1-1.5,0-2.4,1.2-2.4,2.4v16.5c0,1.3,1.1,2.4,2.4,2.4s2.4-1.1,2.4-2.4v-10.6l10.7,12.1c.5.6,1,.8,1.8.8,1.5,0,2.4-1.2,2.4-2.4v-16.5c0-1.3-1.1-2.4-2.4-2.4Z"/>
      <path class="st9" d="M239.1,311.2c2,0,3.6.7,4.6,1.9.4.5,1,1.1,1.9,1.1s2.3-1,2.3-2.1-.4-1.2-.8-1.7c-1.7-1.9-4.5-3.3-8.1-3.3-7.4,0-11.3,5.2-11.3,10.8s3.9,10.8,11.3,10.8,6.4-1.4,8.1-3.3c.5-.5.8-1.1.8-1.7,0-1.2-.8-2.1-2.3-2.1s-1.4.6-1.9,1.1c-1.2,1.2-2.7,1.9-4.6,1.9-4.2,0-6.3-3.1-6.3-6.5s2.1-6.7,6.3-6.8Z"/>
      <path class="st9" d="M269.7,307.1c-6.8,0-11.2,4.6-11.2,10.8s4.4,10.8,11.2,10.8,11.2-4.5,11.2-10.8-4.4-10.8-11.2-10.8ZM269.7,324.5c-3.9,0-6.3-2.9-6.3-6.5s2.5-6.5,6.3-6.5,6.3,2.7,6.3,6.5-2.5,6.5-6.3,6.5Z"/>
      <path class="st9" d="M308.2,319.8c2.7-1.1,3.9-3.2,3.9-5.7,0-3.6-2.5-6.4-8.3-6.4h-8.7c-1.4,0-2.5,1.2-2.5,2.5v15.9c0,1.4,1.2,2.5,2.5,2.5s2.5-1.2,2.5-2.5v-5.6h5.7l3.8,6.9c.4.7,1.1,1.2,2.1,1.2s2.3-1.1,2.3-2.3-.1-.8-.4-1.2l-3-5.3ZM304.6,316.4h-7v-4.8h7c1.9,0,2.7,1.2,2.7,2.4s-.8,2.4-2.7,2.4Z"/>
      <path class="st9" d="M111.4,302.8l-18.1-10.5s0,0,0,0l-1.4-.3v9.4l12.9,7.4s0,0,0,0c0,0,0,0,0,0,0,0,.1,0,.2.1,0,0,0,0,0,0,0,0,0,0,0,.1,0,0,0,0,0,.1,0,0,0,0,0,.1,0,0,0,.1,0,.2,0,0,0,0,0,.1,0,0,0,.1,0,.2h0v15.8c0,.4-.2.8-.6,1l-13,7.5v9.5c.5-.1,1-.3,1.4-.5l18.1-10.6c.9-.5,1.7-1.5,2.2-2.6.3-.6.5-1.3.5-1.9v-20.9c0-.2,0-.4,0-.6-.2-1.5-1.3-3.1-2.6-3.9Z"/>
      <path class="st9" d="M75.9,325.7v-15.8c0,0,0-.2,0-.2,0,0,0,0,0,0,0,0,0-.2.1-.3,0,0,0,0,0,0,0,0,.1-.2.2-.2,0,0,0,0,0,0,0,0,.2-.1.2-.2l13.1-7.6v-9.5c-.5.1-1,.3-1.4.5,0,0,0,0,0,0l-18.2,10.5c-1.2.7-2.3,2.4-2.6,3.9,0,.2,0,.4,0,.6v20.9c0,.6.2,1.3.5,1.9.5,1.1,1.3,2.1,2.2,2.6l18.1,10.5c.4.2,1,.4,1.5.5v-9.4l-13.1-7.5c-.4-.2-.6-.6-.6-1Z"/>
      <polygon class="st9" points="78.3 325 89.6 331.5 89.6 318.4 78.3 312 78.3 325"/>
      <polygon class="st9" points="103.2 325 103.2 311.9 92 318.4 92 331.5 103.2 325"/>
      <polygon class="st9" points="90.8 303.4 79.5 309.9 90.8 316.4 102 309.9 90.8 303.4"/>
    </g>
    <path class="st16" d="M185.6,171.2v-22.1c-86.6,3.8-156.1,73.3-159.9,159.9h22.1c3.8-74.4,63.4-134.1,137.8-137.8Z"/>
    <path class="st16" d="M338.3,309.1h22.1c-3.8-85.9-72.2-155-157.8-159.8v22.1c73.4,4.8,132,64,135.7,137.7Z"/>
    <path class="st16" d="M47.9,326.1h-22.1c4.8,85.6,73.9,154,159.8,157.8v-22.1c-73.7-3.7-132.9-62.3-137.7-135.7Z"/>
    <path class="st16" d="M202.6,461.7v22.1c84.9-4.8,152.9-72.8,157.7-157.7h-22.1c-4.7,72.7-62.8,130.8-135.5,135.5Z"/>
    <path class="st5" d="M173.7,505C78.1,495.3,3.5,414.6,3.5,316.5s74.6-178.8,170.1-188.5"/>
    <g>
      <path class="st5" d="M194.7,127.1c103.9.9,187.8,85.4,187.8,189.5s-83.9,188.6-187.8,189.5"/>
      <path class="st9" d="M194.8,128.9c-1,0-1.8-.8-1.7-1.8,0-1,.8-1.8,1.8-1.7s1.8.8,1.7,1.8c0,1-.8,1.8-1.8,1.7Z"/>
      <path class="st9" d="M194.8,504.2c-1,0-1.8.8-1.7,1.8,0,1,.8,1.8,1.8,1.7s1.8-.8,1.7-1.8c0-1-.8-1.8-1.8-1.7Z"/>
    </g>
    <circle class="st2" cx="193" cy="316.5" r="157" transform="translate(-167.3 229.2) rotate(-45)"/>
  </g>
  <circle class="st12" cx="382.8" cy="316.5" r="7.9"/>
  <line class="st4" x1="396.6" y1="316.5" x2="523.4" y2="316.5"/>
  <g>
    <path class="st17" d="M471,395.6h296.5c24.4,0,44.2,19.8,44.2,44.2h0c0,24.4-19.8,44.2-44.2,44.2h-296.5v-88.4h0Z"/>
    <circle class="st16" cx="472.7" cy="439.5" r="49.1" transform="translate(-75 97.9) rotate(-11)"/>
    <path class="st3" d="M510.6,470.8c7-8.5,11.2-19.4,11.2-31.3,0-27.1-22-49.1-49.1-49.1s-11.9,1.1-17.3,3.1"/>
    <path class="st1" d="M418,420.8c-2,5.9-3.1,12.2-3.1,18.8,0,31.9,25.9,57.8,57.8,57.8s6.6-.3,9.8-.8"/>
    <text class="st10" transform="translate(435.3 450.6)"><tspan x="0" y="0">2015</tspan></text>
    <g>
      <path class="st9" d="M587.2,436.1c0-7.9-2.2-14.5-5.7-17.8-4-3.8-7.4-5.6-12.2-5.6s-6.8.6-10.5,4.3c-4.4,4.4-5.8,10.9-5.8,16.4,0,8.8,3.8,15.2,7.1,18.4,5,4.7,8.3,5.2,10.2,5.2,13.3,0,16.8-15.2,16.8-20.8M587.5,417.4c4.4,4.7,6.4,10.7,6.3,16.7,0,7.1-2.8,13.4-6.8,17.3-3.9,3.9-7.3,5.8-11.4,7.1v.3c6.8,2.5,12.3,3.8,16.8,4.8,16.7,3.8,26.6,3,27.8,3,1.8,0,3.3-.9,4.1-1.4.2-.2.4-.3.6,0l.5.7c0,.2,0,.5-.2.7-.9.9-5.1,5.3-8.8,5.3s-13.3,0-24.9-3.1c-6.6-1.6-16.2-5.1-25.3-9.5-1.3-.5-7.3-1.4-13.3-7.9-3.6-3.6-6.4-9.5-6.4-17.4s2.7-12.8,7.6-17.2c5.1-4.6,12.2-6.4,15.7-6.3,7.7,0,13.6,2.7,17.7,7.1"/>
      <path class="st9" d="M626.1,444.7c0,3.1,0,6.4,0,7.8.2,2.1.9,2.3,1.7,2.3s1.4,0,2.2-.2c.6,0,.8,0,.8.3l.2.9c0,.4,0,.6-.3.6l-6.9,2.3c-.4,0-.8.3-1.3.3s-.6,0-.6-.8l-.6-3.8h0c-1.8,2.6-5.7,4.6-9,4.6s-4-.2-6.1-3c-2.7-3.5-2.6-5.7-2.6-13v-7.7c0-1.9-.9-2.3-2.5-2.5-1.1,0-1.4,0-1.4-.5v-1.2c0-.4,0-.6.8-.6h5.9c.4,0,.7,0,.9,0h.8c.5,0,.8.3.8.8s-.3,3.7-.3,7.6v4.7c0,2.6-.7,6.9,1.4,9.9,1.6,2.4,3.5,2.6,5.3,2.6s4.4-1.7,5.7-3.3c.3-.3.7-1.2.7-1.8v-15.7c0-1.9-1.2-2.2-2.8-2.3-1.1,0-1.4,0-1.4-.5v-1.1c0-.6,0-.6.8-.6h6.1c.5,0,.8,0,1.1,0h.8c.4,0,.7.3.6.7,0,.6-.4,2.3-.4,8.8v4.9l-.2-.3Z"/>
      <path class="st9" d="M649.7,443.5c-2.4,1.8-8.8,3.1-8.8,8.6s1.4,3.6,3.4,3.6,5.4-2.3,5.4-4.1v-8.1ZM654.5,450.2c0,3.8.8,4.9,2,4.9s2-.6,2.3-.9c.3-.3.4-.5.7-.3l.7.6c.2.2.3.6,0,1.2-.6.9-1.8,3.2-5.1,3.2s-4.1-1.7-4.6-4.4h0c-1.4,1.6-3.6,3-6.5,4.1-1.2.4-2.5.4-3.9.4s-4-1.3-4-5.5,1.4-5.7,6.6-7.9c2.9-1.3,6.4-2.9,7.5-3.8v-4.3c0-1.1-.2-2.8-.9-3.7s-2.1-1.4-4-1.4-3.4.6-4.3,1.4c-.9.9-.3,1.9-.3,3,0,2.3-.8,3.8-3.5,3.8s-1.6-.6-1.6-2.1,1.9-4.6,4.5-6.2c2.7-1.6,5.1-2.3,8-2.3s4.4.9,5.3,1.8c1.4,1.4,1.4,2.9,1.4,4.7v14l-.2-.3Z"/>
      <path class="st9" d="M689.7,454.4c0,1,.6,1.4,1.4,1.4h2.1c.6,0,.8.2.8.6v1c0,.5,0,.8-.6.8s-2.5-.2-6.2-.2-5.5.2-6,.2-.6-.2-.6-.8v-1c0-.5.2-.6.9-.6h1.9c.8,0,1.2-.3,1.3-1.5,0-1.7,0-3.8,0-5.6v-8.7c0-2.6,0-4.5-1.9-6-1.6-1.2-3.1-1.2-4.8-1.2s-3.4.5-5.3,2.6c-1.3,1.4-1.5,3.2-1.5,4.4v13.6c0,1.8.2,2.2,1.6,2.2h1.6c.6,0,.7.2.7.7v1.1c0,.4,0,.6-.5.6s-2.3-.2-5.8-.2-5.5.2-5.9.2-.5-.2-.5-.6v-1.2c0-.4,0-.6.7-.6h1.9c.9,0,1.3-.2,1.3-1.3v-15.4c0-2-1-3.1-2.7-3.9l-.6-.3c-.5-.2-.6-.4-.6-.6v-.3c0-.3.3-.6.6-.7l5.7-3.1c.6-.3.9-.5,1.2-.5s.5.3.6.8l.5,4.1h0c1.9-2.4,5.8-4.8,9-4.8s4,.4,5.6,1.4c2,1.3,3.6,4.6,3.6,6.2v17h.4Z"/>
      <path class="st9" d="M705.1,449.8c0,4.9,2.3,5.8,3.4,5.8s3.4-.3,4.4-.9c.3-.2.6,0,.8,0l.3.6c.2.3,0,.6,0,.8-.7.7-3.3,2.6-7.3,2.6s-6.4-3.1-6.4-5.6.2-8.5.2-9.5v-1.4c0-1.2,0-5.6,0-8.4h-4c-.6,0-.9-.3-.9-.8s.4-.8,1.2-1.2c1.6-.9,6.6-6.1,7.5-8.3.2-.6.6-.7.9-.7s.7.5.7.9l-.3,6.5h9.2c.4,0,.6.3.5.6l-.7,2.3c0,.3-.2.6-.6.6h-8.5c0,3-.2,6.2-.2,9.3v6.6h0Z"/>
      <path class="st9" d="M723.3,438.8c0-2.3-.4-3.4-3.7-4-.5,0-.6-.2-.6-.5v-.6c0-.2,0-.3.5-.5,2.1-.8,4.6-1.9,7.1-3.2.6-.3.9-.4,1.2-.4s.4.3.3.8c0,1.1,0,5.3,0,10.8v12.9c0,1.2.3,1.7,1,1.7h3c.6,0,.7.2.7.6v1.1c0,.5,0,.7-.6.7s-3.6-.2-6.3-.2-6.4.2-7.1.2-.6,0-.6-.6v-1.3c0-.4.2-.6.7-.6h3.2c.8,0,.9-.3,1-1.3v-15.6h.2Z"/>
      <path class="st9" d="M744.8,449.8c0,4.9,2.3,5.8,3.4,5.8s3.4-.3,4.4-.9c.3-.2.6,0,.8,0l.3.6c.2.3,0,.6,0,.8-.7.7-3.3,2.6-7.3,2.6s-6.4-3.1-6.4-5.6.2-8.5.2-9.5v-1.4c0-1.2,0-5.6,0-8.4h-4c-.6,0-.9-.3-.9-.8s.4-.8,1.2-1.2c1.6-.9,6.6-6.1,7.5-8.3.2-.6.6-.7.9-.7s.7.5.7.9l-.3,6.5h9.2c.4,0,.6.3.5.6l-.7,2.3c0,.3-.2.6-.6.6h-8.5c0,3-.2,6.2-.2,9.3v6.6h0Z"/>
      <path class="st18" d="M722.2,418c0-1.6,1.4-3.4,4-3.4s3.4,1.8,3.4,3.2-1.2,3.6-3.8,3.6-3.6-1.3-3.6-3.4"/>
    </g>
  </g>
</svg>