<?xml version="1.0" encoding="UTF-8"?>
<svg id="Layer_1" xmlns="http://www.w3.org/2000/svg" xmlns:xlink="http://www.w3.org/1999/xlink" version="1.1" viewBox="0 0 940.7 632.3">
  <!-- Generator: Adobe Illustrator 29.1.0, SVG Export Plug-In . SVG Version: 2.1.0 Build 142)  -->
  <defs>
    <style>
      .st0 {
        fill: none;
      }

      .st1 {
        fill-rule: evenodd;
      }

      .st1, .st2 {
        fill: #fff;
      }

      .st3 {
        fill: url(#linear-gradient2);
      }

      .st4 {
        fill: url(#linear-gradient1);
      }

      .st5 {
        fill: url(#linear-gradient3);
      }

      .st6 {
        fill: url(#linear-gradient4);
      }

      .st7 {
        fill: #161b4e;
      }

      .st8 {
        fill: url(#linear-gradient);
      }

      .st9 {
        fill: #0b9eda;
      }

      .st10 {
        isolation: isolate;
      }

      .st11 {
        fill: #0a9ac7;
      }
    </style>
    <linearGradient id="linear-gradient" x1="218.8" y1="-27.7" x2="234.6" y2="-27.7" gradientTransform="translate(0 476) scale(1 -1)" gradientUnits="userSpaceOnUse">
      <stop offset="0" stop-color="#d1e4ed"/>
      <stop offset=".7" stop-color="#f4f8fa"/>
      <stop offset=".9" stop-color="#fff"/>
    </linearGradient>
    <linearGradient id="linear-gradient1" x1="218.8" y1="345.1" x2="234.6" y2="345.1" gradientTransform="translate(0 476) scale(1 -1)" gradientUnits="userSpaceOnUse">
      <stop offset="0" stop-color="#d1e4ed"/>
      <stop offset=".7" stop-color="#f4f8fa"/>
      <stop offset=".9" stop-color="#fff"/>
    </linearGradient>
    <linearGradient id="linear-gradient2" x1="325.9" y1="284.7" x2="341.7" y2="284.7" gradientTransform="translate(0 476) scale(1 -1)" gradientUnits="userSpaceOnUse">
      <stop offset="0" stop-color="#d1e4ed"/>
      <stop offset=".7" stop-color="#f4f8fa"/>
      <stop offset=".9" stop-color="#fff"/>
    </linearGradient>
    <linearGradient id="linear-gradient3" x1="325.9" y1="31.8" x2="341.7" y2="31.8" gradientTransform="translate(0 476) scale(1 -1)" gradientUnits="userSpaceOnUse">
      <stop offset="0" stop-color="#d1e4ed"/>
      <stop offset=".7" stop-color="#f4f8fa"/>
      <stop offset=".9" stop-color="#fff"/>
    </linearGradient>
    <linearGradient id="linear-gradient4" x1="374.9" y1="159.5" x2="390.7" y2="159.5" gradientTransform="translate(0 476) scale(1 -1)" gradientUnits="userSpaceOnUse">
      <stop offset="0" stop-color="#d1e4ed"/>
      <stop offset=".7" stop-color="#f4f8fa"/>
      <stop offset=".9" stop-color="#fff"/>
    </linearGradient>
  </defs>
  <g>
    <circle class="st8" cx="226.7" cy="503.7" r="7.9"/>
    <path class="st2" d="M226.7,511.7c-4.4,0-8-3.6-8-8s3.6-8,8-8,8,3.6,8,8-3.6,8-8,8ZM226.7,495.9c-4.3,0-7.8,3.5-7.8,7.8s3.5,7.8,7.8,7.8,7.8-3.5,7.8-7.8-3.5-7.8-7.8-7.8Z"/>
  </g>
  <g>
    <circle class="st4" cx="226.7" cy="130.9" r="7.9"/>
    <path class="st2" d="M226.7,138.9c-4.4,0-8-3.6-8-8s3.6-8,8-8,8,3.6,8,8-3.6,8-8,8ZM226.7,123.1c-4.3,0-7.8,3.5-7.8,7.8s3.5,7.8,7.8,7.8,7.8-3.5,7.8-7.8-3.5-7.8-7.8-7.8Z"/>
  </g>
  <path class="st2" d="M264.4,566.4c0-.9.7-1.6,1.6-1.6h0c.9,0,1.6.7,1.6,1.6h0c0,.9-.7,1.6-1.6,1.6h0c-.9,0-1.6-.7-1.6-1.6ZM253.3,566.4c0-.9.7-1.6,1.6-1.6h0c.9,0,1.6.7,1.6,1.6h0c0,.9-.7,1.6-1.6,1.6h0c-.9,0-1.6-.7-1.6-1.6ZM242.2,566.4c0-.9.7-1.6,1.6-1.6h0c.9,0,1.6.7,1.6,1.6h0c0,.9-.7,1.6-1.6,1.6h0c-.9,0-1.6-.7-1.6-1.6ZM232.3,565.7c-.8-.5-1-1.4-.6-2.2h0c.4-.8,1.4-1,2.2-.6h0c.8.4,1,1.4.6,2.2h0c-.3.5-.8.8-1.4.8h0c-.3,0-.5,0-.8-.2ZM225.6,555.6h0c0-.9.6-1.6,1.5-1.7h0c.9,0,1.6.7,1.7,1.5h0c0,.9-.7,1.6-1.5,1.7h0c-.9,0-1.6-.7-1.6-1.5ZM225.6,544.4c0-.9.7-1.6,1.6-1.6h0c.9,0,1.6.7,1.6,1.6h0c0,.9-.7,1.6-1.6,1.6h0c-.9,0-1.6-.7-1.6-1.6ZM225.6,533.3c0-.9.7-1.6,1.6-1.6h0c.9,0,1.6.7,1.6,1.6h0c0,.9-.7,1.6-1.6,1.6h0c-.9,0-1.6-.7-1.6-1.6ZM225.6,522.2c0-.9.7-1.6,1.6-1.6h0c.9,0,1.6.7,1.6,1.6h0c0,.9-.7,1.6-1.6,1.6h0c-.9,0-1.6-.7-1.6-1.6Z"/>
  <path class="st2" d="M225.6,111.5c0-.9.7-1.6,1.6-1.6h0c.9,0,1.6.7,1.6,1.6h0c0,.9-.7,1.6-1.6,1.6h0c-.9,0-1.6-.7-1.6-1.6ZM225.6,100.4c0-.9.7-1.6,1.6-1.6h0c.9,0,1.6.7,1.6,1.6h0c0,.9-.7,1.6-1.6,1.6h0c-.9,0-1.6-.7-1.6-1.6ZM225.6,89.3c0-.9.7-1.6,1.6-1.6h0c.9,0,1.6.7,1.6,1.6h0c0,.9-.7,1.6-1.6,1.6h0c-.9,0-1.6-.7-1.6-1.6ZM227.1,79.8c-.8-.2-1.3-1.1-1.1-2h0c.2-.9,1.1-1.4,2-1.1h0c.9.2,1.4,1.1,1.1,2h0c-.2.7-.8,1.2-1.5,1.2h0c-.2,0-.3,0-.4,0ZM233.6,71.2c-.3-.8,0-1.8.9-2.1h0c.8-.3,1.8,0,2.1.9h0c.3.8,0,1.8-.9,2.1h0c-.2,0-.4.1-.6.1h0c-.6,0-1.2-.4-1.5-1ZM266.6,69.5c0-.9.7-1.6,1.6-1.6h0c.9,0,1.6.7,1.6,1.6h0c0,.9-.7,1.6-1.6,1.6h0c-.9,0-1.6-.7-1.6-1.6ZM255.5,69.5c0-.9.7-1.6,1.6-1.6h0c.9,0,1.6.7,1.6,1.6h0c0,.9-.7,1.6-1.6,1.6h0c-.9,0-1.6-.7-1.6-1.6ZM244.4,69.5c0-.9.7-1.6,1.6-1.6h0c.9,0,1.6.7,1.6,1.6h0c0,.9-.7,1.6-1.6,1.6h0c-.9,0-1.6-.7-1.6-1.6Z"/>
  <path class="st7" d="M333,12.3h296.5c24.4,0,44.2,19.8,44.2,44.2h0c0,24.4-19.8,44.2-44.2,44.2h-296.5V12.3h0Z"/>
  <g class="st10">
    <g class="st10">
      <g class="st10">
        <g class="st10">
          <path class="st2" d="M558.7,44c.5-.8,1.1-1.5,1.9-1.9.8-.5,1.7-.7,2.6-.7s2.1.3,3,.8,1.5,1.3,1.9,2.3h-1.6c-.3-.6-.7-1.1-1.3-1.4s-1.2-.5-2-.5-1.4.2-2,.5-1,.8-1.4,1.4-.5,1.3-.5,2.2.2,1.5.5,2.2.8,1.1,1.4,1.4,1.2.5,2,.5,1.4-.2,2-.5,1-.8,1.3-1.4h1.6c-.4,1-1,1.8-1.9,2.3s-1.8.8-3,.8-1.9-.2-2.6-.7c-.8-.5-1.4-1.1-1.9-1.9-.5-.8-.7-1.7-.7-2.7s.2-1.9.7-2.8Z"/>
          <path class="st2" d="M571.6,51.6c-.6-.4-1.1-.8-1.5-1.5-.4-.6-.5-1.4-.5-2.2s.2-1.6.5-2.2c.4-.6.9-1.1,1.5-1.5.6-.3,1.3-.5,2.1-.5s1.5.2,2.1.5c.6.3,1.1.8,1.5,1.5.4.6.5,1.4.5,2.2s-.2,1.6-.6,2.2c-.4.6-.9,1.1-1.5,1.5-.6.3-1.3.5-2.1.5s-1.5-.2-2.1-.5ZM575.1,50.6c.4-.2.8-.6,1-1.1.3-.5.4-1,.4-1.7s-.1-1.2-.4-1.7-.6-.8-1-1c-.4-.2-.9-.3-1.4-.3s-1,.1-1.4.3c-.4.2-.7.6-1,1s-.4,1-.4,1.7.1,1.2.4,1.7c.2.5.6.8,1,1.1.4.2.9.4,1.3.4s1-.1,1.4-.4Z"/>
          <path class="st2" d="M582.1,44.1c.4-.3,1-.5,1.6-.5v1.4h-.4c-1.5,0-2.3.8-2.3,2.5v4.5h-1.4v-8.2h1.4v1.6c.2-.5.6-1,1-1.3Z"/>
          <path class="st2" d="M587.7,44.1c.4-.3,1-.5,1.6-.5v1.4h-.4c-1.5,0-2.3.8-2.3,2.5v4.5h-1.4v-8.2h1.4v1.6c.2-.5.6-1,1-1.3Z"/>
          <path class="st2" d="M598.4,48.4h-6.6c0,.8.3,1.4.8,1.9.5.5,1.1.7,1.9.7s1.1-.1,1.5-.4c.4-.3.7-.6.8-1.1h1.5c-.2.8-.7,1.4-1.3,1.9s-1.5.7-2.5.7-1.5-.2-2.1-.5c-.6-.4-1.1-.8-1.4-1.5-.4-.6-.5-1.4-.5-2.2s.2-1.6.5-2.2c.3-.6.8-1.1,1.4-1.5.6-.3,1.3-.5,2.1-.5s1.5.2,2.1.5c.6.3,1.1.8,1.4,1.4.3.6.5,1.3.5,2s0,.5,0,.8ZM596.7,46c-.2-.4-.5-.7-.9-.9-.4-.2-.8-.3-1.3-.3-.7,0-1.3.2-1.8.7-.5.5-.8,1.1-.8,1.9h5.2c0-.5-.1-1-.3-1.4Z"/>
          <path class="st2" d="M601.9,44.9v4.8c0,.4,0,.7.3.8s.5.2.9.2h1v1.2h-1.2c-.8,0-1.3-.2-1.7-.5-.4-.3-.6-.9-.6-1.7v-4.8h-1.1v-1.1h1.1v-2.1h1.4v2.1h2.1v1.1h-2.1Z"/>
          <path class="st2" d="M605.7,45.6c.3-.6.8-1.1,1.4-1.5.6-.3,1.3-.5,2-.5s1.3.2,1.9.5c.5.3.9.7,1.2,1.2v-1.5h1.4v8.2h-1.4v-1.5c-.3.5-.7.9-1.2,1.2-.5.3-1.2.5-1.9.5s-1.4-.2-2-.5c-.6-.4-1.1-.9-1.4-1.5s-.5-1.4-.5-2.2.2-1.6.5-2.2ZM611.8,46.3c-.2-.5-.6-.8-1-1.1s-.9-.4-1.4-.4-1,.1-1.4.4c-.4.2-.8.6-1,1s-.4,1-.4,1.6.1,1.2.4,1.6c.2.5.6.8,1,1.1s.9.4,1.4.4,1-.1,1.4-.4.8-.6,1-1.1c.2-.5.4-1,.4-1.6s-.1-1.2-.4-1.6Z"/>
          <path class="st2" d="M617.2,53.8c0,.7-.2,1.3-.6,1.6-.4.3-.9.5-1.6.5h-.8v-1.2h.6c.4,0,.6,0,.8-.2.2-.1.2-.4.2-.8v-10h1.4v10ZM615.9,42.2c-.2-.2-.3-.4-.3-.7s0-.5.3-.7c.2-.2.4-.3.7-.3s.5,0,.7.3c.2.2.3.4.3.7s0,.5-.3.7c-.2.2-.4.3-.7.3s-.5,0-.7-.3Z"/>
          <path class="st2" d="M627,48.4h-6.6c0,.8.3,1.4.8,1.9.5.5,1.1.7,1.9.7s1.1-.1,1.5-.4c.4-.3.7-.6.8-1.1h1.5c-.2.8-.7,1.4-1.3,1.9s-1.5.7-2.5.7-1.5-.2-2.1-.5c-.6-.4-1.1-.8-1.4-1.5-.3-.6-.5-1.4-.5-2.2s.2-1.6.5-2.2c.3-.6.8-1.1,1.4-1.5.6-.3,1.3-.5,2.1-.5s1.5.2,2.1.5,1.1.8,1.4,1.4c.3.6.5,1.3.5,2s0,.5,0,.8ZM625.3,46c-.2-.4-.5-.7-.9-.9-.4-.2-.8-.3-1.3-.3-.7,0-1.3.2-1.8.7s-.8,1.1-.8,1.9h5.2c0-.5-.1-1-.3-1.4Z"/>
        </g>
      </g>
    </g>
    <g class="st10">
      <g class="st10">
        <g class="st10">
          <path class="st2" d="M558.6,60.5c-.2-.2-.3-.4-.3-.7s0-.5.3-.7c.2-.2.4-.3.7-.3s.5,0,.6.3c.2.2.3.4.3.7s0,.5-.3.7c-.2.2-.4.3-.6.3s-.5,0-.7-.3ZM559.9,62.1v8.2h-1.4v-8.2h1.4Z"/>
          <path class="st2" d="M568.7,62.8c.6.6.9,1.5.9,2.6v4.8h-1.4v-4.7c0-.8-.2-1.4-.6-1.9-.4-.4-1-.7-1.7-.7s-1.3.2-1.7.7c-.4.5-.6,1.1-.6,2v4.5h-1.4v-8.2h1.4v1.2c.3-.4.6-.7,1.1-1,.5-.2,1-.3,1.5-.3,1,0,1.8.3,2.4.9Z"/>
          <path class="st2" d="M573.5,63.2v4.8c0,.4,0,.7.3.8.2.2.5.2.9.2h1v1.2h-1.2c-.8,0-1.3-.2-1.7-.5-.4-.3-.6-.9-.6-1.7v-4.8h-1.1v-1.1h1.1v-2.1h1.4v2.1h2.1v1.1h-2.1Z"/>
          <path class="st2" d="M584.8,66.7h-6.6c0,.8.3,1.4.8,1.9.5.5,1.1.7,1.9.7s1.1-.1,1.5-.4c.4-.3.7-.6.8-1.1h1.5c-.2.8-.7,1.4-1.3,1.9s-1.5.7-2.5.7-1.5-.2-2.1-.5c-.6-.4-1.1-.8-1.4-1.5-.4-.6-.5-1.4-.5-2.2s.2-1.6.5-2.2c.3-.6.8-1.1,1.4-1.5.6-.3,1.3-.5,2.1-.5s1.5.2,2.1.5c.6.3,1.1.8,1.4,1.4.3.6.5,1.3.5,2s0,.5,0,.8ZM583,64.3c-.2-.4-.5-.7-.9-.9-.4-.2-.8-.3-1.3-.3-.7,0-1.3.2-1.8.7-.5.5-.8,1.1-.8,1.9h5.2c0-.5-.1-1-.3-1.4Z"/>
          <path class="st2" d="M589,62.4c.4-.3,1-.5,1.6-.5v1.4h-.4c-1.5,0-2.3.8-2.3,2.5v4.5h-1.4v-8.2h1.4v1.6c.2-.5.6-1,1-1.3Z"/>
          <path class="st2" d="M594.8,62.4c.5-.3,1.2-.5,1.8-.5s1.4.2,2,.5c.6.4,1.1.8,1.4,1.5s.5,1.4.5,2.2-.2,1.6-.5,2.2-.8,1.2-1.4,1.5c-.6.4-1.3.5-2,.5s-1.3-.2-1.9-.5c-.5-.3-.9-.7-1.2-1.2v1.5h-1.4v-11.1h1.4v4.4c.3-.5.7-.9,1.2-1.2ZM598.8,64.5c-.2-.5-.6-.8-1-1-.4-.2-.9-.4-1.4-.4s-1,.1-1.4.4c-.4.2-.8.6-1,1.1s-.4,1-.4,1.6.1,1.2.4,1.6c.3.5.6.8,1,1.1.4.2.9.4,1.4.4s1-.1,1.4-.4.8-.6,1-1.1c.2-.5.4-1,.4-1.6s-.1-1.2-.4-1.6Z"/>
          <path class="st2" d="M602.3,63.9c.3-.6.8-1.1,1.4-1.5.6-.3,1.3-.5,2-.5s1.3.2,1.9.5c.5.3.9.7,1.2,1.2v-1.5h1.4v8.2h-1.4v-1.5c-.3.5-.7.9-1.2,1.2-.5.3-1.2.5-1.9.5s-1.4-.2-2-.5c-.6-.4-1.1-.9-1.4-1.5s-.5-1.4-.5-2.2.2-1.6.5-2.2ZM608.4,64.6c-.2-.5-.6-.8-1-1.1-.4-.2-.9-.4-1.4-.4s-1,.1-1.4.4c-.4.2-.8.6-1,1s-.4,1-.4,1.6.1,1.2.4,1.6c.2.5.6.8,1,1.1s.9.4,1.4.4,1-.1,1.4-.4c.4-.2.8-.6,1-1.1.2-.5.4-1,.4-1.6s-.1-1.2-.4-1.6Z"/>
          <path class="st2" d="M618.9,62.8c.6.6.9,1.5.9,2.6v4.8h-1.4v-4.7c0-.8-.2-1.4-.6-1.9-.4-.4-1-.7-1.7-.7s-1.3.2-1.7.7c-.4.5-.6,1.1-.6,2v4.5h-1.4v-8.2h1.4v1.2c.3-.4.6-.7,1.1-1,.5-.2,1-.3,1.5-.3,1,0,1.8.3,2.4.9Z"/>
          <path class="st2" d="M622.1,63.9c.3-.6.8-1.1,1.4-1.5.6-.3,1.3-.5,2.1-.5s1.8.2,2.5.7c.7.5,1.1,1.2,1.3,2h-1.5c-.1-.5-.4-.9-.8-1.2s-.9-.4-1.5-.4-1.4.3-1.9.8-.7,1.3-.7,2.3.2,1.8.7,2.3,1.1.8,1.9.8,1.1-.1,1.5-.4c.4-.3.7-.7.8-1.2h1.5c-.2.8-.7,1.5-1.3,2s-1.5.8-2.5.8-1.5-.2-2.1-.5c-.6-.4-1.1-.8-1.4-1.5s-.5-1.4-.5-2.2.2-1.6.5-2.2Z"/>
          <path class="st2" d="M631.2,63.9c.3-.6.8-1.1,1.4-1.5.6-.3,1.3-.5,2-.5s1.3.2,1.9.5c.5.3.9.7,1.2,1.2v-1.5h1.4v8.2h-1.4v-1.5c-.3.5-.7.9-1.2,1.2-.5.3-1.2.5-1.9.5s-1.4-.2-2-.5c-.6-.4-1.1-.9-1.4-1.5s-.5-1.4-.5-2.2.2-1.6.5-2.2ZM637.3,64.6c-.2-.5-.6-.8-1-1.1s-.9-.4-1.4-.4-1,.1-1.4.4c-.4.2-.8.6-1,1s-.4,1-.4,1.6.1,1.2.4,1.6c.2.5.6.8,1,1.1s.9.4,1.4.4,1-.1,1.4-.4.8-.6,1-1.1c.2-.5.4-1,.4-1.6s-.1-1.2-.4-1.6Z"/>
          <path class="st2" d="M643.7,62.4c.4-.3,1-.5,1.6-.5v1.4h-.4c-1.5,0-2.3.8-2.3,2.5v4.5h-1.4v-8.2h1.4v1.6c.2-.5.6-1,1-1.3Z"/>
          <path class="st2" d="M647,60.5c-.2-.2-.3-.4-.3-.7s0-.5.3-.7c.2-.2.4-.3.7-.3s.5,0,.6.3c.2.2.3.4.3.7s0,.5-.3.7c-.2.2-.4.3-.6.3s-.5,0-.7-.3ZM648.3,62.1v8.2h-1.4v-8.2h1.4Z"/>
          <path class="st2" d="M652.1,69.9c-.6-.4-1.1-.8-1.5-1.5-.4-.6-.5-1.4-.5-2.2s.2-1.6.5-2.2c.4-.6.9-1.1,1.5-1.5.6-.3,1.3-.5,2.1-.5s1.5.2,2.1.5c.6.3,1.1.8,1.5,1.5.4.6.5,1.4.5,2.2s-.2,1.6-.6,2.2c-.4.6-.9,1.1-1.5,1.5-.6.3-1.4.5-2.1.5s-1.5-.2-2.1-.5ZM655.6,68.9c.4-.2.8-.6,1-1.1.3-.5.4-1,.4-1.7s-.1-1.2-.4-1.7c-.3-.5-.6-.8-1-1-.4-.2-.9-.3-1.4-.3s-1,.1-1.4.3c-.4.2-.7.6-1,1s-.4,1-.4,1.7.1,1.2.4,1.7c.2.5.6.8,1,1.1.4.2.9.4,1.4.4s.9-.1,1.4-.4Z"/>
        </g>
      </g>
    </g>
  </g>
  <circle class="st9" cx="336" cy="53.3" r="47.9"/>
  <path class="st7" d="M376,86.3l-6.1-5c6.6-7.9,10.1-17.6,10.1-28,0-24.2-19.7-43.9-43.9-43.9V1.4c28.6,0,51.9,23.3,51.9,51.9s-4.2,23.8-11.9,33Z"/>
  <path class="st2" d="M336,113.7c-33.3,0-60.4-27.1-60.4-60.4s1.1-13.5,3.2-19.6l7.5,2.6c-1.8,5.3-2.8,11-2.8,17,0,28.9,23.5,52.5,52.4,52.5v7.9Z"/>
  <g class="st10">
    <g class="st10">
      <g class="st10">
        <g class="st10">
          <path class="st2" d="M308,42.7v21.6h-5v-17.6h-4.3v-4h9.3Z"/>
          <path class="st2" d="M326.5,45.1c1.7,1.8,2.6,4.5,2.6,8s-.5,4.6-1.4,6.3-2.2,3.1-3.9,4c-1.7.9-3.6,1.4-5.8,1.4s-2.3-.1-3.3-.4c-1.1-.3-1.9-.6-2.7-1.1l1.9-3.7c1.1.7,2.4,1.1,4,1.1s3.3-.5,4.4-1.6c1.1-1.1,1.6-2.6,1.7-4.7-1.3,1.3-3.1,1.9-5.4,1.9s-2.6-.3-3.8-.8c-1.1-.6-2-1.3-2.7-2.4-.7-1-1-2.2-1-3.5s.4-2.7,1.1-3.8c.7-1.1,1.7-1.9,3-2.5,1.2-.6,2.6-.9,4.2-.9,3,0,5.4.9,7.1,2.8ZM322.5,51.6c.7-.6,1-1.4,1-2.3s-.3-1.7-1-2.3c-.7-.6-1.6-.9-2.8-.9s-1.9.3-2.6.9-1,1.4-1,2.3.3,1.8,1,2.4,1.6.9,2.7.9,2-.3,2.7-.9Z"/>
          <path class="st2" d="M346.2,45.1c1.7,1.8,2.6,4.5,2.6,8s-.5,4.6-1.4,6.3-2.2,3.1-3.9,4c-1.7.9-3.6,1.4-5.8,1.4s-2.3-.1-3.3-.4c-1.1-.3-1.9-.6-2.7-1.1l1.9-3.7c1.1.7,2.4,1.1,4,1.1s3.3-.5,4.4-1.6c1.1-1.1,1.6-2.6,1.7-4.7-1.3,1.3-3.1,1.9-5.4,1.9s-2.6-.3-3.8-.8c-1.1-.6-2-1.3-2.7-2.4-.7-1-1-2.2-1-3.5s.4-2.7,1.1-3.8c.7-1.1,1.7-1.9,3-2.5,1.2-.6,2.6-.9,4.2-.9,3,0,5.4.9,7.1,2.8ZM342.1,51.6c.7-.6,1-1.4,1-2.3s-.3-1.7-1-2.3c-.7-.6-1.6-.9-2.8-.9s-1.9.3-2.6.9-1,1.4-1,2.3.3,1.8,1,2.4,1.6.9,2.7.9,2-.3,2.7-.9Z"/>
          <path class="st2" d="M365.3,53.6c1,1.1,1.5,2.5,1.5,4.1s-.3,2.4-1,3.5c-.7,1.1-1.7,1.9-3,2.5-1.3.6-3,1-5,1s-3-.2-4.5-.6c-1.5-.4-2.7-1-3.8-1.7l1.9-3.8c.8.6,1.8,1.1,2.9,1.4s2.2.5,3.3.5,2.2-.2,3-.7,1.1-1.2,1.1-2.1c0-1.8-1.3-2.7-4-2.7h-2.3v-3.3l4.4-5h-9.2v-4h15.1v3.2l-4.9,5.6c1.9.3,3.3,1,4.4,2.1Z"/>
        </g>
      </g>
    </g>
  </g>
  <g id="logo-enlace">
    <g id="enlace-horizontal-curvas">
      <g>
        <path class="st1" d="M394.1,44.3h15.2v4h-10.1v3.7h9.5v3.9h-9.5v4.9h11v4.1h-16.1v-20.6h0Z"/>
        <path class="st1" d="M417.5,51c.4-.5.9-.9,1.5-1.2.9-.4,1.8-.6,2.8-.6s1.8.2,2.8.6c1.6.9,2,2.2,2,4.6v10.4h-4.5v-8.6c0-.7,0-1.6-.2-2.2-.4-.7-1.2-1.3-2-1.2-2.3,0-2.3,1.9-2.3,3.8v8.2h-4.5v-15.2h4.5v1.4h0Z"/>
        <path class="st1" d="M434.7,44.3v20.6h-4.5v-20.6s4.5,0,4.5,0Z"/>
        <path class="st1" d="M438.2,53.9c0-1.3.6-2.5,1.6-3.4,1.4-1.1,3.2-1.4,5-1.4s6.4.5,6.4,4.4v8.9c0,1.7,0,1.8.5,2.4h-4.4v-1.4c-1.3,1.2-3,1.8-4.7,1.8-3.5,0-5-2.5-5-4.7s1.9-3.9,3.2-4.4c1.2-.5,4.1-1.1,6.1-1.4v-.7c0-.6,0-1.8-1.8-1.8s-2.2,1.2-2.3,1.8h-4.6ZM443.8,58.5c-.7.3-1.9.6-1.9,1.9s.7,1.6,1.7,1.6,1.1-.2,1.6-.5c1.5-1,1.6-2.3,1.6-3.9l-3,1h0v-.2h0Z"/>
        <path class="st1" d="M468.2,61.2c-.6,1.1-1.5,1.9-2.4,2.8-1.3.9-2.9,1.4-4.4,1.4-3,0-7.5-1.8-7.5-8s2.5-8.2,7.6-8.2,5.2,1.4,6.6,3.6l-3.3,1.9c-.3-.6-.6-1.2-1.3-1.6-.5-.3-1.1-.5-1.7-.5-2.4,0-3.2,2.8-3.2,4.6s1,4.6,3.4,4.6,2.5-1,3-2.2l3.4,1.8h0v-.2h-.2Z"/>
        <path class="st1" d="M484.7,61c-.5.9-1.2,1.6-1.8,2.2-1.6,1.5-3.6,2.1-5.7,2.1-4.5,0-7.7-3-7.7-7.9s1.8-8.4,7.8-8.4,4,.6,5.4,2.1c1.9,2.1,2.1,5.1,2.1,6.8h-10.9c0,1.8,1.1,3.8,3.4,3.8s3.3-1.6,3.9-2.7l3.4,1.7h0v.3h.1ZM480.2,55.2c0-.7-.3-1.6-.9-2.1-.6-.6-1.4-.9-2.1-.9s-1.7.4-2.2,1-.7,1.3-.9,2h6.3-.2Z"/>
      </g>
      <g>
        <g>
          <path class="st0" d="M517,72.1v-6.9h-10.4v-6.9h10.4v-7h-10.4v-6.9h10.4v-7h-17.4v34.8h17.4Z"/>
          <path class="st2" d="M516,71.2v-5h-10.4v-9h10.4v-5h-10.4v-9h10.4v-5h-15.4v32.8h15.4M517,72.1h-17.4v-34.8h17.4v7h-10.4v6.9h10.4v7h-10.4v6.9h10.4v6.9h0Z"/>
        </g>
        <path class="st2" d="M517,72.1v-6.9h10.4v-6.9h-10.4v-7h10.4v-6.9h-10.4v-7h17.4v34.8h-17.4Z"/>
      </g>
    </g>
  </g>
  <path class="st7" d="M335.7,523.3h296.5c24.4,0,44.2,19.8,44.2,44.2h0c0,24.4-19.8,44.2-44.2,44.2h-296.5v-88.4h0Z"/>
  <g class="st10">
    <g class="st10">
      <g class="st10">
        <g class="st10">
          <path class="st2" d="M580.9,558.2c.3.2.6.6.8.9.2.4.3.8.3,1.2s-.1,1-.4,1.4c-.3.4-.7.8-1.2,1-.5.2-1.1.4-1.8.4h-3.9v-10.5h3.8c.7,0,1.3.1,1.8.4.5.2.9.6,1.1,1,.2.4.4.9.4,1.4s-.2,1.1-.5,1.5c-.3.4-.8.7-1.3.9.4,0,.7.2,1,.5ZM576,557.2h2.3c.6,0,1.1-.2,1.5-.5.4-.3.5-.7.5-1.3s-.2-1-.5-1.3c-.4-.3-.9-.5-1.5-.5h-2.3v3.5ZM580,561.5c.4-.3.6-.8.6-1.4s-.2-1-.6-1.4c-.4-.3-.9-.5-1.6-.5h-2.4v3.8h2.4c.7,0,1.2-.2,1.6-.5Z"/>
          <path class="st2" d="M585.3,562.7c-.6-.4-1.1-.8-1.5-1.5-.4-.6-.5-1.4-.5-2.2s.2-1.6.5-2.2c.4-.6.9-1.1,1.5-1.5.6-.3,1.3-.5,2.1-.5s1.5.2,2.1.5c.6.3,1.1.8,1.5,1.5.4.6.5,1.4.5,2.2s-.2,1.6-.6,2.2c-.4.6-.9,1.1-1.5,1.5-.6.3-1.3.5-2.1.5s-1.5-.2-2.1-.5ZM588.8,561.7c.4-.2.8-.6,1-1.1.3-.5.4-1,.4-1.7s-.1-1.2-.4-1.7c-.3-.5-.6-.8-1-1-.4-.2-.9-.3-1.4-.3s-1,.1-1.4.3c-.4.2-.7.6-1,1s-.4,1-.4,1.7.1,1.2.4,1.7c.2.5.6.8,1,1.1.4.2.9.4,1.4.4s.9-.1,1.4-.4Z"/>
          <path class="st2" d="M594.8,552v11.1h-1.4v-11.1h1.4Z"/>
          <path class="st2" d="M598.3,562.9c-.5-.2-.9-.5-1.2-.9-.3-.4-.5-.8-.5-1.3h1.4c0,.4.2.8.6,1,.3.3.8.4,1.4.4s.9-.1,1.2-.4c.3-.2.4-.5.4-.9s-.2-.6-.5-.8-.8-.3-1.5-.5c-.6-.2-1.1-.3-1.5-.5s-.7-.4-1-.7c-.3-.3-.4-.7-.4-1.3s.1-.8.4-1.2c.2-.4.6-.6,1-.9s1-.3,1.6-.3c.9,0,1.6.2,2.2.7.6.5.9,1.1.9,1.9h-1.4c0-.4-.2-.8-.5-1.1-.3-.3-.7-.4-1.3-.4s-.9.1-1.2.3c-.3.2-.4.5-.4.9s0,.5.3.7c.2.2.4.3.7.4.3,0,.6.2,1.1.4.6.2,1.1.3,1.4.5.4.2.7.4.9.7.3.3.4.7.4,1.2s-.1.9-.4,1.2c-.2.4-.6.6-1,.9-.4.2-1,.3-1.6.3s-1.2-.1-1.7-.3Z"/>
          <path class="st2" d="M605,556.7c.3-.6.8-1.1,1.4-1.5.6-.3,1.3-.5,2-.5s1.3.2,1.9.5c.5.3.9.7,1.2,1.2v-1.5h1.4v8.2h-1.4v-1.5c-.3.5-.7.9-1.2,1.2-.5.3-1.2.5-1.9.5s-1.4-.2-2-.5c-.6-.4-1.1-.9-1.4-1.5s-.5-1.4-.5-2.2.2-1.6.5-2.2ZM611,557.4c-.2-.5-.6-.8-1-1.1-.4-.2-.9-.4-1.4-.4s-1,.1-1.4.4c-.4.2-.8.6-1,1s-.4,1-.4,1.6.1,1.2.4,1.6c.2.5.6.8,1,1.1s.9.4,1.4.4,1-.1,1.4-.4c.4-.2.8-.6,1-1.1.2-.5.4-1,.4-1.6s-.1-1.2-.4-1.6Z"/>
          <path class="st2" d="M616.3,562.9c-.5-.2-.9-.5-1.2-.9-.3-.4-.5-.8-.5-1.3h1.4c0,.4.2.8.6,1,.3.3.8.4,1.4.4s.9-.1,1.2-.4c.3-.2.4-.5.4-.9s-.2-.6-.5-.8c-.3-.2-.8-.3-1.5-.5-.6-.2-1.1-.3-1.5-.5-.4-.2-.7-.4-1-.7-.3-.3-.4-.7-.4-1.3s.1-.8.4-1.2c.2-.4.6-.6,1-.9.5-.2,1-.3,1.6-.3.9,0,1.6.2,2.2.7.6.5.9,1.1.9,1.9h-1.4c0-.4-.2-.8-.5-1.1-.3-.3-.7-.4-1.3-.4s-.9.1-1.2.3-.4.5-.4.9,0,.5.3.7c.2.2.4.3.7.4.3,0,.6.2,1.1.4.6.2,1.1.3,1.4.5.4.2.7.4.9.7s.4.7.4,1.2-.1.9-.4,1.2c-.2.4-.6.6-1,.9-.5.2-1,.3-1.6.3s-1.2-.1-1.7-.3Z"/>
          <path class="st2" d="M627.4,556.7c.3-.6.8-1.1,1.4-1.5.6-.3,1.3-.5,2-.5s1.2.1,1.8.4c.5.3,1,.7,1.3,1.2v-4.3h1.4v11.1h-1.4v-1.5c-.3.5-.7.9-1.2,1.2-.5.3-1.1.5-1.9.5s-1.4-.2-2-.5c-.6-.4-1.1-.9-1.4-1.5s-.5-1.4-.5-2.2.2-1.6.5-2.2ZM633.5,557.4c-.2-.5-.6-.8-1-1.1-.4-.2-.9-.4-1.4-.4s-1,.1-1.4.4c-.4.2-.8.6-1,1s-.4,1-.4,1.6.1,1.2.4,1.6c.2.5.6.8,1,1.1s.9.4,1.4.4,1-.1,1.4-.4c.4-.2.8-.6,1-1.1.2-.5.4-1,.4-1.6s-.1-1.2-.4-1.6Z"/>
          <path class="st2" d="M645,559.5h-6.6c0,.8.3,1.4.8,1.9.5.5,1.1.7,1.9.7s1.1-.1,1.5-.4c.4-.3.7-.6.8-1.1h1.5c-.2.8-.7,1.4-1.3,1.9s-1.5.7-2.5.7-1.5-.2-2.1-.5c-.6-.4-1.1-.8-1.4-1.5-.4-.6-.5-1.4-.5-2.2s.2-1.6.5-2.2c.3-.6.8-1.1,1.4-1.5.6-.3,1.3-.5,2.1-.5s1.5.2,2.1.5c.6.3,1.1.8,1.4,1.4.3.6.5,1.3.5,2s0,.5,0,.8ZM643.3,557.1c-.2-.4-.5-.7-.9-.9-.4-.2-.8-.3-1.3-.3-.7,0-1.3.2-1.8.7-.5.5-.8,1.1-.8,1.9h5.2c0-.5-.1-1-.3-1.4Z"/>
        </g>
      </g>
      <g class="st10">
        <g class="st10">
          <path class="st2" d="M577.7,580.1l2.6-6.9h1.5l-3.2,8.2h-1.6l-3.2-8.2h1.5l2.6,6.9Z"/>
          <path class="st2" d="M583.1,575c.3-.6.8-1.1,1.4-1.5.6-.3,1.3-.5,2-.5s1.3.2,1.9.5c.5.3.9.7,1.2,1.2v-1.5h1.4v8.2h-1.4v-1.5c-.3.5-.7.9-1.2,1.2-.5.3-1.2.5-1.9.5s-1.4-.2-2-.5c-.6-.4-1.1-.9-1.4-1.5s-.5-1.4-.5-2.2.2-1.6.5-2.2ZM589.1,575.7c-.2-.5-.6-.8-1-1.1-.4-.2-.9-.4-1.4-.4s-1,.1-1.4.4c-.4.2-.8.6-1,1s-.4,1-.4,1.6.1,1.2.4,1.6c.2.5.6.8,1,1.1s.9.4,1.4.4,1-.1,1.4-.4c.4-.2.8-.6,1-1.1.2-.5.4-1,.4-1.6s-.1-1.2-.4-1.6Z"/>
          <path class="st2" d="M594.6,570.3v11.1h-1.4v-11.1h1.4Z"/>
          <path class="st2" d="M598.4,581c-.6-.4-1.1-.8-1.5-1.5-.4-.6-.5-1.4-.5-2.2s.2-1.6.5-2.2c.4-.6.9-1.1,1.5-1.5.6-.3,1.3-.5,2.1-.5s1.5.2,2.1.5c.6.3,1.1.8,1.5,1.5.4.6.5,1.4.5,2.2s-.2,1.6-.6,2.2c-.4.6-.9,1.1-1.5,1.5-.6.3-1.4.5-2.1.5s-1.5-.2-2.1-.5ZM601.9,580c.4-.2.8-.6,1-1.1.3-.5.4-1,.4-1.7s-.1-1.2-.4-1.7-.6-.8-1-1c-.4-.2-.9-.3-1.4-.3s-1,.1-1.4.3c-.4.2-.7.6-1,1s-.4,1-.4,1.7.1,1.2.4,1.7c.2.5.6.8,1,1.1.4.2.9.4,1.3.4s1-.1,1.4-.4Z"/>
          <path class="st2" d="M608.9,573.5c.4-.3,1-.5,1.6-.5v1.4h-.4c-1.5,0-2.3.8-2.3,2.5v4.5h-1.4v-8.2h1.4v1.6c.2-.5.6-1,1-1.3Z"/>
          <path class="st2" d="M619.5,577.8h-6.6c0,.8.3,1.4.8,1.9.5.5,1.1.7,1.9.7s1.1-.1,1.5-.4c.4-.3.7-.6.8-1.1h1.5c-.2.8-.7,1.4-1.3,1.9s-1.5.7-2.5.7-1.5-.2-2.1-.5c-.6-.4-1.1-.8-1.4-1.5-.3-.6-.5-1.4-.5-2.2s.2-1.6.5-2.2c.3-.6.8-1.1,1.4-1.5.6-.3,1.3-.5,2.1-.5s1.5.2,2.1.5,1.1.8,1.4,1.4c.3.6.5,1.3.5,2s0,.5,0,.8ZM617.8,575.4c-.2-.4-.5-.7-.9-.9-.4-.2-.8-.3-1.3-.3-.7,0-1.3.2-1.8.7s-.8,1.1-.8,1.9h5.2c0-.5-.1-1-.3-1.4Z"/>
          <path class="st2" d="M622.6,581.2c-.5-.2-.9-.5-1.2-.9-.3-.4-.4-.8-.5-1.3h1.4c0,.4.2.8.6,1,.3.3.8.4,1.4.4s.9-.1,1.2-.4c.3-.2.4-.5.4-.9s-.2-.6-.5-.8c-.3-.2-.8-.3-1.5-.5-.6-.2-1.1-.3-1.5-.5-.4-.2-.7-.4-1-.7-.3-.3-.4-.7-.4-1.3s.1-.8.4-1.2c.2-.4.6-.6,1-.9.5-.2,1-.3,1.6-.3.9,0,1.6.2,2.2.7s.9,1.1.9,1.9h-1.4c0-.4-.2-.8-.5-1.1-.3-.3-.7-.4-1.3-.4s-.9.1-1.2.3c-.3.2-.4.5-.4.9s0,.5.3.7c.2.2.4.3.7.4.3,0,.6.2,1.1.4.6.2,1.1.3,1.4.5s.7.4.9.7c.3.3.4.7.4,1.2s-.1.9-.4,1.2c-.2.4-.6.6-1,.9s-1,.3-1.6.3-1.2-.1-1.7-.3Z"/>
        </g>
      </g>
    </g>
  </g>
  <circle class="st9" cx="337.7" cy="566.8" r="49.1" transform="translate(-102 74.8) rotate(-11)"/>
  <path class="st7" d="M378.2,600.9l-6.1-5c6.6-8.1,10.3-18.3,10.3-28.8,0-24.9-20.3-45.1-45.1-45.1v-7.9c29.3,0,53.1,23.8,53.1,53s-4.3,24.3-12.1,33.8Z"/>
  <path class="st2" d="M337.4,629c-34,0-61.8-27.7-61.8-61.8s1.1-13.6,3.3-20.1l7.5,2.5c-1.9,5.7-2.9,11.6-2.9,17.5,0,29.7,24.2,53.8,53.8,53.8v7.9Z"/>
  <g class="st10">
    <g class="st10">
      <g class="st10">
        <g class="st10">
          <path class="st2" d="M316.4,574.2v4.1h-16.3v-3.2l8.3-7.9c.9-.8,1.5-1.6,1.8-2.2.3-.6.5-1.2.5-1.8,0-.9-.3-1.5-.9-2-.6-.5-1.4-.7-2.6-.7s-1.8.2-2.6.5-1.4.9-1.9,1.6l-3.6-2.3c.8-1.3,2-2.2,3.5-3,1.5-.7,3.2-1.1,5.1-1.1s3,.3,4.2.8,2.1,1.3,2.8,2.2c.7,1,1,2.1,1,3.4s-.2,2.3-.7,3.3c-.5,1-1.5,2.2-2.9,3.5l-5,4.7h9.3Z"/>
          <path class="st2" d="M322.9,577.3c-1.4-.9-2.5-2.2-3.3-3.8s-1.2-3.7-1.2-6,.4-4.3,1.2-6c.8-1.7,1.9-3,3.3-3.8s3-1.3,4.8-1.3,3.4.4,4.8,1.3c1.4.9,2.5,2.2,3.3,3.8.8,1.7,1.2,3.7,1.2,6s-.4,4.3-1.2,6c-.8,1.7-1.9,3-3.3,3.8-1.4.9-3,1.3-4.8,1.3s-3.4-.4-4.8-1.3ZM330.7,572.7c.8-1.1,1.1-2.9,1.1-5.3s-.4-4.1-1.1-5.3c-.8-1.1-1.8-1.7-3.1-1.7s-2.3.6-3.1,1.7c-.8,1.1-1.1,2.9-1.1,5.3s.4,4.1,1.1,5.3,1.8,1.7,3.1,1.7,2.4-.6,3.1-1.7Z"/>
          <path class="st2" d="M347.5,556.7v21.6h-5v-17.6h-4.3v-4h9.3Z"/>
          <path class="st2" d="M368.5,569c.6.9.8,1.9.8,3s-.4,2.5-1.1,3.5c-.8,1-1.8,1.8-3.2,2.3-1.4.5-3,.8-4.8.8s-3.4-.3-4.8-.8c-1.4-.5-2.4-1.3-3.2-2.3-.8-1-1.1-2.2-1.1-3.5s.3-2.1.8-3c.6-.9,1.4-1.6,2.4-2.1-.8-.5-1.4-1.1-1.9-1.9s-.6-1.6-.6-2.6.4-2.3,1.1-3.3c.7-.9,1.7-1.6,2.9-2.1,1.3-.5,2.7-.8,4.3-.8s3.1.3,4.4.8c1.3.5,2.3,1.2,3,2.1.7.9,1.1,2,1.1,3.3s-.2,1.8-.6,2.6-1.1,1.4-1.9,1.9c1.1.5,1.9,1.2,2.5,2.1ZM363.2,574.1c.7-.6,1.1-1.3,1.1-2.3s-.4-1.7-1.1-2.3c-.7-.6-1.7-.8-3-.8s-2.2.3-2.9.8c-.7.6-1.1,1.3-1.1,2.3s.4,1.7,1.1,2.3,1.7.8,2.9.8,2.3-.3,3-.8ZM357.8,560.7c-.6.5-.9,1.1-.9,2s.3,1.5.9,1.9c.6.5,1.4.7,2.4.7s1.9-.2,2.5-.7c.6-.5.9-1.1.9-1.9s-.3-1.5-.9-2c-.6-.5-1.4-.7-2.5-.7s-1.8.2-2.4.7Z"/>
        </g>
      </g>
    </g>
  </g>
  <g>
    <path class="st2" d="M520.3,577.1v-2.3c0,0,.2,0,.3,0,.2,0,.4-.1.7-.2.4-.2.6-.6.8-1,.1-.3.2-.9,0-1.5l-11-21.9c-.2-.5-.5-.7-.8-.9-.9-.4-2.1-.2-2.6.9l-11,21.9c-.2.4-.2,1,0,1.5.2.5.5.9.9,1.1,1,.4,2.1,0,2.6-.9l9.2-18.5,9.2,18.6c.2.6,1,1.1,1.7,1.1v2.3c-1.6,0-3.2-1-3.8-2.4l-7.1-14.3-7.2,14.4c-1.1,2.1-3.6,2.9-5.6,1.9-2-1-2.9-3.5-2-5.6l11-21.9c1.1-2.1,3.5-2.9,5.6-1.9,1.1.5,1.6,1.3,1.9,1.9l11,21.9c.5,1,.6,2.2.2,3.3-.4,1-1.1,1.9-2.1,2.3h-.2c0,.1-.3.1-.3.1,0,0-.2,0-.3,0-.3,0-.6.2-1.1.2Z"/>
    <g>
      <g>
        <path id="Trazado_14796" class="st2" d="M408.2,589.3h-2c-.3,0-.7-.3-.7-.7v-5.5c0-.3.2-.7.7-.7h1.9c1.4,0,2.1.7,2.1,1.7s-.5,1.2-1.1,1.5c.9,0,1.5.8,1.5,1.6s-.8,1.9-2.4,1.9M408.1,583.7h-1.2v1.6h1.2c.5,0,.9-.3.9-.7h0c0-.6-.3-.9-.8-.9h0M406.9,588.2h1.4c.7,0,1.1-.3,1.1-.9s-.5-.9-1-.9h-1.5v1.9h0Z"/>
        <path id="Trazado_14797" class="st2" d="M413.3,589.5c-1.2,0-2.4-.9-2.5-2.1,0-1.4.9-2.4,2.1-2.5,1.2,0,2.4.9,2.5,2.1h0c0,1.4-.9,2.4-2,2.5h-.1M413.3,585.8c-.7,0-1,.7-1,1.4s.3,1.4,1,1.4,1-.7,1-1.4-.3-1.4-1-1.4"/>
        <path id="Trazado_14798" class="st2" d="M417,589.4c-.3,0-.7-.2-.7-.7h0v-5.8c0-.3.2-.7.7-.7s.7.2.7.7v5.8c0,.3-.3.7-.7.7h0"/>
        <path id="Trazado_14799" class="st2" d="M420.3,589.5c-.6,0-1,0-1.5-.5-.1,0-.2-.3-.2-.5s.1-.3.3-.3h.3c.2.2.6.3.9.3s.6,0,.6-.3-.2-.3-.7-.6c-1.1-.3-1.6-.8-1.6-1.6s.9-1.4,1.7-1.4.8,0,1.1.2.6.3.6.7-.1.3-.3.5h-.3c-.2,0-.6-.2-.9-.2s-.6,0-.6.3.1.3.8.6c1.1.3,1.6.7,1.6,1.5.2.8-.3,1.4-1.6,1.4"/>
        <path id="Trazado_14800" class="st2" d="M426.1,589.4c-.3,0-.6-.2-.7-.6h0c-.2.3-.7.7-1.2.6-.8,0-1.4-.5-1.5-1.1h0c0-1,.7-1.5,1.6-1.5s.9,0,1.1.3v-.3c0-.5-.2-.9-.7-.9h-1.5c-.2,0-.5,0-.5-.5h0c0-.3.3-.5.7-.7h1.1c1.4,0,2,.7,2,1.9v2.1c.1.2,0,.6-.5.6h0M425.5,588.1c0-.3-.3-.6-.8-.6s-.8.2-.8.6.3.6.8.6.8-.2.8-.6"/>
        <path id="Trazado_14801" class="st2" d="M431.6,588.8c0,.3-.3.7-.7.7s-.6-.2-.7-.7v-5.6c0-.3.2-.7.7-.7s.7.2.7.7h0v5.6Z"/>
        <path id="Trazado_14802" class="st2" d="M436.5,589.4c-.3,0-.7-.2-.7-.7h0v-1.9c0-.6-.2-1-.8-1s-.9.5-.9,1.1v1.8c0,.3-.2.7-.7.7s-.7-.2-.7-.7v-3.4c0-.3.2-.7.7-.7s.7.2.7.7h0c.2-.3.7-.7,1.2-.7,1.1,0,1.6.9,1.6,2v1.9c0,.5-.3.7-.7.7h0"/>
        <path id="Trazado_14803" class="st2" d="M439.6,589.5c-.6,0-1,0-1.5-.5-.1,0-.2-.3-.2-.5s.1-.3.3-.3h.3c.2.2.6.3.9.3s.6,0,.6-.3-.2-.3-.7-.6c-1.1-.3-1.6-.8-1.6-1.6s.9-1.4,1.7-1.4.8,0,1.1.2.6.3.6.7-.1.5-.3.5h-.3c-.2,0-.6-.2-.9-.2s-.6,0-.6.3.1.3.8.6c1.1.3,1.6.7,1.6,1.5.2.8-.3,1.4-1.6,1.4"/>
        <path id="Trazado_14804" class="st2" d="M443.3,589.4c-.3,0-.7-.2-.7-.6h0v-2.8h-.5c-.3,0-.6-.2-.6-.5s.2-.6.5-.6h.6v-1.2c0-.3.2-.7.7-.7s.7.2.7.7v1.2h.7c.3,0,.5.2.5.5s-.2.5-.5.5h-.7v2.8c0,.3-.3.7-.7.7h0"/>
        <path id="Trazado_14805" class="st2" d="M446.3,584.2c-.3,0-.7-.3-.7-.7s.3-.7.7-.7.7.3.7.7-.3.7-.7.7h0M446.3,589.4c-.3,0-.7-.2-.7-.7h0v-3.4c0-.3.3-.7.7-.6.3,0,.6.2.6.6v3.4c0,.3-.2.7-.6.7h0"/>
        <path id="Trazado_14806" class="st2" d="M449.1,589.4c-.3,0-.7-.2-.7-.6h0v-2.8h-.5c-.3,0-.6-.2-.6-.5s.2-.6.5-.6h.6v-1.2c0-.3.2-.7.7-.7s.7.2.7.7v1.2h.7c.3,0,.5.2.5.5s-.2.5-.5.5h-.7v2.8c0,.3-.3.7-.7.7h0"/>
        <path id="Trazado_14807" class="st2" d="M451.8,584.9c.3,0,.7.2.7.7h0v1.9c0,.6.2.9.8.9s.9-.5.9-1.1v-1.8c0-.3.2-.7.6-.7s.7.2.7.6h0v3.4c0,.3-.2.7-.6.7s-.7-.2-.7-.6h0c-.2.3-.7.6-1.2.6-1.1,0-1.6-.9-1.6-2v-1.9c0-.3.3-.7.7-.7h0"/>
        <path id="Trazado_14808" class="st2" d="M459.9,585.6s.1.3.1.5-.2.5-.5.5h0c-.1,0-.3,0-.3-.2-.1-.3-.5-.5-.8-.5-.7,0-1,.7-1,1.4s.3,1.4,1,1.4.7,0,.8-.5c0,0,.2-.2.3-.2.2,0,.5,0,.5.5h0s0,.3-.1.5c-.3.5-.9.8-1.6.8-1.2,0-2.3-1.1-2.1-2.5,0-1.1,1-2.1,2.1-2.1s1.2.2,1.6.8"/>
        <path id="Trazado_14809" class="st2" d="M461.5,584.2c-.3,0-.7-.3-.7-.7s.3-.7.7-.7.7.3.7.7-.3.7-.7.7h0M461.5,589.4c-.3,0-.7-.2-.7-.7h0v-3.4c0-.3.2-.7.7-.7s.7.2.7.7v3.4c0,.3-.2.7-.7.7h0"/>
        <path id="Trazado_14810" class="st2" d="M465.3,589.5c-1.2,0-2.4-.9-2.5-2.1,0-1.2.9-2.4,2.1-2.5,1.2,0,2.4.9,2.5,2.1h0c0,1.4-.9,2.4-2,2.5h-.1M465.3,585.8c-.7,0-1,.7-1,1.4s.3,1.4,1,1.4,1-.7,1-1.4-.3-1.4-1-1.4"/>
        <path id="Trazado_14811" class="st2" d="M471.9,589.4c-.3,0-.7-.2-.7-.7h0v-1.9c0-.6-.2-1-.8-1s-.9.5-.9,1.1v1.8c0,.3-.2.7-.7.7s-.7-.2-.7-.7h0v-3.4c0-.3.2-.7.7-.7s.7.2.7.7h0c.2-.3.7-.7,1.2-.7,1.1,0,1.6.9,1.6,2v1.9c0,.5-.3.7-.7.7h0"/>
        <path id="Trazado_14812" class="st2" d="M476.8,589.4c-.3,0-.6-.2-.7-.6h0c-.2.3-.7.7-1.2.6-.8,0-1.4-.5-1.5-1.1h0c0-1,.7-1.5,1.6-1.5s.8,0,1.1.3v-.3c0-.5-.2-.9-.7-.9h-1.5c-.2,0-.5,0-.5-.5h0c0-.3.3-.5.7-.7h1.1c1.4,0,2,.7,2,1.9v2.1c0,.3-.1.6-.5.7h0M476.2,588.1c0-.3-.3-.6-.8-.6s-.8.2-.8.6.3.6.8.6.8-.2.8-.6"/>
        <path id="Trazado_14813" class="st2" d="M485,584.8c.5,0,.9.2,1.2.7v-2.4c0-.3.2-.7.7-.7s.7.2.7.7v5.6c0,.3-.2.7-.6.7h0c-.3,0-.6-.2-.6-.6h0c-.2.3-.7.7-1.2.7-1.2,0-1.9-1.1-1.9-2.4s.6-2.4,1.8-2.4M485.2,588.5c.7,0,.9-.7.9-1.4s-.3-1.4-.9-1.4-1,.6-1,1.4.3,1.4,1,1.4"/>
        <path id="Trazado_14814" class="st2" d="M492.3,587.2c0,.2-.1.3-.3.3h-2.5c0,.6.3.9.9,1h0c.3,0,.7,0,.9-.3,0,0,.3-.2.5-.2s.5,0,.5.3h0c0,.2-.1.3-.3.6-.3.3-.9.5-1.5.5-1.1,0-2.1-.9-2.1-2v-.2c0-1.1.8-2.3,1.9-2.4h.1c1.2,0,1.9,1,1.9,2.4M490.4,585.7c-.5,0-.8.3-.9.9h1.7c0-.6-.3-.9-.9-.9"/>
        <path id="Trazado_14815" class="st2" d="M497.4,587.5l1.6-4.5c0-.2.3-.5.6-.3.3,0,.6.2.6.5h0v.3l-2.1,5.8c0,.2-.3.3-.6.3s-.5,0-.6-.3l-2.1-5.8v-.2c0-.3.2-.6.6-.6s.5,0,.6.5l1.7,4.4h-.3Z"/>
        <path id="Trazado_14816" class="st2" d="M503.3,589.4c-.3,0-.6-.2-.7-.6h0c-.2.3-.7.7-1.1.6-.8,0-1.4-.5-1.5-1.1h0c0-1,.7-1.5,1.6-1.5s.8,0,1.1.3v-.3c0-.5-.2-.9-.7-.9h-1.5c-.2,0-.5,0-.5-.5h0c0-.3.3-.5.7-.7h1.1c1.4,0,2,.7,2,1.9v2.1c0,.3-.1.6-.5.7q-.2,0,0,0M502.7,588.1c0-.3-.3-.6-.8-.6s-.7.2-.7.6.3.6.7.6.8-.2.8-.6"/>
        <path id="Trazado_14817" class="st2" d="M505.8,589.4c-.3,0-.7-.2-.7-.7h0v-5.8c0-.3.2-.7.7-.7s.7.2.7.7v5.8c0,.3-.3.7-.7.7h0"/>
        <path id="Trazado_14818" class="st2" d="M479.1,589.4c-.3,0-.7-.2-.7-.7h0v-5.8c0-.3.2-.7.7-.7s.7.2.7.7h0v5.8c0,.3-.2.7-.7.7h0"/>
        <path id="Trazado_14819" class="st2" d="M509.4,589.5c-1.2,0-2.4-.9-2.5-2.1,0-1.2.9-2.4,2.1-2.5,1.2,0,2.4.9,2.5,2.1h0c0,1.4-.9,2.4-2,2.5h-.1M509.4,585.8c-.7,0-1,.7-1,1.4s.3,1.4,1,1.4,1-.7,1-1.4-.3-1.4-1-1.4"/>
        <path id="Trazado_14820" class="st2" d="M514.7,585.9c-.7,0-.9.5-.9,1.2v1.6c0,.3-.2.7-.7.7s-.7-.2-.7-.7h0v-3.4c0-.3.2-.7.7-.7s.7.2.7.7h0c0-.3.5-.7.9-.7s.6,0,.6.5h0c0,.3,0,.7-.5.7h0"/>
        <path id="Trazado_14821" class="st2" d="M519.4,587.2c0,.2,0,.3-.3.3h-2.5c0,.6.3.9.9,1h0c.3,0,.7,0,.9-.3,0,0,.3-.2.5-.2s.5,0,.5.3h0c0,.2,0,.3-.3.6s-.9.5-1.5.5c-1.1,0-2.1-.9-2.1-2v-.2c0-1.1.8-2.3,1.9-2.4h0c1.2,0,1.9,1,1.9,2.4M517.5,585.7c-.5,0-.8.3-.9.9h1.7c0-.6-.3-.9-.9-.9"/>
        <path id="Trazado_14822" class="st2" d="M521.8,589.5c-.6,0-1,0-1.5-.5,0,0-.2-.3-.2-.5s0-.3.3-.3h.3c.2.2.6.3.9.3s.6,0,.6-.3-.2-.3-.7-.6c-1.1-.3-1.6-.8-1.6-1.6s.9-1.4,1.7-1.4.8,0,1.1.2.6.3.6.7,0,.3-.3.5h-.3c-.2,0-.6-.2-.9-.2s-.6,0-.6.3,0,.3.8.6c1.1.3,1.6.7,1.6,1.5s-.5,1.4-1.6,1.4"/>
      </g>
      <g>
        <path id="Trazado_14824" class="st2" d="M475.1,575.9c-1.1,0-2.3-.7-2.7-1.7l-11-21.9c-.8-1.6-.1-3.4,1.4-4.1,1.6-.8,3.4,0,4.1,1.4h0l8.2,16.5,8.2-16.5c.8-1.5,2.6-2.1,4.1-1.4,1.5.8,2.1,2.6,1.4,4.1l-11,21.9c-.7,1-1.6,1.7-2.8,1.7"/>
        <path id="Trazado_14825" class="st2" d="M445.7,575.9c-1.7,0-3.2-1.4-3.2-3.2h0v-21.9c0-1.7,1.4-3.2,3-3.2s3.2,1.4,3.2,3h0v22.1c0,1.6-1.4,3-3,3h0"/>
        <path id="Trazado_14826" class="st2" d="M418.5,570.2c2.6,0,4.3-.9,4.3-2.9h0c0-1.9-1.4-3-4.5-3h-7v6.1h7.2v-.2h0ZM416.8,559.2c2.6,0,4.4-.9,4.4-2.8h0c0-1.9-1.4-2.8-4-2.8h-6v5.9h5.6v-.2h0ZM405.4,551c0-1.6,1.4-3,2.9-3h9.8c3.2,0,5.6.9,7.1,2.4s1.9,2.9,1.9,4.6h0c0,2.6-1.4,4.9-3.6,6,3.2,1.2,5.1,3,5.1,6.8h0c0,5.1-4.1,7.6-10.3,7.6h-10c-1.6,0-3-1.4-3-2.9h0v-21.5h.1Z"/>
      </g>
    </g>
  </g>
  <g>
    <circle class="st3" cx="333.8" cy="191.3" r="7.9"/>
    <path class="st2" d="M333.8,199.3c-4.4,0-8-3.6-8-8s3.6-8,8-8,8,3.6,8,8-3.6,8-8,8ZM333.8,183.5c-4.3,0-7.8,3.5-7.8,7.8s3.5,7.8,7.8,7.8,7.8-3.5,7.8-7.8-3.5-7.8-7.8-7.8Z"/>
  </g>
  <g>
    <circle class="st5" cx="333.8" cy="444.2" r="7.9"/>
    <path class="st2" d="M333.8,452.2c-4.4,0-8-3.6-8-8s3.6-8,8-8,8,3.6,8,8-3.6,8-8,8ZM333.8,436.4c-4.3,0-7.8,3.5-7.8,7.8s3.5,7.8,7.8,7.8,7.8-3.5,7.8-7.8-3.5-7.8-7.8-7.8Z"/>
  </g>
  <path class="st2" d="M391.3,190.2c0-.9.7-1.6,1.6-1.6h0c.9,0,1.6.7,1.6,1.6h0c0,.9-.7,1.6-1.6,1.6h0c-.9,0-1.6-.7-1.6-1.6ZM380.2,190.2c0-.9.7-1.6,1.6-1.6h0c.9,0,1.6.7,1.6,1.6h0c0,.9-.7,1.6-1.6,1.6h0c-.9,0-1.6-.7-1.6-1.6ZM369.1,190.2c0-.9.7-1.6,1.6-1.6h0c.9,0,1.6.7,1.6,1.6h0c0,.9-.7,1.6-1.6,1.6h0c-.9,0-1.6-.7-1.6-1.6ZM358,190.2c0-.9.7-1.6,1.6-1.6h0c.9,0,1.6.7,1.6,1.6h0c0,.9-.7,1.6-1.6,1.6h0c-.9,0-1.6-.7-1.6-1.6ZM346.9,190.2c0-.9.7-1.6,1.6-1.6h0c.9,0,1.6.7,1.6,1.6h0c0,.9-.7,1.6-1.6,1.6h0c-.9,0-1.6-.7-1.6-1.6Z"/>
  <path class="st2" d="M398.1,443.5c0-.9.7-1.6,1.6-1.6h0c.9,0,1.6.7,1.6,1.6h0c0,.9-.7,1.6-1.6,1.6h0c-.9,0-1.6-.7-1.6-1.6ZM387,443.5c0-.9.7-1.6,1.6-1.6h0c.9,0,1.6.7,1.6,1.6h0c0,.9-.7,1.6-1.6,1.6h0c-.9,0-1.6-.7-1.6-1.6ZM375.9,443.5c0-.9.7-1.6,1.6-1.6h0c.9,0,1.6.7,1.6,1.6h0c0,.9-.7,1.6-1.6,1.6h0c-.9,0-1.6-.7-1.6-1.6ZM364.8,443.5c0-.9.7-1.6,1.6-1.6h0c.9,0,1.6.7,1.6,1.6h0c0,.9-.7,1.6-1.6,1.6h0c-.9,0-1.6-.7-1.6-1.6ZM353.7,443.5c0-.9.7-1.6,1.6-1.6h0c.9,0,1.6.7,1.6,1.6h0c0,.9-.7,1.6-1.6,1.6h0c-.9,0-1.6-.7-1.6-1.6Z"/>
  <path class="st7" d="M482.7,142.8h296.5c24.4,0,44.2,19.8,44.2,44.2v.8c0,24.4-19.8,44.2-44.2,44.2h-296.5v-89.2h0Z"/>
  <g class="st10">
    <g class="st10">
      <g class="st10">
        <g class="st10">
          <path class="st2" d="M704.3,180.5c-.6.6-1.5.9-2.7.9h-2v4.4h-1.4v-10.5h3.4c1.2,0,2.1.3,2.7.9.6.6.9,1.3.9,2.2s-.3,1.6-.9,2.2ZM703.2,179.7c.4-.3.5-.8.5-1.4s-.2-1.1-.5-1.5-.9-.5-1.7-.5h-2v3.9h2c.8,0,1.3-.2,1.7-.5Z"/>
          <path class="st2" d="M709.2,177.8c.4-.3,1-.5,1.6-.5v1.4h-.4c-1.5,0-2.3.8-2.3,2.5v4.5h-1.4v-8.2h1.4v1.6c.2-.5.6-1,1-1.3Z"/>
          <path class="st2" d="M713.9,185.3c-.6-.4-1.1-.8-1.5-1.5-.4-.6-.5-1.4-.5-2.2s.2-1.6.5-2.2c.4-.6.9-1.1,1.5-1.5.6-.3,1.3-.5,2.1-.5s1.5.2,2.1.5c.6.3,1.1.8,1.5,1.5.4.6.5,1.4.5,2.2s-.2,1.6-.6,2.2c-.4.6-.9,1.1-1.5,1.5-.6.3-1.4.5-2.1.5s-1.5-.2-2.1-.5ZM717.4,184.3c.4-.2.8-.6,1-1.1.3-.5.4-1,.4-1.7s-.1-1.2-.4-1.7-.6-.8-1-1c-.4-.2-.9-.3-1.4-.3s-1,.1-1.4.3c-.4.2-.7.6-1,1s-.4,1-.4,1.7.1,1.2.4,1.7c.2.5.6.8,1,1.1.4.2.9.4,1.3.4s1-.1,1.4-.4Z"/>
          <path class="st2" d="M725.1,184.4l2.5-6.9h1.5l-3.2,8.2h-1.6l-3.2-8.2h1.5l2.6,6.9Z"/>
          <path class="st2" d="M737.9,182.1h-6.6c0,.8.3,1.4.8,1.9.5.5,1.1.7,1.9.7s1.1-.1,1.5-.4c.4-.3.7-.6.8-1.1h1.5c-.2.8-.7,1.4-1.3,1.9s-1.5.7-2.5.7-1.5-.2-2.1-.5c-.6-.4-1.1-.8-1.4-1.5-.4-.6-.5-1.4-.5-2.2s.2-1.6.5-2.2c.3-.6.8-1.1,1.4-1.5.6-.3,1.3-.5,2.1-.5s1.5.2,2.1.5c.6.3,1.1.8,1.4,1.4.3.6.5,1.3.5,2s0,.5,0,.8ZM736.2,179.7c-.2-.4-.5-.7-.9-.9-.4-.2-.8-.3-1.3-.3-.7,0-1.3.2-1.8.7-.5.5-.8,1.1-.8,1.9h5.2c0-.5-.1-1-.3-1.4Z"/>
          <path class="st2" d="M747.2,182.1h-6.6c0,.8.3,1.4.8,1.9.5.5,1.1.7,1.9.7s1.1-.1,1.5-.4c.4-.3.7-.6.8-1.1h1.5c-.2.8-.7,1.4-1.3,1.9s-1.5.7-2.5.7-1.5-.2-2.1-.5c-.6-.4-1.1-.8-1.4-1.5-.3-.6-.5-1.4-.5-2.2s.2-1.6.5-2.2c.3-.6.8-1.1,1.4-1.5.6-.3,1.3-.5,2.1-.5s1.5.2,2.1.5c.6.3,1.1.8,1.4,1.4.3.6.5,1.3.5,2s0,.5,0,.8ZM745.5,179.7c-.2-.4-.5-.7-.9-.9-.4-.2-.8-.3-1.3-.3-.7,0-1.3.2-1.8.7s-.8,1.1-.8,1.9h5.2c0-.5-.1-1-.3-1.4Z"/>
          <path class="st2" d="M749,179.3c.3-.6.8-1.1,1.4-1.5.6-.3,1.3-.5,2-.5s1.2.1,1.8.4c.5.3,1,.7,1.3,1.2v-4.3h1.4v11.1h-1.4v-1.5c-.3.5-.7.9-1.2,1.2-.5.3-1.1.5-1.9.5s-1.4-.2-2-.5c-.6-.4-1.1-.9-1.4-1.5s-.5-1.4-.5-2.2.2-1.6.5-2.2ZM755.1,180c-.2-.5-.6-.8-1-1.1-.4-.2-.9-.4-1.4-.4s-1,.1-1.4.4c-.4.2-.8.6-1,1s-.4,1-.4,1.6.1,1.2.4,1.6c.2.5.6.8,1,1.1s.9.4,1.4.4,1-.1,1.4-.4c.4-.2.8-.6,1-1.1.2-.5.4-1,.4-1.6s-.1-1.2-.4-1.6Z"/>
          <path class="st2" d="M760.7,185.3c-.6-.4-1.1-.8-1.5-1.5-.4-.6-.5-1.4-.5-2.2s.2-1.6.5-2.2c.4-.6.9-1.1,1.5-1.5.6-.3,1.3-.5,2.1-.5s1.5.2,2.1.5c.6.3,1.1.8,1.5,1.5.4.6.5,1.4.5,2.2s-.2,1.6-.6,2.2c-.4.6-.9,1.1-1.5,1.5-.6.3-1.3.5-2.1.5s-1.5-.2-2.1-.5ZM764.2,184.3c.4-.2.8-.6,1-1.1.3-.5.4-1,.4-1.7s-.1-1.2-.4-1.7c-.3-.5-.6-.8-1-1-.4-.2-.9-.3-1.4-.3s-1,.1-1.4.3c-.4.2-.7.6-1,1s-.4,1-.4,1.7.1,1.2.4,1.7c.2.5.6.8,1,1.1.4.2.9.4,1.4.4s1-.1,1.4-.4Z"/>
          <path class="st2" d="M771.2,177.8c.4-.3,1-.5,1.6-.5v1.4h-.4c-1.5,0-2.3.8-2.3,2.5v4.5h-1.4v-8.2h1.4v1.6c.2-.5.6-1,1-1.3Z"/>
        </g>
        <g class="st10">
          <path class="st2" d="M698.2,196.3c.3-.6.8-1.1,1.4-1.5.6-.3,1.3-.5,2-.5s1.2.1,1.8.4c.5.3,1,.7,1.3,1.2v-4.3h1.4v11.1h-1.4v-1.5c-.3.5-.7.9-1.2,1.2-.5.3-1.1.5-1.9.5s-1.4-.2-2-.5c-.6-.4-1.1-.9-1.4-1.5s-.5-1.4-.5-2.2.2-1.6.5-2.2ZM704.2,197c-.2-.5-.6-.8-1-1.1-.4-.2-.9-.4-1.4-.4s-1,.1-1.4.4c-.4.2-.8.6-1,1s-.4,1-.4,1.6.1,1.2.4,1.6c.2.5.6.8,1,1.1s.9.4,1.4.4,1-.1,1.4-.4c.4-.2.8-.6,1-1.1.2-.5.4-1,.4-1.6s-.1-1.2-.4-1.6Z"/>
          <path class="st2" d="M715.8,199.1h-6.6c0,.8.3,1.4.8,1.9.5.5,1.1.7,1.9.7s1.1-.1,1.5-.4c.4-.3.7-.6.8-1.1h1.5c-.2.8-.7,1.4-1.3,1.9s-1.5.7-2.5.7-1.5-.2-2.1-.5c-.6-.4-1.1-.8-1.4-1.5-.4-.6-.5-1.4-.5-2.2s.2-1.6.5-2.2c.3-.6.8-1.1,1.4-1.5.6-.3,1.3-.5,2.1-.5s1.5.2,2.1.5c.6.3,1.1.8,1.4,1.4.3.6.5,1.3.5,2s0,.5,0,.8ZM714,196.7c-.2-.4-.5-.7-.9-.9-.4-.2-.8-.3-1.3-.3-.7,0-1.3.2-1.8.7-.5.5-.8,1.1-.8,1.9h5.2c0-.5-.1-1-.3-1.4Z"/>
          <path class="st2" d="M724.6,194.8c.5-.3,1.2-.5,1.9-.5s1.4.2,2,.5c.6.4,1.1.8,1.4,1.5s.5,1.4.5,2.2-.2,1.6-.5,2.2-.8,1.2-1.4,1.5c-.6.4-1.3.5-2,.5s-1.3-.2-1.9-.5c-.5-.3-.9-.7-1.2-1.2v5.4h-1.4v-12.1h1.4v1.5c.3-.5.7-.9,1.2-1.2ZM728.6,196.9c-.2-.5-.6-.8-1-1-.4-.2-.9-.4-1.4-.4s-1,.1-1.4.4c-.4.2-.8.6-1,1.1-.3.5-.4,1-.4,1.6s.1,1.2.4,1.6c.3.5.6.8,1,1.1.4.2.9.4,1.4.4s1-.1,1.4-.4.8-.6,1-1.1c.2-.5.4-1,.4-1.6s-.1-1.2-.4-1.6Z"/>
          <path class="st2" d="M734.6,194.8c.4-.3,1-.5,1.6-.5v1.4h-.4c-1.5,0-2.3.8-2.3,2.5v4.5h-1.4v-8.2h1.4v1.6c.2-.5.6-1,1-1.3Z"/>
          <path class="st2" d="M745.3,199.1h-6.6c0,.8.3,1.4.8,1.9.5.5,1.1.7,1.9.7s1.1-.1,1.5-.4c.4-.3.7-.6.8-1.1h1.5c-.2.8-.7,1.4-1.3,1.9s-1.5.7-2.5.7-1.5-.2-2.1-.5c-.6-.4-1.1-.8-1.4-1.5-.3-.6-.5-1.4-.5-2.2s.2-1.6.5-2.2c.3-.6.8-1.1,1.4-1.5.6-.3,1.3-.5,2.1-.5s1.5.2,2.1.5,1.1.8,1.4,1.4c.3.6.5,1.3.5,2s0,.5,0,.8ZM743.5,196.7c-.2-.4-.5-.7-.9-.9-.4-.2-.8-.3-1.3-.3-.7,0-1.3.2-1.8.7s-.8,1.1-.8,1.9h5.2c0-.5-.1-1-.3-1.4Z"/>
          <path class="st2" d="M747.1,196.3c.3-.6.8-1.1,1.4-1.5.6-.3,1.3-.5,2.1-.5s1.8.2,2.5.7c.7.5,1.1,1.2,1.3,2h-1.5c-.1-.5-.4-.9-.8-1.2-.4-.3-.9-.4-1.5-.4s-1.4.3-1.9.8c-.5.5-.7,1.3-.7,2.3s.2,1.8.7,2.3c.5.5,1.1.8,1.9.8s1.1-.1,1.5-.4c.4-.3.7-.7.8-1.2h1.5c-.2.8-.7,1.5-1.3,2s-1.5.8-2.5.8-1.5-.2-2.1-.5c-.6-.4-1.1-.8-1.4-1.5s-.5-1.4-.5-2.2.2-1.6.5-2.2Z"/>
          <path class="st2" d="M756.2,192.9c-.2-.2-.3-.4-.3-.7s0-.5.3-.7c.2-.2.4-.3.7-.3s.5,0,.6.3c.2.2.3.4.3.7s0,.5-.3.7c-.2.2-.4.3-.6.3s-.5,0-.7-.3ZM757.6,194.5v8.2h-1.4v-8.2h1.4Z"/>
          <path class="st2" d="M761.4,202.3c-.6-.4-1.1-.8-1.5-1.5-.4-.6-.5-1.4-.5-2.2s.2-1.6.5-2.2c.4-.6.9-1.1,1.5-1.5.6-.3,1.3-.5,2.1-.5s1.5.2,2.1.5c.6.3,1.1.8,1.5,1.5.4.6.5,1.4.5,2.2s-.2,1.6-.6,2.2c-.4.6-.9,1.1-1.5,1.5-.6.3-1.3.5-2.1.5s-1.5-.2-2.1-.5ZM764.9,201.3c.4-.2.8-.6,1-1.1.3-.5.4-1,.4-1.7s-.1-1.2-.4-1.7c-.3-.5-.6-.8-1-1-.4-.2-.9-.3-1.4-.3s-1,.1-1.4.3c-.4.2-.7.6-1,1s-.4,1-.4,1.7.1,1.2.4,1.7c.2.5.6.8,1,1.1.4.2.9.4,1.4.4s1-.1,1.4-.4Z"/>
          <path class="st2" d="M770.7,202.5c-.5-.2-.9-.5-1.2-.9-.3-.4-.4-.8-.5-1.3h1.4c0,.4.2.8.6,1,.3.3.8.4,1.4.4s.9-.1,1.2-.4c.3-.2.4-.5.4-.9s-.2-.6-.5-.8c-.3-.2-.8-.3-1.5-.5-.6-.2-1.1-.3-1.5-.5-.4-.2-.7-.4-1-.7-.3-.3-.4-.7-.4-1.3s.1-.8.4-1.2c.2-.4.6-.6,1-.9.5-.2,1-.3,1.6-.3.9,0,1.6.2,2.2.7s.9,1.1.9,1.9h-1.4c0-.4-.2-.8-.5-1.1-.3-.3-.7-.4-1.3-.4s-.9.1-1.2.3c-.3.2-.4.5-.4.9s0,.5.3.7c.2.2.4.3.7.4.3,0,.6.2,1.1.4.6.2,1.1.3,1.4.5s.7.4.9.7c.3.3.4.7.4,1.2s-.1.9-.4,1.2c-.2.4-.6.6-1,.9s-1,.3-1.6.3-1.2-.1-1.7-.3Z"/>
        </g>
      </g>
    </g>
  </g>
  <circle class="st9" cx="475.6" cy="186.4" r="51.6" transform="translate(148.4 578.7) rotate(-71.6)"/>
  <path class="st7" d="M518.4,222l-6.1-5.1c7-8.4,10.9-19.2,10.9-30.3,0-26.3-21.4-47.6-47.7-47.6v-7.9c30.6,0,55.6,24.9,55.6,55.6s-4.5,25.5-12.7,35.3Z"/>
  <path class="st2" d="M475.6,251.4c-35.6,0-64.6-29-64.6-64.6s1.2-14.1,3.5-21l7.5,2.5c-2.1,6.1-3.1,12.3-3.1,18.4,0,31.3,25.5,56.7,56.7,56.7v7.9Z"/>
  <g class="st10">
    <g class="st10">
      <g class="st10">
        <g class="st10">
          <path class="st2" d="M449.9,193.5v4.1h-16.3v-3.2l8.3-7.9c.9-.8,1.5-1.6,1.8-2.2.3-.6.5-1.2.5-1.8,0-.9-.3-1.5-.9-2-.6-.5-1.4-.7-2.6-.7s-1.8.2-2.6.5-1.4.9-1.9,1.6l-3.6-2.3c.8-1.3,2-2.2,3.5-3,1.5-.7,3.2-1.1,5.1-1.1s3,.3,4.2.8,2.1,1.3,2.8,2.2c.7,1,1,2.1,1,3.4s-.2,2.3-.7,3.3c-.5,1-1.5,2.2-2.9,3.5l-5,4.7h9.3Z"/>
          <path class="st2" d="M456.4,196.6c-1.4-.9-2.5-2.2-3.3-3.8s-1.2-3.7-1.2-6,.4-4.3,1.2-6c.8-1.7,1.9-3,3.3-3.8s3-1.3,4.8-1.3,3.4.4,4.8,1.3c1.4.9,2.5,2.2,3.3,3.8.8,1.7,1.2,3.7,1.2,6s-.4,4.3-1.2,6c-.8,1.7-1.9,3-3.3,3.8-1.4.9-3,1.3-4.8,1.3s-3.4-.4-4.8-1.3ZM464.2,192c.8-1.1,1.1-2.9,1.1-5.3s-.4-4.1-1.1-5.3c-.8-1.1-1.8-1.7-3.1-1.7s-2.3.6-3.1,1.7c-.8,1.1-1.1,2.9-1.1,5.3s.4,4.1,1.1,5.3,1.8,1.7,3.1,1.7,2.4-.6,3.1-1.7Z"/>
          <path class="st2" d="M477.3,196.6c-1.4-.9-2.5-2.2-3.3-3.8s-1.2-3.7-1.2-6,.4-4.3,1.2-6c.8-1.7,1.9-3,3.3-3.8,1.4-.9,3-1.3,4.8-1.3s3.4.4,4.8,1.3,2.5,2.2,3.3,3.8c.8,1.7,1.2,3.7,1.2,6s-.4,4.3-1.2,6-1.9,3-3.3,3.8-3,1.3-4.8,1.3-3.4-.4-4.8-1.3ZM485.2,192c.8-1.1,1.1-2.9,1.1-5.3s-.4-4.1-1.1-5.3c-.8-1.1-1.8-1.7-3.1-1.7s-2.3.6-3.1,1.7c-.8,1.1-1.1,2.9-1.1,5.3s.4,4.1,1.1,5.3,1.8,1.7,3.1,1.7,2.4-.6,3.1-1.7Z"/>
          <path class="st2" d="M498.3,196.6c-1.4-.9-2.5-2.2-3.3-3.8s-1.2-3.7-1.2-6,.4-4.3,1.2-6c.8-1.7,1.9-3,3.3-3.8,1.4-.9,3-1.3,4.8-1.3s3.4.4,4.8,1.3,2.5,2.2,3.3,3.8c.8,1.7,1.2,3.7,1.2,6s-.4,4.3-1.2,6-1.9,3-3.3,3.8-3,1.3-4.8,1.3-3.4-.4-4.8-1.3ZM506.2,192c.8-1.1,1.1-2.9,1.1-5.3s-.4-4.1-1.1-5.3c-.8-1.1-1.8-1.7-3.1-1.7s-2.3.6-3.1,1.7c-.8,1.1-1.1,2.9-1.1,5.3s.4,4.1,1.1,5.3,1.8,1.7,3.1,1.7,2.4-.6,3.1-1.7Z"/>
        </g>
      </g>
    </g>
  </g>
  <g>
    <path class="st2" d="M577.3,174.5c2.4,2.1,3.7,4.8,3.7,8.5s-1.2,6.4-3.7,8.5c-2.4,2.1-5.8,3.1-10.2,3.1h-8.2v10h-4.7v-33.2h12.9c4.4,0,7.7,1.1,10.2,3.1M573.9,188.5c1.6-1.3,2.4-3.1,2.4-5.6s-.8-4.2-2.4-5.6-3.9-1.9-6.9-1.9h-8.1v14.9h8.1c3,0,5.3-.6,6.9-1.9"/>
    <rect class="st2" x="596.6" y="179.6" width="4.6" height="25.1"/>
    <path class="st2" d="M643.3,174.5c2.4,2.1,3.7,4.8,3.7,8.5s-1.2,6.4-3.7,8.5c-2.4,2.1-5.8,3.1-10.2,3.1h-8.2v10h-4.7v-33.2h12.9c4.4,0,7.7,1.1,10.2,3.1M639.9,188.5c1.6-1.3,2.4-3.1,2.4-5.6s-.8-4.2-2.4-5.6-3.9-1.9-6.9-1.9h-8.1v14.9h8.1c3,0,5.3-.6,6.9-1.9"/>
    <path class="st9" d="M596.6,173.9c-.6-.6-.8-1.2-.8-2.1s.2-1.6.8-2.1c.6-.6,1.3-.8,2.2-.8s1.6.2,2.2.8.8,1.2.8,2.1-.2,1.6-.8,2.2-1.3.8-2.2.8-1.6-.2-2.2-.8"/>
  </g>
  <path class="st7" d="M598.6,272.1h296.5c24.4,0,44.2,19.8,44.2,44.2v.8c0,24.4-19.8,44.2-44.2,44.2h-296.5v-89.2h0Z"/>
  <g class="st10">
    <g class="st10">
      <g class="st10">
        <g class="st10">
          <path class="st2" d="M816.7,302.8c.5-.8,1.1-1.5,1.9-1.9.8-.5,1.7-.7,2.6-.7s2.1.3,3,.8,1.5,1.3,1.9,2.3h-1.6c-.3-.6-.7-1.1-1.3-1.4s-1.2-.5-2-.5-1.4.2-2,.5-1,.8-1.4,1.4-.5,1.3-.5,2.2.2,1.5.5,2.2.8,1.1,1.4,1.4,1.2.5,2,.5,1.4-.2,2-.5,1-.8,1.3-1.4h1.6c-.4,1-1,1.8-1.9,2.3s-1.8.8-3,.8-1.9-.2-2.6-.7c-.8-.5-1.4-1.1-1.9-1.9-.5-.8-.7-1.7-.7-2.7s.2-1.9.7-2.8Z"/>
          <path class="st2" d="M829.6,310.4c-.6-.4-1.1-.8-1.5-1.5-.4-.6-.5-1.4-.5-2.2s.2-1.6.5-2.2c.4-.6.9-1.1,1.5-1.5.6-.3,1.3-.5,2.1-.5s1.5.2,2.1.5c.6.3,1.1.8,1.5,1.5.4.6.5,1.4.5,2.2s-.2,1.6-.6,2.2c-.4.6-.9,1.1-1.5,1.5-.6.3-1.3.5-2.1.5s-1.5-.2-2.1-.5ZM833.1,309.4c.4-.2.8-.6,1-1.1.3-.5.4-1,.4-1.7s-.1-1.2-.4-1.7-.6-.8-1-1c-.4-.2-.9-.3-1.4-.3s-1,.1-1.4.3c-.4.2-.7.6-1,1s-.4,1-.4,1.7.1,1.2.4,1.7c.2.5.6.8,1,1.1.4.2.9.4,1.3.4s1-.1,1.4-.4Z"/>
          <path class="st2" d="M840.1,302.9c.4-.3,1-.5,1.6-.5v1.4h-.4c-1.5,0-2.3.8-2.3,2.5v4.5h-1.4v-8.2h1.4v1.6c.2-.5.6-1,1-1.3Z"/>
          <path class="st2" d="M845.7,302.9c.4-.3,1-.5,1.6-.5v1.4h-.4c-1.5,0-2.3.8-2.3,2.5v4.5h-1.4v-8.2h1.4v1.6c.2-.5.6-1,1-1.3Z"/>
          <path class="st2" d="M856.4,307.2h-6.6c0,.8.3,1.4.8,1.9.5.5,1.1.7,1.9.7s1.1-.1,1.5-.4c.4-.3.7-.6.8-1.1h1.5c-.2.8-.7,1.4-1.3,1.9s-1.5.7-2.5.7-1.5-.2-2.1-.5c-.6-.4-1.1-.8-1.4-1.5-.4-.6-.5-1.4-.5-2.2s.2-1.6.5-2.2c.3-.6.8-1.1,1.4-1.5.6-.3,1.3-.5,2.1-.5s1.5.2,2.1.5c.6.3,1.1.8,1.4,1.4.3.6.5,1.3.5,2s0,.5,0,.8ZM854.7,304.8c-.2-.4-.5-.7-.9-.9-.4-.2-.8-.3-1.3-.3-.7,0-1.3.2-1.8.7-.5.5-.8,1.1-.8,1.9h5.2c0-.5-.1-1-.3-1.4Z"/>
          <path class="st2" d="M859.9,303.7v4.8c0,.4,0,.7.3.8s.5.2.9.2h1v1.2h-1.2c-.8,0-1.3-.2-1.7-.5-.4-.3-.6-.9-.6-1.7v-4.8h-1.1v-1.1h1.1v-2.1h1.4v2.1h2.1v1.1h-2.1Z"/>
          <path class="st2" d="M863.7,304.4c.3-.6.8-1.1,1.4-1.5.6-.3,1.3-.5,2-.5s1.3.2,1.9.5c.5.3.9.7,1.2,1.2v-1.5h1.4v8.2h-1.4v-1.5c-.3.5-.7.9-1.2,1.2-.5.3-1.2.5-1.9.5s-1.4-.2-2-.5c-.6-.4-1.1-.9-1.4-1.5s-.5-1.4-.5-2.2.2-1.6.5-2.2ZM869.8,305.1c-.2-.5-.6-.8-1-1.1s-.9-.4-1.4-.4-1,.1-1.4.4c-.4.2-.8.6-1,1s-.4,1-.4,1.6.1,1.2.4,1.6c.2.5.6.8,1,1.1s.9.4,1.4.4,1-.1,1.4-.4.8-.6,1-1.1c.2-.5.4-1,.4-1.6s-.1-1.2-.4-1.6Z"/>
          <path class="st2" d="M875.2,312.6c0,.7-.2,1.3-.6,1.6-.4.3-.9.5-1.6.5h-.8v-1.2h.6c.4,0,.6,0,.8-.2.2-.1.2-.4.2-.8v-10h1.4v10ZM873.9,301c-.2-.2-.3-.4-.3-.7s0-.5.3-.7c.2-.2.4-.3.7-.3s.5,0,.7.3c.2.2.3.4.3.7s0,.5-.3.7c-.2.2-.4.3-.7.3s-.5,0-.7-.3Z"/>
          <path class="st2" d="M885,307.2h-6.6c0,.8.3,1.4.8,1.9.5.5,1.1.7,1.9.7s1.1-.1,1.5-.4c.4-.3.7-.6.8-1.1h1.5c-.2.8-.7,1.4-1.3,1.9s-1.5.7-2.5.7-1.5-.2-2.1-.5c-.6-.4-1.1-.8-1.4-1.5-.3-.6-.5-1.4-.5-2.2s.2-1.6.5-2.2c.3-.6.8-1.1,1.4-1.5.6-.3,1.3-.5,2.1-.5s1.5.2,2.1.5,1.1.8,1.4,1.4c.3.6.5,1.3.5,2s0,.5,0,.8ZM883.3,304.8c-.2-.4-.5-.7-.9-.9-.4-.2-.8-.3-1.3-.3-.7,0-1.3.2-1.8.7s-.8,1.1-.8,1.9h5.2c0-.5-.1-1-.3-1.4Z"/>
        </g>
      </g>
      <g class="st10">
        <g class="st10">
          <path class="st2" d="M816.6,319.3c-.2-.2-.3-.4-.3-.7s0-.5.3-.7c.2-.2.4-.3.7-.3s.5,0,.6.3c.2.2.3.4.3.7s0,.5-.3.7c-.2.2-.4.3-.6.3s-.5,0-.7-.3ZM817.9,320.9v8.2h-1.4v-8.2h1.4Z"/>
          <path class="st2" d="M826.7,321.6c.6.6.9,1.5.9,2.6v4.8h-1.4v-4.7c0-.8-.2-1.4-.6-1.9-.4-.4-1-.7-1.7-.7s-1.3.2-1.7.7c-.4.5-.6,1.1-.6,2v4.5h-1.4v-8.2h1.4v1.2c.3-.4.6-.7,1.1-1,.5-.2,1-.3,1.5-.3,1,0,1.8.3,2.4.9Z"/>
          <path class="st2" d="M831.1,328.9c-.5-.2-.9-.5-1.2-.9-.3-.4-.5-.8-.5-1.3h1.4c0,.4.2.8.6,1,.3.3.8.4,1.4.4s.9-.1,1.2-.4c.3-.2.4-.5.4-.9s-.2-.6-.5-.8c-.3-.2-.8-.3-1.5-.5-.6-.2-1.1-.3-1.5-.5-.4-.2-.7-.4-1-.7-.3-.3-.4-.7-.4-1.3s.1-.8.4-1.2c.2-.4.6-.6,1-.9.5-.2,1-.3,1.6-.3.9,0,1.6.2,2.2.7.6.5.9,1.1.9,1.9h-1.4c0-.4-.2-.8-.5-1.1-.3-.3-.7-.4-1.3-.4s-.9.1-1.2.3-.4.5-.4.9,0,.5.3.7c.2.2.4.3.7.4.3,0,.6.2,1.1.4.6.2,1.1.3,1.4.5s.7.4.9.7.4.7.4,1.2-.1.9-.4,1.2c-.2.4-.6.6-1,.9s-1,.3-1.6.3-1.2-.1-1.7-.3Z"/>
          <path class="st2" d="M839.3,322v4.8c0,.4,0,.7.3.8s.5.2.9.2h1v1.2h-1.2c-.8,0-1.3-.2-1.7-.5-.4-.3-.6-.9-.6-1.7v-4.8h-1.1v-1.1h1.1v-2.1h1.4v2.1h2.1v1.1h-2.1Z"/>
          <path class="st2" d="M843.2,319.3c-.2-.2-.3-.4-.3-.7s0-.5.3-.7c.2-.2.4-.3.7-.3s.5,0,.6.3c.2.2.3.4.3.7s0,.5-.3.7c-.2.2-.4.3-.6.3s-.5,0-.7-.3ZM844.5,320.9v8.2h-1.4v-8.2h1.4Z"/>
          <path class="st2" d="M848.5,322v4.8c0,.4,0,.7.3.8.2.2.5.2.9.2h1v1.2h-1.2c-.8,0-1.3-.2-1.7-.5-.4-.3-.6-.9-.6-1.7v-4.8h-1.1v-1.1h1.1v-2.1h1.4v2.1h2.1v1.1h-2.1Z"/>
          <path class="st2" d="M859.6,320.9v8.2h-1.4v-1.2c-.3.4-.6.7-1.1,1-.5.2-1,.4-1.5.4s-1.2-.1-1.7-.4c-.5-.3-.9-.7-1.2-1.2s-.4-1.2-.4-1.9v-4.8h1.3v4.6c0,.8.2,1.4.6,1.9.4.4,1,.7,1.7.7s1.3-.2,1.7-.7c.4-.5.6-1.1.6-2v-4.5h1.4Z"/>
          <path class="st2" d="M861.9,322.7c.3-.6.8-1.1,1.4-1.5.6-.3,1.3-.5,2.1-.5s1.8.2,2.5.7c.7.5,1.1,1.2,1.3,2h-1.5c-.1-.5-.4-.9-.8-1.2-.4-.3-.9-.4-1.5-.4s-1.4.3-1.9.8c-.5.5-.7,1.3-.7,2.3s.2,1.8.7,2.3c.5.5,1.1.8,1.9.8s1.1-.1,1.5-.4c.4-.3.7-.7.8-1.2h1.5c-.2.8-.7,1.5-1.3,2s-1.5.8-2.5.8-1.5-.2-2.1-.5c-.6-.4-1.1-.8-1.4-1.5s-.5-1.4-.5-2.2.2-1.6.5-2.2Z"/>
          <path class="st2" d="M871,319.3c-.2-.2-.3-.4-.3-.7s0-.5.3-.7c.2-.2.4-.3.7-.3s.5,0,.6.3c.2.2.3.4.3.7s0,.5-.3.7c-.2.2-.4.3-.6.3s-.5,0-.7-.3ZM872.4,320.9v8.2h-1.4v-8.2h1.4Z"/>
          <path class="st2" d="M876.2,328.7c-.6-.4-1.1-.8-1.5-1.5-.4-.6-.5-1.4-.5-2.2s.2-1.6.5-2.2c.4-.6.9-1.1,1.5-1.5.6-.3,1.3-.5,2.1-.5s1.5.2,2.1.5c.6.3,1.1.8,1.5,1.5.4.6.5,1.4.5,2.2s-.2,1.6-.6,2.2c-.4.6-.9,1.1-1.5,1.5-.6.3-1.4.5-2.1.5s-1.5-.2-2.1-.5ZM879.6,327.7c.4-.2.8-.6,1-1.1.3-.5.4-1,.4-1.7s-.1-1.2-.4-1.7c-.3-.5-.6-.8-1-1-.4-.2-.9-.3-1.4-.3s-1,.1-1.4.3c-.4.2-.7.6-1,1s-.4,1-.4,1.7.1,1.2.4,1.7c.2.5.6.8,1,1.1.4.2.9.4,1.4.4s.9-.1,1.4-.4Z"/>
          <path class="st2" d="M890.7,321.6c.6.6.9,1.5.9,2.6v4.8h-1.4v-4.7c0-.8-.2-1.4-.6-1.9-.4-.4-1-.7-1.7-.7s-1.3.2-1.7.7c-.4.5-.6,1.1-.6,2v4.5h-1.4v-8.2h1.4v1.2c.3-.4.6-.7,1.1-1,.5-.2,1-.3,1.5-.3,1,0,1.8.3,2.4.9Z"/>
          <path class="st2" d="M893.9,322.7c.3-.6.8-1.1,1.4-1.5.6-.3,1.3-.5,2-.5s1.3.2,1.9.5c.5.3.9.7,1.2,1.2v-1.5h1.4v8.2h-1.4v-1.5c-.3.5-.7.9-1.2,1.2-.5.3-1.2.5-1.9.5s-1.4-.2-2-.5c-.6-.4-1.1-.9-1.4-1.5s-.5-1.4-.5-2.2.2-1.6.5-2.2ZM900,323.4c-.2-.5-.6-.8-1-1.1-.4-.2-.9-.4-1.4-.4s-1,.1-1.4.4c-.4.2-.8.6-1,1s-.4,1-.4,1.6.1,1.2.4,1.6c.2.5.6.8,1,1.1s.9.4,1.4.4,1-.1,1.4-.4c.4-.2.8-.6,1-1.1.2-.5.4-1,.4-1.6s-.1-1.2-.4-1.6Z"/>
          <path class="st2" d="M905.4,318v11.1h-1.4v-11.1h1.4Z"/>
        </g>
      </g>
    </g>
  </g>
  <circle class="st9" cx="591.6" cy="311.9" r="49.4" transform="translate(-47.2 509.7) rotate(-45)"/>
  <path class="st7" d="M632.7,345.8l-6.1-5.1c6.7-8,10.4-18.3,10.4-29,0-25.1-20.4-45.4-45.5-45.4v-7.9c29.4,0,53.4,23.9,53.4,53.4s-4.3,24.6-12.2,34Z"/>
  <path class="st2" d="M591.6,374c-34.2,0-62-27.8-62-62.1s1.1-13.7,3.3-20.2l7.5,2.5c-1.9,5.7-2.9,11.6-2.9,17.6,0,29.9,24.3,54.1,54.1,54.1v7.9Z"/>
  <g class="st10">
    <g class="st10">
      <g class="st10">
        <g class="st10">
          <path class="st2" d="M567,318.9v4.1h-16.3v-3.2l8.3-7.9c.9-.8,1.5-1.6,1.8-2.2.3-.6.5-1.2.5-1.8,0-.9-.3-1.5-.9-2-.6-.5-1.4-.7-2.6-.7s-1.8.2-2.6.5c-.8.4-1.4.9-1.9,1.6l-3.6-2.3c.8-1.3,2-2.2,3.5-3,1.5-.7,3.2-1.1,5.1-1.1s3,.3,4.2.8,2.1,1.3,2.8,2.2c.7,1,1,2.1,1,3.4s-.2,2.3-.7,3.3c-.5,1-1.5,2.2-2.9,3.5l-5,4.7h9.3Z"/>
          <path class="st2" d="M573.5,322c-1.4-.9-2.5-2.2-3.3-3.8s-1.2-3.7-1.2-6,.4-4.3,1.2-6c.8-1.7,1.9-3,3.3-3.8,1.4-.9,3-1.3,4.8-1.3s3.4.4,4.8,1.3c1.4.9,2.5,2.2,3.3,3.8.8,1.7,1.2,3.7,1.2,6s-.4,4.3-1.2,6-1.9,3-3.3,3.8c-1.4.9-3,1.3-4.8,1.3s-3.4-.4-4.8-1.3ZM581.3,317.4c.8-1.1,1.1-2.9,1.1-5.3s-.4-4.1-1.1-5.3c-.8-1.1-1.8-1.7-3.1-1.7s-2.3.6-3.1,1.7c-.8,1.1-1.1,2.9-1.1,5.3s.4,4.1,1.1,5.3,1.8,1.7,3.1,1.7,2.4-.6,3.1-1.7Z"/>
          <path class="st2" d="M594.4,322c-1.4-.9-2.5-2.2-3.3-3.8s-1.2-3.7-1.2-6,.4-4.3,1.2-6c.8-1.7,1.9-3,3.3-3.8,1.4-.9,3-1.3,4.8-1.3s3.4.4,4.8,1.3c1.4.9,2.5,2.2,3.3,3.8.8,1.7,1.2,3.7,1.2,6s-.4,4.3-1.2,6c-.8,1.7-1.9,3-3.3,3.8-1.4.9-3,1.3-4.8,1.3s-3.4-.4-4.8-1.3ZM602.3,317.4c.8-1.1,1.1-2.9,1.1-5.3s-.4-4.1-1.1-5.3c-.8-1.1-1.8-1.7-3.1-1.7s-2.3.6-3.1,1.7c-.8,1.1-1.1,2.9-1.1,5.3s.4,4.1,1.1,5.3,1.8,1.7,3.1,1.7,2.4-.6,3.1-1.7Z"/>
          <path class="st2" d="M625.1,311.3c1.5,1.2,2.2,2.8,2.2,4.9s-.3,2.5-1,3.6c-.7,1.1-1.7,1.9-3,2.6-1.3.6-3,1-5,1s-3-.2-4.5-.6c-1.5-.4-2.7-1-3.8-1.7l2-3.8c.8.6,1.8,1.1,2.8,1.4s2.2.5,3.3.5,2.2-.2,3-.7c.7-.5,1.1-1.2,1.1-2.1s-.4-1.6-1.1-2.1c-.8-.5-2.1-.7-3.9-.7h-5.5l1.1-12.2h13.2v4h-9l-.3,4.1h1.8c3,0,5.3.6,6.8,1.8Z"/>
        </g>
      </g>
    </g>
  </g>
  <g>
    <g id="Group_7">
      <g id="Group_6">
        <g id="Grupo_6223-2">
          <g id="Group_5">
            <path id="Path_33" class="st2" d="M750,292.7l-19-1.3,4.8,21.6,20.9-1.7-6.4-18.5h-.3ZM739.4,307.9l-3-12.3,11.6.6,3.7,11.3-5.7.3-6.3.3h-.2v-.2Z"/>
          </g>
        </g>
      </g>
    </g>
    <g id="Group_11">
      <g id="Grupo_6224">
        <g id="Group_10">
          <path id="Path_34" class="st2" d="M732.2,297.1l-9.2-7.1-3.2,2.7,11.3,8.7-8.8,9.8,4.8,3.6,7.1-8.9,3.6-4.6-5.4-4.2h-.2Z"/>
        </g>
      </g>
    </g>
    <g id="Group_16">
      <g id="Grupo_6225">
        <g id="Group_15">
          <path id="Path_35" class="st2" d="M754.8,301.3l3.7-6.6-3.1-2.4-5.7,8.9,13.1,10.2,1.2-3-9.1-7.1h-.1Z"/>
        </g>
      </g>
    </g>
    <g id="Grupo_6226">
      <g id="Group_20">
        <path id="Path_36" class="st2" d="M745.6,307.8l5.3,4.2h0l8.8,6.8-1.6,3.9-10.9-8.3-6.3,11.4-4.7-3.6,6.1-9.7,3.1-4.9h0v.2h.2Z"/>
      </g>
    </g>
    <g id="Group_26">
      <g id="Grupo_6227">
        <g id="Group_25">
          <path id="Path_37" class="st2" d="M748.9,287.4l-3.1-2.4-5,5.6-9.4-7.4-2.4,2,8.5,6.6h0l5,3.9,2.7-3.3h0l3.9-5h-.2Z"/>
        </g>
      </g>
    </g>
    <g id="Grupo_6231">
      <g id="Grupo_6230">
        <g id="Group_32">
          <g id="Group_31">
            <g id="Grupo_6229">
              <g id="Grupo_6228">
                <g id="Group_30">
                  <path id="Path_38" class="st2" d="M687.9,349.8h-6v-14.7l-4.3,10.2h-4.1l-4.3-10.2v14.7h-5.7v-23.3h7l5.1,11.7,5.1-11.7h7v23.3h.2Z"/>
                  <path id="Path_39" class="st2" d="M709.8,349.8h-16.9v-23.3h16.9v4.6h-10.9v4.6h10.1v4.6h-10.1v5.2h10.9v4.6h0v-.2h0Z"/>
                  <path id="Path_40" class="st2" d="M727.9,349.8h-13.7v-4.6h3.9v-14.3h-3.9v-4.6h13.7v4.6h-3.9v14.3h3.9v4.6Z"/>
                </g>
              </g>
            </g>
          </g>
        </g>
      </g>
    </g>
  </g>
  <g>
    <g>
      <path class="st2" d="M146.1,311.2c2,0,3.6.7,4.6,1.9.5.5,1,1.1,1.9,1.1s2.3-1,2.3-2.1-.4-1.2-.8-1.7c-1.7-1.9-4.5-3.3-8.1-3.3-7.4,0-11.3,5.2-11.3,10.8s3.9,10.8,11.3,10.8,6.4-1.4,8.1-3.3c.5-.5.8-1.1.8-1.7,0-1.2-.8-2.1-2.3-2.1s-1.4.6-1.9,1.1c-1.2,1.2-2.7,1.9-4.6,1.9-4.2,0-6.3-3.1-6.3-6.5s2.1-6.7,6.3-6.8h0Z"/>
      <path class="st2" d="M182.7,324h-10.1v-4h5.6c1.2,0,2.1-1,2.1-2.1s-1-2.1-2.1-2.1h-5.6v-3.8h9.7c1.2,0,2.1-1,2.1-2.1s-1-2.1-2.1-2.1h-12.2c-1.4,0-2.5,1.2-2.5,2.5v15.7c0,1.4,1.2,2.5,2.5,2.5h12.6c1.2,0,2.1-1,2.1-2.1s-1-2.1-2.1-2.1v-.3Z"/>
      <path class="st2" d="M213.9,307.3c-1.3,0-2.4,1.1-2.4,2.4v10.8l-10.6-12.2c-.6-.6-1.2-1-1.9-1-1.5,0-2.4,1.2-2.4,2.4v16.5c0,1.3,1.1,2.4,2.4,2.4s2.4-1.1,2.4-2.4v-10.6l10.7,12.1c.5.6,1,.8,1.8.8,1.5,0,2.4-1.2,2.4-2.4v-16.5c0-1.3-1.1-2.4-2.4-2.4h0Z"/>
      <path class="st2" d="M239.1,311.2c2,0,3.6.7,4.6,1.9.4.5,1,1.1,1.9,1.1s2.3-1,2.3-2.1-.4-1.2-.8-1.7c-1.7-1.9-4.5-3.3-8.1-3.3-7.4,0-11.3,5.2-11.3,10.8s3.9,10.8,11.3,10.8,6.4-1.4,8.1-3.3c.5-.5.8-1.1.8-1.7,0-1.2-.8-2.1-2.3-2.1s-1.4.6-1.9,1.1c-1.2,1.2-2.7,1.9-4.6,1.9-4.2,0-6.3-3.1-6.3-6.5s2.1-6.7,6.3-6.8h0Z"/>
      <path class="st2" d="M269.7,307.1c-6.8,0-11.2,4.6-11.2,10.8s4.4,10.8,11.2,10.8,11.2-4.5,11.2-10.8-4.4-10.8-11.2-10.8ZM269.7,324.5c-3.9,0-6.3-2.9-6.3-6.5s2.5-6.5,6.3-6.5,6.3,2.7,6.3,6.5-2.5,6.5-6.3,6.5Z"/>
      <path class="st2" d="M308.2,319.8c2.7-1.1,3.9-3.2,3.9-5.7,0-3.6-2.5-6.4-8.3-6.4h-8.7c-1.4,0-2.5,1.2-2.5,2.5v15.9c0,1.4,1.2,2.5,2.5,2.5s2.5-1.2,2.5-2.5v-5.6h5.7l3.8,6.9c.4.7,1.1,1.2,2.1,1.2s2.3-1.1,2.3-2.3-.1-.8-.4-1.2l-3-5.3h.1ZM304.6,316.4h-7v-4.8h7c1.9,0,2.7,1.2,2.7,2.4s-.8,2.4-2.7,2.4Z"/>
      <path class="st2" d="M111.4,302.8l-18.1-10.5h0l-1.4-.3v9.4l12.9,7.4h.2v.3h0v.3h0v.3h0v15.8c0,.4-.2.8-.6,1l-13,7.5v9.5c.5-.1,1-.3,1.4-.5l18.1-10.6c.9-.5,1.7-1.5,2.2-2.6.3-.6.5-1.3.5-1.9v-21.5c-.2-1.5-1.3-3.1-2.6-3.9l.4.3h0Z"/>
      <path class="st2" d="M75.9,325.7v-16h0v-.3h0s0-.2.2-.2h0s.2-.1.2-.2l13.1-7.6v-9.5c-.5.1-1,.3-1.4.5h0l-18.2,10.5c-1.2.7-2.3,2.4-2.6,3.9v21.5c0,.6.2,1.3.5,1.9.5,1.1,1.3,2.1,2.2,2.6l18.1,10.5c.4.2,1,.4,1.5.5v-9.4l-13.1-7.5c-.4-.2-.6-.6-.6-1v-.2h.1Z"/>
      <polygon class="st2" points="78.3 325 89.6 331.5 89.6 318.4 78.3 312 78.3 325"/>
      <polygon class="st2" points="103.2 325 103.2 311.9 92 318.4 92 331.5 103.2 325"/>
      <polygon class="st2" points="90.8 303.4 79.5 309.9 90.8 316.4 102 309.9 90.8 303.4"/>
    </g>
    <path class="st9" d="M185.6,171.2v-22.1c-86.6,3.8-156.1,73.3-159.9,159.9h22.1c3.8-74.4,63.4-134.1,137.8-137.8Z"/>
    <path class="st9" d="M338.3,309.1h22.1c-3.8-85.9-72.2-155-157.8-159.8v22.1c73.4,4.8,132,64,135.7,137.7Z"/>
    <path class="st9" d="M47.9,326.1h-22.1c4.8,85.6,73.9,154,159.8,157.8v-22.1c-73.7-3.7-132.9-62.3-137.7-135.7h0Z"/>
    <path class="st9" d="M202.6,461.7v22.1c84.9-4.8,152.9-72.8,157.7-157.7h-22.1c-4.7,72.7-62.8,130.8-135.5,135.5h0Z"/>
    <path class="st2" d="M173.6,505.8c-46.6-4.7-89.8-26.5-121.5-61.4C20.3,409.4,2.7,363.9,2.7,316.5s17.6-92.9,49.4-127.9c31.7-34.8,74.8-56.6,121.4-61.4l.2,1.6c-46.2,4.7-89,26.3-120.4,60.8-31.6,34.8-49,79.8-49,126.9s17.4,92.1,49,126.9c31.4,34.5,74.2,56.1,120.4,60.8l-.2,1.6Z"/>
    <g>
      <path class="st2" d="M194.7,506.9v-1.6c50-.4,97-20.3,132.3-55.8,35.3-35.6,54.7-82.8,54.7-132.9s-19.4-97.3-54.7-132.9c-35.3-35.6-82.2-55.4-132.3-55.8v-1.6c50.5.4,97.9,20.4,133.4,56.3,35.6,35.9,55.2,83.5,55.2,134s-19.6,98.1-55.2,134c-35.6,35.9-82.9,55.8-133.4,56.3Z"/>
      <path class="st2" d="M194.8,128.9c-1,0-1.8-.8-1.7-1.8,0-1,.8-1.8,1.8-1.7s1.8.8,1.7,1.8c0,1-.8,1.8-1.8,1.7Z"/>
      <path class="st2" d="M194.8,504.2c-1,0-1.8.8-1.7,1.8,0,1,.8,1.8,1.8,1.7s1.8-.8,1.7-1.8c0-1-.8-1.8-1.8-1.7Z"/>
    </g>
    <path class="st2" d="M193,475.8c-87.9,0-159.4-71.5-159.4-159.3s71.5-159.4,159.4-159.4,159.4,71.5,159.4,159.4-71.5,159.3-159.4,159.3ZM193,161.9c-85.3,0-154.6,69.4-154.6,154.6s69.4,154.7,154.6,154.7,154.6-69.4,154.6-154.7-69.4-154.6-154.6-154.6Z"/>
  </g>
  <g>
    <circle class="st6" cx="382.8" cy="316.5" r="7.9"/>
    <path class="st2" d="M382.8,324.5c-4.4,0-8-3.6-8-8s3.6-8,8-8,8,3.6,8,8-3.6,8-8,8ZM382.8,308.7c-4.3,0-7.8,3.5-7.8,7.8s3.5,7.8,7.8,7.8,7.8-3.5,7.8-7.8-3.5-7.8-7.8-7.8Z"/>
  </g>
  <path class="st2" d="M517.1,316.5c0-.9.7-1.6,1.6-1.6h0c.9,0,1.6.7,1.6,1.6h0c0,.9-.7,1.6-1.6,1.6h0c-.9,0-1.6-.7-1.6-1.6ZM506,316.5c0-.9.7-1.6,1.6-1.6h0c.9,0,1.6.7,1.6,1.6h0c0,.9-.7,1.6-1.6,1.6h0c-.9,0-1.6-.7-1.6-1.6ZM494.9,316.5c0-.9.7-1.6,1.6-1.6h0c.9,0,1.6.7,1.6,1.6h0c0,.9-.7,1.6-1.6,1.6h0c-.9,0-1.6-.7-1.6-1.6ZM483.8,316.5c0-.9.7-1.6,1.6-1.6h0c.9,0,1.6.7,1.6,1.6h0c0,.9-.7,1.6-1.6,1.6h0c-.9,0-1.6-.7-1.6-1.6ZM472.7,316.5c0-.9.7-1.6,1.6-1.6h0c.9,0,1.6.7,1.6,1.6h0c0,.9-.7,1.6-1.6,1.6h0c-.9,0-1.6-.7-1.6-1.6ZM461.6,316.5c0-.9.7-1.6,1.6-1.6h0c.9,0,1.6.7,1.6,1.6h0c0,.9-.7,1.6-1.6,1.6h0c-.9,0-1.6-.7-1.6-1.6ZM450.5,316.5c0-.9.7-1.6,1.6-1.6h0c.9,0,1.6.7,1.6,1.6h0c0,.9-.7,1.6-1.6,1.6h0c-.9,0-1.6-.7-1.6-1.6ZM439.4,316.5c0-.9.7-1.6,1.6-1.6h0c.9,0,1.6.7,1.6,1.6h0c0,.9-.7,1.6-1.6,1.6h0c-.9,0-1.6-.7-1.6-1.6ZM428.3,316.5c0-.9.7-1.6,1.6-1.6h0c.9,0,1.6.7,1.6,1.6h0c0,.9-.7,1.6-1.6,1.6h0c-.9,0-1.6-.7-1.6-1.6ZM417.2,316.5c0-.9.7-1.6,1.6-1.6h0c.9,0,1.6.7,1.6,1.6h0c0,.9-.7,1.6-1.6,1.6h0c-.9,0-1.6-.7-1.6-1.6ZM406.1,316.5c0-.9.7-1.6,1.6-1.6h0c.9,0,1.6.7,1.6,1.6h0c0,.9-.7,1.6-1.6,1.6h0c-.9,0-1.6-.7-1.6-1.6ZM395,316.5c0-.9.7-1.6,1.6-1.6h0c.9,0,1.6.7,1.6,1.6h0c0,.9-.7,1.6-1.6,1.6h0c-.9,0-1.6-.7-1.6-1.6Z"/>
  <path class="st7" d="M471,395.6h296.5c24.4,0,44.2,19.8,44.2,44.2h0c0,24.4-19.8,44.2-44.2,44.2h-296.5v-88.4h0Z"/>
  <circle class="st9" cx="473.1" cy="438.9" r="49.1"/>
  <path class="st7" d="M513.6,473.3l-6.1-5c6.6-8.1,10.3-18.3,10.3-28.8,0-24.9-20.3-45.1-45.1-45.1v-7.9c29.3,0,53,23.8,53,53s-4.3,24.3-12.1,33.8Z"/>
  <path class="st2" d="M472.7,501.4c-34,0-61.8-27.7-61.8-61.8s1.1-13.6,3.3-20.1l7.5,2.5c-1.9,5.7-2.9,11.6-2.9,17.5,0,29.7,24.2,53.9,53.9,53.9v7.9Z"/>
  <g class="st10">
    <g class="st10">
      <g class="st10">
        <g class="st10">
          <path class="st2" d="M452.7,446.5v4.1h-16.3v-3.2l8.3-7.9c.9-.8,1.5-1.6,1.8-2.2.3-.6.5-1.2.5-1.8,0-.9-.3-1.5-.9-2-.6-.5-1.4-.7-2.6-.7s-1.8.2-2.6.5-1.4.9-1.9,1.6l-3.6-2.3c.8-1.3,2-2.2,3.5-3,1.5-.7,3.2-1.1,5.1-1.1s3,.3,4.2.8,2.1,1.3,2.8,2.2c.7,1,1,2.1,1,3.4s-.2,2.3-.7,3.3c-.5,1-1.5,2.2-2.9,3.5l-5,4.7h9.3Z"/>
          <path class="st2" d="M459.2,449.6c-1.4-.9-2.5-2.2-3.3-3.8s-1.2-3.7-1.2-6,.4-4.3,1.2-6c.8-1.7,1.9-3,3.3-3.8s3-1.3,4.8-1.3,3.4.4,4.8,1.3c1.4.9,2.5,2.2,3.3,3.8.8,1.7,1.2,3.7,1.2,6s-.4,4.3-1.2,6-1.9,3-3.3,3.8c-1.4.9-3,1.3-4.8,1.3s-3.4-.4-4.8-1.3ZM467,445c.8-1.1,1.1-2.9,1.1-5.3s-.4-4.1-1.1-5.3c-.8-1.1-1.8-1.7-3.1-1.7s-2.3.6-3.1,1.7c-.8,1.1-1.1,2.9-1.1,5.3s.4,4.1,1.1,5.3,1.8,1.7,3.1,1.7,2.4-.6,3.1-1.7Z"/>
          <path class="st2" d="M483.8,429v21.6h-5v-17.6h-4.3v-4h9.3Z"/>
          <path class="st2" d="M501.8,438.9c1.5,1.2,2.2,2.8,2.2,4.9s-.3,2.5-1,3.6c-.7,1.1-1.7,1.9-3,2.6-1.3.6-3,1-5,1s-3-.2-4.5-.6c-1.5-.4-2.7-1-3.8-1.7l2-3.8c.8.6,1.8,1.1,2.8,1.4,1.1.3,2.2.5,3.3.5s2.2-.2,3-.7c.7-.5,1.1-1.2,1.1-2.1s-.4-1.6-1.1-2.1c-.8-.5-2.1-.7-3.9-.7h-5.5l1.1-12.2h13.2v4h-9l-.3,4.1h1.8c3,0,5.3.6,6.8,1.8Z"/>
        </g>
      </g>
    </g>
  </g>
  <g>
    <path class="st2" d="M556.4,435.1c0-5.1-1.4-9.4-3.7-11.5-2.6-2.4-4.8-3.6-7.9-3.6s-4.4.4-6.8,2.8c-2.9,2.9-3.7,7.1-3.7,10.6,0,5.7,2.4,9.8,4.6,11.9,3.3,3.1,5.4,3.4,6.6,3.4,8.6,0,10.8-9.8,10.8-13.4M556.6,423c2.9,3.1,4.1,6.9,4.1,10.8s-1.8,8.7-4.4,11.2c-2.5,2.5-4.8,3.7-7.4,4.6v.2c4.4,1.6,7.9,2.4,10.8,3.1,10.8,2.4,17.1,2,18,2s2.1-.6,2.6-.9c0,0,.3-.2.4,0l.3.5v.5c-.6.6-3.3,3.4-5.7,3.4s-8.6,0-16.1-2c-4.3-1-10.4-3.3-16.3-6.1-.8-.3-4.8-.9-8.6-5.1-2.3-2.3-4.1-6.1-4.1-11.3s1.8-8.3,4.9-11.1c3.3-3,7.9-4.1,10.2-4.1,4.9,0,8.8,1.8,11.5,4.6"/>
    <path class="st2" d="M581.4,440.6v5c0,1.4.6,1.5,1.1,1.5h1.4c.4,0,.6,0,.6.2v1l-4.5,1.5c-.3,0-.6.2-.8.2s-.4,0-.4-.6l-.4-2.4h0c-1.1,1.7-3.7,3-5.8,3s-2.6,0-3.9-2c-1.8-2.2-1.7-3.7-1.7-8.4v-4.9c0-1.2-.6-1.5-1.6-1.6-.7,0-.9,0-.9-.3v-.7c0-.3,0-.4.6-.4h4.9c.3,0,.6.2.6.6s-.2,2.4-.2,4.9v3.1c0,1.7-.5,4.5.9,6.4,1,1.6,2.2,1.7,3.4,1.7s2.9-1.1,3.7-2.1c.2-.2.5-.7.5-1.1v-10.2c0-1.2-.7-1.4-1.8-1.5-.7,0-.9,0-.9-.3v-.7c0-.2.2-.4.6-.4h5.1c.3,0,.5.2.4.5,0,.4-.3,1.5-.3,5.7v3.2-.2h-.3l-.4-.4v-.3Z"/>
    <path class="st2" d="M596.7,439.8c-1.6,1.1-5.7,2-5.7,5.6s.9,2.3,2.2,2.3,3.4-1.5,3.4-2.6v-5.2h0ZM599.8,444.2c0,2.4.6,3.2,1.3,3.2s1.3-.4,1.5-.6.3-.3.5-.2l.5.4s.2.4,0,.7c-.4.6-1.1,2-3.3,2s-2.6-1.1-3-2.9h0c-.9,1-2.3,2-4.2,2.6-.7.3-1.6.3-2.5.3s-2.6-.8-2.6-3.5.9-3.7,4.3-5.1c1.9-.8,4.1-1.9,4.8-2.4v-2.8c0-.7,0-1.8-.6-2.4s-1.4-.9-2.6-.9-2.2.4-2.8.9-.2,1.2-.2,2c0,1.5-.6,2.4-2.2,2.4s-1-.4-1-1.4,1.2-3,2.9-4c1.8-1,3.3-1.5,5.1-1.5s2.9.6,3.4,1.1c.9.9.9,1.9.9,3.1v9-.2h-.2v.2h0Z"/>
    <path class="st2" d="M622.5,446.9c0,.7.4.9.9.9h1.4c.4,0,.6,0,.6.4v.7c0,.3,0,.6-.4.6h-7.9q-.4,0-.4-.6v-.7c0-.3,0-.4.6-.4h1.2c.6,0,.7-.2.8-.9v-9.2c0-1.7,0-2.9-1.2-3.9-1-.7-2-.7-3.1-.7s-2.2.3-3.4,1.7c-.8.9-.9,2-.9,2.9v8.8c0,1.1,0,1.4,1,1.4h1c.4,0,.5,0,.5.5v.7c0,.3,0,.4-.3.4h-7.5q-.3,0-.3-.4v-.7c0-.3,0-.4.5-.4h1.2c.6,0,.8,0,.8-.8v-10c0-1.3-.7-2-1.8-2.5l-.4-.2c-.3,0-.4-.3-.4-.4v-.2c0-.2.2-.4.4-.5l3.7-2c.4-.2.6-.3.7-.3s.3.2.4.6l.3,2.6h0c1.2-1.6,3.7-3.1,5.8-3.1s2.6.3,3.6.9c1.3.8,2.3,3,2.3,4v11h.3v-.2h0Z"/>
    <path class="st2" d="M632.5,443.9c0,3.2,1.5,3.7,2.2,3.7s2.2-.2,2.9-.6h.6l.2.4v.6c-.5.5-2.1,1.7-4.8,1.7s-4.1-2-4.1-3.6v-12.4h-2.6c-.4,0-.6-.2-.6-.6s.3-.6.7-.7c1-.6,4.3-3.9,4.8-5.4,0-.4.4-.5.6-.5s.5.3.5.6l-.2,4.2h6c.3,0,.4.2.3.4l-.5,1.5c0,.2,0,.4-.4.4h-5.5v10.3h0v.3-.3Z"/>
    <path class="st2" d="M644.2,436.9c0-1.5-.3-2.2-2.4-2.6-.3,0-.4,0-.4-.3v-.4s0-.2.3-.3c1.4-.6,3-1.2,4.6-2s.6-.3.7-.3.3.2.2.6v15.3c0,.7.2,1.1.7,1.1h2c.4,0,.5,0,.5.4v.7c0,.3,0,.5-.4.5h-8.7c-.5,0-.4,0-.4-.4v-.8c0-.3,0-.4.5-.4h2c.6,0,.6-.2.7-.8v-10.1h0v-.2h.1Z"/>
    <path class="st2" d="M658.1,443.9c0,3.2,1.5,3.7,2.2,3.7s2.2-.2,2.9-.6h.6l.2.4v.6c-.5.5-2.1,1.7-4.8,1.7s-4.1-2-4.1-3.6v-12.4h-2.6c-.4,0-.6-.2-.6-.6s.3-.6.7-.7c1-.6,4.3-3.9,4.8-5.4,0-.4.4-.5.6-.5s.5.3.5.6l-.2,4.2h6c.3,0,.4.2.3.4l-.5,1.5c0,.2,0,.4-.4.4h-5.5v10.3h0v.3-.3Z"/>
    <path class="st11" d="M643.6,423.4c0-1,.9-2.2,2.6-2.2s2.2,1.1,2.2,2-.7,2.3-2.4,2.3-2.3-.8-2.3-2.2"/>
  </g>
  <g class="st10">
    <g class="st10">
      <g class="st10">
        <g class="st10">
          <path class="st2" d="M684.1,423.7l3.3,9,3.3-9h1.5l-3.9,10.5h-1.6l-3.9-10.5h1.5Z"/>
          <path class="st2" d="M693.6,427.8c.3-.6.8-1.1,1.4-1.5.6-.3,1.3-.5,2-.5s1.3.2,1.9.5c.5.3.9.7,1.2,1.2v-1.5h1.4v8.2h-1.4v-1.5c-.3.5-.7.9-1.2,1.2-.5.3-1.2.5-1.9.5s-1.4-.2-2-.5c-.6-.4-1.1-.9-1.4-1.5s-.5-1.4-.5-2.2.2-1.6.5-2.2ZM699.7,428.5c-.2-.5-.6-.8-1-1.1-.4-.2-.9-.4-1.4-.4s-1,.1-1.4.4c-.4.2-.8.6-1,1s-.4,1-.4,1.6.1,1.2.4,1.6c.2.5.6.8,1,1.1s.9.4,1.4.4,1-.1,1.4-.4c.4-.2.8-.6,1-1.1.2-.5.4-1,.4-1.6s-.1-1.2-.4-1.6Z"/>
          <path class="st2" d="M705.1,423.1v11.1h-1.4v-11.1h1.4Z"/>
          <path class="st2" d="M714.7,426v8.2h-1.4v-1.2c-.3.4-.6.7-1.1,1-.5.2-1,.4-1.5.4s-1.2-.1-1.7-.4-.9-.7-1.2-1.2-.4-1.2-.4-1.9v-4.8h1.4v4.6c0,.8.2,1.4.6,1.9.4.4,1,.7,1.7.7s1.3-.2,1.7-.7.6-1.1.6-2v-4.5h1.4Z"/>
          <path class="st2" d="M717,427.8c.3-.6.8-1.1,1.4-1.5.6-.3,1.3-.5,2-.5s1.3.2,1.9.5c.5.3.9.7,1.2,1.2v-1.5h1.4v8.2h-1.4v-1.5c-.3.5-.7.9-1.2,1.2-.5.3-1.2.5-1.9.5s-1.4-.2-2-.5c-.6-.4-1.1-.9-1.4-1.5s-.5-1.4-.5-2.2.2-1.6.5-2.2ZM723.1,428.5c-.2-.5-.6-.8-1-1.1-.4-.2-.9-.4-1.4-.4s-1,.1-1.4.4c-.4.2-.8.6-1,1s-.4,1-.4,1.6.1,1.2.4,1.6c.2.5.6.8,1,1.1s.9.4,1.4.4,1-.1,1.4-.4c.4-.2.8-.6,1-1.1.2-.5.4-1,.4-1.6s-.1-1.2-.4-1.6Z"/>
          <path class="st2" d="M727.2,427.8c.3-.6.8-1.1,1.4-1.5.6-.3,1.3-.5,2-.5s1.2.1,1.8.4,1,.7,1.3,1.2v-4.3h1.4v11.1h-1.4v-1.5c-.3.5-.7.9-1.2,1.2-.5.3-1.1.5-1.9.5s-1.4-.2-2-.5c-.6-.4-1.1-.9-1.4-1.5s-.5-1.4-.5-2.2.2-1.6.5-2.2ZM733.2,428.5c-.2-.5-.6-.8-1-1.1-.4-.2-.9-.4-1.4-.4s-1,.1-1.4.4c-.4.2-.8.6-1,1s-.4,1-.4,1.6.1,1.2.4,1.6c.2.5.6.8,1,1.1s.9.4,1.4.4,1-.1,1.4-.4c.4-.2.8-.6,1-1.1.2-.5.4-1,.4-1.6s-.1-1.2-.4-1.6Z"/>
          <path class="st2" d="M738.8,433.8c-.6-.4-1.1-.8-1.5-1.5-.4-.6-.5-1.4-.5-2.2s.2-1.6.5-2.2c.4-.6.9-1.1,1.5-1.5.6-.3,1.3-.5,2.1-.5s1.5.2,2.1.5c.6.3,1.1.8,1.5,1.5.4.6.5,1.4.5,2.2s-.2,1.6-.6,2.2c-.4.6-.9,1.1-1.5,1.5-.6.3-1.3.5-2.1.5s-1.5-.2-2.1-.5ZM742.3,432.8c.4-.2.8-.6,1-1.1.3-.5.4-1,.4-1.7s-.1-1.2-.4-1.7-.6-.8-1-1c-.4-.2-.9-.3-1.4-.3s-1,.1-1.4.3c-.4.2-.7.6-1,1s-.4,1-.4,1.7.1,1.2.4,1.7c.2.5.6.8,1,1.1.4.2.9.4,1.3.4s1-.1,1.4-.4Z"/>
          <path class="st2" d="M749.3,426.3c.4-.3,1-.5,1.6-.5v1.4h-.4c-1.5,0-2.3.8-2.3,2.5v4.5h-1.4v-8.2h1.4v1.6c.2-.5.6-1,1-1.3Z"/>
        </g>
      </g>
      <g class="st10">
        <g class="st10">
          <path class="st2" d="M684.8,442v10.5h-1.4v-10.5h1.4Z"/>
          <path class="st2" d="M693.6,445c.6.6.9,1.5.9,2.6v4.8h-1.3v-4.7c0-.8-.2-1.4-.6-1.9-.4-.4-1-.7-1.7-.7s-1.3.2-1.7.7-.6,1.1-.6,2v4.5h-1.4v-8.2h1.4v1.2c.3-.4.6-.7,1.1-1,.5-.2,1-.3,1.5-.3,1,0,1.8.3,2.4.9Z"/>
          <path class="st2" d="M696.7,446.1c.3-.6.8-1.1,1.4-1.5.6-.3,1.3-.5,2-.5s1.2.1,1.8.4c.5.3,1,.7,1.3,1.2v-4.3h1.4v11.1h-1.4v-1.5c-.3.5-.7.9-1.2,1.2-.5.3-1.2.5-1.9.5s-1.4-.2-2-.5c-.6-.4-1.1-.9-1.4-1.5s-.5-1.4-.5-2.2.2-1.6.5-2.2ZM702.8,446.8c-.2-.5-.6-.8-1-1.1s-.9-.4-1.4-.4-1,.1-1.4.4c-.4.2-.8.6-1,1s-.4,1-.4,1.6.1,1.2.4,1.6c.2.5.6.8,1,1.1s.9.4,1.4.4,1-.1,1.4-.4.8-.6,1-1.1c.2-.5.4-1,.4-1.6s-.1-1.2-.4-1.6Z"/>
          <path class="st2" d="M714.3,448.9h-6.6c0,.8.3,1.4.8,1.9.5.5,1.1.7,1.9.7s1.1-.1,1.5-.4c.4-.3.7-.6.8-1.1h1.5c-.2.8-.7,1.4-1.3,1.9s-1.5.7-2.5.7-1.5-.2-2.1-.5c-.6-.4-1.1-.8-1.4-1.5-.3-.6-.5-1.4-.5-2.2s.2-1.6.5-2.2c.3-.6.8-1.1,1.4-1.5.6-.3,1.3-.5,2.1-.5s1.5.2,2.1.5,1.1.8,1.4,1.4c.3.6.5,1.3.5,2s0,.5,0,.8ZM712.6,446.5c-.2-.4-.5-.7-.9-.9-.4-.2-.8-.3-1.3-.3-.7,0-1.3.2-1.8.7s-.8,1.1-.8,1.9h5.2c0-.5-.1-1-.3-1.4Z"/>
          <path class="st2" d="M718.8,444.6c.5-.3,1.2-.5,1.9-.5s1.4.2,2,.5c.6.4,1.1.8,1.4,1.5s.5,1.4.5,2.2-.2,1.6-.5,2.2-.8,1.2-1.4,1.5c-.6.4-1.3.5-2,.5s-1.3-.2-1.9-.5c-.5-.3-.9-.7-1.2-1.2v5.4h-1.4v-12.1h1.4v1.5c.3-.5.7-.9,1.2-1.2ZM722.8,446.7c-.2-.5-.6-.8-1-1-.4-.2-.9-.4-1.4-.4s-1,.1-1.4.4-.8.6-1,1.1c-.3.5-.4,1-.4,1.6s.1,1.2.4,1.6c.3.5.6.8,1,1.1s.9.4,1.4.4,1-.1,1.4-.4c.4-.2.8-.6,1-1.1.2-.5.4-1,.4-1.6s-.1-1.2-.4-1.6Z"/>
          <path class="st2" d="M733.8,448.9h-6.6c0,.8.3,1.4.8,1.9.5.5,1.1.7,1.9.7s1.1-.1,1.5-.4c.4-.3.7-.6.8-1.1h1.5c-.2.8-.7,1.4-1.3,1.9s-1.5.7-2.5.7-1.5-.2-2.1-.5c-.6-.4-1.1-.8-1.4-1.5-.4-.6-.5-1.4-.5-2.2s.2-1.6.5-2.2c.3-.6.8-1.1,1.4-1.5.6-.3,1.3-.5,2.1-.5s1.5.2,2.1.5c.6.3,1.1.8,1.4,1.4.3.6.5,1.3.5,2s0,.5,0,.8ZM732.1,446.5c-.2-.4-.5-.7-.9-.9-.4-.2-.8-.3-1.3-.3-.7,0-1.3.2-1.8.7-.5.5-.8,1.1-.8,1.9h5.2c0-.5-.1-1-.3-1.4Z"/>
          <path class="st2" d="M742.1,445c.6.6.9,1.5.9,2.6v4.8h-1.3v-4.7c0-.8-.2-1.4-.6-1.9-.4-.4-1-.7-1.7-.7s-1.3.2-1.7.7-.6,1.1-.6,2v4.5h-1.4v-8.2h1.4v1.2c.3-.4.6-.7,1.1-1,.5-.2,1-.3,1.5-.3,1,0,1.8.3,2.4.9Z"/>
          <path class="st2" d="M745.2,446.1c.3-.6.8-1.1,1.4-1.5.6-.3,1.3-.5,2-.5s1.2.1,1.8.4c.5.3,1,.7,1.3,1.2v-4.3h1.4v11.1h-1.4v-1.5c-.3.5-.7.9-1.2,1.2-.5.3-1.2.5-1.9.5s-1.4-.2-2-.5c-.6-.4-1.1-.9-1.4-1.5s-.5-1.4-.5-2.2.2-1.6.5-2.2ZM751.3,446.8c-.2-.5-.6-.8-1-1.1s-.9-.4-1.4-.4-1,.1-1.4.4c-.4.2-.8.6-1,1s-.4,1-.4,1.6.1,1.2.4,1.6c.2.5.6.8,1,1.1s.9.4,1.4.4,1-.1,1.4-.4.8-.6,1-1.1c.2-.5.4-1,.4-1.6s-.1-1.2-.4-1.6Z"/>
          <path class="st2" d="M755.4,442.7c-.2-.2-.3-.4-.3-.7s0-.5.3-.7c.2-.2.4-.3.7-.3s.5,0,.6.3c.2.2.3.4.3.7s0,.5-.3.7c-.2.2-.4.3-.6.3s-.5,0-.7-.3ZM756.7,444.3v8.2h-1.4v-8.2h1.4Z"/>
          <path class="st2" d="M766.5,448.9h-6.6c0,.8.3,1.4.8,1.9.5.5,1.1.7,1.9.7s1.1-.1,1.5-.4c.4-.3.7-.6.8-1.1h1.5c-.2.8-.7,1.4-1.3,1.9s-1.5.7-2.5.7-1.5-.2-2.1-.5c-.6-.4-1.1-.8-1.4-1.5-.4-.6-.5-1.4-.5-2.2s.2-1.6.5-2.2c.3-.6.8-1.1,1.4-1.5.6-.3,1.3-.5,2.1-.5s1.5.2,2.1.5c.6.3,1.1.8,1.4,1.4.3.6.5,1.3.5,2s0,.5,0,.8ZM764.8,446.5c-.2-.4-.5-.7-.9-.9-.4-.2-.8-.3-1.3-.3-.7,0-1.3.2-1.8.7-.5.5-.8,1.1-.8,1.9h5.2c0-.5-.1-1-.3-1.4Z"/>
          <path class="st2" d="M774.8,445c.6.6.9,1.5.9,2.6v4.8h-1.3v-4.7c0-.8-.2-1.4-.6-1.9-.4-.4-1-.7-1.7-.7s-1.3.2-1.7.7-.6,1.1-.6,2v4.5h-1.4v-8.2h1.4v1.2c.3-.4.6-.7,1.1-1,.5-.2,1-.3,1.5-.3,1,0,1.8.3,2.4.9Z"/>
          <path class="st2" d="M779.6,445.4v4.8c0,.4,0,.7.3.8s.5.2.9.2h1v1.2h-1.2c-.8,0-1.3-.2-1.7-.5-.4-.3-.6-.9-.6-1.7v-4.8h-1.1v-1.1h1.1v-2.1h1.4v2.1h2.1v1.1h-2.1Z"/>
          <path class="st2" d="M790.9,448.9h-6.6c0,.8.3,1.4.8,1.9.5.5,1.1.7,1.9.7s1.1-.1,1.5-.4c.4-.3.7-.6.8-1.1h1.5c-.2.8-.7,1.4-1.3,1.9s-1.5.7-2.5.7-1.5-.2-2.1-.5c-.6-.4-1.1-.8-1.4-1.5-.3-.6-.5-1.4-.5-2.2s.2-1.6.5-2.2c.3-.6.8-1.1,1.4-1.5.6-.3,1.3-.5,2.1-.5s1.5.2,2.1.5,1.1.8,1.4,1.4c.3.6.5,1.3.5,2s0,.5,0,.8ZM789.2,446.5c-.2-.4-.5-.7-.9-.9-.4-.2-.8-.3-1.3-.3-.7,0-1.3.2-1.8.7s-.8,1.1-.8,1.9h5.2c0-.5-.1-1-.3-1.4Z"/>
        </g>
      </g>
    </g>
  </g>
</svg>