<?xml version="1.0" encoding="UTF-8"?>
<svg id="Capa_1" data-name="Capa 1" xmlns="http://www.w3.org/2000/svg" version="1.1" viewBox="0 0 100.86 25">
  <defs>
    <style>
      .cls-1 {
        fill: none;
      }

      .cls-1, .cls-2, .cls-3 {
        stroke-width: 0px;
      }

      .cls-2 {
        fill-rule: evenodd;
      }

      .cls-2, .cls-3 {
        fill: #fff;
      }
    </style>
  </defs>
  <g id="logo-enlace">
    <g id="enlace-horizontal-curvas">
      <g>
        <path class="cls-2" d="M0,4.94h10.92v2.87H3.68v2.67h6.77v2.8H3.68v3.52h7.9v2.91H0V4.94Z"/>
        <path class="cls-2" d="M16.82,9.78c.29-.36.66-.65,1.08-.86.63-.26,1.31-.39,1.99-.4.67-.02,1.34.14,1.94.45,1.15.61,1.45,1.59,1.45,3.28v7.48h-3.2v-6.16c.05-.55,0-1.11-.14-1.64-.26-.56-.84-.89-1.45-.84-1.7,0-1.7,1.37-1.7,2.72v5.91h-3.22v-10.91h3.25v.97Z"/>
        <path class="cls-2" d="M29.11,4.94v14.78h-3.23V4.94h3.23Z"/>
        <path class="cls-2" d="M31.67,11.89c-.01-.94.41-1.83,1.15-2.42,1-.8,2.31-.97,3.58-.97,1.34,0,4.58.32,4.58,3.14v6.37c0,1.18.06,1.34.32,1.72h-3.17v-1c-.92.82-2.11,1.29-3.34,1.31-2.52,0-3.58-1.8-3.58-3.33,0-1.77,1.4-2.77,2.31-3.14.88-.38,2.94-.75,4.32-1v-.59c-.05-.51-.08-1.34-1.24-1.34-1.42,0-1.61.88-1.69,1.27l-3.23-.02ZM35.75,15.18c-.54.21-1.39.53-1.39,1.37.03.64.57,1.14,1.21,1.11.4-.01.78-.13,1.11-.35,1.07-.67,1.11-1.67,1.13-2.8l-2.07.67Z"/>
        <path class="cls-2" d="M53.23,17.15c-.43.76-1.02,1.42-1.72,1.94-.92.64-2.01.99-3.14.99-2.09,0-5.43-1.26-5.43-5.72,0-3.19,1.85-5.86,5.49-5.86,1.92-.05,3.71.95,4.67,2.61l-2.39,1.37c-.19-.46-.51-.86-.92-1.15-.36-.24-.78-.38-1.21-.38-1.74,0-2.33,1.99-2.33,3.31,0,1.45.72,3.26,2.44,3.26.99-.01,1.85-.67,2.12-1.62l2.42,1.24Z"/>
        <path class="cls-2" d="M65.06,16.94c-.37.6-.82,1.15-1.32,1.64-1.13,1.02-2.6,1.57-4.12,1.54-3.25,0-5.53-2.07-5.53-5.65,0-2.64,1.31-6.04,5.61-6.04,1.47-.05,2.9.53,3.93,1.58,1.42,1.53,1.51,3.66,1.54,4.9h-7.82c-.02,1.35.75,2.72,2.48,2.72s2.37-1.15,2.77-1.93l2.45,1.23ZM61.86,12.9c-.03-.57-.24-1.11-.61-1.54-.43-.4-.99-.61-1.58-.61-.62,0-1.21.26-1.62.72-.35.41-.58.91-.65,1.45h4.46Z"/>
      </g>
      <g>
        <g>
          <path class="cls-1" d="M88.31,25v-5h-7.52v-4.98h7.52v-5.02h-7.52v-4.98h7.52V0h-12.55v25h12.55Z"/>
          <path class="cls-3" d="M87.59,24.28v-3.55h-7.52v-6.43h7.52v-3.57h-7.52v-6.43h7.52V.72h-11.1v23.55h11.1M88.31,25h-12.55V0h12.55v5.02h-7.52v4.98h7.52v5.02h-7.52v4.98h7.52v5Z"/>
        </g>
        <path class="cls-3" d="M88.31,25v-5h7.5v-4.98h-7.5v-5.02h7.5v-4.98h-7.5V0h12.55v25h-12.55Z"/>
      </g>
    </g>
  </g>
</svg>