<?xml version="1.0" encoding="UTF-8"?>
<svg id="Layer_1" xmlns="http://www.w3.org/2000/svg" version="1.1" viewBox="0 0 209 51.8">
  <!-- Generator: Adobe Illustrator 29.1.0, SVG Export Plug-In . SVG Version: 2.1.0 Build 142)  -->
  <defs>
    <style>
      .st0 {
        fill: none;
      }

      .st1 {
        fill: #014391;
      }

      .st2, .st3 {
        fill: #141e3f;
      }

      .st3 {
        fill-rule: evenodd;
      }
    </style>
  </defs>
  <g>
    <path class="st3" d="M0,10.23h22.64v5.94H7.62v5.54h14.02v5.81H7.62v7.29h16.37v6.04H0V10.23Z"/>
    <path class="st3" d="M34.84,20.26c.61-.75,1.38-1.36,2.24-1.78,1.31-.53,2.71-.81,4.12-.82,1.4-.03,2.78.29,4.03.92,2.38,1.25,3,3.3,3,6.8v15.51h-6.63v-12.77c.11-1.14.01-2.3-.3-3.4-.54-1.15-1.73-1.85-3-1.75-3.53,0-3.53,2.84-3.53,5.64v12.25h-6.67v-22.6h6.73v2.01Z"/>
    <path class="st3" d="M60.32,10.23v30.62h-6.7V10.23h6.7Z"/>
    <path class="st3" d="M65.63,24.65c-.02-1.95.86-3.8,2.38-5.01,2.08-1.65,4.79-2.01,7.42-2.01,2.77,0,9.5.66,9.5,6.5v13.2c0,2.44.13,2.77.66,3.56h-6.57v-2.08c-1.91,1.71-4.37,2.67-6.93,2.71-5.21,0-7.42-3.73-7.42-6.9,0-3.66,2.9-5.74,4.79-6.5,1.82-.79,6.1-1.55,8.94-2.08v-1.22c-.1-1.06-.16-2.77-2.57-2.77-2.94,0-3.33,1.81-3.5,2.64l-6.69-.03ZM74.08,31.45c-1.12.43-2.87,1.09-2.87,2.84.06,1.33,1.18,2.36,2.51,2.31.82-.02,1.62-.27,2.31-.73,2.21-1.39,2.31-3.46,2.34-5.81l-4.29,1.39Z"/>
    <path class="st3" d="M110.31,35.54c-.9,1.58-2.11,2.95-3.56,4.03-1.9,1.34-4.17,2.05-6.5,2.05-4.32,0-11.25-2.61-11.25-11.85,0-6.6,3.83-12.14,11.38-12.14,3.97-.11,7.68,1.97,9.67,5.41l-4.95,2.84c-.4-.96-1.06-1.78-1.91-2.38-.74-.51-1.61-.78-2.51-.79-3.6,0-4.82,4.12-4.82,6.86,0,3,1.48,6.76,5.05,6.76,2.05-.02,3.84-1.39,4.39-3.37l5.02,2.57Z"/>
    <path class="st3" d="M134.82,35.11c-.77,1.24-1.69,2.38-2.74,3.4-2.34,2.11-5.4,3.25-8.55,3.2-6.73,0-11.45-4.29-11.45-11.71,0-5.48,2.71-12.51,11.61-12.51,3.05-.1,6.01,1.09,8.15,3.27,2.94,3.17,3.14,7.59,3.2,10.16h-16.2c-.03,2.8,1.55,5.64,5.15,5.64s4.92-2.38,5.74-3.99l5.08,2.54ZM128.19,26.73c-.05-1.18-.49-2.3-1.25-3.2-.89-.82-2.06-1.27-3.27-1.25-1.28,0-2.51.53-3.37,1.49-.72.85-1.19,1.89-1.35,3h9.24v-.03Z"/>
  </g>
  <g>
    <path class="st0" d="M183,51.8v-10.36h-15.57v-10.33h15.57v-10.39h-15.57v-10.33h15.57V0h-26v51.8h26Z"/>
    <path class="st1" d="M183,51.8h-26V0h26v10.39h-15.57v10.33h15.57v10.39h-15.57v10.33h15.57v10.36Z"/>
  </g>
  <path class="st2" d="M183,51.8v-10.36h15.54v-10.33h-15.54v-10.39h15.54v-10.33h-15.54V0h26v51.8h-26Z"/>
</svg>