<?xml version="1.0" encoding="UTF-8"?>
<svg id="Layer_1" xmlns="http://www.w3.org/2000/svg" version="1.1" viewBox="0 0 409.76 115.41">
  <!-- Generator: Adobe Illustrator 29.1.0, SVG Export Plug-In . SVG Version: 2.1.0 Build 142)  -->
  <defs>
    <style>
      .st0 {
        fill: none;
        stroke: #161b4e;
        stroke-miterlimit: 10;
        stroke-width: 7.9px;
      }

      .st1 {
        fill: #161b4e;
      }

      .st2 {
        fill: #fff;
      }

      .st3 {
        fill: #009ed9;
      }
    </style>
  </defs>
  <path class="st1" d="M69.09,13.64h296.45c24.4,0,44.21,19.81,44.21,44.21v.79c0,24.4-19.81,44.21-44.21,44.21H69.09V13.64h0Z"/>
  <g>
    <path class="st2" d="M290.17,61.5c.23.18.42.41.55.68.14.27.2.56.2.87,0,.39-.1.74-.3,1.06-.2.31-.49.56-.87.74-.38.18-.83.27-1.34.27h-2.87v-7.7h2.76c.52,0,.97.09,1.34.26s.64.41.83.7c.18.29.28.63.28.99,0,.46-.12.83-.37,1.13-.25.3-.57.51-.98.65.28.04.54.16.77.34ZM286.55,60.76h1.69c.46,0,.83-.11,1.09-.34.26-.22.39-.54.39-.93s-.13-.71-.39-.94-.63-.34-1.12-.34h-1.67v2.55ZM289.5,63.96c.28-.24.43-.58.43-1.01s-.15-.77-.44-1.02c-.29-.25-.69-.38-1.18-.38h-1.75v2.76h1.78c.49,0,.88-.12,1.17-.36Z"/>
    <path class="st2" d="M293.42,64.83c-.46-.26-.82-.62-1.08-1.1-.26-.48-.39-1.03-.39-1.65s.13-1.17.4-1.64c.27-.48.64-.84,1.1-1.09.46-.25.98-.38,1.56-.38s1.09.13,1.56.38.83.62,1.1,1.09c.27.47.4,1.02.4,1.65s-.14,1.18-.41,1.65c-.28.47-.65.84-1.12,1.1s-1,.39-1.57.39-1.08-.13-1.54-.39ZM295.98,64.11c.32-.17.57-.43.77-.78.2-.35.29-.76.29-1.25s-.1-.9-.29-1.24c-.19-.34-.44-.6-.75-.77-.31-.17-.65-.25-1.01-.25s-.71.08-1.01.25c-.31.17-.55.43-.73.77-.18.34-.28.76-.28,1.24s.09.91.27,1.25.42.6.72.77c.3.17.63.26,1,.26s.7-.09,1.02-.26Z"/>
    <path class="st2" d="M300.4,56.94v8.18h-1.01v-8.18h1.01Z"/>
    <path class="st2" d="M303.01,64.98c-.37-.16-.65-.38-.87-.66-.21-.28-.33-.61-.35-.98h1.04c.03.32.17.57.43.77s.59.3,1,.3c.39,0,.69-.09.91-.26.22-.17.33-.4.33-.68s-.12-.46-.35-.59c-.24-.13-.6-.26-1.09-.38-.45-.12-.81-.24-1.09-.35-.28-.12-.52-.29-.72-.52-.2-.23-.3-.54-.3-.92,0-.32.09-.61.27-.87.18-.26.43-.47.77-.63.33-.15.72-.23,1.17-.23.67,0,1.21.17,1.62.51.41.34.63.8.66,1.39h-1.01c-.02-.33-.15-.6-.38-.8-.23-.2-.54-.3-.93-.3-.37,0-.66.08-.87.24s-.31.38-.31.64c0,.21.07.37.2.5.13.13.29.23.49.3.19.07.46.16.82.26.44.12.8.23,1.06.35.26.12.49.28.68.5.19.22.29.52.29.88,0,.34-.09.64-.27.91s-.44.48-.77.63c-.33.16-.72.23-1.16.23s-.88-.08-1.24-.24Z"/>
    <path class="st2" d="M307.89,60.44c.25-.47.59-.83,1.03-1.09s.93-.39,1.46-.39.99.11,1.38.34c.39.23.68.52.87.86v-1.11h1.02v6.06h-1.02v-1.13c-.2.35-.5.65-.89.88-.39.23-.85.35-1.38.35s-1.02-.13-1.46-.4c-.43-.26-.78-.64-1.03-1.12-.25-.48-.38-1.02-.38-1.64s.12-1.16.38-1.63ZM312.36,60.89c-.18-.34-.43-.6-.75-.78-.31-.18-.66-.27-1.03-.27s-.72.09-1.03.26-.56.44-.74.77c-.18.34-.28.74-.28,1.19s.09.87.28,1.21c.18.34.43.6.74.79s.65.27,1.03.27.72-.09,1.03-.27c.31-.18.56-.44.75-.79.18-.34.28-.74.28-1.2s-.09-.85-.28-1.19Z"/>
    <path class="st2" d="M316.25,64.98c-.36-.16-.65-.38-.87-.66-.21-.28-.33-.61-.35-.98h1.04c.03.32.17.57.42.77.25.2.59.3,1,.3.39,0,.69-.09.91-.26.22-.17.33-.4.33-.68s-.12-.46-.35-.59c-.24-.13-.6-.26-1.09-.38-.45-.12-.81-.24-1.09-.35-.28-.12-.52-.29-.72-.52-.2-.23-.3-.54-.3-.92,0-.32.09-.61.27-.87.18-.26.43-.47.77-.63.33-.15.72-.23,1.17-.23.67,0,1.21.17,1.62.51s.63.8.66,1.39h-1.01c-.02-.33-.15-.6-.38-.8-.23-.2-.54-.3-.93-.3-.37,0-.66.08-.87.24s-.32.38-.32.64c0,.21.07.37.2.5s.29.23.49.3.46.16.82.26c.44.12.79.23,1.06.35.27.12.49.28.69.5.19.22.29.52.29.88,0,.34-.09.64-.27.91s-.44.48-.77.63c-.33.16-.72.23-1.16.23-.46,0-.88-.08-1.24-.24Z"/>
    <path class="st2" d="M324.42,60.44c.25-.47.6-.83,1.03-1.09.44-.26.93-.39,1.48-.39.47,0,.91.11,1.31.33.41.22.71.5.93.86v-3.21h1.02v8.18h-1.02v-1.14c-.2.36-.49.66-.88.89-.39.23-.85.35-1.37.35s-1.03-.13-1.46-.4c-.44-.26-.78-.64-1.03-1.12-.25-.48-.38-1.02-.38-1.64s.13-1.16.38-1.63ZM328.9,60.89c-.18-.34-.43-.6-.75-.78s-.66-.27-1.03-.27-.72.09-1.03.26-.56.44-.74.77-.28.74-.28,1.19.09.87.28,1.21c.18.34.43.6.74.79s.65.27,1.03.27.72-.09,1.03-.27.56-.44.75-.79c.18-.34.28-.74.28-1.2s-.09-.85-.28-1.19Z"/>
    <path class="st2" d="M337.39,62.43h-4.84c.03.6.23,1.07.6,1.41.37.35.83.52,1.37.52.43,0,.8-.1,1.09-.3.29-.2.5-.47.61-.81h1.08c-.16.58-.49,1.06-.97,1.42-.49.36-1.09.55-1.81.55-.57,0-1.09-.13-1.54-.39s-.81-.62-1.07-1.1c-.26-.48-.39-1.03-.39-1.65s.12-1.17.38-1.65c.25-.47.6-.83,1.06-1.09s.97-.38,1.56-.38,1.08.12,1.52.38c.44.25.78.59,1.02,1.03s.36.92.36,1.47c0,.18-.01.38-.03.6ZM336.13,60.68c-.17-.28-.4-.5-.69-.65-.29-.15-.61-.22-.97-.22-.52,0-.95.17-1.32.5-.36.34-.56.8-.6,1.39h3.82c0-.4-.08-.74-.25-1.02Z"/>
    <path class="st2" d="M344.3,64.17l1.88-5.11h1.08l-2.38,6.06h-1.18l-2.38-6.06h1.08l1.89,5.11Z"/>
    <path class="st2" d="M348.24,60.44c.25-.47.59-.83,1.03-1.09s.93-.39,1.46-.39.99.11,1.38.34c.39.23.68.52.87.86v-1.11h1.02v6.06h-1.02v-1.13c-.2.35-.5.65-.89.88-.39.23-.85.35-1.38.35s-1.02-.13-1.46-.4c-.43-.26-.78-.64-1.03-1.12-.25-.48-.38-1.02-.38-1.64s.12-1.16.38-1.63ZM352.72,60.89c-.18-.34-.43-.6-.75-.78-.31-.18-.66-.27-1.03-.27s-.72.09-1.03.26-.56.44-.74.77c-.18.34-.28.74-.28,1.19s.09.87.28,1.21c.18.34.43.6.74.79s.65.27,1.03.27.72-.09,1.03-.27c.31-.18.56-.44.75-.79.18-.34.28-.74.28-1.2s-.09-.85-.28-1.19Z"/>
    <path class="st2" d="M356.72,56.94v8.18h-1.01v-8.18h1.01Z"/>
    <path class="st2" d="M359.53,64.83c-.46-.26-.82-.62-1.08-1.1-.26-.48-.39-1.03-.39-1.65s.13-1.17.4-1.64c.27-.48.63-.84,1.1-1.09.46-.25.98-.38,1.56-.38s1.09.13,1.56.38c.46.25.83.62,1.1,1.09.27.47.4,1.02.4,1.65s-.14,1.18-.42,1.65c-.28.47-.65.84-1.12,1.1-.47.26-1,.39-1.57.39s-1.08-.13-1.54-.39ZM362.09,64.11c.32-.17.57-.43.77-.78.2-.35.29-.76.29-1.25s-.1-.9-.29-1.24-.44-.6-.75-.77c-.31-.17-.64-.25-1.01-.25s-.71.08-1.01.25c-.31.17-.55.43-.74.77s-.28.76-.28,1.24.09.91.27,1.25.42.6.72.77c.3.17.63.26.99.26s.7-.09,1.02-.26Z"/>
    <path class="st2" d="M367.27,59.28c.33-.22.73-.33,1.2-.33v1.04h-.27c-1.13,0-1.69.61-1.69,1.83v3.29h-1.01v-6.06h1.01v1.15c.18-.4.43-.71.76-.93Z"/>
    <path class="st2" d="M375.12,62.43h-4.84c.03.6.23,1.07.6,1.41.37.35.83.52,1.37.52.43,0,.8-.1,1.09-.3.29-.2.5-.47.61-.81h1.08c-.16.58-.49,1.06-.97,1.42-.49.36-1.09.55-1.81.55-.57,0-1.09-.13-1.54-.39s-.81-.62-1.07-1.1c-.26-.48-.39-1.03-.39-1.65s.12-1.17.38-1.65c.25-.47.6-.83,1.06-1.09s.97-.38,1.56-.38,1.08.12,1.52.38c.44.25.78.59,1.02,1.03s.36.92.36,1.47c0,.18-.01.38-.03.6ZM373.86,60.68c-.17-.28-.4-.5-.69-.65-.29-.15-.61-.22-.97-.22-.52,0-.95.17-1.32.5-.36.34-.56.8-.6,1.39h3.82c0-.4-.08-.74-.25-1.02Z"/>
    <path class="st2" d="M377.37,64.98c-.36-.16-.65-.38-.87-.66-.21-.28-.33-.61-.35-.98h1.04c.03.32.17.57.42.77.25.2.59.3,1,.3.39,0,.69-.09.91-.26.22-.17.33-.4.33-.68s-.12-.46-.35-.59c-.24-.13-.6-.26-1.09-.38-.45-.12-.81-.24-1.09-.35-.28-.12-.52-.29-.72-.52-.2-.23-.3-.54-.3-.92,0-.32.09-.61.27-.87.18-.26.43-.47.77-.63.33-.15.72-.23,1.17-.23.67,0,1.21.17,1.62.51s.63.8.66,1.39h-1.01c-.02-.33-.15-.6-.38-.8-.23-.2-.54-.3-.93-.3-.37,0-.66.08-.87.24s-.32.38-.32.64c0,.21.07.37.2.5s.29.23.49.3.46.16.82.26c.44.12.79.23,1.06.35.27.12.49.28.69.5.19.22.29.52.29.88,0,.34-.09.64-.27.91s-.44.48-.77.63c-.33.16-.72.23-1.16.23-.46,0-.88-.08-1.24-.24Z"/>
  </g>
  <circle class="st3" cx="62.07" cy="53.34" r="49.39" transform="translate(-19.53 59.51) rotate(-45)"/>
  <path class="st0" d="M100.15,84.79c7.06-8.54,11.31-19.5,11.31-31.45,0-27.28-22.11-49.39-49.39-49.39-6.11,0-11.97,1.11-17.37,3.14"/>
  <path class="st2" d="M62.07,115.41C27.84,115.41,0,87.56,0,53.34c0-6.91,1.13-13.69,3.35-20.17l7.47,2.56c-1.94,5.65-2.92,11.57-2.92,17.6,0,29.87,24.3,54.18,54.18,54.18,3.09,0,6.19-.26,9.21-.78l1.33,7.78c-3.46.59-7.01.89-10.55.89Z"/>
  <g>
    <path class="st2" d="M29.61,64.52v-1.67l2.14-2.07c5.14-4.89,7.46-7.49,7.49-10.52,0-2.04-.99-3.93-3.99-3.93-1.83,0-3.34.93-4.27,1.7l-.87-1.92c1.39-1.18,3.37-2.04,5.69-2.04,4.33,0,6.16,2.97,6.16,5.85,0,3.71-2.69,6.72-6.93,10.8l-1.61,1.49v.06h9.04v2.26h-12.84Z"/>
    <path class="st2" d="M58.85,54.25c0,6.84-2.54,10.61-6.99,10.61-3.93,0-6.59-3.68-6.65-10.34,0-6.75,2.91-10.46,6.99-10.46s6.65,3.77,6.65,10.18ZM47.93,54.56c0,5.23,1.61,8.2,4.08,8.2,2.79,0,4.12-3.25,4.12-8.39s-1.27-8.2-4.08-8.2c-2.38,0-4.12,2.91-4.12,8.39Z"/>
    <path class="st2" d="M74.72,54.25c0,6.84-2.54,10.61-6.99,10.61-3.93,0-6.59-3.68-6.65-10.34,0-6.75,2.91-10.46,6.99-10.46s6.65,3.77,6.65,10.18ZM63.8,54.56c0,5.23,1.61,8.2,4.08,8.2,2.79,0,4.12-3.25,4.12-8.39s-1.27-8.2-4.08-8.2c-2.38,0-4.12,2.91-4.12,8.39Z"/>
    <path class="st2" d="M89.24,46.7h-7.67l-.77,5.17c.46-.06.9-.12,1.64-.12,1.55,0,3.09.34,4.33,1.08,1.58.9,2.88,2.63,2.88,5.17,0,3.93-3.12,6.87-7.49,6.87-2.2,0-4.05-.62-5.01-1.24l.68-2.07c.83.5,2.48,1.11,4.3,1.11,2.57,0,4.77-1.67,4.77-4.36-.03-2.6-1.76-4.46-5.79-4.46-1.15,0-2.04.12-2.79.22l1.3-9.66h9.62v2.29Z"/>
  </g>
  <g>
    <g id="Group_7">
      <g id="Group_6">
        <g id="Grupo_6223-2">
          <g id="Group_5">
            <path id="Path_33" class="st2" d="M210.21,34.16l-17.74-1.24,4.36,20.04,19.39-1.62-6.01-17.18ZM200.41,48.31l-2.84-11.45,10.66.46,3.41,10.46-5.35.26-5.89.28Z"/>
          </g>
        </g>
      </g>
    </g>
    <g id="Group_11">
      <g id="Grupo_6224">
        <g id="Group_10">
          <path id="Path_34" class="st2" d="M193.64,38.28l-8.61-6.65-3.03,2.51,10.52,8.09-8.18,9.14,4.43,3.34,6.63-8.3,3.34-4.18-5.11-3.95Z"/>
        </g>
      </g>
    </g>
    <g id="Group_16">
      <g id="Grupo_6225">
        <g id="Group_15">
          <path id="Path_35" class="st2" d="M214.68,42.23l3.38-6.07-2.87-2.27-5.26,8.34,12.16,9.47,1.09-2.83-8.49-6.64Z"/>
        </g>
      </g>
    </g>
    <g id="Grupo_6226">
      <g id="Group_20">
        <path id="Path_36" class="st2" d="M206.11,48.14l5,3.86v-.02l8.24,6.36-1.4,3.62-10.08-7.73-5.93,10.63-4.33-3.27,5.66-8.96,2.85-4.49Z"/>
      </g>
    </g>
    <g id="Group_26">
      <g id="Grupo_6227">
        <g id="Group_25">
          <path id="Path_37" class="st2" d="M209.11,29.29l-2.92-2.3-4.64,5.17-8.81-6.89-2.35,1.94,7.87,6.13h.03l4.65,3.62,2.5-3.12h.01l3.65-4.56Z"/>
        </g>
      </g>
    </g>
    <g id="Grupo_6231">
      <g id="Grupo_6230">
        <g id="Group_32">
          <g id="Group_31">
            <g id="Grupo_6229">
              <g id="Grupo_6228">
                <g id="Group_30">
                  <path id="Path_38" class="st2" d="M152.44,87.32h-5.61v-13.6l-3.99,9.46h-3.83l-3.99-9.46v13.6h-5.32v-21.73h6.53l4.84,10.92,4.82-10.92h6.54v21.73Z"/>
                  <path id="Path_39" class="st2" d="M172.83,87.32h-15.72v-21.73h15.72v4.2h-10.11v4.23h9.41v4.21h-9.41v4.88h10.11v4.21Z"/>
                  <path id="Path_40" class="st2" d="M189.71,87.32h-12.74v-4.2h3.56v-13.32h-3.56v-4.2h12.74v4.2h-3.56v13.32h3.56v4.21Z"/>
                </g>
              </g>
            </g>
          </g>
        </g>
      </g>
    </g>
  </g>
</svg>