<?xml version="1.0" encoding="UTF-8"?>
<svg id="Layer_1" xmlns="http://www.w3.org/2000/svg" version="1.1" viewBox="0 0 398.08 112.27">
  <!-- Generator: Adobe Illustrator 29.1.0, SVG Export Plug-In . SVG Version: 2.1.0 Build 142)  -->
  <defs>
    <style>
      .st0 {
        fill: none;
      }

      .st1 {
        fill-rule: evenodd;
      }

      .st1, .st2 {
        fill: #fff;
      }

      .st3 {
        fill: #161b4e;
      }

      .st4 {
        fill: #009ed9;
      }
    </style>
  </defs>
  <path class="st3" d="M57.42,10.87h296.45c24.4,0,44.21,19.81,44.21,44.21h0c0,24.4-19.81,44.21-44.21,44.21H57.42V10.87h0Z"/>
  <g>
    <path class="st2" d="M299.08,47.89c.34-.6.8-1.07,1.39-1.41.58-.34,1.24-.51,1.95-.51.84,0,1.57.2,2.2.61.63.41,1.08.98,1.37,1.72h-1.21c-.21-.45-.52-.8-.92-1.04-.4-.25-.88-.37-1.44-.37s-1.02.12-1.45.37c-.43.25-.76.6-1.01,1.06-.24.46-.37.99-.37,1.6s.12,1.13.37,1.59.58.81,1.01,1.06c.43.25.91.37,1.45.37s1.04-.12,1.44-.37c.4-.24.71-.59.92-1.04h1.21c-.29.74-.74,1.31-1.37,1.71-.63.4-1.36.6-2.2.6-.71,0-1.37-.17-1.95-.5-.59-.33-1.05-.8-1.39-1.4s-.51-1.27-.51-2.02.17-1.43.51-2.03Z"/>
    <path class="st2" d="M308.58,53.49c-.46-.26-.82-.62-1.08-1.1-.26-.48-.39-1.03-.39-1.65s.13-1.17.4-1.64c.27-.48.63-.84,1.1-1.09.46-.25.98-.38,1.56-.38s1.09.13,1.56.38c.46.25.83.62,1.1,1.09.27.47.4,1.02.4,1.65s-.14,1.18-.42,1.65c-.28.47-.65.84-1.12,1.1-.47.26-1,.39-1.57.39s-1.08-.13-1.54-.39ZM311.14,52.77c.32-.17.57-.43.77-.78.2-.35.29-.76.29-1.25s-.1-.9-.29-1.24-.44-.6-.75-.77c-.31-.17-.64-.25-1.01-.25s-.71.08-1.01.25c-.31.17-.55.43-.74.77s-.28.76-.28,1.24.09.91.27,1.25.42.6.72.77c.3.17.63.26.99.26s.7-.09,1.02-.26Z"/>
    <path class="st2" d="M316.32,47.94c.33-.22.73-.33,1.2-.33v1.04h-.27c-1.13,0-1.69.61-1.69,1.83v3.29h-1.01v-6.06h1.01v1.15c.18-.4.43-.71.76-.93Z"/>
    <path class="st2" d="M320.44,47.94c.33-.22.73-.33,1.2-.33v1.04h-.26c-1.13,0-1.69.61-1.69,1.83v3.29h-1.01v-6.06h1.01v1.15c.18-.4.43-.71.76-.93Z"/>
    <path class="st2" d="M328.29,51.09h-4.84c.03.6.23,1.07.6,1.41.37.35.83.52,1.37.52.43,0,.8-.1,1.09-.3.29-.2.5-.47.61-.81h1.08c-.16.58-.49,1.06-.97,1.42-.49.36-1.09.55-1.81.55-.58,0-1.09-.13-1.54-.39s-.81-.62-1.07-1.1c-.26-.48-.39-1.03-.39-1.65s.13-1.17.38-1.65c.25-.47.6-.83,1.06-1.09s.97-.38,1.56-.38,1.08.12,1.52.38c.44.25.78.59,1.02,1.03s.37.92.37,1.47c0,.18-.01.38-.03.6ZM327.03,49.34c-.17-.28-.4-.5-.69-.65-.29-.15-.61-.22-.97-.22-.52,0-.95.17-1.31.5-.36.34-.56.8-.6,1.39h3.83c0-.4-.08-.74-.25-1.02Z"/>
    <path class="st2" d="M330.88,48.55v3.57c0,.29.06.5.19.62.12.12.34.18.65.18h.74v.85h-.91c-.56,0-.98-.13-1.26-.39s-.42-.68-.42-1.27v-3.57h-.78v-.83h.78v-1.53h1.01v1.53h1.58v.83h-1.58Z"/>
    <path class="st2" d="M333.68,49.1c.25-.47.59-.83,1.03-1.09s.93-.39,1.46-.39.99.11,1.38.34c.39.23.68.52.87.86v-1.11h1.02v6.06h-1.02v-1.13c-.2.35-.5.65-.89.88-.39.23-.85.35-1.38.35s-1.02-.13-1.46-.4c-.43-.26-.78-.64-1.03-1.12-.25-.48-.38-1.02-.38-1.64s.12-1.16.38-1.63ZM338.15,49.55c-.18-.34-.43-.6-.75-.78-.31-.18-.66-.27-1.03-.27s-.72.09-1.03.26-.56.44-.74.77c-.18.34-.28.74-.28,1.19s.09.87.28,1.21c.18.34.43.6.74.79s.65.27,1.03.27.72-.09,1.03-.27c.31-.18.56-.44.75-.79.18-.34.28-.74.28-1.2s-.09-.85-.28-1.19Z"/>
    <path class="st2" d="M342.19,55.09c0,.54-.14.93-.41,1.18-.27.25-.67.38-1.19.38h-.59v-.85h.42c.28,0,.48-.05.59-.17.11-.11.17-.3.17-.56v-7.35h1.01v7.37ZM341.21,46.54c-.13-.13-.19-.29-.19-.49s.06-.35.19-.49c.13-.13.29-.2.48-.2s.35.07.48.2c.13.13.19.29.19.49s-.06.35-.19.49c-.13.13-.29.2-.48.2s-.35-.07-.48-.2Z"/>
    <path class="st2" d="M349.38,51.09h-4.84c.03.6.23,1.07.6,1.41.37.35.83.52,1.37.52.43,0,.8-.1,1.09-.3.29-.2.5-.47.61-.81h1.08c-.16.58-.49,1.06-.97,1.42-.49.36-1.09.55-1.81.55-.58,0-1.09-.13-1.54-.39s-.81-.62-1.07-1.1c-.26-.48-.39-1.03-.39-1.65s.13-1.17.38-1.65c.25-.47.6-.83,1.06-1.09s.97-.38,1.56-.38,1.08.12,1.52.38c.44.25.78.59,1.02,1.03s.37.92.37,1.47c0,.18-.01.38-.03.6ZM348.12,49.34c-.17-.28-.4-.5-.69-.65-.29-.15-.61-.22-.97-.22-.52,0-.95.17-1.31.5-.36.34-.56.8-.6,1.39h3.83c0-.4-.08-.74-.25-1.02Z"/>
    <path class="st2" d="M298.98,59.8c-.13-.13-.2-.29-.2-.49s.07-.35.2-.49c.13-.13.29-.2.49-.2s.34.07.47.2c.13.13.19.29.19.49s-.06.35-.19.49c-.13.13-.29.2-.47.2s-.35-.07-.49-.2ZM299.95,60.98v6.06h-1.01v-6.06h1.01Z"/>
    <path class="st2" d="M306.41,61.54c.46.45.69,1.09.69,1.93v3.57h-1v-3.43c0-.6-.15-1.07-.45-1.39-.3-.32-.71-.48-1.24-.48s-.95.17-1.27.5c-.31.33-.47.81-.47,1.45v3.35h-1.01v-6.06h1.01v.86c.2-.31.47-.55.81-.72.34-.17.72-.25,1.13-.25.74,0,1.33.22,1.79.67Z"/>
    <path class="st2" d="M309.97,61.81v3.57c0,.29.06.5.19.62.12.12.34.18.65.18h.74v.85h-.91c-.56,0-.98-.13-1.26-.39-.28-.26-.42-.68-.42-1.27v-3.57h-.79v-.83h.79v-1.53h1.01v1.53h1.58v.83h-1.58Z"/>
    <path class="st2" d="M318.26,64.36h-4.84c.03.6.23,1.07.6,1.41.37.35.83.52,1.37.52.43,0,.8-.1,1.09-.3.29-.2.5-.47.61-.81h1.08c-.16.58-.49,1.06-.97,1.42-.49.36-1.09.55-1.81.55-.58,0-1.09-.13-1.54-.39s-.81-.62-1.07-1.1c-.26-.48-.39-1.03-.39-1.65s.13-1.17.38-1.65c.25-.47.6-.83,1.06-1.09s.97-.38,1.56-.38,1.08.12,1.52.38c.44.25.78.59,1.02,1.03s.37.92.37,1.47c0,.18-.01.38-.03.6ZM317,62.6c-.17-.28-.4-.5-.69-.65-.29-.15-.61-.22-.97-.22-.52,0-.95.17-1.31.5-.36.34-.56.8-.6,1.39h3.83c0-.4-.08-.74-.25-1.02Z"/>
    <path class="st2" d="M321.38,61.21c.33-.22.73-.33,1.2-.33v1.04h-.26c-1.13,0-1.69.61-1.69,1.83v3.29h-1.01v-6.06h1.01v1.15c.18-.4.43-.71.76-.93Z"/>
    <path class="st2" d="M325.65,61.23c.4-.23.85-.34,1.36-.34.54,0,1.04.13,1.47.39s.78.62,1.03,1.09c.25.47.38,1.01.38,1.63s-.12,1.16-.38,1.64c-.25.48-.6.85-1.03,1.12-.44.27-.93.4-1.46.4s-.98-.11-1.38-.34c-.39-.23-.69-.52-.89-.87v1.12h-1.01v-8.18h1.01v3.25c.21-.36.51-.66.91-.88ZM328.58,62.8c-.18-.34-.43-.6-.75-.77-.31-.18-.66-.26-1.03-.26s-.71.09-1.02.27c-.31.18-.56.44-.75.79-.19.34-.28.74-.28,1.19s.09.86.28,1.2c.19.34.44.6.75.79.31.18.65.27,1.02.27s.72-.09,1.03-.27c.31-.18.56-.44.75-.79.18-.34.28-.75.28-1.21s-.09-.85-.28-1.19Z"/>
    <path class="st2" d="M331.21,62.36c.25-.47.59-.83,1.03-1.09s.93-.39,1.46-.39.99.11,1.38.34c.39.23.68.52.87.86v-1.11h1.02v6.06h-1.02v-1.13c-.2.35-.5.65-.89.88-.39.23-.85.35-1.38.35s-1.02-.13-1.46-.4c-.43-.26-.78-.64-1.03-1.12-.25-.48-.38-1.02-.38-1.64s.12-1.16.38-1.63ZM335.69,62.81c-.18-.34-.43-.6-.75-.78-.31-.18-.66-.27-1.03-.27s-.72.09-1.03.26-.56.44-.74.77c-.18.34-.28.74-.28,1.19s.09.87.28,1.21c.18.34.43.6.74.79s.65.27,1.03.27.72-.09,1.03-.27c.31-.18.56-.44.75-.79.18-.34.28-.74.28-1.2s-.09-.85-.28-1.19Z"/>
    <path class="st2" d="M343.42,61.54c.46.45.69,1.09.69,1.93v3.57h-1v-3.43c0-.6-.15-1.07-.45-1.39-.3-.32-.71-.48-1.24-.48s-.95.17-1.27.5c-.31.33-.47.81-.47,1.45v3.35h-1.01v-6.06h1.01v.86c.2-.31.47-.55.81-.72.34-.17.72-.25,1.13-.25.74,0,1.33.22,1.79.67Z"/>
    <path class="st2" d="M345.76,62.36c.25-.47.6-.83,1.04-1.09.45-.26.96-.39,1.53-.39.75,0,1.36.18,1.84.54.48.36.8.86.96,1.5h-1.08c-.1-.37-.3-.66-.6-.87-.3-.21-.67-.32-1.11-.32-.57,0-1.04.2-1.39.59-.35.39-.53.95-.53,1.67s.18,1.29.53,1.69c.35.4.82.6,1.39.6.44,0,.81-.1,1.11-.31.29-.21.5-.5.61-.88h1.08c-.16.62-.49,1.11-.97,1.49s-1.09.56-1.82.56c-.57,0-1.08-.13-1.53-.39-.45-.26-.79-.62-1.04-1.09-.25-.47-.38-1.02-.38-1.66s.13-1.17.38-1.64Z"/>
    <path class="st2" d="M352.47,62.36c.25-.47.59-.83,1.03-1.09s.93-.39,1.46-.39.99.11,1.38.34c.39.23.68.52.87.86v-1.11h1.02v6.06h-1.02v-1.13c-.2.35-.5.65-.89.88-.39.23-.85.35-1.38.35s-1.02-.13-1.46-.4c-.43-.26-.78-.64-1.03-1.12-.25-.48-.38-1.02-.38-1.64s.12-1.16.38-1.63ZM356.94,62.81c-.18-.34-.43-.6-.75-.78-.31-.18-.66-.27-1.03-.27s-.72.09-1.03.26-.56.44-.74.77c-.18.34-.28.74-.28,1.19s.09.87.28,1.21c.18.34.43.6.74.79s.65.27,1.03.27.72-.09,1.03-.27c.31-.18.56-.44.75-.79.18-.34.28-.74.28-1.2s-.09-.85-.28-1.19Z"/>
    <path class="st2" d="M361.7,61.21c.33-.22.73-.33,1.2-.33v1.04h-.27c-1.13,0-1.69.61-1.69,1.83v3.29h-1.01v-6.06h1.01v1.15c.18-.4.43-.71.76-.93Z"/>
    <path class="st2" d="M364.09,59.8c-.13-.13-.2-.29-.2-.49s.07-.35.2-.49c.13-.13.29-.2.49-.2s.34.07.47.2c.13.13.19.29.19.49s-.06.35-.19.49c-.13.13-.29.2-.47.2s-.35-.07-.49-.2ZM365.07,60.98v6.06h-1.01v-6.06h1.01Z"/>
    <path class="st2" d="M367.88,66.76c-.46-.26-.82-.62-1.08-1.1-.26-.48-.39-1.03-.39-1.65s.13-1.17.4-1.64c.27-.48.64-.84,1.1-1.09.46-.25.98-.38,1.56-.38s1.09.13,1.56.38.83.62,1.1,1.09c.27.47.4,1.02.4,1.65s-.14,1.18-.41,1.65c-.28.47-.65.84-1.12,1.1s-1,.39-1.57.39-1.08-.13-1.54-.39ZM370.44,66.03c.32-.17.57-.43.77-.78.2-.35.29-.76.29-1.25s-.1-.9-.29-1.24c-.19-.34-.44-.6-.75-.77-.31-.17-.65-.25-1.01-.25s-.71.08-1.01.25c-.31.17-.55.43-.73.77-.18.34-.28.76-.28,1.24s.09.91.27,1.25.42.6.72.77c.3.17.63.26,1,.26s.7-.09,1.02-.26Z"/>
  </g>
  <circle class="st4" cx="60.37" cy="51.89" r="47.95" transform="translate(-7.6 10.45) rotate(-9.31)"/>
  <path class="st3" d="M100.38,84.94l-6.08-5.03c6.5-7.85,10.07-17.8,10.07-28.02,0-24.26-19.74-44-44-44-5.33,0-10.54.94-15.48,2.8l-2.78-7.39c5.83-2.19,11.97-3.3,18.26-3.3,28.61,0,51.89,23.28,51.89,51.89,0,12.05-4.22,23.78-11.88,33.05Z"/>
  <path class="st2" d="M60.37,112.27C27.08,112.27,0,85.18,0,51.89c0-6.72,1.1-13.31,3.26-19.61l7.47,2.56c-1.88,5.47-2.83,11.21-2.83,17.05,0,28.94,23.54,52.48,52.48,52.48,2.99,0,6-.25,8.93-.76l1.33,7.78c-3.37.58-6.82.87-10.26.87Z"/>
  <g>
    <path class="st2" d="M34.05,45.33h-.06l-3.5,1.89-.53-2.07,4.39-2.35h2.32v20.11h-2.63v-17.58Z"/>
    <path class="st2" d="M45.6,60.98c.59.06,1.27,0,2.2-.09,1.58-.22,3.06-.87,4.21-1.95,1.33-1.21,2.29-2.97,2.66-5.35h-.09c-1.11,1.36-2.72,2.17-4.73,2.17-3.62,0-5.94-2.72-5.94-6.16,0-3.81,2.75-7.15,6.87-7.15s6.65,3.34,6.65,8.48c0,4.42-1.49,7.52-3.47,9.44-1.55,1.52-3.68,2.44-5.85,2.69-.99.16-1.86.19-2.51.16v-2.23ZM46.59,49.41c0,2.51,1.52,4.27,3.87,4.27,1.83,0,3.25-.9,3.96-2.1.15-.25.25-.56.25-.99,0-3.43-1.27-6.06-4.12-6.06-2.32,0-3.96,2.04-3.96,4.89Z"/>
    <path class="st2" d="M61.47,60.98c.59.06,1.27,0,2.2-.09,1.58-.22,3.06-.87,4.21-1.95,1.33-1.21,2.29-2.97,2.66-5.35h-.09c-1.11,1.36-2.72,2.17-4.74,2.17-3.62,0-5.94-2.72-5.94-6.16,0-3.81,2.75-7.15,6.87-7.15s6.65,3.34,6.65,8.48c0,4.42-1.49,7.52-3.47,9.44-1.55,1.52-3.68,2.44-5.85,2.69-.99.16-1.86.19-2.51.16v-2.23ZM62.46,49.41c0,2.51,1.52,4.27,3.87,4.27,1.83,0,3.25-.9,3.96-2.1.16-.25.25-.56.25-.99,0-3.43-1.27-6.06-4.12-6.06-2.32,0-3.96,2.04-3.96,4.89Z"/>
    <path class="st2" d="M76.41,59.78c.77.5,2.57,1.27,4.46,1.27,3.5,0,4.58-2.23,4.55-3.9-.03-2.82-2.57-4.02-5.2-4.02h-1.52v-2.04h1.52c1.98,0,4.49-1.02,4.49-3.4,0-1.61-1.02-3.03-3.53-3.03-1.61,0-3.16.71-4.02,1.33l-.71-1.98c1.05-.77,3.09-1.55,5.26-1.55,3.96,0,5.76,2.35,5.76,4.8,0,2.07-1.24,3.84-3.71,4.73v.06c2.48.5,4.49,2.35,4.49,5.17,0,3.22-2.51,6.03-7.33,6.03-2.26,0-4.24-.71-5.23-1.36l.74-2.1Z"/>
  </g>
  <g id="logo-enlace">
    <g id="enlace-horizontal-curvas">
      <g>
        <path class="st1" d="M122.51,42.48h15.59v4.09h-10.34v3.82h9.66v4h-9.66v5.02h11.27v4.16h-16.52v-21.08Z"/>
        <path class="st1" d="M146.5,49.39c.42-.52.95-.93,1.55-1.23.9-.37,1.87-.56,2.84-.57.96-.02,1.92.2,2.77.64,1.64.86,2.07,2.27,2.07,4.68v10.68h-4.56v-8.79c.08-.79,0-1.58-.21-2.34-.37-.79-1.19-1.27-2.07-1.2-2.43,0-2.43,1.95-2.43,3.88v8.43h-4.59v-15.56h4.63v1.38Z"/>
        <path class="st1" d="M164.04,42.48v21.09h-4.61v-21.09h4.61Z"/>
        <path class="st1" d="M167.7,52.41c-.01-1.34.59-2.61,1.64-3.45,1.43-1.14,3.29-1.39,5.11-1.39,1.91,0,6.54.45,6.54,4.48v9.09c0,1.68.09,1.91.45,2.45h-4.52v-1.43c-1.31,1.17-3.01,1.84-4.77,1.86-3.59,0-5.11-2.57-5.11-4.75,0-2.52,2-3.95,3.29-4.48,1.25-.55,4.2-1.07,6.16-1.43v-.84c-.07-.73-.11-1.91-1.77-1.91-2.02,0-2.3,1.25-2.41,1.82l-4.61-.02ZM173.51,57.09c-.77.3-1.98.75-1.98,1.95.04.91.81,1.62,1.73,1.59.57-.02,1.12-.19,1.59-.5,1.52-.95,1.59-2.39,1.61-4l-2.95.95Z"/>
        <path class="st1" d="M198.46,59.91c-.62,1.08-1.45,2.03-2.45,2.77-1.31.92-2.87,1.41-4.48,1.41-2.98,0-7.75-1.8-7.75-8.16,0-4.54,2.64-8.36,7.84-8.36,2.74-.08,5.29,1.35,6.66,3.73l-3.41,1.95c-.27-.66-.73-1.23-1.32-1.64-.51-.35-1.11-.54-1.73-.55-2.48,0-3.32,2.84-3.32,4.73,0,2.07,1.02,4.66,3.48,4.66,1.41-.02,2.64-.96,3.02-2.32l3.46,1.77Z"/>
        <path class="st1" d="M215.34,59.61c-.53.85-1.17,1.64-1.89,2.34-1.61,1.45-3.72,2.24-5.88,2.2-4.63,0-7.88-2.95-7.88-8.07,0-3.77,1.86-8.61,8-8.61,2.1-.07,4.14.75,5.61,2.25,2.02,2.18,2.16,5.23,2.2,7h-11.16c-.02,1.93,1.07,3.88,3.54,3.88s3.39-1.64,3.95-2.75l3.5,1.75ZM210.78,53.84c-.04-.81-.34-1.58-.86-2.2-.61-.57-1.42-.88-2.25-.86-.88,0-1.73.37-2.32,1.02-.5.59-.82,1.3-.93,2.07h6.36v-.02Z"/>
      </g>
      <g>
        <g>
          <path class="st0" d="M248.52,71.11v-7.13h-10.72v-7.11h10.72v-7.16h-10.72v-7.11h10.72v-7.16h-17.9v35.67h17.9Z"/>
          <path class="st2" d="M247.48,70.08v-5.07h-10.72v-9.18h10.72v-5.09h-10.72v-9.18h10.72v-5.09h-15.84v33.61h15.84M248.52,71.11h-17.9v-35.67h17.9v7.16h-10.72v7.11h10.72v7.16h-10.72v7.11h10.72v7.13Z"/>
        </g>
        <path class="st2" d="M248.52,71.11v-7.13h10.7v-7.11h-10.7v-7.16h10.7v-7.11h-10.7v-7.16h17.9v35.67h-17.9Z"/>
      </g>
    </g>
  </g>
</svg>