<?xml version="1.0" encoding="UTF-8"?>
<svg id="Layer_1" xmlns="http://www.w3.org/2000/svg" version="1.1" viewBox="0 0 400.7 114.77">
  <!-- Generator: Adobe Illustrator 29.1.0, SVG Export Plug-In . SVG Version: 2.1.0 Build 142)  -->
  <defs>
    <style>
      .st0 {
        fill: #161b4e;
      }

      .st1 {
        fill: #fff;
      }

      .st2 {
        fill: none;
        stroke: #fff;
        stroke-miterlimit: 10;
        stroke-width: 1.95px;
      }

      .st3 {
        fill: #009ed9;
      }
    </style>
  </defs>
  <path class="st0" d="M60.04,9.14h296.45c24.4,0,44.21,19.81,44.21,44.21h0c0,24.4-19.81,44.21-44.21,44.21H60.04V9.14h0Z"/>
  <g>
    <path class="st1" d="M287.55,48.11c.34-.6.8-1.07,1.39-1.41.58-.34,1.24-.51,1.95-.51.84,0,1.57.2,2.2.61.63.41,1.08.98,1.37,1.72h-1.21c-.21-.45-.52-.8-.92-1.04-.4-.25-.88-.37-1.44-.37s-1.02.12-1.45.37c-.43.25-.76.6-1.01,1.06-.24.46-.37.99-.37,1.6s.12,1.13.37,1.59.58.81,1.01,1.06c.43.25.91.37,1.45.37s1.04-.12,1.44-.37c.4-.24.71-.59.92-1.04h1.21c-.29.74-.74,1.31-1.37,1.71-.63.4-1.36.6-2.2.6-.71,0-1.37-.17-1.95-.5-.59-.33-1.05-.8-1.39-1.4s-.51-1.27-.51-2.02.17-1.43.51-2.03Z"/>
    <path class="st1" d="M297.05,53.71c-.46-.26-.82-.62-1.08-1.1-.26-.48-.39-1.03-.39-1.65s.13-1.17.4-1.64c.27-.48.63-.84,1.1-1.09.46-.25.98-.38,1.56-.38s1.09.13,1.56.38c.46.25.83.62,1.1,1.09.27.47.4,1.02.4,1.65s-.14,1.18-.42,1.65c-.28.47-.65.84-1.12,1.1-.47.26-1,.39-1.57.39s-1.08-.13-1.54-.39ZM299.61,52.99c.32-.17.57-.43.77-.78.2-.35.29-.76.29-1.25s-.1-.9-.29-1.24-.44-.6-.75-.77c-.31-.17-.64-.25-1.01-.25s-.71.08-1.01.25c-.31.17-.55.43-.74.77s-.28.76-.28,1.24.09.91.27,1.25.42.6.72.77c.3.17.63.26.99.26s.7-.09,1.02-.26Z"/>
    <path class="st1" d="M304.79,48.16c.33-.22.73-.33,1.2-.33v1.04h-.27c-1.13,0-1.69.61-1.69,1.83v3.29h-1.01v-6.06h1.01v1.15c.18-.4.43-.71.76-.93Z"/>
    <path class="st1" d="M308.91,48.16c.33-.22.73-.33,1.2-.33v1.04h-.26c-1.13,0-1.69.61-1.69,1.83v3.29h-1.01v-6.06h1.01v1.15c.18-.4.43-.71.76-.93Z"/>
    <path class="st1" d="M316.77,51.31h-4.84c.03.6.23,1.07.6,1.41.37.35.83.52,1.37.52.43,0,.8-.1,1.09-.3.29-.2.5-.47.61-.81h1.08c-.16.58-.49,1.06-.97,1.42-.49.36-1.09.55-1.81.55-.58,0-1.09-.13-1.54-.39s-.81-.62-1.07-1.1c-.26-.48-.39-1.03-.39-1.65s.13-1.17.38-1.65c.25-.47.6-.83,1.06-1.09s.97-.38,1.56-.38,1.08.12,1.52.38c.44.25.78.59,1.02,1.03s.37.92.37,1.47c0,.18-.01.38-.03.6ZM315.51,49.56c-.17-.28-.4-.5-.69-.65-.29-.15-.61-.22-.97-.22-.52,0-.95.17-1.31.5-.36.34-.56.8-.6,1.39h3.83c0-.4-.08-.74-.25-1.02Z"/>
    <path class="st1" d="M319.35,48.77v3.57c0,.29.06.5.19.62.12.12.34.18.65.18h.74v.85h-.91c-.56,0-.98-.13-1.26-.39s-.42-.68-.42-1.27v-3.57h-.78v-.83h.78v-1.53h1.01v1.53h1.58v.83h-1.58Z"/>
    <path class="st1" d="M322.15,49.32c.25-.47.59-.83,1.03-1.09s.93-.39,1.46-.39.99.11,1.38.34c.39.23.68.52.87.86v-1.11h1.02v6.06h-1.02v-1.13c-.2.35-.5.65-.89.88-.39.23-.85.35-1.38.35s-1.02-.13-1.46-.4c-.43-.26-.78-.64-1.03-1.12-.25-.48-.38-1.02-.38-1.64s.12-1.16.38-1.63ZM326.63,49.77c-.18-.34-.43-.6-.75-.78-.31-.18-.66-.27-1.03-.27s-.72.09-1.03.26-.56.44-.74.77c-.18.34-.28.74-.28,1.19s.09.87.28,1.21c.18.34.43.6.74.79s.65.27,1.03.27.72-.09,1.03-.27c.31-.18.56-.44.75-.79.18-.34.28-.74.28-1.2s-.09-.85-.28-1.19Z"/>
    <path class="st1" d="M330.66,55.31c0,.54-.14.93-.41,1.18-.27.25-.67.38-1.19.38h-.59v-.85h.42c.28,0,.48-.05.59-.17.11-.11.17-.3.17-.56v-7.35h1.01v7.37ZM329.68,46.76c-.13-.13-.19-.29-.19-.49s.06-.35.19-.49c.13-.13.29-.2.48-.2s.35.07.48.2c.13.13.19.29.19.49s-.06.35-.19.49c-.13.13-.29.2-.48.2s-.35-.07-.48-.2Z"/>
    <path class="st1" d="M337.86,51.31h-4.84c.03.6.23,1.07.6,1.41.37.35.83.52,1.37.52.43,0,.8-.1,1.09-.3.29-.2.5-.47.61-.81h1.08c-.16.58-.49,1.06-.97,1.42-.49.36-1.09.55-1.81.55-.58,0-1.09-.13-1.54-.39s-.81-.62-1.07-1.1c-.26-.48-.39-1.03-.39-1.65s.13-1.17.38-1.65c.25-.47.6-.83,1.06-1.09s.97-.38,1.56-.38,1.08.12,1.52.38c.44.25.78.59,1.02,1.03s.37.92.37,1.47c0,.18-.01.38-.03.6ZM336.6,49.56c-.17-.28-.4-.5-.69-.65-.29-.15-.61-.22-.97-.22-.52,0-.95.17-1.31.5-.36.34-.56.8-.6,1.39h3.83c0-.4-.08-.74-.25-1.02Z"/>
    <path class="st1" d="M342.54,46.76c-.13-.13-.2-.29-.2-.49s.07-.35.2-.49c.13-.13.29-.2.49-.2s.34.07.47.2c.13.13.19.29.19.49s-.06.35-.19.49c-.13.13-.29.2-.47.2s-.35-.07-.49-.2ZM343.52,47.94v6.06h-1.01v-6.06h1.01Z"/>
    <path class="st1" d="M349.97,48.5c.46.45.69,1.09.69,1.93v3.57h-.99v-3.43c0-.6-.15-1.07-.45-1.39-.3-.32-.71-.48-1.24-.48s-.95.17-1.27.5c-.31.33-.47.81-.47,1.45v3.35h-1.01v-6.06h1.01v.86c.2-.31.47-.55.81-.72.34-.17.72-.25,1.13-.25.74,0,1.33.22,1.79.67Z"/>
    <path class="st1" d="M353.19,53.86c-.37-.16-.65-.38-.87-.66-.21-.28-.33-.61-.35-.98h1.04c.03.32.17.57.43.77s.59.3,1,.3c.39,0,.69-.09.91-.26.22-.17.33-.4.33-.68s-.12-.46-.35-.59c-.24-.13-.6-.26-1.09-.38-.45-.12-.81-.24-1.09-.35-.28-.12-.52-.29-.72-.52-.2-.23-.3-.54-.3-.92,0-.32.09-.61.27-.87.18-.26.43-.47.77-.63.33-.15.72-.23,1.17-.23.67,0,1.21.17,1.62.51.41.34.63.8.66,1.39h-1.01c-.02-.33-.15-.6-.38-.8-.23-.2-.54-.3-.93-.3-.37,0-.66.08-.87.24s-.31.38-.31.64c0,.21.07.37.2.5.13.13.29.23.49.3.19.07.46.16.82.26.44.12.8.23,1.06.35.26.12.49.28.68.5.19.22.29.52.29.88,0,.34-.09.64-.27.91s-.44.48-.77.63c-.33.16-.72.23-1.16.23s-.88-.08-1.24-.24Z"/>
    <path class="st1" d="M359.3,48.77v3.57c0,.29.06.5.19.62.12.12.34.18.65.18h.74v.85h-.91c-.56,0-.98-.13-1.26-.39s-.42-.68-.42-1.27v-3.57h-.78v-.83h.78v-1.53h1.01v1.53h1.58v.83h-1.58Z"/>
    <path class="st1" d="M362.13,46.76c-.13-.13-.2-.29-.2-.49s.07-.35.2-.49c.13-.13.29-.2.49-.2s.34.07.47.2c.13.13.19.29.19.49s-.06.35-.19.49c-.13.13-.29.2-.47.2s-.35-.07-.49-.2ZM363.1,47.94v6.06h-1.01v-6.06h1.01Z"/>
    <path class="st1" d="M368.18,49.29c.41,0,.7-.12.88-.35.18-.23.27-.59.27-1.09v-1.26h-3.32v4.41c0,.63.15,1.11.45,1.46.3.35.73.53,1.29.53.52,0,.93-.15,1.22-.46s.44-.73.44-1.28h.91c0,.8-.23,1.42-.68,1.86-.45.45-1.07.67-1.86.67-.88,0-1.55-.25-2-.75-.45-.5-.67-1.19-.67-2.06v-4.39h-1.44v-.77h7.79v.77h-1.24v1.28c0,.76-.14,1.32-.43,1.69-.28.37-.75.55-1.41.55-.19,0-.34,0-.44-.02v-.82c.05,0,.13.01.23.01Z"/>
    <path class="st1" d="M288.65,62.03v3.57c0,.29.06.5.19.62.12.12.34.18.65.18h.74v.85h-.91c-.56,0-.98-.13-1.26-.39-.28-.26-.42-.68-.42-1.27v-3.57h-.79v-.83h.79v-1.53h1.01v1.53h1.58v.83h-1.58Z"/>
    <path class="st1" d="M296.82,61.21v6.06h-1.01v-.9c-.19.31-.46.55-.8.72-.34.17-.72.26-1.13.26-.47,0-.89-.1-1.27-.29s-.67-.49-.89-.88c-.22-.39-.33-.87-.33-1.43v-3.55h.99v3.42c0,.6.15,1.06.45,1.38.3.32.71.48,1.24.48s.96-.17,1.27-.5.46-.81.46-1.45v-3.33h1.01Z"/>
    <path class="st1" d="M298.52,62.58c.25-.47.6-.83,1.04-1.09.45-.26.96-.39,1.53-.39.75,0,1.36.18,1.84.54.48.36.8.86.96,1.5h-1.08c-.1-.37-.3-.66-.6-.87-.3-.21-.67-.32-1.11-.32-.57,0-1.04.2-1.39.59-.35.39-.53.95-.53,1.67s.18,1.29.53,1.69c.35.4.82.6,1.39.6.44,0,.81-.1,1.11-.31.29-.21.5-.5.61-.88h1.08c-.16.62-.49,1.11-.97,1.49s-1.09.56-1.82.56c-.57,0-1.08-.13-1.53-.39-.45-.26-.79-.62-1.04-1.09-.25-.47-.38-1.02-.38-1.66s.13-1.17.38-1.64Z"/>
    <path class="st1" d="M305.26,60.02c-.13-.13-.2-.29-.2-.49s.07-.35.2-.49c.13-.13.29-.2.49-.2s.34.07.47.2c.13.13.19.29.19.49s-.06.35-.19.49c-.13.13-.29.2-.47.2s-.35-.07-.49-.2ZM306.23,61.21v6.06h-1.01v-6.06h1.01Z"/>
    <path class="st1" d="M309.05,66.98c-.46-.26-.82-.62-1.08-1.1-.26-.48-.39-1.03-.39-1.65s.13-1.17.4-1.64c.27-.48.64-.84,1.1-1.09.46-.25.98-.38,1.56-.38s1.09.13,1.56.38.83.62,1.1,1.09c.27.47.4,1.02.4,1.65s-.14,1.18-.41,1.65c-.28.47-.65.84-1.12,1.1s-1,.39-1.57.39-1.08-.13-1.54-.39ZM311.61,66.25c.32-.17.57-.43.77-.78.2-.35.29-.76.29-1.25s-.1-.9-.29-1.24c-.19-.34-.44-.6-.75-.77-.31-.17-.65-.25-1.01-.25s-.71.08-1.01.25c-.31.17-.55.43-.73.77-.18.34-.28.76-.28,1.24s.09.91.27,1.25.42.6.72.77c.3.17.63.26,1,.26s.7-.09,1.02-.26Z"/>
    <path class="st1" d="M319.76,61.76c.46.45.69,1.09.69,1.93v3.57h-.99v-3.43c0-.6-.15-1.07-.45-1.39-.3-.32-.71-.48-1.24-.48s-.95.17-1.27.5c-.31.33-.47.81-.47,1.45v3.35h-1.01v-6.06h1.01v.86c.2-.31.47-.55.81-.72.34-.17.72-.25,1.13-.25.74,0,1.33.22,1.79.67Z"/>
    <path class="st1" d="M322.1,62.58c.25-.47.59-.83,1.03-1.09s.93-.39,1.46-.39.99.11,1.38.34c.39.23.68.52.87.86v-1.11h1.02v6.06h-1.02v-1.13c-.2.35-.5.65-.89.88-.39.23-.85.35-1.38.35s-1.02-.13-1.46-.4c-.43-.26-.78-.64-1.03-1.12-.25-.48-.38-1.02-.38-1.64s.12-1.16.38-1.63ZM326.57,63.03c-.18-.34-.43-.6-.75-.78-.31-.18-.66-.27-1.03-.27s-.72.09-1.03.26-.56.44-.74.77c-.18.34-.28.74-.28,1.19s.09.87.28,1.21c.18.34.43.6.74.79s.65.27,1.03.27.72-.09,1.03-.27c.31-.18.56-.44.75-.79.18-.34.28-.74.28-1.2s-.09-.85-.28-1.19Z"/>
    <path class="st1" d="M330.57,59.08v8.18h-1.01v-8.18h1.01Z"/>
  </g>
  <circle class="st3" cx="61.73" cy="53.04" r="49.1" transform="translate(-8.96 12.71) rotate(-10.96)"/>
  <path class="st0" d="M102.63,86.83l-6.08-5.03c6.67-8.06,10.34-18.27,10.34-28.75,0-24.9-20.25-45.15-45.15-45.15-5.47,0-10.81.97-15.88,2.87l-2.78-7.39c5.96-2.24,12.24-3.38,18.66-3.38,29.25,0,53.04,23.8,53.04,53.04,0,12.31-4.31,24.31-12.15,33.78Z"/>
  <path class="st1" d="M61.73,114.77C27.69,114.77,0,87.08,0,53.04c0-6.87,1.12-13.62,3.33-20.05l7.47,2.56c-1.93,5.61-2.9,11.49-2.9,17.49,0,29.68,24.15,53.83,53.83,53.83,3.08,0,6.16-.26,9.16-.77l1.33,7.78c-3.44.59-6.97.89-10.49.89Z"/>
  <g>
    <path class="st1" d="M29.47,64.13v-1.67l2.13-2.07c5.14-4.89,7.46-7.49,7.49-10.52,0-2.04-.99-3.93-3.99-3.93-1.83,0-3.34.93-4.27,1.7l-.87-1.92c1.39-1.18,3.37-2.04,5.69-2.04,4.33,0,6.16,2.97,6.16,5.85,0,3.71-2.69,6.71-6.93,10.8l-1.61,1.49v.06h9.04v2.26h-12.84Z"/>
    <path class="st1" d="M58.71,53.86c0,6.84-2.54,10.61-6.99,10.61-3.93,0-6.59-3.68-6.65-10.34,0-6.75,2.91-10.46,6.99-10.46s6.65,3.77,6.65,10.18ZM47.79,54.17c0,5.23,1.61,8.2,4.08,8.2,2.79,0,4.12-3.25,4.12-8.39s-1.27-8.2-4.08-8.2c-2.38,0-4.12,2.91-4.12,8.39Z"/>
    <path class="st1" d="M67.13,46.56h-.06l-3.5,1.89-.53-2.07,4.39-2.35h2.32v20.11h-2.63v-17.58Z"/>
    <path class="st1" d="M76.84,59.03c0-2.54,1.52-4.33,3.99-5.38l-.03-.09c-2.23-1.05-3.19-2.79-3.19-4.52,0-3.19,2.69-5.35,6.22-5.35,3.9,0,5.85,2.44,5.85,4.95,0,1.7-.84,3.53-3.31,4.7v.09c2.51.99,4.05,2.75,4.05,5.2,0,3.5-3,5.85-6.84,5.85-4.21,0-6.75-2.51-6.75-5.45ZM87.67,58.9c0-2.44-1.7-3.62-4.42-4.39-2.35.68-3.62,2.23-3.62,4.15-.09,2.04,1.45,3.84,4.02,3.84s4.02-1.52,4.02-3.59ZM80.18,48.85c0,2.01,1.52,3.09,3.84,3.71,1.73-.59,3.06-1.83,3.06-3.65,0-1.61-.96-3.28-3.4-3.28-2.26,0-3.5,1.49-3.5,3.22Z"/>
  </g>
  <g>
    <path id="Trazado_14823" class="st2" d="M232.5,59.17c-1.03,0-2-.55-2.41-1.51l-7.3-14.6-7.3,14.6c-.69,1.31-2.34,1.86-3.65,1.17-1.31-.69-1.86-2.27-1.17-3.58l9.71-19.42c.69-1.38,2.27-1.86,3.65-1.24.55.28.96.69,1.24,1.24l9.71,19.42c.69,1.38.14,2.96-1.24,3.65-.41.14-.83.28-1.24.28"/>
    <g>
      <g>
        <path id="Trazado_14796" class="st1" d="M133.27,71.09h-1.79c-.28,0-.55-.28-.55-.55v-4.89c0-.28.21-.55.55-.55h1.65c1.17,0,1.86.62,1.86,1.51,0,.62-.41,1.1-.96,1.31.76.07,1.31.69,1.31,1.45,0,.96-.69,1.72-2.07,1.72M133.13,66.06h-1.1v1.45h1.1c.41,0,.76-.28.76-.62v-.07c0-.41-.28-.69-.69-.76h-.07M132.03,70.12h1.24c.62,0,.96-.34.96-.83s-.41-.83-.9-.83h-1.31v1.65Z"/>
        <path id="Trazado_14797" class="st1" d="M137.75,71.22c-1.1.07-2.13-.76-2.2-1.93-.07-1.17.76-2.13,1.93-2.2,1.1-.07,2.13.76,2.2,1.93v.14c.07,1.03-.76,2-1.79,2.07h-.14M137.75,67.99c-.55,0-.9.55-.9,1.17s.28,1.17.9,1.17c.55,0,.9-.55.9-1.17s-.28-1.17-.9-1.17"/>
        <path id="Trazado_14798" class="st1" d="M141.05,71.16c-.28,0-.55-.21-.55-.55h0v-5.1c0-.28.21-.55.55-.55s.55.21.55.55v5.1c0,.34-.28.55-.55.55h0"/>
        <path id="Trazado_14799" class="st1" d="M143.94,71.22c-.48,0-.9-.14-1.31-.41-.14-.14-.21-.28-.21-.41,0-.21.14-.34.34-.34h0c.14,0,.28.07.34.14.21.21.48.28.76.28.34,0,.48-.14.48-.34s-.21-.34-.62-.48c-1.03-.28-1.45-.69-1.45-1.38,0-.76.76-1.17,1.51-1.17.34,0,.69.07.96.21s.48.34.48.55-.14.34-.34.41h-.07c-.14,0-.28-.07-.34-.14-.21-.14-.48-.21-.76-.21s-.48.07-.48.28.14.34.69.48c.96.28,1.38.55,1.38,1.31.21.69-.34,1.24-1.38,1.24"/>
        <path id="Trazado_14800" class="st1" d="M149.11,71.16c-.28,0-.48-.21-.55-.48v-.07h0c-.21.34-.62.62-1.1.55-.69.07-1.24-.41-1.31-1.03v-.14c0-.76.62-1.17,1.38-1.17.34,0,.76.14.96.34v-.34c.07-.41-.21-.76-.62-.83h-.21c-.21,0-.34,0-.55.07-.14.07-.28.07-.48.14-.21,0-.41-.14-.41-.41h0c0-.28.28-.41.55-.55.34-.07.62-.14.96-.14,1.17,0,1.79.62,1.79,1.72v1.86c.14.21-.07.48-.41.48h0M148.56,69.99c0-.28-.34-.48-.69-.48s-.69.21-.69.48.28.48.69.48c.34,0,.69-.21.69-.48"/>
        <path id="Trazado_14801" class="st1" d="M154,70.6c0,.28-.28.55-.55.55s-.48-.21-.55-.55v-5.03c0-.28.21-.55.55-.55.28,0,.55.21.55.55v5.03Z"/>
        <path id="Trazado_14802" class="st1" d="M158.27,71.16c-.28,0-.55-.21-.55-.55h0v-1.72c0-.48-.21-.9-.69-.9-.55,0-.76.41-.76.96v1.58c0,.28-.21.55-.55.55-.28,0-.55-.21-.55-.55v-2.96c0-.28.21-.55.55-.55.28,0,.55.21.55.55v.07c.21-.41.62-.62,1.1-.62.96,0,1.45.76,1.45,1.79v1.72c0,.41-.28.62-.55.62h0"/>
        <path id="Trazado_14803" class="st1" d="M161.09,71.22c-.48,0-.9-.14-1.31-.41-.14-.14-.21-.28-.21-.41,0-.21.14-.34.34-.34h0c.14,0,.28.07.34.14.21.21.48.28.76.28.34,0,.48-.14.48-.34s-.21-.34-.62-.48c-1.03-.28-1.45-.69-1.45-1.38,0-.76.76-1.17,1.51-1.17.34,0,.69.07.96.21s.48.34.48.55-.14.41-.34.41h-.07c-.14,0-.28-.07-.34-.14-.21-.14-.48-.21-.76-.21s-.48.07-.48.28.14.34.69.48c.96.28,1.38.55,1.38,1.31.21.69-.28,1.24-1.38,1.24"/>
        <path id="Trazado_14804" class="st1" d="M164.39,71.16c-.28,0-.55-.21-.55-.48h0v-2.55h-.41c-.28,0-.48-.21-.48-.41s.21-.48.41-.48h.48v-1.1c0-.28.21-.55.55-.55.28,0,.55.21.55.55v1.1h.55c.28,0,.41.21.41.41s-.21.41-.41.41h-.55v2.55c-.07.34-.28.55-.55.55h0"/>
        <path id="Trazado_14805" class="st1" d="M166.94,66.61c-.34,0-.62-.28-.62-.62s.28-.62.62-.62.62.28.62.62c-.07.34-.34.62-.62.62h0M166.94,71.16c-.28,0-.55-.21-.55-.55h0v-2.96c0-.28.28-.55.55-.48.28,0,.48.21.48.48v2.96c0,.34-.21.55-.48.55h0"/>
        <path id="Trazado_14806" class="st1" d="M169.42,71.16c-.28,0-.55-.21-.55-.48h0v-2.55h-.41c-.28,0-.48-.21-.48-.41s.21-.48.41-.48h.48v-1.1c0-.28.21-.55.55-.55.28,0,.55.21.55.55v1.1h.55c.28,0,.41.21.41.41,0,.28-.21.41-.41.41h-.55v2.55c0,.34-.28.55-.55.55h0"/>
        <path id="Trazado_14807" class="st1" d="M171.9,67.16c.28,0,.55.21.55.55h0v1.72c0,.48.21.83.69.83.55,0,.76-.41.76-.96v-1.58c0-.28.21-.55.48-.55s.55.21.55.48v3.03c0,.28-.21.55-.48.55s-.55-.21-.55-.48v-.14c-.21.41-.62.62-1.1.62-.96,0-1.45-.76-1.45-1.79v-1.72c0-.34.28-.55.55-.55h0"/>
        <path id="Trazado_14808" class="st1" d="M179.06,67.78c.07.14.14.28.14.41,0,.21-.21.41-.41.41h0c-.14,0-.28-.07-.34-.21-.14-.28-.41-.41-.69-.41-.62,0-.9.55-.9,1.17s.28,1.17.9,1.17c.28,0,.55-.14.69-.41.07-.14.21-.21.34-.21.21,0,.41.14.41.41h0c0,.14-.07.28-.14.41-.34.41-.83.69-1.38.69-1.1-.07-2-1.03-1.93-2.2.07-1.03.9-1.86,1.93-1.93.62,0,1.1.21,1.38.69"/>
        <path id="Trazado_14809" class="st1" d="M180.51,66.61c-.34,0-.62-.28-.62-.62s.28-.62.62-.62.62.28.62.62c0,.34-.28.62-.62.62q.07,0,0,0M180.51,71.16c-.28,0-.55-.21-.55-.55h0v-2.96c0-.28.21-.55.55-.55.28,0,.55.21.55.55v2.96c0,.34-.21.55-.55.55q.07,0,0,0"/>
        <path id="Trazado_14810" class="st1" d="M183.81,71.22c-1.1.07-2.13-.76-2.2-1.93-.07-1.1.76-2.13,1.93-2.2,1.1-.07,2.13.76,2.2,1.93v.14c.07,1.03-.76,2-1.79,2.07h-.14M183.81,67.99c-.55,0-.9.55-.9,1.17s.28,1.17.9,1.17c.55,0,.9-.55.9-1.17s-.28-1.17-.9-1.17"/>
        <path id="Trazado_14811" class="st1" d="M189.67,71.16c-.28,0-.55-.21-.55-.55h0v-1.72c0-.48-.21-.9-.69-.9-.55,0-.76.41-.76.96v1.58c0,.28-.21.55-.55.55-.28,0-.55-.21-.55-.55h0v-2.96c0-.28.21-.55.55-.55.28,0,.55.21.55.55v.07c.21-.41.62-.62,1.1-.62.96,0,1.45.76,1.45,1.79v1.72c0,.41-.28.62-.55.62h0"/>
        <path id="Trazado_14812" class="st1" d="M194,71.16c-.28,0-.48-.21-.55-.48v-.07h0c-.21.34-.62.62-1.1.55-.69.07-1.24-.41-1.31-1.03v-.14c0-.76.62-1.17,1.38-1.17.34,0,.69.14.96.34v-.34c.07-.41-.21-.76-.62-.83h-.21c-.21,0-.34,0-.55.07-.14.07-.28.07-.48.14-.21,0-.41-.14-.41-.41h0c0-.28.28-.41.55-.55.34-.07.62-.14.96-.14,1.17,0,1.79.62,1.79,1.72v1.86c0,.28-.14.48-.41.55v-.07M193.45,69.99c0-.28-.34-.48-.69-.48s-.69.21-.69.48.28.48.69.48c.34,0,.69-.21.69-.48"/>
        <path id="Trazado_14813" class="st1" d="M201.23,67.09c.41,0,.83.21,1.1.62v-2.13c0-.28.21-.55.55-.55.28,0,.55.21.55.55v5.03c0,.28-.21.55-.48.55h0c-.28,0-.48-.21-.48-.48h0v-.14c-.21.41-.62.69-1.1.69-1.1,0-1.72-.96-1.72-2.07s.48-2.07,1.58-2.07M201.44,70.33c.55,0,.83-.55.83-1.17s-.28-1.17-.83-1.17-.9.48-.9,1.17c0,.69.34,1.17.9,1.17"/>
        <path id="Trazado_14814" class="st1" d="M207.78,69.16c0,.21-.14.34-.34.34h-2.2c0,.48.34.83.83.9h.07c.28,0,.55-.07.76-.28.07-.14.28-.21.41-.21.21,0,.41.14.41.34h0c0,.21-.14.34-.28.48-.34.28-.83.41-1.31.41-1.03,0-1.93-.76-1.93-1.79v-.21c-.07-1.03.69-2,1.72-2.07h.14c1.1,0,1.72.9,1.72,2.07M206.05,67.92c-.41,0-.69.34-.76.83h1.51c-.07-.48-.34-.83-.76-.83"/>
        <path id="Trazado_14815" class="st1" d="M212.25,69.43l1.38-3.99c.07-.21.28-.41.48-.34.28,0,.48.21.48.41v.07c0,.07,0,.14-.07.21l-1.86,5.1c-.07.21-.28.34-.48.34s-.41-.14-.48-.34l-1.86-5.1c0-.07,0-.14-.07-.21,0-.28.21-.48.48-.48.21,0,.41.14.48.41l1.51,3.92Z"/>
        <path id="Trazado_14816" class="st1" d="M217.48,71.16c-.28,0-.48-.21-.55-.48v-.07h0c-.21.34-.62.62-1.03.55-.69.07-1.24-.41-1.31-1.03v-.14c0-.76.62-1.17,1.38-1.17.34,0,.69.14.96.34v-.34c.07-.41-.21-.76-.62-.83h-.21c-.21,0-.34,0-.55.07-.14.07-.28.07-.48.14-.21,0-.41-.14-.41-.41h0c0-.28.28-.41.55-.55.34-.07.62-.14.96-.14,1.17,0,1.79.62,1.79,1.72v1.86c0,.28-.14.48-.41.55q0-.07-.07-.07M216.93,69.99c0-.28-.34-.48-.69-.48s-.62.21-.62.48.28.48.62.48c.41,0,.69-.21.69-.48"/>
        <path id="Trazado_14817" class="st1" d="M219.62,71.16c-.28,0-.55-.21-.55-.55h0v-5.1c0-.28.21-.55.55-.55.28,0,.55.21.55.55v5.1c-.07.34-.28.55-.55.55h0"/>
        <path id="Trazado_14818" class="st1" d="M196.07,71.16c-.28,0-.55-.21-.55-.55h0v-5.1c0-.28.21-.55.55-.55s.55.21.55.55h0v5.1c0,.34-.21.55-.55.55h0"/>
        <path id="Trazado_14819" class="st1" d="M222.86,71.22c-1.1.07-2.13-.76-2.2-1.93-.07-1.1.76-2.13,1.93-2.2,1.1-.07,2.13.76,2.2,1.93v.14c.07,1.03-.76,2-1.79,2.07h-.14M222.86,67.99c-.55,0-.9.55-.9,1.17s.28,1.17.9,1.17.9-.55.9-1.17-.28-1.17-.9-1.17"/>
        <path id="Trazado_14820" class="st1" d="M227.54,68.06c-.55,0-.83.41-.83,1.1v1.45c0,.28-.21.55-.55.55s-.55-.21-.55-.55h0v-2.96c0-.28.21-.55.55-.55.28,0,.55.21.55.55v.14c.07-.41.41-.69.83-.69.28,0,.48.14.48.41v.07c0,.28-.14.48-.41.48h-.07"/>
        <path id="Trazado_14821" class="st1" d="M231.81,69.16c0,.21-.14.34-.34.34h-2.2c0,.48.34.83.83.9h.07c.28,0,.55-.07.76-.28.07-.14.28-.21.41-.21.21,0,.41.14.41.34h0c0,.21-.14.34-.28.48-.34.28-.83.41-1.31.41-1.03,0-1.93-.76-1.93-1.79v-.21c-.07-1.03.69-2,1.72-2.07h.14c1.1,0,1.72.9,1.72,2.07M230.09,67.92c-.41,0-.69.34-.76.83h1.51c-.07-.48-.34-.83-.76-.83"/>
        <path id="Trazado_14822" class="st1" d="M233.87,71.22c-.48,0-.9-.14-1.31-.41-.14-.14-.21-.28-.21-.41,0-.21.14-.34.34-.34h0c.14,0,.28.07.34.14.21.21.48.28.83.28s.48-.14.48-.34-.21-.34-.62-.48c-1.03-.28-1.45-.69-1.45-1.38,0-.76.76-1.17,1.51-1.17.34,0,.69.07.96.21s.48.34.48.55-.14.34-.34.41h-.07c-.14,0-.28-.07-.34-.14-.21-.14-.48-.21-.76-.21s-.48.07-.48.28.14.34.69.48c.96.28,1.38.55,1.38,1.31.14.69-.41,1.24-1.45,1.24"/>
      </g>
      <g>
        <path id="Trazado_14824" class="st1" d="M192.49,59.17c-1.03,0-2-.55-2.41-1.51l-9.71-19.42c-.69-1.38-.14-2.96,1.24-3.65,1.38-.69,2.96-.14,3.65,1.24h0l7.3,14.6,7.3-14.6c.69-1.31,2.34-1.86,3.65-1.17s1.86,2.27,1.17,3.58l-9.71,19.42c-.55.9-1.45,1.51-2.48,1.51"/>
        <path id="Trazado_14825" class="st1" d="M166.46,59.17c-1.51,0-2.75-1.24-2.75-2.75h0v-19.42c0-1.51,1.17-2.75,2.69-2.75s2.75,1.17,2.75,2.69v19.56c0,1.45-1.24,2.69-2.69,2.69h0"/>
        <path id="Trazado_14826" class="st1" d="M142.36,54.22c2.34,0,3.79-.83,3.79-2.62v-.07c0-1.65-1.24-2.62-3.99-2.62h-6.2v5.37h6.4v-.07ZM140.91,44.37c2.34,0,3.86-.76,3.86-2.55v-.07c0-1.58-1.24-2.48-3.51-2.48h-5.3v5.16l4.96-.07ZM130.79,37.21c0-1.45,1.17-2.69,2.62-2.69h8.68c2.75,0,4.96.76,6.33,2.13,1.1,1.1,1.72,2.62,1.65,4.13v.07c.07,2.2-1.17,4.27-3.17,5.23,2.82,1.1,4.54,2.69,4.54,5.99v.07c0,4.48-3.58,6.68-9.09,6.68h-8.88c-1.45,0-2.69-1.17-2.69-2.62v-19Z"/>
      </g>
    </g>
  </g>
</svg>