<?xml version="1.0" encoding="UTF-8"?>
<svg id="Capa_1" data-name="Capa 1" xmlns="http://www.w3.org/2000/svg" version="1.1" viewBox="0 0 64.56 25">
  <defs>
    <style>
      .cls-1 {
        fill: #e5342b;
      }

      .cls-1, .cls-2 {
        stroke-width: 0px;
      }

      .cls-2 {
        fill: #fff;
      }
    </style>
  </defs>
  <path class="cls-2" d="M16.08,4.03c1.72,1.43,2.58,3.4,2.58,5.91s-.86,4.48-2.58,5.91c-1.72,1.43-4.07,2.15-7.07,2.15H3.3v7H0V1.88h9.02c2.99,0,5.35.72,7.07,2.15M13.71,13.79c1.1-.89,1.65-2.17,1.65-3.85s-.55-2.96-1.65-3.85c-1.1-.89-2.7-1.34-4.79-1.34H3.3v10.37h5.61c2.09,0,3.69-.45,4.79-1.34"/>
  <rect class="cls-2" x="29.49" y="7.5" width="3.17" height="17.5"/>
  <path class="cls-2" d="M61.99,4.03c1.72,1.43,2.58,3.4,2.58,5.91s-.86,4.48-2.58,5.91c-1.72,1.43-4.07,2.15-7.07,2.15h-5.71v7h-3.3V1.88h9.02c2.99,0,5.35.72,7.07,2.15M59.61,13.79c1.1-.89,1.65-2.17,1.65-3.85s-.55-2.96-1.65-3.85c-1.1-.89-2.7-1.34-4.79-1.34h-5.61v10.37h5.61c2.09,0,3.69-.45,4.79-1.34"/>
  <path class="cls-1" d="M29.54,3.53c-.41-.4-.61-.88-.61-1.45s.2-1.06.61-1.47c.41-.41.92-.61,1.54-.61s1.13.19,1.54.58c.41.39.61.86.61,1.44s-.2,1.1-.61,1.5c-.41.41-.92.61-1.54.61s-1.13-.2-1.54-.59"/>
</svg>