<?xml version="1.0" encoding="UTF-8"?>
<svg id="Capa_1" data-name="Capa 1" xmlns="http://www.w3.org/2000/svg" xmlns:xlink="http://www.w3.org/1999/xlink" version="1.1" viewBox="0 0 1165.8 684.94">
  <defs>
    <style>
      .cls-1 {
        fill: #009ed9;
      }

      .cls-1, .cls-2, .cls-3 {
        stroke-width: 0px;
      }

      .cls-2 {
        fill: #da291c;
      }

      .cls-3 {
        fill: #fff;
      }

      .cls-4 {
        filter: url(#outer-glow-1);
      }
    </style>
    <filter id="outer-glow-1" filterUnits="userSpaceOnUse">
      <feOffset dx="0" dy="0"/>
      <feGaussianBlur result="blur" stdDeviation="11"/>
      <feFlood flood-color="#00ffec" flood-opacity=".4"/>
      <feComposite in2="blur" operator="in"/>
      <feComposite in="SourceGraphic"/>
    </filter>
  </defs>
  <g class="cls-4">
    <path class="cls-1" d="M366.48,368.12c2.12-.71,3.58.03,4.75.62.09.05.18.09.26.13,1.22.61,1.52-.61,4.25-1.52,2.73-.91,7.14.76,7.14-1.36s-7.29-4.4-9.11-3.8c-.5.16-1.15.08-1.86-.11-1.93-.49-4.32-1.73-5.42-.95-1.52,1.06,2.28,3.34,2.28,4.71s-6.09-.26-6.68,1.22c-.3.76,2.13,1.82,4.41,1.06Z"/>
    <path class="cls-1" d="M495.25,449.06c-1.52.08-4.4-.3-8.2-4.4-3.79-4.1-7.52-3.79-10.02-3.11-2.51.68-5.09-1.21-6.76-1.59-1.67-.38-3.27,1.75-4.48,2.2-1.22.45.61-1.82.68-3.26.08-1.44-4.56-3.49-8.05-4.86-3.49-1.37-5.01-.68-5.01,1.52s-1.37-.68-2.43,1.67c-1.06,2.35-3.04.83-1.75.08,1.29-.76,2.5-2.51,2.96-3.95.46-1.44-5.01-2.58-6.91-1.82-1.9.76-.68,3.49-2.2,2.66-1.52-.84-.3-2.89.91-2.81,1.21.08,2.58-2.43,3.42-4.25.84-1.82-1.44-2.13-2.81-3.65-1.35-1.5-1.07-5.88-2.46-6.57-.02-.01-.03-.02-.05-.03-1.44-.61-3.65-4.1-5.85-4.56-.96-.2-1.93-.6-2.88-.97-1.22-.48-2.4-.91-3.42-.78-1.82.23-3.72,1.06-4.4.07-.68-.99-1.67-.83-2.58-.07-.1.09-.22.11-.34.1-.94-.09-2.35-2.83-3.15-2.83-.91,0-1.97-.76-1.75-2.05.23-1.29-2.13-1.44-3.42-2.88-.3-.35-.75-.6-1.26-.79-1.64-.62-3.98-.56-4.97-.5-1.29.08.84-1.44.91-2.81.08-1.37-3.64-1.6-5.09-1.9-1.44-.3-1.06-1.82.46-1.9,1.52-.08-.83-1.14-2.88-.84-2.05.3-4.94,1.44-6.61,2.35-1.67.91-4.56-2.66-6.45-1.9-1.9.76-4.56.76-4.48-.76.08-1.52-.76-2.81-2.66-2.66-1.9.15-1.44-1.9-2.89-1.9s0,1.75-.99,2.2c-.99.46-4.4,1.29-4.63,2.66-.23,1.37,1.82,3.65,1.14,5.01-.68,1.37-2.96.23-3.64-1.21-.68-1.44,1.97-3.64,1.52-4.48-.32-.58-.72-1.66-.45-2.37.12-.32.36-.57.83-.67,1.52-.3,2.28-1.29.83-2.13-1.44-.83-2.28,1.6-3.87,1.82-1.6.23-1.9,1.21-2.96,1.75-1.06.53-3.04.08-3.11.99-.08.99-.68,0-1.59-.23-.91-.23-3.26,1.82-3.19,2.96.08,1.14.46,2.2-1.21,3.26-1.67,1.06-2.66,3.04-3.42,3.95-.23.28-.48.3-.75.17-.6-.28-1.3-1.41-2.14-2.68-1.21-1.82-3.42-1.67-4.78-2.28-1.37-.61-3.11.23-4.86,1.82-1.75,1.59-3.95.68-5.47-.15-.45-.25-1.08-.84-1.76-1.57-1.24-1.34-2.64-3.15-3.39-4.22-.22-.32-.39-.58-.47-.73-.53-.99.38-2.96.83-4.4.46-1.44-.38-4.93.46-5.85.83-.91.38-1.44.76-3.57.02-.14,0-.23,0-.34.03-1.67-2.24-1.13-3.8-2.69-1.67-1.67-5.31-.91-7.29-.15-1.97.76-4.25-.84-6.38.38-.03.01-.05.02-.07.03-1.19.65-1.55.03-1.38-.81.12-.59.51-1.3,1.07-1.73,1.37-1.06-.68-5.32.91-5.69.29-.07.53-.24.76-.44,0,0,0,0,0,0,0,0,0,0,0,0h0c.98-.92,1.33-2.97,1.52-4.64.23-2.05-.46-2.73.61-3.87,1.06-1.14,2.2-1.22,1.9-2.81-.3-1.6-1.75,0-2.96-.76-1.21-.76-2.28-.23-5.39.23-3.11.45-4.55,1.75-4.4,3.95.15,2.2-1.06,1.22-.99,3.11.08,1.9-2.43,1.97-2.28,3.11.15,1.14-1.97,0-2.58-.38-.61-.38-7.14,1.59-8.05,1.75-.91.15-2.58-1.9-3.87-1.82-1.29.07-1.82-1.9-1.97-3.49-.15-1.59-2.58-3.04-3.64-4.48-1.06-1.44-1.22-4.63-1.29-6.68-.08-2.05-.3-5.54,1.14-9.57.19-.54.28-1.01.31-1.43-.24-.15-.47-.27-.69-.36.22.09.45.21.69.36.16-2.71-2.63-3.17-.99-4.41,1.9-1.44-.08-2.66.84-3.27.91-.61,2.5-1.21,2.5-2.13s.84-.91,2.05-.76c1.22.15,3.49-1.98,3.34-2.81-.15-.84.23-.99,1.67-.68,1.44.3,1.21-1.67,2.13-1.37.91.3,1.67.83,1.75.15.08-.68.99-.53,1.67.38.68.91,2.66,1.14,2.81.08.15-1.06,1.29,0,2.28,1.06.99,1.06,1.44.76,2.89.83,1.44.08,1.44-.3,1.52-1.21.08-.91,1.6,1.97,3.04,2.13,1.44.15.3-.91-.76-1.75-1.06-.84.23-1.22-.68-1.9-.91-.68,1.14-1.6,2.96-1.52,1.82.08,1.75.53,2.43-.53.68-1.06,1.37,0,1.37.91s2.96-.53,4.55-.53,3.04,1.37,3.19,2.28c.15.91,1.21,1.36,2.35.38,1.14-.99,2.13-2.13,3.19-1.06,1.06,1.06,2.12,2.51,3.42,3.8,1.29,1.29-.61,2.89.08,3.87.68.99-.08,2.36,1.44,3.42,1.52,1.06.15,3.26,1.37,3.57,1.22.3,2.2,2.2,2.35,2.96.15.76,2.43,1.75,2.58.46.15-1.29,1.37-2.81,1.52-4.02.15-1.21-.91-5.54-1.9-6.91-.99-1.37.23-1.67-.99-3.26-1.22-1.6-1.98-4.41-1.9-6.68.08-2.28,2.73-6,4.02-7.14,1.29-1.14,2.73-.53,3.04-1.75.3-1.21,1.9-2.73,2.81-2.73s1.9.23,2.05-.76c.15-.99,1.67-2.2,3.64-2.51,1.98-.3.84-1.37.3-2.28-.53-.91.46-1.82.84-1.22.38.61,1.59.68,2.35.15.76-.53,2.51-1.97.84-2.05-1.67-.08-2.05-.76-1.06-1.14.99-.38.15-2.2-1.22-2.35-1.37-.15-.91-.84-.08-1.67.84-.84-1.22-2.2-2.2-2.89-.99-.68.61-1.06,1.37-1.21.76-.15.15-3.65.53-4.48.38-.83,1.67-.83,1.14,0-.53.83-1.29,2.2-.3,3.34.99,1.14,1.29,2.35.91,4.1-.38,1.75.38,1.29,1.52-.99,1.14-2.28,1.29-4.25.53-4.48-.76-.23-.69-2.5.15-1.44.83,1.06,1.14,1.22,2.43-.15,1.29-1.36,2.66-3.72,1.82-4.25-.84-.53.38-1.06,1.9-.99,1.52.08,4.78-.91,5.01-1.37.74-1.48-5.24.68-5.24-.15s3.8-1.67,5.54-1.75c1.75-.08.91-2.43,1.67-1.44.76.99,1.9.83,2.88.23.99-.61.23-2.35-.91-2.66-1.14-.31.84-1.06.46-1.75-.38-.69.76-3.42,2.2-3.72,1.44-.3.76-1.22,1.97-1.22s1.44-1.44,2.5-2.5c1.06-1.06,2.58,1.67,4.25.15.68-.62,1.61-1.31,2.56-1.92,1.37-.87,2.78-1.54,3.59-1.5,1.37.08,3.42-1.75,4.02-2.89.61-1.14,1.44,1.06.23,1.44-1.21.38.99,1.29,3.11,1.22,2.13-.07-.99.76-2.58.68-1.6-.08-2.28.15-4.4,2.28-2.13,2.13-1.59,2.73-.38,3.8,1.22,1.06,2.81.61,4.48-.83,1.67-1.44,1.6-2.89,3.26-2.81,1.67.08,6-1.52,7.9-2.13,1.9-.61.68-.91.68-1.75s3.34-.83,4.56-1.67c1.21-.83-.23-1.52-1.29-1.37-1.06.15-.23-1.52-.08-2.35.15-.84-2.28.38-2.35,1.37-.08.99-1.75,1.37-1.75,1.98,0,1.77-.23.83-1.44,1.44-1.22.61-5.92,0-6.07-1.06-.15-1.06-3.57-1.59-3.72-3.04-.15-1.44-1.82-1.9-.46-3.49,1.37-1.6-.23-2.35-1.52-1.14-1.29,1.22-2.05-.68-.3-1.37,1.75-.68,5.01-1.37,3.34-4.4-1.67-3.04-12.15.91-14.81,2.43-2.66,1.52-6,6.38-7.44,6.38s2.51-2.58,3.11-3.57c.61-.99-.15-1.98.68-1.6.84.38,3.19-3.26,4.78-4.48,1.59-1.21,3.34-.08,3.57-1.06.23-.99.99-1.67,2.51-3.04,1.52-1.37,19.66-1.14,21.41-1.06,1.75.07,5.16-2.28,6.15-3.8.99-1.52,2.28-1.52,4.71-1.37,2.43.15,3.57-2.05,4.78-2.88,1.22-.84.76-1.21-.3-1.44-1.06-.23-2.05-.91-.99-.99,1.06-.07,1.59-.68,2.05-2.05.46-1.37-.38-.76-1.82-2.66-1.44-1.9-2.2.61-3.64.46-1.44-.15.99-1.97-.23-2.73-1.21-.76-3.49-.23-5.31,1.29-1.82,1.52-1.67-.08-3.26,1.44-1.59,1.52-1.59-.76-.84-1.36.76-.61,1.29.07,1.97-.84.68-.91,1.37,0,3.11-1.14,1.75-1.14,3.26-.61,3.8-1.44.53-.83-.84-1.97-2.51-1.6-1.67.38-2.81-2.28-3.87-1.52-1.06.76-.83-1.14-2.05-.38-1.21.76-1.9-.23-2.43-1.67-.53-1.44-3.8-3.8-5.77-4.4-1.97-.61-.68-1.67.38-.91,1.06.76,2.28-.76,2.73-1.52.46-.76-.76-1.44-1.37-1.52-.61-.08-.61-1.07-.46-1.82.15-.76-2.13-1.75-2.2-2.51-.08-.76-1.37-1.29-1.29-1.97.08-.68-1.29-1.67-1.29-2.58s-2.28-2.73-2.35-3.8c-.08-1.06-1.29-1.82-1.75-3.11-.46-1.29-1.06-.68-1.52,1.14-.45,1.82-2.05,1.75-1.59,2.35.93,1.25.23,1.29-.46,2.05-.68.76.46,1.9-.68,1.9s-.61,2.35-1.22,1.29c-.61-1.06-2.05-.76-2.05.3s-2.43,2.05-3.42,1.98c-.99-.08-.99-2.13-1.82-1.52-.83.61-.68-1.75-1.97-1.67-1.29.07-2.2-.08-1.82-1.22.38-1.14-2.2-1.67-1.37-2.35.83-.68-.23-1.9-.38-3.87-.15-1.97,1.14-2.13,1.14-2.89s-.91-.76-1.82-.15c-.91.61-.91-.83-1.9-.76-.99.08-3.95-.07-4.1-1.44-.15-1.37-1.14-.68-1.59-1.97-.46-1.29-1.67-.31-1.67-1.22s-.53-1.29-1.44-1.37c-.91-.08-1.21-1.06-2.43-1.21-1.21-.15-2.73.83-3.42,1.14-.68.3-2.43-1.06-3.11-.53-.68.53-.84-.38-2.73-.91-1.9-.53-4.4-.68-4.56,0-.15.68-1.67.91-1.44,2.5.23,1.6,1.82,1.29,2.2,2.35.38,1.06-.76.68-.84,1.67-.08.99-1.06.91-1.06,1.59s.68.53,1.06,1.9c.38,1.37,1.14,1.29,1.37,3.11.23,1.82-.61,1.44-1.37,1.67-.76.23.08,1.14-.99,2.35-1.06,1.21-1.97,2.51-1.14,3.26.84.76,3.95,2.05,5.16,4.1,1.21,2.05,1.14,5.24.76,7.52-.38,2.28-2.96,2.81-4.86,4.78-1.9,1.98-3.87,1.67-4.78,1.75-.91.07-.38,1.9.91,3.34,1.29,1.44.23,1.9.91,3.42.68,1.52,0,2.73.99,4.1.99,1.37.38,1.9-.76,2.89-1.14.99.46.45.53,1.75.08,1.29-.53.53-1.52-.15-.99-.68-1.9,1.29-1.9,2.13s-2.35-1.14-2.89-1.06c-.53.08.15-1.29-1.22-2.35-1.37-1.06-2.43-1.29-2.43-2.35s-2.35-1.82-2.35-3.04.3-4.33-.23-5.24c-.53-.91-.08-1.9.38-2.73.46-.84-.53-2.13-1.9-2.13s-3.26-.46-5.16-.3c-1.9.15-2.96-.15-3.57-.68-.61-.53-2.35-1.67-4.71-2.28-2.35-.61-3.42-1.82-3.65-2.5-.23-.69-2.58-1.22-3.11-1.9-.53-.69-2.81-1.06-3.72-.91-.91.15-3.19-1.9-4.55-1.82-1.37.08-4.56,1.44-5.09,1.52-.53.08.08-1.14.45-1.67.38-.53-1.14-2.81-1.52-4.33-.38-1.52-.91-3.19-2.5-2.96-1.59.23-3.34-.61-3.8-.91-.46-.31-.53-4.63-.15-6.45.38-1.82,2.35-4.56,2.35-5.69s1.29-1.67,2.43-1.97c1.14-.3.23-2.51,1.37-2.66,1.14-.15,1.21-.61,1.44-1.52.23-.91,1.59-.3.83-1.06-.76-.76-.15-.99,1.59-.99s4.33-.61,3.95-2.35c-.38-1.75-4.93-.46-4.93-1.9s-5.77-1.52-5.39-2.35c.38-.84,5.77.61,7.74,1.37,1.98.76,2.51.69,4.1.61,1.6-.08.53-2.13.84-2.96.3-.83,3.34,1.29,5.09.83,1.75-.46,3.42-4.02,4.86-5.01,1.44-.99.15-1.9-2.66-1.67-2.81.23-4.4-.83-5.92-1.98-1.52-1.14-1.37-2.05.23-1.9,1.59.15,5.39,3.27,6.83,3.34,1.44.08,3.95-2.81,5.16-3.72,1.22-.91-1.14-1.29-1.97-1.97-.84-.68,1.44-1.14,2.66-1.14s1.75,1.06,2.2,1.59c.46.53,2.58-.38,3.65-.38s-.15-1.75-1.9-2.43c-1.75-.68.08-1.97.61-.91.53,1.06,1.75.83,2.35,2.05.88,1.77,1.44.61,2.96.07,1.52-.53,2.28-1.44,3.11-2.35.84-.91.99.15,1.97-1.29.99-1.44-.46-2.81-1.67-3.72-1.21-.91.08-1.82-1.14-2.43-1.22-.61-1.44-1.75.08-1.44,1.52.3,2.73-.15,3.42-1.22.68-1.06-2.28-1.29-.91-2.05,1.37-.76.23-1.52-1.14-1.52s-2.51-.68-2.58-1.82c-.08-1.14-2.43-.38-3.87-1.06-1.44-.68-4.63-.53-5.39-.45-.76.07-.84,3.19.3,3.26,1.14.08,2.05,1.29,1.06,1.67-.99.38.15,1.59-.61,1.52-.76-.07-1.97-.45-2.2,1.52-.23,1.98-.38,2.73-1.67,3.42-1.29.69-.3-2.2-1.52-2.13-1.21.08-1.37,2.43-.46,2.66.91.23,1.06.99,1.29,2.12.23,1.14-1.67.3-2.43,1.67-.76,1.37-.84-.61-1.9-1.52-1.06-.91-2.35-2.43-2.28-3.57.07-1,.61-1.37,1.44-1.52.84-.15,0-.91-.08-2.28-.08-1.37-1.06-.91-2.28-2.35-1.22-1.44-2.51-1.44-3.19-.76-.68.68-.23,1.97-1.29,2.43-1.06.46-.61,2.58-1.52,2.73-.91.15-.38-3.72-1.14-4.1-.76-.38-.68-1.29.46-1.44,1.14-.15,1.82-1.37.84-1.37s-2.73-1.06-3.42-1.37c-.68-.3-1.82,1.29-2.58.68-.76-.61.08-2.13.15-2.96.08-.83,1.21.38,1.97-.68.76-1.06-2.13-1.06-2.13-2.2s-2.28-1.44-3.04-1.82c-.76-.38.53-2.28.15-3.04-.38-.76-3.19-3.26-4.4-3.04-1.22.23-1.52-1.6-.84-1.52.68.08,1.22-.38,2.51-1.82,1.29-1.44,1.44-1.9.53-2.2-.91-.3-1.37-1.21.23-1.14,1.59.08,4.4,1.14,5.31.46.91-.68,3.8-5.16,4.94-6.76,1.14-1.59-.84-1.75-3.57-1.52-2.73.23-3.34-1.06-5.62-1.21-2.28-.15-6.53.46-7.14,1.14-.61.68,1.14,1.29.91,2.05-.23.76-1.59-.53-2.2-.23-.61.3.23,1.29,0,3.95-.23,2.66.53,2.81,1.29,3.8.76.99.61,2.28.61,3.95s-1.59,1.59-2.13,1.97c-.53.38,1.37.99,1.06,2.05-.3,1.06-1.9-.61-2.81-.3-.91.3-1.67,2.89-.68,3.72.99.84,1.37.68.61,1.67-.76.99-1.59,2.43.23,3.87,1.82,1.44,5.16,1.29,6.91,2.43,1.75,1.14-.76.46-.08,1.75.68,1.29-1.14,1.75-1.06,2.73.07.99.76.46,1.67-1.22.91-1.67,1.6.45,1.52,1.9-.08,1.44-1.37.61-2.35,2.05-.99,1.44-1.9,1.67-3.34,1.37-1.44-.3-.61,2.05,0,3.34.61,1.29-.15,1.75-1.82,1.29-1.67-.45-2.66-1.52-1.82-2.81.84-1.29,1.44-2.81.46-2.66-.99.15-3.27-.07-3.95-1.14-.68-1.06.46-.61,2.51-.38,2.05.23.3-1.37,1.82-1.37s2.66.84,3.95-.3c1.29-1.14-.83-3.34-1.9-2.96-1.06.38-2.73.83-2.73-.23s1.82-.3,2.81-.53c.99-.23-.53-1.59-2.05-1.21-1.52.38-2.58.46-3.8-.84-1.21-1.29-3.42-2.05-3.95.91-.53,2.96-2.66,1.37-3.49,2.35-.84.99.99,1.67,3.04,1.75,2.05.08,3.57,1.97,2.58,1.97s-.53,1.44-1.6.91c-1.06-.53-2.13,0-1.37.91.76.91-.3,1.29-.23,2.2.08.91-1.59.07-3.19-.08-1.6-.15-4.56.38-6.68.84-2.13.46-4.48-.3-5.39-1.29-.91-.99-2.12-.84-3.64-.84s-1.06-1.44-3.04-1.52c-1.97-.08-1.52-1.75-1.75-2.73-.23-.99-4.18-.68-5.62.23-1.44.91-4.25.53-5.01,2.2-.76,1.67.68,1.44,1.52,1.44,1.16,0,1.06-1.37,3.19-1.06,2.13.3,3.64-2.2,4.56-1.29.91.91-3.64,2.66-5.62,2.96-1.97.3-1.52,1.9.38,4.71,1.9,2.81-.84,1.21-.84,2.58s-3.57-.46-2.12-.91c1.44-.46.76-1.9-.38-2.81-1.14-.91-1.9,0-1.74-.99.15-.99-1.22.08-2.28-.76-1.06-.84-1.6-1.52-3.04-.76-1.44.76-3.11.53-6.3,1.06-3.19.53-9.03.38-10.1-.68-1.06-1.06,2.73-2.96,3.87-2.66,1.1.29.46-1.22-1.29-2.58-1.75-1.37-5.62-2.2-5.54-1.37.08.84-2.2.08-5.01-.45-2.81-.53-3.19-1.52-5.01-1.59-1.76-.08-4.56-.61-6.68-2.28-2.13-1.67-7.14-1.22-7.75.3-.61,1.52-2.28,1.44-3.95,1.44s.75-1.88.15-2.2c-.8-.43.08-2.51-1.14-2.66-1.21-.15-2.35,5.01-4.63,4.86-2.28-.15-3.27-5.47-5.16-6.83-1.9-1.37-3.64-1.44-2.05.61,1.59,2.05-1.37.61-1.21,1.97.15,1.37-2.58,2.96-2.51,2.2.08-.76-1.52-1.59-3.34.53-1.82,2.13-3.11,1.82-3.26,1.06-.15-.76-5.54,1.97-5.31,2.89.23.91-.83,1.6-2.28,1.52-1.44-.08-.3-1.29.84-1.9,1.28-.68,4.78-3.49,6.61-3.79,1.82-.3,5.32-1.75,5.39-2.58.08-.84-1.75-.15-2.96-.38-1.21-.23-3.34,1.14-5.39,2.05-2.05.91-4.4.61-3.8,1.82.61,1.21-1.9-.15-2.43.68-.53.83-1.52-.08-.76-.53.76-.46-1.82-1.29-1.82-.76s-.46,1.22-2.28,1.22-3.65,1.29-2.43,2.2c1.21.91,1.97,1.37,1.37,1.97-.61.61-2.5-1.59-5.16-1.37-2.66.23-7.97-2.96-7.97-3.72,0-.62-3.74-.23-6.33-.51-.61-.06-1.15-.17-1.57-.32-2.2-.84-5.47-2.35-7.21-1.97-1.75.38-5.24.83-6.45.23-1.21-.61-2.89-1.14-5.39-.76-2.51.38-4.1-1.37-7.29-2.13-3.19-.76-7.67.23-8.73.61-1.06.38-.84-1.14-2.2-.99-1.37.15-.3-.61-1.06-1.75-.76-1.14-4.56-.08-5.92.08-1.37.15-1.75-.68-1.67-1.37.08-.68-1.22-.46-1.75.45-.53.91-2.05,1.06-2.66.46-.61-.61,1.29-.84,1.37-1.52.08-.68-1.97-1.06-2.73-1.29-.76-.23-1.97.76-3.57,2.2-1.59,1.44-3.95,1.29-5.39,1.14-1.44-.15-3.27.15-3.19.99.08.84,1.82.76.76,1.82-1.06,1.06-1.44-1.44-2.51-.3-1.06,1.14-4.25,1.06-5.01.91-.76-.15-3.27,2.58-4.02,3.34-.76.76.61,1.44-1.44,3.65-2.05,2.2-7.52,1.75-8.66,1.75s-.3,1.29-.91,2.13c-.61.83.68,1.59,3.8,2.43,3.11.83,5.24,4.93,5.62,5.92.38.99,4.25-.08,5.77.15,1.52.23-.15,2.35,1.14,2.96,1.29.61,3.26-.31,3.64.76.38,1.06-2.58,0-4.1,1.14-1.52,1.14-2.28,1.67-2.89.83-.61-.83-3.11-.3-4.4-.15-1.29.15-.08-1.6,0-2.35.08-.76-1.75-1.29-4.25.15-2.51,1.44-1.6.91-1.9,2.05-.3,1.14-1.37-.68-2.96.3-1.6.99-4.18,1.67-4.63,2.66-.46.99,3.42,1.67,4.93,1.97,1.52.3-1.82,1.29-.61,1.67,1.21.38.68,1.52,2.58,2.51,1.9.99,6.15,0,7.29,0s2.2,1.37,3.11.38c.91-.99,4.33-3.72,6.07-2.13,1.75,1.59-1.9,1.37-.99,2.35.91.99,2.05,3.34.38,4.56-1.67,1.21-3.26.38-4.18.3-.91-.07-.38,1.67-1.82,2.81-1.44,1.14-2.51-1.21-4.33-1.21s-1.44,2.35-1.37,3.49c.08,1.14-2.73-.23-3.42,2.51-.68,2.73-3.57.38-1.67,3.04,1.9,2.66,1.6.99,3.11,2.05,1.52,1.06-1.67,2.96-.15,3.27,1.52.3,3.19,3.04,4.25,4.02,1.06.99,2.43-.53,4.02-.61,1.6-.08.83-2.28,1.75-1.44.91.83,2.2,3.26,1.37,3.87-.83.61-.15,2.5-.3,3.42-.15.91,3.49.61,3.72-.46.23-1.06,3.11-1.37,4.71.38,1.59,1.75,2.13,2.05,2.13.69s1.37-2.89,1.44-1.75c.08,1.14,1.37,1.44,3.72.38,2.36-1.06,1.29.08.08,1.6-1.68,2.1,0,5.16-1.22,5.47-1.21.3-2.2,3.42-4.18,3.65-1.97.23-5.31,3.95-5.77,4.56-.46.61-4.71-1.22-5.32.53-.61,1.75-3.18,3.05-2.51,3.72.46.46,3.95-1.29,4.1-2.2.15-.91.61-.76,1.21-.07.61.68,2.13-.3,2.81-.91.68-.61,1.82-.38,2.51-.3.68.08.99-.84,3.04-1.22,2.05-.38,1.6-.99,2.05-2.05.46-1.06,5.32-3.34,6.23-3.57.91-.23.38-1.75,1.37-1.82.99-.07,2.51-1.29,3.8-2.35,1.29-1.06,1.59-.61,2.58-.99.99-.38.23-2.35,1.21-2.51.99-.15,1.75-.91,1.75-1.75s-2.51-.84-2.73-1.37c-.23-.53,1.97-2.51,2.81-2.43.84.08,2.2-.84,2.28-2.05.08-1.21,1.29-1.44,2.28-2.5.99-1.06.76-1.97,1.75-2.05.99-.08,1.9-1.44,2.96-2.05,1.06-.61,0,.76,2.05.84,2.05.07,1.59,1.97.08,1.29-1.52-.69-2.2-.61-3.57.68-1.37,1.29-.3,1.67-1.37,3.12-1.06,1.44-1.14,2.35.23,2.5,1.37.15.08,1.14-1.21,1.52-1.29.38-.38,1.14,1.37,1.14s4.33-2.51,6.76-3.72c2.43-1.21,4.25,0,4.94-.23.68-.23-.76-1.37.08-1.74.83-.38-.99-.61-1.52-2.05-.53-1.44.83-.53,1.14-1.67.3-1.14,1.14-.68,1.9-.15.76.53,1.82-.53,2.5.91.68,1.44,1.44-.38,2.66.61,1.22.99-.23.84-1.52,1.14-1.29.3-.61,2.05.38,1.22.99-.84,1.82-1.37,2.74-.53.91.83,1.29.45,2.05-.31.76-.76.76.08.76.68s1.59.83,3.87,1.21c2.28.38,6.38-.15,7.44-.23,1.06-.07.68,1.59,3.04,2.05,2.35.46,2.96-2.35,4.18-1.37,1.22.99,0,1.37-.68,2.12-.68.76.76.83,1.67,1.22.91.38,3.04.99,4.02,1.97.99.99,1.6,2.05,4.02,3.26,2.43,1.22.08-3.04,1.98-1.67,1.9,1.37,1.21.08,2.73,1.44,1.52,1.37.99-.61.3-2.88-.68-2.28.68-.76,1.37.3.68,1.06.68,3.11.23,4.48-.46,1.37-2.73.23-2.51-.53.23-.76-2.28-.46-2.35.61-.08,1.06,1.59,3.11,2.81,3.34,1.21.23.3,2.13,1.06,2.35,1.04.31.99,2.28,1.59,1.97.61-.3.38-2.66-.3-3.72-.68-1.06-.38-2.59.53-2.28.91.3,0,1.9.46,2.43.46.53.99-.53,2.05-1.14,1.06-.61-.45-2.36-.07-3.27.38-.91,1.59.76,2.05,2.35.45,1.6-1.14,1.52-1.14,2.36s-1.44.46-1.9.91c-.46.46-.23,3.49.38,3.57.61.07.99-2.51,1.37-1.22.38,1.29,1.82-1.67,2.2-.46.38,1.22,2.2,2.58,2.89,2.28.68-.3-.3-1.6-1.37-1.67-1.06-.08-.91-1.82.08-1.9.99-.08,2.73,2.51,2.66,3.42-.07.91-.91.83-1.75,1.75-.84.91-1.97-1.52-2.96-1.44-.99.07,0,1.59.46,2.66.46,1.06-1.22,2.51.07,3.34,1.29.83.91-.53,1.14-1.14.23-.61,1.22.15,1.9.68.64.49.76-1.22.76-1.9s1.14-.3,1.75.61c.61.91.68-.99,1.59-.84.91.15.3,1.6.3,2.43s1.59-.68,1.44.23c-.02.14-.02.26,0,.38.07.67.68,1.1,1.45,1.74.91.76-1.67.76-.91,1.44.76.68-.15,1.75.61,2.58.76.83,2.13.53,2.96-.15.83-.68,1.44.84.76,1.97-.68,1.14.76,1.97,1.44,1.14.68-.84,2.13,1.37,2.81,1.75.68.38,1.37,1.52.23,1.52s-.99,1.97-.15,2.05c.84.08.76,1.14.76,1.82s2.66,1.67,3.65,1.37c.99-.3,1.9.61,2.35,1.44.46.84,2.28,1.44,2.96.91.68-.53,1.14.99,1.29,2.05.15,1.06,1.67.46,2.58.38.91-.08,1.44,1.21,2.05.99,1.34-.5,1.74,1.83,2.63,3.2.11.16.21.31.34.44,1.14,1.22.23,2.13.61,3.57.38,1.44.08,3.49-1.06,3.49s-1.29-1.29-.46-1.75c.84-.46.38-2.13-.45-2.13-.49,0-.68-.57-.66-1.24.02-.48.14-1,.36-1.42.53-.99-1.14-.3-2.13-1.37-.99-1.06-3.57-.84-3.95-1.82-.38-.98-2.73-4.55-4.02-4.48-1.29.08-2.96.15-4.48-.99-1.52-1.14-2.51-1.22-3.57-.53-1.06.68,1.14.83,1.06,1.59-.08.76.68,1.21,1.6,1.06.91-.15,1.44,1.75,2.35,1.82.91.08,1.21,1.52,2.28,1.52s1.29,1.22,1.82,1.9c.53.69,1.75.08,1.75.76,0,.61,1.21,1.17,1.52,1.93.03.09.07.17.07.27.08.91.53,2.96,1.75,4.56,1.21,1.59.38,2.58,1.52,3.19,1.14.61,1.06,1.29,0,1.14-1.06-.15-.3.84-.68,3.12-.38,2.28-.3,6.98-.53,8.43-.23,1.44-1.9,3.8-.91,5.32.99,1.52,1.67,3.64,1.14,5.54-.53,1.9-.46,3.04.38,4.48.84,1.44.15,3.95,1.06,4.48.91.53,1.75,1.6,2.58,2.96.83,1.37,1.59.53,1.75,1.9.15,1.37.15,1.59,1.37,2.12,1.22.53.46,1.9.46,2.66s1.59,2.13,3.57,3.87c1.97,1.74.3,3.19,1.75,3.19s2.81.84,4.25,1.75c1.44.91,1.9.38,2.89.61.99.23,2.81,2.35,3.19,3.8.18.68.41,1.39.77,2.16.4.87.97,1.8,1.81,2.85,1.59,1.98,2.73,5.47,2.89,6.68.15,1.22,2.35,2.2,4.25,3.42,1.9,1.21,1.9,3.87,1.67,4.55-.23.68-2.58-.45-2.73.23-.15.68,3.04,3.34,4.25,3.19,1.22-.15,1.82.61,3.72,2.28,1.9,1.67,1.75,3.64.99,4.25-.76.61,1.52,1.9,3.95,3.49,2.43,1.59,3.42,3.57,3.64,4.4.23.84,1.29.08,1.67-1.06.38-1.14-.76-1.44-.76-2.73s-1.98-1.06-2.89-1.21c-.91-.15.08-2.13-.83-3.04-.91-.91-1.75-3.19-2.2-4.86-.45-1.67-2.81-3.34-3.79-5.16-.99-1.82-2.05-3.26-2.73-3.72-.68-.46.99-1.14.38-1.82-.61-.68-1.52-.61-2.66-1.14-1.14-.53-1.9-1.44-1.9-2.66s-.76-4.1-1.14-5.09c-.38-.99.84-.83,1.21-.38.38.46.68.91,1.22.61.53-.3,1.44-.08,1.82.76.38.83,1.67.07,2.28.45.61.38-1.37.84.61,4.33,1.97,3.49.61,1.52.61,3.87s1.22,1.29,1.6.91c.38-.38,1.44.76,2.43,1.97.99,1.21,2.88,1.29,2.88,1.97s.38,2.05,1.67,2.28c1.29.23,1.52,1.67,2.35,1.82.84.15.99,1.06.53,2.05-.45.99,0,1.82,2.13,2.66,2.13.84,1.14.99,2.81,2.58,1.67,1.6,6.38,6.76,7.36,8.2.99,1.44,1.29,2.65,1.67,3.72.38,1.06-.76,1.6-.15,2.51.61.91-1.14.53-1.06,1.22.08.68,1.06,4.1,2.73,4.25,1.67.15,3.57,2.2,4.94,3.34,1.37,1.14,3.42.91,5.47,1.67,2.05.76,3.79,2.58,6.76,3.42,2.96.84,5.85,2.13,7.74,3.34,1.9,1.21,4.25.68,6.91-.38,2.66-1.06,4.71.3,6.23.91.75.3,2.22,1.56,3.68,2.87h0c1.51,1.34,3.03,2.74,3.76,3.21,1.44.91,3.8-.08,4.78.84.03.02.07.05.11.08,1.16.91,5.47,2.27,6.65,2.27.56,0,.85-.25,1.1-.46.3-.24.53-.41,1.02,0,.45.37.36.83.31,1.29-.06.47-.09.94.53,1.29,1.21.68,2.88,3.34,4.18,4.02.62.33,1.01.87,1.17,1.39.18.56.1,1.11-.26,1.35-.68.46-.76,2.28.91,2.96,1.67.68,1.14-.38,1.97-.38s.76,1.29,1.52,1.29,2.51.91,2.43,2.13c-.07,1.21.61,1.75,1.98,1.75.25,0,.53.02.83.06,1.5.19,3.46.84,4.41,1.99,1.14,1.37,1.82.45,2.51,1.67.68,1.22,2.28.07,2.66-.68.38-.76-.83-1.06-.99-1.9-.15-.83,1.52-.53,1.82-1.67.3-1.14,2.73-1.67,3.8-1.21,1.06.45,1.97,1.21.99,2.35-.74.85.76,2.37,2.02,3.56.43.41.83.78,1.1,1.07,1.06,1.14.38,2.05.68,2.66.3.61.61,1.52,0,1.9-.61.38-.08,4.55.61,5.31.68.76,0,1.44-.76,2.96-.76,1.52-1.44,2.2-2.81,2.28-1.37.08-1.29,2.2-1.75,2.2-.36,0-.63.77-.68,1.43-.01.17-.02.33,0,.47.08.68-1.06,1.14-2.35,1.21-1.29.08-1.14,1.52-1.14,2.5s-1.06.99-1.52,2.05c-.46,1.06.15,1.29-.91,1.82-1.06.53-1.37,1.44-.76,2.35.61.91-.08,1.74-.23,2.27-.15.53.91.76,1.97,1.75,1.06.99,1.22-.38,1.67.38.46.76-.3,2.13-1.52,2.13-.09,0-.19.03-.28.05-1.13.23-2.27,1.8-2.83,2.99-.61,1.29,1.06,3.8,1.29,4.71.23.91-.91.08-1.06.91-.15.83,2.51,2.05,3.72,2.96,1.21.91,2.28,3.49,3.42,4.71,1.14,1.21,1.21,2.28,2.43,5.24,1.21,2.96,3.64,7.97,5.31,10.1,1.67,2.13,2.43,3.8,2.05,4.41-.38.61.08,2.28,1.29,3.11,1.21.83,2.2,2.2,5.39,3.8,3.19,1.59,9.03,4.63,9.87,6.07.83,1.44,3.57,2.81,4.1,3.11.15.08.19.32.19.64,0,.84-.29,2.25.03,3.08.46,1.14.68,6.68.23,8.81-.46,2.13-.91,3.87-1.37,5.16-.46,1.29,1.06,1.37.45,1.98-.61.61-.38,2.13-.38,4.55s-1.44,6.53-1.52,7.82c-.08,1.29-1.06,2.13-.91,3.57.15,1.44-.68,2.28-1.52,2.96-.84.68,1.37,2.89,1.29,4.1-.08,1.22-1.67,1.75-1.29,3.72.47,2.47,0,6.68,0,7.52s-.99.76-.76,2.35c.23,1.6-.99,1.97-1.21,4.25-.23,2.28-1.97,5.54-2.66,7.29-.68,1.75-.68,2.73-1.59,2.73s-1.14.99-.46,2.51c.68,1.52-.46,2.81.46,4.33.91,1.52.61,2.05.15,3.49-.46,1.44-1.06,1.52-1.06,2.88s-1.06,2.51-.45,4.02c.61,1.52.45,2.05-.3,2.05s-1.14,1.21-1.44,3.72c-.3,2.5-.23,2.43,1.59,2.28,1.82-.15.38-6.15,1.52-6.15s.15-.99,1.29-1.29c1.14-.3.15,1.06.91,1.29.76.23,1.29.84.23,1.52-1.06.69.23,2.05-.3,2.88-.53.84-1.29,1.75-.83,2.73.45.99-.53.91-.61,2.2-.08,1.29.68,1.37.15,1.67-.53.3.68,1.29-.08,1.44-.76.15-.3,1.14.15,2.05.46.91-.99.38-1.75.99-.76.61.76,1.44.3,2.28-.45.84-1.67-.46-2.2-.91-.53-.46.84-1.37,1.52-2.28.68-.91-.68-2.96-1.82-2.51-1.14.46,1.14,1.75,1.14,2.73s-1.9-.23-1.82.83c.08,1.06-1.29.68-1.97,1.44-.68.76.91,1.44.15,1.67-.76.23-2.05,1.29-2.13,2.05-.08.76.84.91.84.15s1.21-.99,1.59,0c.38.99.91,0,1.98.23,1.06.23.91,1.82.3,1.75-.61-.07-1.22.99-1.06,2.13.15,1.14,2.28,0,3.19.31.91.3.61,1.9.08,1.37-.53-.53-1.75-1.44-2.28-.53-.53.91-1.37.46-2.05.15-.68-.3-3.11,1.29-2.28,1.9.83.61.76,1.59,1.29,1.52.53-.08,1.37-.46,1.67-1.06.3-.61,1.37-1.22,1.44.15.08,1.37-1.44.69-1.75,1.44-.3.76-.91,1.37-1.82,2.05-.91.68,0,1.82.76,1.44.76-.38-.23.91.84,1.06.98.14,1.29-.61,1.06-1.37-.23-.76.53-2.43,1.44-1.59.91.83-.46,1.67-.46,2.43s-.53,1.75-.53,2.58-.99.38-.91,1.29c.08.91-2.13.3-1.14.91.99.61-.61,1.44-.08,2.05.53.61.99-.84,1.82-.53.84.3.68.53,1.75.08,1.06-.46,1.67.84.68,1.14-.99.3-2.05,1.44-1.59,1.6.46.15,1.75-.76,2.05.23.3.99,1.06.68,1.14-.38.08-1.06,1.9-.15,2.2.76.3.91-1.9,1.44-3.04,1.22-1.14-.23-1.75,1.06-.99,2.05.76.99,1.67,0,2.51-.84.84-.83,4.94-.61,5.24.3.3.91-1.9.15-2.13.68-.23.53-1.9.99-2.13.38-.23-.61-1.82.23-1.9,1.21-.08.99-1.29.99.08,1.37,1.37.38.99-1.44,3.11-1.29,2.13.15,3.26-1.97,3.87-.76.61,1.21-1.75,2.2-2.58,1.44-.83-.76-1.82.53-1.75,1.67.08,1.14-2.43-.3-3.65-.46-1.21-.15-.68,1.14.38,2.28,1.06,1.14,1.67-.15,2.96.68,1.29.83,1.29,1.75,2.2.91.91-.84,0-.76-.61-1.14-.61-.38-.08-1.67,1.37-.99,1.44.68,3.11-.61,2.66-2.43-.46-1.82,1.29-2.66,3.04-3.27,1.75-.61.84,1.14-.45,1.67-1.29.53-1.52.91-.53,1.98.99,1.06,2.28-.69,3.11.15.83.83-1.52.68-1.9,1.52-.38.83,1.44,1.82.15,2.43-1.29.61-.68-2.51-1.44-2.81-.76-.3-1.44.38-.68,2.13.76,1.75-.91.23-1.67-.61-.76-.84-1.82.38-.91,1.29.91.91-1.74-.07-1.74,1.37s1.14.23,2.5.53c1.37.3.76,2.28,1.75,3.04.99.76.15-2.43,1.21-2.66,1.06-.23.08,2.43,2.43,3.19,2.35.76.15-.46,1.21-1.22,1.06-.76,2.43,2.28,3.57,2.58,1.14.3.38-1.37-.46-2.28-.83-.91.84-.38,1.98,0,1.14.38,2.05.53,2.28-.3.09-.31.3-.31.57-.22.46.15,1.08.51,1.56,0,.76-.84,3.04-.38,4.25-1.14,1.22-.76-.38-.99-2.28-1.06-1.9-.08-5.62-3.57-6.76-4.48-1.14-.91-.3-1.82-1.67-1.6-1.37.23-.46-1.06.3-1.44.7-.35-.27-1.64-1.2-1.86h0c-.08-.02-.16-.04-.24-.04-.99,0-3.19.23-2.81-1.29.07-.27.21-.42.4-.51.88-.39,2.81.87,3.24.43.53-.53-1.9-2.51-1.82-3.19.08-.69-.38-1.82-.38-2.58s-.38-2.43.68-3.19c1.06-.76,1.14-1.52,1.82-1.37.68.15,2.05-.61,2.13-2.43.08-1.82.91-2.5,2.43-3.8,1.65-1.41,4.4-2.73,4.02-3.34-.38-.61.61-2.58.61-3.34s-2.58-.61-3.42-.91c-.84-.3-3.87-2.43-2.35-5.24,1.52-2.81,4.71-3.12,5.62-3.19.91-.08.08-1.37.84-1.82.76-.46.91-1.21.91-2.35,0-1.29,0-3.34,1.37-3.49,1.37-.15,1.75-.91.91-1.14-.83-.23-1.22-1.21.15-1.37,1.37-.15.91,1.14,1.9,1.14s2.66-1.67,1.37-2.66c-1.29-.99-1.67.46-2.35.61-.68.15-1.22-.91-1.9-.91s-.23-1.9-.53-2.58c-.3-.68-.76-2.35-.15-3.19.61-.83,3.19,1.29,5.47,1.44,2.28.15,3.95-1.14,3.95-1.98s-1.06-2.35.3-3.26c1.37-.91.23-1.22-.15-2.43-.38-1.22.61-1.98,1.21-1.37.61.61,5.09.23,8.81-.53,3.72-.76,6.3-2.13,6.53-3.19.23-1.06,2.58-3.57,3.11-4.48.53-.91.08-2.05-1.44-2.28-1.52-.23-1.44-1.97-.61-2.96.84-.99-.46-1.9-1.9-2.05-1.44-.15-3.72-1.14-2.43-2.35.62-.59.93-.47,1.23-.2.32.29.64.73,1.35.66,1.37-.15,2.73.38,4.4,1.14,1.67.76,1.06-.23,2.66,0,1.59.23,3.42.38,5.16-.68,1.19-.73,1.8-1.99,2.73-3.2.43-.56.93-1.11,1.6-1.58,2.13-1.52,1.59-2.43,2.58-4.25.99-1.82.15-2.58,1.82-4.18,1.67-1.59-.3-2.66,1.82-3.64,2.13-.99,1.82.91.08,3.11-1.75,2.2-2.05,2.81.23,1.14,2.28-1.67,3.11-4.02,4.4-6.68,1.29-2.66,2.28-3.49,3.42-3.64,1.14-.15,1.14-2.96.99-4.93-.15-1.98-.76-3.8.08-5.09.84-1.29,0-2.51,1.06-2.51s2.66-1.59,4.33-3.27c1.67-1.67,2.73-1.82,4.48-1.97,1.75-.15.76-.76,1.9-1.06,1.14-.3,1.9-1.36,2.66-2.05.76-.68,3.87.08,5.69.08s3.04.15,3.04-.99.83-2.05,1.9-2.05,1.52-.3,1.52-1.82.45-2.43,1.37-3.11c.91-.68,1.06-2.2,1.37-3.19.3-.99,1.29-.38,1.29-1.82s.53-3.04.53-4.18,1.21-.99,1.75-1.82c.53-.83-.45-1.9.38-4.25.84-2.35,0-4.55,0-6.68s0-4.33.76-5.01c.76-.68.38-1.06-.23-1.37-.61-.3.08-1.14.61-.99.53.15,1.14,1.29,2.13.68.99-.61,1.9-3.19,2.73-5.32.84-2.13,2.2-2.05,3.27-2.51,1.06-.46,3.34-3.04,4.78-6.76,1.44-3.72-.08-7.36-.68-9.94-.61-2.58-1.44-2.05-2.96-1.97ZM351.14,268.2c2.3.29,3.92-1.33,4.73-.34.05.05.09.12.13.18,1.09,1.98-2.89,3.19-6.68,3.34-1.17.04-2.05.17-2.72.26-1.52.22-2.02.34-2.44-.72-.61-1.52,4.55-3.03,6.98-2.73ZM345.83,273.52c.04.1,0,.22-.05.34-.58,1.18-5.24,3.45-7.85,4.82-2.88,1.52-6.83.76-6.83-1.52s2.13-1.82,2.58-.76c.17.4.68.11,1.38-.39,1.16-.84,2.82-2.29,4.24-2.19,2.28.15,2.88,1.52,4.4.46,1.52-1.06,1.82-1.52,2.13-.76ZM334.89,259.7c2.13.76,5.32-.91,6.38,1.67,1.06,2.58,3.53,4.53,1.21,4.71-1.97.15-4.55-2.58-4.4-1.06.15,1.52-1.06.76-1.06,3.04s-1.52,5.47-2.43,5.32c-.03,0-.06-.03-.09-.04-.87-.38.48-3.78-1.28-4.37-1.82-.61-3.95,2.58-3.65.61.3-1.97,3.04-3.64,1.37-6.22-1.67-2.58-4.71-2.58-5.31-.61-.61,1.98-2.73,1.06-3.49,2.58-.76,1.52-1.52,4.86-.91,7.29.61,2.43-.15,3.64-2.43,5.01-2.28,1.37-3.47-2.09-2.58-6.53.61-3.04,2.28-5.92.76-5.92s1.98-3.65,5.16-4.4c3.19-.76,7.14-.46,7.14-1.37,0-.18.14-.31.39-.39.96-.32,3.53.09,5.23.69ZM314.85,247.25c1.98,0,6.99.45,7.29,3.04.3,2.58,3.34.15,3.64,2.58.26,2.06,2.26,3.69,1.93,4.78-.06.19-.18.37-.41.53-1.25.87-.91-1.37-3.19-1.37s-4.56,2.13-6.38,1.22c-1.82-.91-.91-2.13-2.58-2.13s1.22-3.19-1.21-1.82c-2.43,1.37-6.07,4.71-7.74,3.19-1.67-1.52-3.19.46-4.4-.76-1.21-1.22,4.25-4.56,6.83-4.4.63.03,1.21-.24,1.76-.68,1.66-1.33,2.98-4.18,4.47-4.18ZM282.05,225.23c1.21,1.52,3.04,7.75,4.1,9.72,1.06,1.97,1.06,5.16-.3,5.32-1.66.18.15-4.4-2.89-6.08-3.57-1.96-5.16-5.62-5.16-7.59s3.04-2.89,4.25-1.37ZM220.09,187.43c.24-1.03,1.21-2.66,2.72-2.66s1.39-1.99-1.09-3.2c-2.47-1.21,3.56-1.99,4.95-.06,1.39,1.93,3.86,3.32,5.25,1.93,1.39-1.39,9.3-5.25,9.3-3.44s-5.86,3.02-8.21,5.07c-2.35,2.05-2.17,1.51-4.23,1.87-2.05.36-.42,2.42-2.9,2.6-2.48.18-8.45.43-9.3-.97-.28-.46,3.26-.12,3.5-1.15ZM195.27,166.3c1.15-.12.36-1.39,1.93-1.99,1.57-.61-.3-1.51.18-2.17.48-.66,3.68.67,3.74-.54.06-1.21-3.2-2.24-4.29-1.51-1.09.72-3.62,2.41-6.64,1.08-.95-.42,7.61-1.33,9.06-2.65,1.45-1.33,7.97-2.84,8.45-1.63.48,1.21-3.5,2-1.57,3.08,1.93,1.09,5.07.36,5.79-.78.72-1.15,3.87-.97,1.87,1.51-1.99,2.47-2.66,2.84-4.71,2.47-2.05-.36-3.32.66-2.29,1.39,1.03.72,1.09,1.33-1.02,1.81-2.11.48-3.5,2.11-4.35,1.93-.85-.18,3.62-3.38,2.47-4.23-1.15-.84-3.98,1.45-4.04,2.48-.06,1.02-1.93,1.09-3.08,1.02-1.15-.06-2.66-1.15-1.51-1.27ZM311.91,379.4c-.04.07-.06.14-.09.21.03-.07.05-.13.09-.21ZM311.65,369.09s0,0-.02,0c-.02,0-.05,0-.06,0,.02,0,.06,0,.08,0ZM307.8,369.07c-.92-.02-1.72-.04-1.92-.04.2,0,.99.02,1.92.04ZM308.05,369.08c.21,0,.43,0,.65,0-.23,0-.42,0-.65,0ZM310.27,369.1s-.06,0-.1,0c.03,0,.06,0,.1,0ZM311.01,381.21c.11-.03.15-.13.21-.2-.03.04-.05.1-.09.13-.04.03-.07.06-.12.07ZM434.5,423.9c-.73.23-1.28.22-1.76.12.47.1,1.03.11,1.76-.12ZM386.77,424.45s-.01,0-.02,0c0,0,.02,0,.02,0,0,0,0,0,0,0ZM385.38,424.98c-.16.05-.27.09-.43.13.14-.04.28-.09.43-.13ZM380.7,469.71c-.31-.11-.7-.2-1.12-.25.43.06.82.14,1.12.25ZM378.89,492.47s.03.03.04.03c-.05-.01-.1-.02-.16.08.04-.07.08-.1.12-.11ZM379.15,492.75c-.05-.08-.08-.13-.12-.18.03.04.08.11.12.18ZM379.62,493.44c-.05-.07-.08-.12-.13-.18.04.06.08.12.13.18ZM375.56,445.6c-.26.05-.53.17-.83.42.3-.25.57-.37.83-.42ZM377.28,445.8c-.5-.04-.99-.26-1.56-.21.57-.05,1.06.16,1.56.21ZM379.49,469.45c-.48-.06-1-.08-1.5-.08.51,0,1.01.01,1.5.08ZM385.77,511.89c.09-.03.22-.11.32-.15-.1.04-.23.12-.32.15ZM422.74,424.54c.18.01.39.06.59.1-.2-.04-.41-.09-.59-.1ZM418.84,500.18c-.19.12-.39.2-.58.2.19,0,.39-.08.58-.21,0,0,0,0,0,0ZM419.57,499.32c.04-.07.07-.15.11-.23-.04.08-.06.15-.11.23ZM431.01,520.69c.04-.25.05-.46.11-.74-.06.28-.07.49-.11.74ZM431.45,518.25c.08-.42.1-.78.13-1.15-.03.38-.05.73-.13,1.15ZM431.48,423.33c.25.28.59.5,1.01.64-.42-.14-.76-.36-1.01-.64ZM431.65,516.41c-.02-.5-.13-.89-.43-1.04.3.15.41.54.43,1.04ZM424.45,424.88c.19.04.37.09.54.11-.17-.02-.36-.07-.54-.11ZM410.79,413.58c.2-.15.44-.22.8-.17-.35-.05-.6.03-.8.17ZM410.51,413.93c-.06.08-.13.14-.18.24,0-.01.01-.02.02-.03.04-.08.11-.13.16-.2ZM409.96,414.88c-.14.22-.3.41-.54.48.24-.08.4-.26.54-.48ZM400.98,508.43s-.03,0-.04,0c.02,0,.03,0,.04,0ZM402.47,508.58c.35.03.67.04.8,0-.14.04-.44.03-.8,0ZM420.36,539.42c-.12.16-.26.32-.35.47.1-.15.23-.32.35-.47ZM422.24,537.29c-.44.49-.85.94-1.25,1.37.39-.43.81-.89,1.25-1.37ZM358.1,432.14c.09.1.14.17.23.27-.13-.15-.23-.27-.38-.44.06.06.1.11.16.17ZM358.89,434.58c.19-.15.31-.3.36-.46-.05.16-.16.31-.36.46ZM358.76,432.93c.1.13.15.23.22.34-.07-.11-.12-.21-.22-.34ZM359.19,433.6c.04.1.03.19.03.28,0-.09,0-.18-.03-.28ZM376.25,469.61c.37-.13.87-.19,1.39-.23-.53.03-1.03.09-1.39.23ZM387.11,511.21c.08-.05.15-.11.23-.16-.05.03-.09.08-.14.11-.03.02-.06.03-.09.05ZM399.49,508.37c.09,0,.18,0,.29,0-.1,0-.2,0-.29,0Z"/>
    <path class="cls-1" d="M362.68,360.68c.61-.76-4.1-3.8-6.38-3.8s-9.72-5.16-16.55-6.68c-6.83-1.52-12.79,3.39-12.15,4.25.91,1.22,4.25-1.52,5.92-2.73,1.67-1.21,3.19.61,3.34,1.37.15.76,2.28,1.21,5.77,1.37,3.49.15,3.95,3.04,7.29,3.8,3.34.76,0,2.13,1.67,2.73,1.67.61,10.48.45,11.09-.3Z"/>
    <path class="cls-1" d="M348.56,367.36c.61,1.06,6.38,2.58,6.99,1.22.61-1.37-7.74-2.53-6.99-1.22Z"/>
    <path class="cls-1" d="M387.59,367.67c1.37,2.13,5.28.86,5.62,0,.61-1.52-6.98-2.12-5.62,0Z"/>
    <path class="cls-1" d="M409.3,629.61c1.82.91,5.62-3.64,3.95-3.95-1.67-.3-5.68,3.08-3.95,3.95Z"/>
    <path class="cls-1" d="M413.86,629.91c1.21.61,6.21-1.48,5.62-2.58-1.21-2.28-6.83,1.97-5.62,2.58Z"/>
    <path class="cls-1" d="M303.92,430.99c-1.52,2.28,1.5,4.5,2.13,3.49.76-1.21-.61-5.77-2.13-3.49Z"/>
    <path class="cls-1" d="M440.23,140.8c.1-1.62-1.72-.61-2.73-2.53-1.01-1.92-6.18-2.72-6.68-1.21-.2.61-1.82,1.52-.51,2.93,1.31,1.42,2.23.81,3.74,2.23,1.52,1.42,6.07.2,6.18-1.42Z"/>
    <path class="cls-1" d="M543.39,137.06c-1.32.71-4.05.81-6.07.3-2.02-.5-5.26-2.23-7.59-.91-2.33,1.32-.91-1.92,1.01-2.23,1.92-.3,1.11-1.21.61-3.24-.51-2.02,3.24-.71,4.86,1.62,1.62,2.33,4.76,3.34,7.49,2.53,2.73-.81.1-3.04,1.21-4.55,1.11-1.52-8.4-6.28-8.91-7.9-.51-1.62,2.43-.51,5.06.61,2.63,1.11,3.24-2.13,3.24-3.54s-5.67-1.52-8.2-.1c-2.53,1.42-4.96-1.82-1.52-2.23,3.44-.4.3-1.82,1.32-2.83,1.01-1.01,5.36,2.93,7.59,2.22,2.23-.71,3.85.1,5.77-1.42,1.92-1.52-3.44-2.94-4.56-4.25-1.11-1.32,5.57-.81,7.59-.71,2.02.1,2.53-2.93.91-2.33-1.62.61-7.39-2.02-6.18-3.84,1.22-1.82,3.44.3,5.97-1.01,2.53-1.32.2-6.28-1.62-6.28s-6.07-.61-6.07-1.52-3.54-1.72-2.53-2.63c1.01-.91,2.33,1.11,4.66-.61,2.33-1.72,7.19.41,9.31,0,2.13-.4-.91-4.35-2.13-3.64-1.22.71-5.36.91-5.67-1.21-.3-2.13,3.95,0,4.66-1.01.71-1.01-5.87-3.64-6.88-1.52-1.01,2.13-4.66,1.42-2.73.2,1.92-1.21,2.33-4.66,2.13-6.38-.2-1.72,6.89-1.82,6.07-4.66-.81-2.83,3.34-3.44,5.67-3.44s-.1-3.04-2.33-2.73c-2.23.3-4.56,2.83-5.67,1.82-1.11-1.01,2.63-2.84,4.66-2.84s6.88-.2,8.6-1.21c1.72-1.01-3.04-1.92-6.28-1.52-3.24.41-3.24-1.01,1.62-1.11,4.86-.1,4.05-1.12,7.49-1.52,3.44-.41,2.33-1.82,4.45-1.92,2.13-.1,7.7-2.43,7.7-3.54s-8-3.34-11.74-3.34-6.78.61-6.98,3.24c-.2,2.63-4.96-.5-6.98.41-2.03.91-1.01-2.13-3.04-1.12-2.03,1.01-4.25,3.44-6.68,4.46-2.43,1.01-4.25,3.54-5.77,3.74-1.52.2,3.24-4.66,5.67-7.08,2.43-2.43,1.11-5.26-2.13-4.96-3.24.3-2.53,2.33-4.35,2.73-1.82.41-10.53,4.76-10.93,3.44-.41-1.32,7.19-3.54,7.09-4.46-.1-.91-9.62-1.01-13.87-.4-4.25.61-11.74,3.04-11.84,1.82-.1-1.21,8.71-2.94,13.16-3.44,4.55-.52,12.65.3,16.1-1.11,3.44-1.42,8.61-1.52,9.52-2.63.91-1.11-3.95-2.63-6.38-2.53-2.43.1-4.86-.2-4.66-1.42.2-1.22-3.75-1.52-4.15-2.43-.41-.91-8-.2-9.62-1.21-1.62-1.01-6.38-1.52-10.43-1.21-4.05.3-12.35.21-14.27.41-1.92.2-3.14.91-4.86.81-1.72-.1-4.35.51-3.34,1.62,1.83,2.01-2.73,2.83-2.43,1.32.3-1.52-3.95-2.23-5.27-1.11-1.5,1.27-8.3-1.31-9.31,0-1.01,1.32-9.01.91-11.34,1.32-2.33.41,3.64,2.13,3.44,3.14-.2,1.01-7.59,0-6.08,1.82,1.52,1.82,6.38,3.14,8.71,5.47,2.33,2.33-1.82.91-4.45-.81-2.63-1.72-5.97-1.11-7.59-2.83-1.62-1.72-7.69-3.04-9.21-2.03-1.81,1.21,4.15,3.44,4.15,4.76s-4.05-.3-4.76.2c-.71.51-4.25-3.44-6.27-3.44s-.3,1.82-.3,4.35-3.95,4.05-2.84,2.33c1.11-1.72.3-6.18-1.82-6.99-2.13-.81-7.59,1.72-10.43,1.62-2.83-.1-6.58.81-4.15,2.23,2.43,1.42-.1,2.23-2.23.71-2.13-1.52-9.11,0-7.69,1.01,1.42,1.01,1.92,3.95,1.01,5.16-.91,1.21-3.85-1.21-6.58-1.01-2.73.2-16.3,6.68-15.49,8.4.81,1.72,6.58.3,8.4,1.31,1.82,1.01-.61,4.76-2.83,6.28-2.23,1.52-10.53.1-10.73,1.92-.2,1.82-13.06,2.13-13.06,5.06,0,1.11.61,2.23,2.02,2.53,1.82.39,4.05-.2,5.67,1.62,1.62,1.82,6.17,1.92,9.31.71,3.14-1.21,5.47.2,5.36,2.02-.1,1.82-7.08-.71-9.21.61-2.13,1.32-8.71.2-8.4,1.62.3,1.42,3.55,1.11,6.18,1.62,2.63.51.2,1.62.1,2.73-.1,1.12,1.42.91,4.05,2.23,2.63,1.32,6.99,2.13,5.57.61-1.42-1.52,2.73-1.32,3.44-.41.71.91,2.63-1.31,4.56-.81,1.92.51,2.63-1.82,4.15-.81,1.52,1.01,8.61,1.62,11.04,2.94,2.43,1.32,5.77,1.62,5.47,3.54-.3,1.92,2.02,3.34,4.76,4.56,2.73,1.21,3.24,3.85,3.14,5.57-.1,1.72,2.94,2.93,2.43,3.75-.51.81-.1,1.92,1.72,3.54,1.82,1.62-2.83,2.84-1.72,4.25,1.11,1.42-1.62,4.15,1.62,4.66,3.24.51,2.73-2.23,5.16-2.23s-.1,2.13,1.21,3.44c1.32,1.31,4.05,1.01,6.58,3.14,2.53,2.13.91,3.14-1.42,1.42-2.33-1.72-9.11-1.32-9.11-.71s7.49,4.86,9.21,4.25c1.72-.61,4.05,2.53,3.04,3.54-1.01,1.01-.5,3.54-.71,4.76-.2,1.22-2.73,0-4.35.2-1.62.2-2.73.71-2.73,2.43s-2.53,2.94-2.84,5.06c-.3,2.13,2.02,2.03,3.34,2.94,1.32.91-2.43,1.52-2.63,3.04-.2,1.52,3.44,4.25,4.76,4.96,1.32.71.1,4.15.61,5.87.51,1.72,2.23-.41,2.02,1.82-.2,2.23,1.62,2.13,1.72,3.44.1,1.32,3.24,1.11,2.63,2.93-.61,1.82.91,3.14,1.62,4.15.71,1.01,3.34,2.73,3.85,4.05.51,1.32,2.02,3.03,3.85,2.53,1.82-.51,1.92,1.22,3.34,1.01,1.42-.2,3.64.61,4.05,1.72.41,1.11,4.76,2.12,5.97,2.33,1.22.2,1.42-2.02,2.53-2.63,1.11-.61.71-5.06,1.72-5.37,1.01-.3.71-4.96-.3-5.36-1.01-.41-.61-2.03,1.72-1.72,2.33.3,1.52-2.03,2.63-2.33,1.11-.3.61-2.43,1.42-2.63.81-.2.71-1.62.1-2.43-.61-.81.1-1.42,1.32-1.62,1.22-.2.91-1.92-.71-2.53-1.62-.61-1.11-2.43.51-1.32,1.62,1.11,2.84.3,1.92-.91-.91-1.22,1.11-1.82,3.24-2.02,2.13-.2,3.24-1.32,2.84-2.94-.41-1.62,2.43-1.52,1.72-.1-.71,1.42-.3,2.83.71,1.82,1.01-1.01,2.94-.3,6.38-1.32,3.44-1.01,6.78-3.85,7.59-6.58.81-2.73,4.76-2.43,4.25-4.25-.51-1.82.71-2.53,3.24-1.32,2.53,1.21.51-.81,3.34-.81s2.33-1.01,5.06-1.11c2.73-.1,9.82-1.32,12.25-3.34,2.43-2.03,7.59-3.75,9.72-5.06,2.13-1.32,2.63-2.43,1.32-1.72Z"/>
    <path class="cls-1" d="M488.4,639.27c.3,1.33,1.63.74,2.96,1.93,1.33,1.19,2.52,3.4,3.85,1.33,1.33-2.08-6.98-4-6.82-3.26Z"/>
    <path class="cls-1" d="M301.49,104.81c1.06,3.04,2.28.91,3.95,2.12,1.67,1.22,4.25,1.98,5.62.76,1.37-1.21,1.97-2.13,2.43-1.06.74,1.73,4.1,1.97,11.39,2.13,7.29.15,5.47-3.04,7.59-1.82,2.13,1.22,6.99,1.22,9.11.76,2.13-.46,3.19-3.8,3.04-5.47-.15-1.67-16.4-3.04-19.28-1.37-2.88,1.67-7.44-.76-9.72.45-2.28,1.22-1.52-1.52-5.62-1.67-4.1-.15.3-2.28,1.06-3.19.76-.91-6.23-3.34-9.11-2.73-2.88.61-4.56-.91-7.29-2.13-2.73-1.22-10.15-.93-8.66,1.22,1.06,1.52,9.87,4.71,10.78,3.19.91-1.52,3.19,1.82,4.55,3.49,1.37,1.67-.91,2.28.15,5.31Z"/>
    <path class="cls-1" d="M372.86,129.11c-.46-1.37-4.4-1.52-5.16.15-.76,1.67-3.95-1.82-3.95-3.19s-4.86-.15-4.25-2.43c.61-2.28-5.62-2.89-7.29-2.89s-4.1,1.37-3.8,2.89c.3,1.52-1.82.91-2.13-.76-.3-1.67-4.4,1.82-5.62,1.82s.76-4.41.15-5.77c-.61-1.37-1.52-1.82-2.43-4.1-.91-2.28-5.47-1.37-6.68,0-1.21,1.37-5.16.76-7.29,2.88-2.13,2.13.15,4.25,1.06,5.01.91.76-3.19,1.97-1.82,3.19,1.37,1.22,3.49.61,3.64,2.58.15,1.97-5.01-.61-5.77-2.28-.76-1.67.3-3.19-.76-4.4-1.06-1.22-.15-2.73,1.82-4.86,1.97-2.13,3.49-1.82,3.49-3.04s-8.5-1.21-13.51,3.34c-5.01,4.56-3.49,10.63-3.19,11.85.3,1.21,4.71.61,7.29,1.37,2.58.76,1.21,1.82-.76,1.52-1.97-.3-5.31-.91-5.16.46.15,1.37,4.25,3.95,6.68,3.34q2.43-.61,3.49.76c1.06,1.37,3.95.91,6.83,1.06,2.89.15,6.23,1.21,7.59,1.37,1.37.15,3.04-.76,3.49-1.52.46-.76,6.07,1.22,7.74,1.06,1.67-.15.61-1.67-.45-2.13-1.06-.46-.61-2.43.76-1.67,1.37.76,3.64,1.21,4.1,2.58.39,1.16,1.67.61,1.82,1.67.15,1.06,5.01,2.28,5.16,3.49.15,1.21-4.71,1.82-3.34,2.88,1.37,1.06,3.49-1.37,5.31-1.52,1.82-.15,1.82,3.95,3.19,3.34,1.86-.83,3.34.76,5.16,3.34,1.82,2.58-.15,5.01,0,5.92.15.91,3.64.61,5.62-.46,1.98-1.06,3.8,1.22,5.32,2.58,1.52,1.37-5.62,3.64-5.01,2.43.61-1.22-4.25-4.86-8.66-3.19-4.4,1.67-1.37,4.25-.91,5.77.45,1.52-3.95,3.04-8.05,1.67-4.1-1.37-2.88.91-4.55.91s-3.49,2.58-1.97,4.25c1.52,1.67,4.86.15,7.59.3,2.73.15,3.04.91,3.34-.61.3-1.52,3.19-.76,5.16-.3,1.97.45,1.52,3.19,3.95,3.49,2.43.3.46,2.73,1.98,4.41,1.52,1.67,6.38.76,8.2,2.58,1.82,1.82,9.55,5.45,10.63,4.1,1.21-1.52-6.68-8.5-8.96-9.11-2.28-.61,2.28-1.37,5.16.91,2.88,2.28,7.14,3.34,9.26.61,2.13-2.73-1.82-1.97-1.82-3.95s-1.37-4.71-3.49-4.71-7.59-4.25-5.62-5.16c1.97-.91-.61-2.13.91-3.8,1.52-1.67,3.04,1.52,4.86,1.67,1.82.15,2.13,2.43,5.01,4.86,2.88,2.43,3.19.76,3.64-.91.46-1.67,3.65-.3,3.49-1.98-.15-1.67,2.58-3.64,4.4-4.4,1.82-.76-1.52-2.58-3.95-2.43-2.43.15-2.89-1.52-2.89-2.58s-4.56-3.64-6.07-3.19c-1.52.45-4.1-1.97-6.07-2.13-1.97-.15-4.86-1.67-4.56-3.8.3-2.13,3.95.61,4.71-1.06.76-1.67-3.8-.76-3.95-1.97-.15-1.21,1.06-.76,1.97-1.52.91-.76-.76-2.28-1.82-2.89-1.06-.61-1.37,1.21-2.43,1.21s-.15-1.67.61-2.73c.76-1.06-3.49-2.28-5.31-1.67-1.82.61-2.43-.46-2.43-1.67s-3.19,0-4.4.91c-1.22.91-2.73-.91-1.22-1.06,1.52-.15,3.34-1.37,2.89-2.73Z"/>
    <path class="cls-1" d="M359.19,153.56c1.82-.3,1.48-3.12.46-4.56-.76-1.06-2.73-1.22-4.4-1.06-1.67.15-4.56,2.73-3.04,5.32,1.52,2.58,5.16.61,6.99.3Z"/>
    <path class="cls-1" d="M305.74,54.85c2.13-1.37,3.8-.46,1.98.46-1.82.91-1.22,1.52,1.37,1.37,2.58-.15-1.06.76-1.06,2.28s3.04.61,3.19,2.13c.15,1.52,6.68,2.13,8.66.3,1.97-1.82,1.21.45,1.06,1.67-.15,1.21,9.26,2.28,9.72.76.46-1.52,1.82-.91,3.64-.46,1.82.46,10.78-1.67,10.93-3.49.15-1.82,2.88.91,0,2.88-2.89,1.97-8.66,1.67-11.24,2.43-2.58.76,1.67,2.58,4.25,4.55,2.58,1.97-3.34.91-5.77-1.67-2.43-2.58-7.9-2.58-10.78-2.43-2.89.15-1.98,5.47.15,5.47s4.25.76,6.38,4.1c2.13,3.34,6.68,2.58,6.68,4.1s-5.92-1.21-9.26-1.82c-3.34-.61-8.66,1.52-8.81,3.95-.15,2.43,4.86,2.13,8.2.15,3.34-1.97.91.61-.76,2.13-1.67,1.52,3.95,2.73,3.95,4.56s-4.1,1.21-4.56-.46c-.46-1.67-1.97-3.34-5.92-3.04-3.95.3-2.89,3.04-.46,3.34,2.43.3,2.58,2.13-.15,2.13s-8.9,1.71-6.98,3.49c2.12,1.97,9.87,0,11.24,1.21,1.37,1.22,5.16,1.67,6.07.3.91-1.37,3.95-.76,6.99-.76s3.8.45,5.16,1.67c1.37,1.22,3.8.76,5.47-.46q1.67-1.21,3.8-1.21c2.13,0,2.58-1.37,1.52-3.04-1.06-1.67-3.8,1.21-4.1,0-.37-1.5-2.88-1.98-7.14-1.37-4.25.61-2.43-2.73.15-1.97,2.58.76,6.07.46,8.96-.3,2.89-.76.61-2.13.61-3.34s3.64-.46,6.38-.46,6.68-4.4,6.83-6.99c.15-2.58-6.07-1.97-9.11-1.97s1.97-2.28,7.75-1.97c5.77.3,3.19-2.28,4.25-3.19,1.06-.91,3.8,1.06,6.68.46,2.88-.61.91-3.04,2.88-3.04,1.4,0,4.56-2.13,10.78-5.62,6.23-3.49,11.08-2.89,11.39-4.86.3-1.97-8.66,0-10.17-.61-1.52-.61,6.23-2.28,8.05-1.82,1.82.46,4.25,0,10.48-3.04,6.23-3.04,3.49-3.8.91-3.34-2.58.46-5.47-.46-5.32-2.13.15-1.67-3.8-.15-3.95-1.06-.15-.91-3.8-.46-7.75,1.06-3.95,1.52-.3-1.52,1.37-2.13,1.67-.61-10.02,0-12-1.37-1.97-1.37-4.25,2.28-6.07.46-1.82-1.82-6.53-.3-5.92,1.06.61,1.37-.76,1.37-2.58-.15-1.82-1.52-5.31.15-8.5-.3-3.19-.46-1.82,2.58-5.32,1.06-3.49-1.52-7.29-.76-6.23-.3,1.06.46-.3,1.37-1.82.91-1.52-.46-2.89.15-2.13,1.67.76,1.52-5.62-.45-5.62,1.22s-2.28,2.58-4.1,1.06c-1.82-1.52-7.59-1.97-5.92-.61,1.67,1.37-5.16.61-3.34,1.97,1.82,1.37-2.28,2.43-2.28,1.67s-3.8-2.13-5.31-.76c-1.52,1.37-1.97,3.04-2.73,2.13-.76-.91-4.1-.61-7.29.61-3.19,1.22.46,2.13,2.58.76Z"/>
    <path class="cls-1" d="M341.57,174.21c.3-1.52-5.01-2.13-4.71-3.8.3-1.67-5.01-3.04-6.68-3.95-1.67-.91-4.25-1.37-4.25-3.19s-3.64-.46-3.8,2.28c-.15,2.73-1.67,2.13-.91,4.71.76,2.58-3.34,3.19-2.89,4.56.46,1.37,2.43-.15,4.25-.15s-.49,2.54,1.82,2.73c1.82.15,5.01-1.97,5.77-3.19.76-1.22,2.28-1.67,4.4-.15,2.13,1.52,6.68,1.67,6.98.15Z"/>
    <path class="cls-1" d="M330.64,182.56c2.43,1.52,6.07-2.58,5.77-3.8-.3-1.22-8.71,1.96-5.77,3.8Z"/>
    <path class="cls-1" d="M344,185.9c1.06-.15,3.19-3.95.46-3.8-2.73.15-2.11,4.03-.46,3.8Z"/>
    <path class="cls-1" d="M297.84,85.68c-.3-.91-11.82.48-10.02,1.82,3.04,2.28,10.33-.91,10.02-1.82Z"/>
    <path class="cls-1" d="M227.84,85.52c.76-1.82-5.03-1.52-4.55-.91,1.06,1.37,3.8,2.74,4.55.91Z"/>
    <path class="cls-1" d="M240.44,84.77c1.97-.3,1.06-1.82-2.13-1.37-3.19.45-8.66.45-8.66,2.73,0,1.82,1.06,2.73,4.56,3.04,3.49.3,6.53-3.04,4.86-3.04s-.61-1.06,1.37-1.37Z"/>
    <path class="cls-1" d="M233,81.88c1.52.61,3.04-1.37,4.1-.46,1.06.91,5.77,1.67,5.77-.76s-5.92-2.73-7.44-1.82c-1.52.91-8.5,1.21-6.53,2.73,1.21.93,2.58-.3,4.1.3Z"/>
    <path class="cls-1" d="M258.36,77.17c1.82-1.22,5.16.76,4.56,2.12-.61,1.37-5.86-.27-5.47.91.15.45.76,2.28,4.4,1.21,3.64-1.06,6.68-.3,9.11,1.67,2.43,1.98,4.71,2.73,6.38.76,1.67-1.97-2.13-2.28-1.37-3.8.76-1.52-2.43-2.43-4.1-2.43s-2.28-3.04-3.65-2.43c-1.37.61-2.28,1.67-2.28-.3s-7.9-2.13-9.87-1.37c-1.97.76.46,4.86,2.28,3.64Z"/>
    <path class="cls-1" d="M259.42,89.93c1.21-1.52-4.86-6.38-5.16-4.1s3.87,5.71,5.16,4.1Z"/>
    <path class="cls-1" d="M161.2,224.46c-2.73,1.45,3.84,8.38,5.21,7.51.94-.6-1.62-3.5-1.62-5.29s-.85-3.67-3.58-2.22Z"/>
    <path class="cls-1" d="M219.94,96.46c-2.13.15-1.97,2.28.46,2.28s3.19.76-.3.61c-3.49-.15-5.01,2.89-2.58,2.28,2.43-.61,5.32-.61,3.49,0-1.82.61-6.79,1.03-6.07,1.97.46.61,2.43.46,4.4,1.22,1.97.76,3.19,1.21,4.71-.46,1.52-1.67,3.49-3.34,2.73-1.06-.76,2.28,2.43.61,6.53.46,4.1-.15-.76,2.43-5.01,2.73-4.25.3-3.49,2.43-.15,3.19,3.34.76,10.48-2.13,12.15-3.8,1.67-1.67,3.19.91,4.86-.3,1.67-1.21,4.86.15,7.74-.45,2.89-.61,3.34-6.07,1.22-6.99-2.13-.91-2.13,1.06-3.8,1.37-1.67.3-2.58-1.82-3.95-3.19-1.37-1.37-.46-3.95-2.43-3.65-1.96.3-6.23,3.49-3.65,3.8,2.58.3,1.67,1.67.3,2.28-1.37.61,3.19,1.67,2.58,2.58-.61.91-7.59.15-7.9-1.37-.3-1.52-5.77-4.25-8.05-3.64-2.28.61-1.37-1.82-3.64-1.97-2.28-.15-1.52,1.97-3.65,2.13Z"/>
    <path class="cls-1" d="M190.63,126.37c2.73.61,3.03,5.47,4.86,5.47,1.22,0,.3-1.52,2.28-1.52s1.52-1.06,3.34-.91c1.82.15,3.34-.46,3.34-2.58s1.37-2.89,3.19-3.34c1.82-.45.15-2.73,2.73-3.34,2.58-.61,9.72-3.64,10.93-4.56,1.22-.91-1.52-2.13-4.25-3.8-2.73-1.67-4.86-2.13-6.99-.76-2.13,1.37-.46-1.52-2.13-.76-1.67.76-6.23-1.22-6.83-1.97-.61-.76-8.81,1.67-10.78,1.67s.15,2.13,1.52,3.19c1.37,1.06-3.34,4.4-2.43,5.16.91.76-.91,2.73-3.04,5.16-2.13,2.43,1.52,2.28,4.25,2.89Z"/>
    <path class="cls-1" d="M197.47,99.19c1.21-.61,1.52-.76,2.43-.46,1.64.55,1.97-.91,2.73-1.67.76-.76.46,2.73,2.43,2.73,1.67,0,1.37-3.64,2.89-2.58,1.52,1.06,1.97-.46,2.28-1.52.3-1.06.3-2.88,1.98-3.19,1.67-.3.3,1.67,1.06,3.04,1.11,1.99,3.04.15,3.19-.76.15-.91,2.89-.3,2.73-1.37-.15-1.06.76-1.37,0-2.58-.76-1.21,1.22-.91,2.13-1.82s-1.21-.15-2.73-1.52c-1.52-1.37-2.13.45-2.13,1.37s-2.89.15-4.56-.46c-1.67-.61-3.8,1.97-6.23,3.19-2.43,1.22-2.58,3.34-4.86,3.19-2.28-.15-5.62,1.97-4.55,2.43,1.06.46,0,2.58,1.22,1.97Z"/>
    <path class="cls-1" d="M287.36,69.88c2.24,1.12.91,2.58,3.34,3.64,2.43,1.06,9.41-1.37,10.02.3.61,1.67-7.14,1.82-6.07,2.89,1.06,1.06,5.47,2.73,4.86,3.64-.61.91,7.29,3.49,8.05,2.28.76-1.22,2.89-.91,4.86-.15,1.98.76,2.13-4.71,3.49-3.8,1.37.91,1.22-1.97,3.49-2.88,2.28-.91,5.56-.92,5.77-1.97.15-.76-.61-1.82-3.34-1.52-2.73.3-4.55-.76-3.34-2.28,1.21-1.52-3.04-1.98-1.52-3.19,1.52-1.21-2.88-2.43-2.43-.61.46,1.82-2.73.15-3.19-1.52-.46-1.67-6.68-2.28-10.78-5.92-4.1-3.64-8.35-1.22-5.92-.76,2.43.46,2.28,1.67.3,1.52-1.97-.15-5.47.15-2.28,1.37,3.19,1.21-.3,1.67-2.89,1.67s-2.73,3.34.61,3.8c3.34.46.91,2.43-1.82,1.67-2.73-.76-3.64.61-1.21,1.82Z"/>
    <path class="cls-1" d="M208.86,101.47c2.73.3,5.47-2.13,5.32-3.49-.15-1.37-6.67,3.34-5.32,3.49Z"/>
    <path class="cls-1" d="M309.23,86.89c-2.73-1.37-6.16,1.52-3.34,2.58,2.43.91,6.07-1.21,3.34-2.58Z"/>
    <path class="cls-1" d="M294.5,102.08c-3.04-2.28-9.86,2.4-8.66,3.34,1.37,1.06,7.59,2.58,10.33,2.43,2.73-.15,1.37-3.49-1.67-5.77Z"/>
    <path class="cls-1" d="M276.73,129.11c3.34,2.28,2.28-1.82,6.07-1.67,3.8.15,3.95-6.07,4.56-8.35.61-2.28-3.04-2.13-2.13-.46.91,1.67-.15,3.34-.46,1.37-.3-1.98-3.19-.15-4.25-1.67-1.06-1.52,3.34-1.67,4.4-3.64,1.06-1.97-3.49-1.67-2.43-3.19,1.06-1.52-6.68.15-4.4,1.06,2.28.91.15,2.13-1.97.61-2.13-1.52-8.02,1.02-5.92,2.73,1.67,1.36,6.68-.91,3.8,3.04-2.89,3.95-4.1-1.06-6.83-.61-2.73.46-1.52,3.8,2.58,5.01,4.1,1.21,3.64,3.49,6.98,5.77Z"/>
    <path class="cls-1" d="M340.21,114.07c-.91,1.97,1.97,1.97,2.13,4.25.15,2.28,3.04,3.04,5.16,1.67,2.12-1.37,8.2.4,8.2-1.37,0-1.67-6.38-4.71-8.65-4.25-2.28.46-5.92-2.28-6.83-.3Z"/>
    <path class="cls-1" d="M272.79,92.51c-2.73-1.06-1.06,2.13,1.06,3.95,2.13,1.82-1.06.91-3.95-1.06-2.88-1.97-2.58,1.37-1.22,2.43,1.37,1.06-.3,2.58-2.13.15-1.82-2.43-2.73-5.01-5.62-5.16-2.89-.15-1.57,2.8-.46,4.25,1.52,1.97,3.04,2.43,5.47,3.8,2.43,1.37,6.38-.61,8.2-.15,1.82.46-1.97,2.73-.76,4.25,1.21,1.52,4.56.46,7.14.3,2.58-.15,1.37-1.67,2.89-2.73,1.52-1.06-1.52-.91-.3-3.49,1.21-2.58-3.8-6.68-3.95-5.16-.15,1.52-3.64-.3-6.38-1.37Z"/>
    <path class="cls-1" d="M285.54,84.92c2.28,0,4.1-.3,6.07-1.06,1.97-.76-1.06-.76.3-2.58,1.37-1.82-3.34-1.98-3.64-1.37-.3.61-6.22-3.64-7.14-2.28-.91,1.37,2.13,7.29,4.4,7.29Z"/>
    <path class="cls-1" d="M266.56,138.82c.91-1.06,4.71,2.13,4.86-.15.15-2.28-4.25-3.34-6.07-4.56-1.82-1.22-2.58-.61-5.47-2.73-2.89-2.13.76-3.19-1.37-4.86-2.13-1.67-2.89-6.23-1.37-7.74,1.52-1.52,3.19-3.8.46-4.86-2.73-1.06-7.14.91-6.68,1.52.45.61,4.25,2.73,4.25,3.65s-3.49-2.58-4.71-1.82c-1.21.76-2.58-1.52-3.64,0-1.06,1.52,1.37,6.83,2.28,8.35.91,1.52-.91,1.52-2.12,1.82-1.22.3-1.37-4.25-2.58-5.92-1.21-1.67-6.07-3.64-6.38-2.43-.3,1.21,3.04,1.21,2.58,2.88-.45,1.67-2.28-1.06-3.95.3-1.67,1.37-1.37.46-1.06-.91.3-1.37-2.43-2.88-5.47-2.58-3.04.3-1.37,2.43-2.28,3.19-.91.76-5.47-.45-2.58-1.06,2.89-.61,1.67-2.28.61-3.95-1.06-1.67-3.95.3-8.66,1.97-4.71,1.67-6.83,3.49-6.23,3.64.61.15.76.91-1.06,2.43-1.82,1.52,0,2.89,1.67,2.89s.2,1.34,1.37,1.67c1.06.3,6.53-2.13,8.05-1.06,1.52,1.06-8.96,1.67-8.96,3.49s5.77,2.89,10.02,2.13c4.25-.76,11.69.61,11.69,1.67s-5.01.76-8.81.61c-3.8-.15-10.33,1.06-10.02,2.28.34,1.36.76,1.37,4.71,3.19,3.95,1.82,8.05-.91,7.9,1.67-.15,2.58,2.13,3.19,7.44,3.34,5.31.15,7.74-2.43,10.33-2.28,2.58.15,3.8-.3,5.01-2.12,1.21-1.82,2.28-.76,2.58.15.3.91,3.64.76,4.4,1.52,1.94,1.93,8.35,1.37,10.78.15,2.43-1.21-1.06-4.56-2.28-3.04-1.21,1.52-2.28.61-2.58-.15-.3-.76,2.43-1.22,3.34-2.28Z"/>
    <path class="cls-1" d="M279.16,70.04c1.06-1.82-6.4-3.25-4.56-1.67,1.06.91,3.49,3.49,4.56,1.67Z"/>
    <path class="cls-1" d="M262,104.51c1.06-1.21-2.28-3.8-3.19-1.67-.91,2.13,2.11,2.91,3.19,1.67Z"/>
    <path class="cls-1" d="M427.07,236.87c1.42-.81-.1-1.72-1.62-1.11-1.52.61-5.57,6.18-5.57,7.69s-.1,3.34-1.52,3.24c-1.42-.1-3.04,1.22-1.92,2.03,1.11.81-2.94,3.11-1.01,4.15,1.32.71,3.44-.31,5.26-.1,1.82.2,3.34.3,4.86-.81,1.52-1.11,1.52,1.01,3.14.81,1.62-.2-.91,1.32-.81,2.43.1,1.12,1.72-.61,2.94-1.21,1.21-.61,2.73,0,2.13,1.01-.61,1.01,3.34,2.02,4.25.4.91-1.62-.91-4.15-1.52-3.04-.61,1.11-1.52-.81-.2-1.82,1.32-1.01-.2-1.42-1.42-.81-1.21.6-.91-2.73.2-3.34,1.11-.61-2.73-1.82-2.73-.71s-2.73.41-3.04-.61c-.3-1.01-2.23-1.31-1.52-2.02.71-.71-2.33-1.11-2.63.1-.3,1.21-1.21-.81.3-2.43,1.52-1.62,1.01-3.04,2.43-3.85Z"/>
    <path class="cls-1" d="M397.15,243.3c.3,1.21,9.11,4.86,9.41,3.19.3-1.67-9.68-4.23-9.41-3.19Z"/>
    <path class="cls-1" d="M94.13,202.53c.08-.84-1.14-.76-2.66.99-1.52,1.75-2.81,2.66-3.04,3.49-.23.84-1.97-.15-2.51.91-.53,1.06.38,3.42,1.44,2.66,1.06-.76,1.14,0,1.82,0s3.79-2.13,4.48-3.19c.68-1.06-1.22-1.37-1.29-2.05-.08-.68,1.59-.68,2.43-1.14.83-.46-.76-.84-.68-1.67Z"/>
    <path class="cls-1" d="M45.77,193.57c-.15-1.21-3.42-.08-3.04,1.06.38,1.14,3.46,1.88,4.78,1.44,1.14-.38,1.52-1.59.68-2.35-.83-.76-2.28,1.06-2.43-.15Z"/>
    <path class="cls-1" d="M55.64,220.37c-1.67-.61-6.07,2.06-4.56,2.28,1.06.15,1.52-.91,2.73-.91s3.49-.76,1.82-1.37Z"/>
    <path class="cls-1" d="M42.73,227.2c1.82-.76,2.58-1.67,1.82-2.58-.76-.91-3.22,3.16-1.82,2.58Z"/>
    <path class="cls-1" d="M567.28,171.47c1.97-.1,1.92-2.28,2.73-2.18.81.1,2.13-1.52,2.63-2.53.51-1.01-.56-2.83-1.77-2.83s-2.13-.96-1.87-1.67c.25-.71-.66-1.62-.61-2.13.05-.51-1.52-.05-2.33.15-.81.2-2.53-1.98-3.29-1.57-.76.41-.2,1.47-.41,2.08-.2.61-2.02-.56-2.02.15s-.76.81-1.37.05c-.61-.76-2.03-.3-1.97.3.05.61-.61.1-1.77-.61-1.17-.71-2.38.81-2.28,1.57.1.76-.41.96-1.37-.71-.96-1.67-2.08.15-1.57,1.06.51.91.3,2.02-.45,1.57-.76-.45-1.77.3-2.23,1.01-.46.71-2.08-2.08-.91-2.73,1.16-.66-3.7-3.44-5.21-3.44s-.51,1.11.51,1.92c1.01.81-.71.61-1.27-.1-.56-.71-1.62-.15-2.23.86-.61,1.01-1.62,1.57-1.72,2.28-.1.71,1.72,1.47,3.29.81,1.57-.66,3.34-.76,4.15,0,.81.76-1.47,1.06-.66,1.67.81.61.15,1.11-1.77.96-1.92-.15-4.25.4-3.9,1.06.35.66,4.91-.56,4.96.1.05.66,0,1.77,1.22,1.27,1.21-.5.4.91,1.01,1.16.61.25.46,1.47-1.16,1.57-1.62.1-2.41.43-1.72,1.11.86.86,2.63.25,4.35-.15,1.72-.41,4.2,1.67,6.23,2.48,2.03.81,5.52-.3,5.92-1.37.41-1.06,3.14-.66,4.25-1.42,1.11-.76,2.63-1.67,4.61-1.77Z"/>
    <path class="cls-1" d="M350.18,342.83c-.7-1.2-1.26-.38-1.26,1s1.14,1.52,1.17,2.31c.03.79,1.16,1.82,1.37,1.37.38-.79-.82-1.52-.94-2.1-.12-.58.35-1.37-.35-2.57Z"/>
    <path class="cls-1" d="M406.17,396.51c.41.38,1.9-.03,2.6-.32.7-.29.62-1.32-.17-1.99-.79-.67-3.28.35-2.52.7.76.35-.37,1.19.09,1.61Z"/>
  </g>
  <g>
    <path class="cls-3" d="M273.47,372.09c-7.14,0-12.96-5.81-12.96-12.96s5.81-12.96,12.96-12.96,12.96,5.81,12.96,12.96-5.81,12.96-12.96,12.96ZM273.47,346.83c-6.78,0-12.3,5.52-12.3,12.3s5.52,12.3,12.3,12.3,12.3-5.52,12.3-12.3-5.52-12.3-12.3-12.3Z"/>
    <circle class="cls-3" cx="273.47" cy="359.13" r="7.1"/>
  </g>
  <g>
    <path class="cls-2" d="M358.97,448.16c-7.14,0-12.96-5.81-12.96-12.96s5.81-12.96,12.96-12.96,12.96,5.81,12.96,12.96-5.81,12.96-12.96,12.96ZM358.97,422.9c-6.78,0-12.3,5.52-12.3,12.3s5.52,12.3,12.3,12.3,12.3-5.52,12.3-12.3-5.52-12.3-12.3-12.3Z"/>
    <path class="cls-2" d="M366.07,435.2c0,3.92-3.18,7.1-7.1,7.1s-7.1-3.18-7.1-7.1,3.18-7.1,7.1-7.1,7.1,3.18,7.1,7.1Z"/>
  </g>
  <g>
    <path class="cls-3" d="M372.06,491.56c-7.14,0-12.96-5.81-12.96-12.96s5.81-12.96,12.96-12.96,12.96,5.81,12.96,12.96-5.81,12.96-12.96,12.96ZM372.06,466.3c-6.78,0-12.3,5.52-12.3,12.3s5.52,12.3,12.3,12.3,12.3-5.52,12.3-12.3-5.52-12.3-12.3-12.3Z"/>
    <path class="cls-3" d="M379.16,478.6c0,3.92-3.18,7.1-7.1,7.1s-7.1-3.18-7.1-7.1,3.18-7.1,7.1-7.1,7.1,3.18,7.1,7.1Z"/>
  </g>
  <g>
    <path class="cls-3" d="M353.35,419.13c-7.14,0-12.96-5.81-12.96-12.96s5.81-12.96,12.96-12.96,12.96,5.81,12.96,12.96-5.81,12.96-12.96,12.96ZM353.35,393.87c-6.78,0-12.3,5.52-12.3,12.3s5.52,12.3,12.3,12.3,12.3-5.52,12.3-12.3-5.52-12.3-12.3-12.3Z"/>
    <circle class="cls-3" cx="353.35" cy="406.17" r="7.1"/>
  </g>
  <g>
    <path class="cls-3" d="M725.8,189.89c0,6.86-5.15,11.13-13.37,11.13h-6.2v8.49h-7.12v-30.78h13.32c8.22,0,13.37,4.27,13.37,11.17ZM718.59,189.89c0-3.39-2.2-5.37-6.55-5.37h-5.8v10.69h5.8c4.35,0,6.55-1.98,6.55-5.32Z"/>
    <path class="cls-3" d="M730.86,178.72h7.12v30.78h-7.12v-30.78Z"/>
    <path class="cls-3" d="M771.97,189.89c0,6.86-5.15,11.13-13.37,11.13h-6.2v8.49h-7.12v-30.78h13.32c8.22,0,13.37,4.27,13.37,11.17ZM764.76,189.89c0-3.39-2.2-5.37-6.55-5.37h-5.8v10.69h5.8c4.35,0,6.55-1.98,6.55-5.32Z"/>
    <path class="cls-3" d="M787.97,194.11c0-9.28,7.12-15.92,16.71-15.92,5.32,0,9.76,1.93,12.67,5.45l-4.57,4.22c-2.07-2.37-4.66-3.61-7.74-3.61-5.76,0-9.85,4.05-9.85,9.85s4.09,9.85,9.85,9.85c3.08,0,5.67-1.23,7.74-3.65l4.57,4.22c-2.9,3.56-7.34,5.5-12.71,5.5-9.54,0-16.67-6.64-16.67-15.92Z"/>
    <path class="cls-3" d="M819.06,197.68c0-7.12,5.5-12.18,13.02-12.18s12.97,5.06,12.97,12.18-5.45,12.18-12.97,12.18-13.02-5.06-13.02-12.18ZM838.1,197.68c0-4.09-2.59-6.55-6.03-6.55s-6.07,2.46-6.07,6.55,2.64,6.55,6.07,6.55,6.03-2.46,6.03-6.55Z"/>
    <path class="cls-3" d="M849.62,176.88h6.86v32.63h-6.86v-32.63Z"/>
    <path class="cls-3" d="M861.1,197.68c0-7.12,5.5-12.18,13.02-12.18s12.97,5.06,12.97,12.18-5.45,12.18-12.97,12.18-13.02-5.06-13.02-12.18ZM880.14,197.68c0-4.09-2.59-6.55-6.03-6.55s-6.07,2.46-6.07,6.55,2.64,6.55,6.07,6.55,6.03-2.46,6.03-6.55Z"/>
    <path class="cls-3" d="M931.63,195.96v13.54h-6.86v-12.49c0-3.83-1.71-5.58-4.49-5.58-3.08,0-5.23,1.98-5.23,6.2v11.87h-6.86v-12.49c0-3.83-1.63-5.58-4.49-5.58-3.03,0-5.19,1.98-5.19,6.2v11.87h-6.86v-23.66h6.55v2.73c1.76-2.02,4.4-3.08,7.43-3.08,3.3,0,6.11,1.28,7.78,3.87,1.89-2.42,4.97-3.87,8.53-3.87,5.63,0,9.67,3.25,9.67,10.47Z"/>
    <path class="cls-3" d="M963.55,197.68c0,7.43-5.15,12.18-11.79,12.18-3.17,0-5.72-1.01-7.43-3.08v2.73h-6.55v-32.63h6.86v11.48c1.76-1.94,4.18-2.86,7.12-2.86,6.64,0,11.79,4.75,11.79,12.18ZM956.6,197.68c0-4.09-2.59-6.55-6.03-6.55s-6.02,2.46-6.02,6.55,2.59,6.55,6.02,6.55,6.03-2.46,6.03-6.55Z"/>
    <path class="cls-3" d="M967.28,178.72c0-2.15,1.71-3.83,4.27-3.83s4.27,1.58,4.27,3.69c0,2.29-1.71,3.96-4.27,3.96s-4.27-1.67-4.27-3.83ZM968.12,185.85h6.86v23.66h-6.86v-23.66Z"/>
    <path class="cls-3" d="M1002.29,196.01v13.5h-6.42v-2.95c-1.28,2.15-3.74,3.3-7.21,3.3-5.54,0-8.84-3.08-8.84-7.17s2.95-7.08,10.16-7.08h5.45c0-2.95-1.76-4.66-5.45-4.66-2.51,0-5.1.84-6.82,2.2l-2.46-4.79c2.59-1.85,6.42-2.86,10.2-2.86,7.21,0,11.39,3.34,11.39,10.51ZM995.43,202.03v-2.42h-4.71c-3.21,0-4.22,1.19-4.22,2.77,0,1.71,1.45,2.86,3.87,2.86,2.29,0,4.27-1.06,5.06-3.21Z"/>
  </g>
  <g>
    <path class="cls-3" d="M725.8,293.87c0,6.86-5.15,11.13-13.37,11.13h-6.2v8.49h-7.12v-30.78h13.32c8.22,0,13.37,4.27,13.37,11.17ZM718.59,293.87c0-3.39-2.2-5.37-6.55-5.37h-5.8v10.69h5.8c4.35,0,6.55-1.98,6.55-5.32Z"/>
    <path class="cls-3" d="M730.86,282.7h7.12v30.78h-7.12v-30.78Z"/>
    <path class="cls-3" d="M771.97,293.87c0,6.86-5.15,11.13-13.37,11.13h-6.2v8.49h-7.12v-30.78h13.32c8.22,0,13.37,4.27,13.37,11.17ZM764.76,293.87c0-3.39-2.2-5.37-6.55-5.37h-5.8v10.69h5.8c4.35,0,6.55-1.98,6.55-5.32Z"/>
    <path class="cls-3" d="M817.92,313.49l-.04-18.47-9.06,15.22h-3.21l-9.02-14.82v18.07h-6.68v-30.78h5.89l11.52,19.13,11.35-19.13h5.85l.09,30.78h-6.68Z"/>
    <path class="cls-3" d="M854.46,303.59h-17.9c.66,2.95,3.17,4.75,6.77,4.75,2.51,0,4.31-.75,5.94-2.29l3.65,3.96c-2.2,2.51-5.5,3.83-9.76,3.83-8.18,0-13.5-5.15-13.5-12.18s5.41-12.18,12.62-12.18,12.31,4.66,12.31,12.27c0,.53-.09,1.28-.13,1.85ZM836.47,299.59h11.65c-.48-2.99-2.73-4.93-5.8-4.93s-5.37,1.89-5.85,4.93ZM843.51,286.79h-5.37l5.94-6.33h7.39l-7.96,6.33Z"/>
    <path class="cls-3" d="M873.54,313.49l-5.19-7.26-5.37,7.26h-7.48l9.1-11.92-8.8-11.74h7.7l5.01,6.9,5.15-6.9h7.3l-8.79,11.57,9.15,12.09h-7.78Z"/>
    <path class="cls-3" d="M883.83,282.7c0-2.15,1.71-3.83,4.27-3.83s4.27,1.58,4.27,3.69c0,2.29-1.72,3.96-4.27,3.96s-4.27-1.67-4.27-3.83ZM884.66,289.83h6.86v23.66h-6.86v-23.66Z"/>
    <path class="cls-3" d="M896.14,301.66c0-7.12,5.5-12.18,13.19-12.18,4.97,0,8.88,2.15,10.6,6.02l-5.32,2.86c-1.28-2.24-3.17-3.25-5.32-3.25-3.47,0-6.2,2.42-6.2,6.55s2.73,6.55,6.2,6.55c2.16,0,4.05-.97,5.32-3.25l5.32,2.9c-1.71,3.78-5.63,5.98-10.6,5.98-7.7,0-13.19-5.06-13.19-12.18Z"/>
    <path class="cls-3" d="M921.82,301.66c0-7.12,5.5-12.18,13.02-12.18s12.97,5.06,12.97,12.18-5.45,12.18-12.97,12.18-13.02-5.06-13.02-12.18ZM940.86,301.66c0-4.09-2.59-6.55-6.03-6.55s-6.07,2.46-6.07,6.55,2.64,6.55,6.07,6.55,6.03-2.46,6.03-6.55Z"/>
  </g>
  <g>
    <path class="cls-3" d="M725.8,397.86c0,6.86-5.15,11.13-13.37,11.13h-6.2v8.49h-7.12v-30.78h13.32c8.22,0,13.37,4.27,13.37,11.17ZM718.59,397.86c0-3.39-2.2-5.37-6.55-5.37h-5.8v10.69h5.8c4.35,0,6.55-1.98,6.55-5.32Z"/>
    <path class="cls-3" d="M730.86,386.69h7.12v30.78h-7.12v-30.78Z"/>
    <path class="cls-3" d="M771.97,397.86c0,6.86-5.15,11.13-13.37,11.13h-6.2v8.49h-7.12v-30.78h13.32c8.22,0,13.37,4.27,13.37,11.17ZM764.76,397.86c0-3.39-2.2-5.37-6.55-5.37h-5.8v10.69h5.8c4.35,0,6.55-1.98,6.55-5.32Z"/>
    <path class="cls-3" d="M787.97,402.08c0-9.28,7.12-15.92,16.71-15.92,5.32,0,9.76,1.93,12.67,5.45l-4.57,4.22c-2.07-2.38-4.66-3.61-7.74-3.61-5.76,0-9.85,4.05-9.85,9.85s4.09,9.85,9.85,9.85c3.08,0,5.67-1.23,7.74-3.65l4.57,4.22c-2.9,3.56-7.34,5.5-12.71,5.5-9.54,0-16.67-6.64-16.67-15.92Z"/>
    <path class="cls-3" d="M843.86,407.58h-17.9c.66,2.95,3.17,4.75,6.77,4.75,2.51,0,4.31-.75,5.94-2.29l3.65,3.96c-2.2,2.51-5.5,3.83-9.76,3.83-8.18,0-13.5-5.14-13.5-12.18s5.41-12.18,12.62-12.18,12.31,4.66,12.31,12.27c0,.53-.09,1.28-.13,1.85ZM825.88,403.57h11.65c-.48-2.99-2.73-4.92-5.8-4.92s-5.37,1.89-5.85,4.92Z"/>
    <path class="cls-3" d="M872.75,403.92v13.54h-6.86v-12.49c0-3.83-1.76-5.58-4.79-5.58-3.3,0-5.67,2.02-5.67,6.38v11.7h-6.86v-23.66h6.55v2.77c1.85-2.02,4.62-3.12,7.83-3.12,5.58,0,9.81,3.25,9.81,10.47Z"/>
    <path class="cls-3" d="M894.21,416.33c-1.41,1.01-3.47,1.5-5.58,1.5-5.58,0-8.84-2.86-8.84-8.49v-9.72h-3.65v-5.28h3.65v-5.76h6.86v5.76h5.89v5.28h-5.89v9.63c0,2.02,1.1,3.12,2.95,3.12,1.01,0,2.02-.31,2.77-.88l1.85,4.84Z"/>
    <path class="cls-3" d="M912.76,393.46v6.33c-.57-.04-1.01-.09-1.54-.09-3.78,0-6.29,2.07-6.29,6.6v11.17h-6.86v-23.66h6.55v3.12c1.67-2.29,4.49-3.47,8.14-3.47Z"/>
    <path class="cls-3" d="M914.87,405.64c0-7.12,5.5-12.18,13.02-12.18s12.97,5.06,12.97,12.18-5.45,12.18-12.97,12.18-13.02-5.06-13.02-12.18ZM933.91,405.64c0-4.09-2.59-6.55-6.03-6.55s-6.07,2.46-6.07,6.55,2.64,6.55,6.07,6.55,6.03-2.46,6.03-6.55Z"/>
    <path class="cls-3" d="M965.97,403.97v13.5h-6.42v-2.95c-1.28,2.15-3.74,3.3-7.21,3.3-5.54,0-8.84-3.08-8.84-7.17s2.95-7.08,10.16-7.08h5.45c0-2.95-1.76-4.66-5.45-4.66-2.51,0-5.1.83-6.82,2.2l-2.46-4.79c2.59-1.85,6.42-2.86,10.2-2.86,7.21,0,11.39,3.34,11.39,10.51ZM959.11,409.99v-2.42h-4.71c-3.21,0-4.22,1.19-4.22,2.77,0,1.71,1.45,2.86,3.87,2.86,2.29,0,4.27-1.06,5.06-3.21Z"/>
    <path class="cls-3" d="M1012.14,403.92v13.54h-6.86v-12.49c0-3.83-1.71-5.58-4.49-5.58-3.08,0-5.23,1.98-5.23,6.2v11.87h-6.86v-12.49c0-3.83-1.63-5.58-4.49-5.58-3.03,0-5.19,1.98-5.19,6.2v11.87h-6.86v-23.66h6.55v2.73c1.76-2.02,4.4-3.08,7.43-3.08,3.3,0,6.11,1.28,7.78,3.87,1.89-2.42,4.97-3.87,8.53-3.87,5.63,0,9.67,3.25,9.67,10.47Z"/>
    <path class="cls-3" d="M1041.6,407.58h-17.9c.66,2.95,3.17,4.75,6.77,4.75,2.51,0,4.31-.75,5.94-2.29l3.65,3.96c-2.2,2.51-5.5,3.83-9.76,3.83-8.18,0-13.5-5.14-13.5-12.18s5.41-12.18,12.62-12.18,12.31,4.66,12.31,12.27c0,.53-.09,1.28-.13,1.85ZM1023.61,403.57h11.65c-.48-2.99-2.73-4.92-5.8-4.92s-5.37,1.89-5.85,4.92ZM1030.65,390.78h-5.37l5.94-6.33h7.39l-7.96,6.33Z"/>
    <path class="cls-3" d="M1060.99,393.46v6.33c-.57-.04-1.01-.09-1.54-.09-3.78,0-6.29,2.07-6.29,6.6v11.17h-6.86v-23.66h6.55v3.12c1.67-2.29,4.49-3.47,8.14-3.47Z"/>
    <path class="cls-3" d="M1064.24,386.69c0-2.15,1.71-3.83,4.27-3.83s4.27,1.58,4.27,3.69c0,2.29-1.72,3.96-4.27,3.96s-4.27-1.67-4.27-3.83ZM1065.07,393.81h6.86v23.66h-6.86v-23.66Z"/>
    <path class="cls-3" d="M1076.55,405.64c0-7.12,5.5-12.18,13.19-12.18,4.97,0,8.88,2.15,10.6,6.02l-5.32,2.86c-1.28-2.24-3.17-3.25-5.32-3.25-3.47,0-6.2,2.42-6.2,6.55s2.73,6.55,6.2,6.55c2.16,0,4.05-.97,5.32-3.25l5.32,2.9c-1.71,3.78-5.63,5.98-10.6,5.98-7.7,0-13.19-5.06-13.19-12.18Z"/>
    <path class="cls-3" d="M1125.23,403.97v13.5h-6.42v-2.95c-1.28,2.15-3.74,3.3-7.21,3.3-5.54,0-8.84-3.08-8.84-7.17s2.95-7.08,10.16-7.08h5.45c0-2.95-1.76-4.66-5.45-4.66-2.51,0-5.1.83-6.82,2.2l-2.46-4.79c2.59-1.85,6.42-2.86,10.2-2.86,7.21,0,11.39,3.34,11.39,10.51ZM1118.37,409.99v-2.42h-4.71c-3.21,0-4.22,1.19-4.22,2.77,0,1.71,1.45,2.86,3.87,2.86,2.29,0,4.27-1.06,5.06-3.21Z"/>
  </g>
  <g>
    <path class="cls-3" d="M725.8,501.84c0,6.86-5.15,11.13-13.37,11.13h-6.2v8.49h-7.12v-30.78h13.32c8.22,0,13.37,4.27,13.37,11.17ZM718.59,501.84c0-3.39-2.2-5.37-6.55-5.37h-5.8v10.69h5.8c4.35,0,6.55-1.98,6.55-5.32Z"/>
    <path class="cls-3" d="M730.86,490.67h7.12v30.78h-7.12v-30.78Z"/>
    <path class="cls-3" d="M771.97,501.84c0,6.86-5.15,11.13-13.37,11.13h-6.2v8.49h-7.12v-30.78h13.32c8.22,0,13.37,4.27,13.37,11.17ZM764.76,501.84c0-3.39-2.2-5.37-6.55-5.37h-5.8v10.69h5.8c4.35,0,6.55-1.98,6.55-5.32Z"/>
    <path class="cls-3" d="M816.6,501.84c0,6.86-5.15,11.13-13.37,11.13h-6.2v8.49h-7.12v-30.78h13.32c8.22,0,13.37,4.27,13.37,11.17ZM809.39,501.84c0-3.39-2.2-5.37-6.55-5.37h-5.8v10.69h5.8c4.35,0,6.55-1.98,6.55-5.32Z"/>
    <path class="cls-3" d="M844.17,511.56h-17.9c.66,2.95,3.17,4.75,6.77,4.75,2.51,0,4.31-.75,5.94-2.29l3.65,3.96c-2.2,2.51-5.5,3.83-9.76,3.83-8.18,0-13.5-5.14-13.5-12.18s5.41-12.18,12.62-12.18,12.31,4.66,12.31,12.27c0,.53-.09,1.28-.13,1.85ZM826.18,507.56h11.65c-.48-2.99-2.73-4.92-5.8-4.92s-5.37,1.89-5.85,4.92Z"/>
    <path class="cls-3" d="M863.56,497.44v6.33c-.57-.04-1.01-.09-1.54-.09-3.78,0-6.29,2.07-6.29,6.6v11.17h-6.86v-23.66h6.55v3.12c1.67-2.29,4.49-3.47,8.14-3.47Z"/>
    <path class="cls-3" d="M891.66,497.79v23.66h-6.51v-2.81c-1.8,2.07-4.44,3.17-7.34,3.17-5.94,0-10.11-3.34-10.11-10.64v-13.37h6.86v12.36c0,3.96,1.76,5.72,4.79,5.72s5.45-2.02,5.45-6.38v-11.7h6.86ZM881.02,494.76h-5.37l5.94-6.33h7.39l-7.96,6.33Z"/>
  </g>
  <polygon class="cls-3" points="571.34 360.13 273.47 360.13 273.47 358.13 569.34 358.13 569.34 299.02 678.1 299.02 678.1 301.02 571.34 301.02 571.34 360.13"/>
  <rect class="cls-3" x="353.35" y="405.17" width="324.75" height="2"/>
  <polygon class="cls-2" points="600.53 436.21 358.97 436.21 358.97 434.21 598.53 434.21 598.53 194.76 678.1 194.76 678.1 196.76 600.53 196.76 600.53 436.21"/>
  <polygon class="cls-3" points="686.33 508.79 598.53 508.79 598.53 479.6 372.06 479.6 372.06 477.6 600.53 477.6 600.53 506.79 686.33 506.79 686.33 508.79"/>
</svg>