<?xml version="1.0" encoding="UTF-8"?>
<svg id="Capa_1" data-name="Capa 1" xmlns="http://www.w3.org/2000/svg" version="1.1" viewBox="0 0 1165.8 684.9">
  <defs>
    <style>
      .cls-1 {
        fill: #009ed9;
      }

      .cls-1, .cls-2, .cls-3 {
        stroke-width: 0px;
      }

      .cls-2 {
        fill: #da291c;
      }

      .cls-3 {
        fill: #fff;
      }
    </style>
  </defs>
  <g>
    <path class="cls-1" d="M366.5,368.1c2.1-.7,3.6,0,4.8.6,0,0,.2,0,.3.1,1.2.6,1.5-.6,4.2-1.5s7.1.8,7.1-1.4-7.3-4.4-9.1-3.8c-.5.2-1.1,0-1.9-.1-1.9-.5-4.3-1.7-5.4-1-1.5,1.1,2.3,3.3,2.3,4.7s-6.1-.3-6.7,1.2c-.3.8,2.1,1.8,4.4,1.1h0Z"/>
    <path class="cls-1" d="M495.2,449.1c-1.5,0-4.4-.3-8.2-4.4-3.8-4.1-7.5-3.8-10-3.1-2.5.7-5.1-1.2-6.8-1.6s-3.3,1.8-4.5,2.2c-1.2.5.6-1.8.7-3.3,0-1.4-4.6-3.5-8-4.9s-5-.7-5,1.5-1.4-.7-2.4,1.7-3,.8-1.8,0c1.3-.8,2.5-2.5,3-4s-5-2.6-6.9-1.8c-1.9.8-.7,3.5-2.2,2.7-1.5-.8-.3-2.9.9-2.8,1.2,0,2.6-2.4,3.4-4.2.8-1.8-1.4-2.1-2.8-3.6-1.4-1.5-1.1-5.9-2.5-6.6,0,0,0,0,0,0-1.4-.6-3.6-4.1-5.9-4.6-1-.2-1.9-.6-2.9-1-1.2-.5-2.4-.9-3.4-.8-1.8.2-3.7,1.1-4.4,0s-1.7-.8-2.6,0c-.1,0-.2.1-.3.1-.9,0-2.4-2.8-3.1-2.8s-2-.8-1.8-2c.2-1.3-2.1-1.4-3.4-2.9-.3-.4-.8-.6-1.3-.8-1.6-.6-4-.6-5-.5-1.3,0,.8-1.4.9-2.8,0-1.4-3.6-1.6-5.1-1.9-1.4-.3-1.1-1.8.5-1.9s-.8-1.1-2.9-.8c-2,.3-4.9,1.4-6.6,2.4-1.7.9-4.6-2.7-6.5-1.9-1.9.8-4.6.8-4.5-.8,0-1.5-.8-2.8-2.7-2.7s-1.4-1.9-2.9-1.9,0,1.8-1,2.2c-1,.5-4.4,1.3-4.6,2.7s1.8,3.6,1.1,5c-.7,1.4-3,.2-3.6-1.2-.7-1.4,2-3.6,1.5-4.5-.3-.6-.7-1.7-.5-2.4.1-.3.4-.6.8-.7,1.5-.3,2.3-1.3.8-2.1-1.4-.8-2.3,1.6-3.9,1.8-1.6.2-1.9,1.2-3,1.8-1.1.5-3,0-3.1,1,0,1-.7,0-1.6-.2s-3.3,1.8-3.2,3c0,1.1.5,2.2-1.2,3.3-1.7,1.1-2.7,3-3.4,4-.2.3-.5.3-.8.2-.6-.3-1.3-1.4-2.1-2.7-1.2-1.8-3.4-1.7-4.8-2.3-1.4-.6-3.1.2-4.9,1.8s-4,.7-5.5-.1c-.5-.2-1.1-.8-1.8-1.6-1.2-1.3-2.6-3.1-3.4-4.2-.2-.3-.4-.6-.5-.7-.5-1,.4-3,.8-4.4.5-1.4-.4-4.9.5-5.9.8-.9.4-1.4.8-3.6,0-.1,0-.2,0-.3,0-1.7-2.2-1.1-3.8-2.7s-5.3-.9-7.3-.1c-2,.8-4.2-.8-6.4.4,0,0,0,0,0,0-1.2.6-1.5,0-1.4-.8.1-.6.5-1.3,1.1-1.7,1.4-1.1-.7-5.3.9-5.7.3,0,.5-.2.8-.4h0c1-.9,1.3-3,1.5-4.6.2-2-.5-2.7.6-3.9,1.1-1.1,2.2-1.2,1.9-2.8-.3-1.6-1.8,0-3-.8s-2.3-.2-5.4.2c-3.1.5-4.5,1.8-4.4,4s-1.1,1.2-1,3.1c0,1.9-2.4,2-2.3,3.1.1,1.1-2,0-2.6-.4s-7.1,1.6-8,1.8c-.9.1-2.6-1.9-3.9-1.8-1.3,0-1.8-1.9-2-3.5s-2.6-3-3.6-4.5c-1.1-1.4-1.2-4.6-1.3-6.7,0-2-.3-5.5,1.1-9.6.2-.5.3-1,.3-1.4-.2-.1-.5-.3-.7-.4.2,0,.5.2.7.4.2-2.7-2.6-3.2-1-4.4,1.9-1.4,0-2.7.8-3.3.9-.6,2.5-1.2,2.5-2.1s.8-.9,2-.8c1.2.1,3.5-2,3.3-2.8-.1-.8.2-1,1.7-.7,1.4.3,1.2-1.7,2.1-1.4.9.3,1.7.8,1.8.1s1-.5,1.7.4c.7.9,2.7,1.1,2.8,0,.1-1.1,1.3,0,2.3,1.1s1.4.8,2.9.8c1.4,0,1.4-.3,1.5-1.2s1.6,2,3,2.1c1.4.1.3-.9-.8-1.8s.2-1.2-.7-1.9,1.1-1.6,3-1.5c1.8,0,1.8.5,2.4-.5s1.4,0,1.4.9,3-.5,4.5-.5,3,1.4,3.2,2.3,1.2,1.4,2.4.4c1.1-1,2.1-2.1,3.2-1.1,1.1,1.1,2.1,2.5,3.4,3.8,1.3,1.3-.6,2.9,0,3.9.7,1,0,2.4,1.4,3.4,1.5,1.1.1,3.3,1.4,3.6,1.2.3,2.2,2.2,2.4,3,.1.8,2.4,1.8,2.6.5s1.4-2.8,1.5-4-.9-5.5-1.9-6.9.2-1.7-1-3.3c-1.2-1.6-2-4.4-1.9-6.7,0-2.3,2.7-6,4-7.1,1.3-1.1,2.7-.5,3-1.8.3-1.2,1.9-2.7,2.8-2.7s1.9.2,2-.8c.1-1,1.7-2.2,3.6-2.5,2-.3.8-1.4.3-2.3-.5-.9.5-1.8.8-1.2.4.6,1.6.7,2.4.1s2.5-2,.8-2-2-.8-1.1-1.1.1-2.2-1.2-2.4-.9-.8,0-1.7-1.2-2.2-2.2-2.9c-1-.7.6-1.1,1.4-1.2s.1-3.6.5-4.5c.4-.8,1.7-.8,1.1,0s-1.3,2.2-.3,3.3c1,1.1,1.3,2.4.9,4.1s.4,1.3,1.5-1c1.1-2.3,1.3-4.2.5-4.5s-.7-2.5.1-1.4c.8,1.1,1.1,1.2,2.4-.1,1.3-1.4,2.7-3.7,1.8-4.2s.4-1.1,1.9-1c1.5,0,4.8-.9,5-1.4.7-1.5-5.2.7-5.2-.1s3.8-1.7,5.5-1.8c1.8,0,.9-2.4,1.7-1.4s1.9.8,2.9.2c1-.6.2-2.4-.9-2.7s.8-1.1.5-1.8.8-3.4,2.2-3.7.8-1.2,2-1.2,1.4-1.4,2.5-2.5,2.6,1.7,4.2.1c.7-.6,1.6-1.3,2.6-1.9,1.4-.9,2.8-1.5,3.6-1.5,1.4,0,3.4-1.8,4-2.9.6-1.1,1.4,1.1.2,1.4s1,1.3,3.1,1.2c2.1,0-1,.8-2.6.7-1.6,0-2.3.1-4.4,2.3-2.1,2.1-1.6,2.7-.4,3.8,1.2,1.1,2.8.6,4.5-.8,1.7-1.4,1.6-2.9,3.3-2.8,1.7,0,6-1.5,7.9-2.1,1.9-.6.7-.9.7-1.8s3.3-.8,4.6-1.7c1.2-.8-.2-1.5-1.3-1.4s-.2-1.5,0-2.4c.1-.8-2.3.4-2.4,1.4,0,1-1.8,1.4-1.8,2,0,1.8-.2.8-1.4,1.4-1.2.6-5.9,0-6.1-1.1s-3.6-1.6-3.7-3c-.1-1.4-1.8-1.9-.5-3.5,1.4-1.6-.2-2.4-1.5-1.1-1.3,1.2-2-.7-.3-1.4,1.8-.7,5-1.4,3.3-4.4-1.7-3-12.1.9-14.8,2.4-2.7,1.5-6,6.4-7.4,6.4s2.5-2.6,3.1-3.6c.6-1-.1-2,.7-1.6.8.4,3.2-3.3,4.8-4.5,1.6-1.2,3.3,0,3.6-1.1.2-1,1-1.7,2.5-3,1.5-1.4,19.7-1.1,21.4-1.1,1.8,0,5.2-2.3,6.1-3.8s2.3-1.5,4.7-1.4c2.4.1,3.6-2.1,4.8-2.9,1.2-.8.8-1.2-.3-1.4s-2-.9-1-1c1.1,0,1.6-.7,2-2.1.5-1.4-.4-.8-1.8-2.7-1.4-1.9-2.2.6-3.6.5s1-2-.2-2.7c-1.2-.8-3.5-.2-5.3,1.3-1.8,1.5-1.7,0-3.3,1.4s-1.6-.8-.8-1.4c.8-.6,1.3,0,2-.8s1.4,0,3.1-1.1c1.8-1.1,3.3-.6,3.8-1.4.5-.8-.8-2-2.5-1.6-1.7.4-2.8-2.3-3.9-1.5s-.8-1.1-2-.4c-1.2.8-1.9-.2-2.4-1.7s-3.8-3.8-5.8-4.4c-2-.6-.7-1.7.4-.9s2.3-.8,2.7-1.5c.5-.8-.8-1.4-1.4-1.5s-.6-1.1-.5-1.8c.1-.8-2.1-1.8-2.2-2.5,0-.8-1.4-1.3-1.3-2,0-.7-1.3-1.7-1.3-2.6s-2.3-2.7-2.4-3.8c0-1.1-1.3-1.8-1.8-3.1s-1.1-.7-1.5,1.1c-.5,1.8-2,1.8-1.6,2.4.9,1.2.2,1.3-.5,2.1-.7.8.5,1.9-.7,1.9s-.6,2.4-1.2,1.3c-.6-1.1-2-.8-2,.3s-2.4,2.1-3.4,2c-1,0-1-2.1-1.8-1.5-.8.6-.7-1.8-2-1.7-1.3,0-2.2,0-1.8-1.2s-2.2-1.7-1.4-2.4c.8-.7-.2-1.9-.4-3.9s1.1-2.1,1.1-2.9-.9-.8-1.8-.1-.9-.8-1.9-.8c-1,0-4,0-4.1-1.4s-1.1-.7-1.6-2c-.5-1.3-1.7-.3-1.7-1.2s-.5-1.3-1.4-1.4-1.2-1.1-2.4-1.2c-1.2-.1-2.7.8-3.4,1.1-.7.3-2.4-1.1-3.1-.5s-.8-.4-2.7-.9c-1.9-.5-4.4-.7-4.6,0-.1.7-1.7.9-1.4,2.5.2,1.6,1.8,1.3,2.2,2.4.4,1.1-.8.7-.8,1.7s-1.1.9-1.1,1.6.7.5,1.1,1.9,1.1,1.3,1.4,3.1c.2,1.8-.6,1.4-1.4,1.7s0,1.1-1,2.4c-1.1,1.2-2,2.5-1.1,3.3.8.8,4,2.1,5.2,4.1s1.1,5.2.8,7.5-3,2.8-4.9,4.8c-1.9,2-3.9,1.7-4.8,1.8-.9,0-.4,1.9.9,3.3s.2,1.9.9,3.4,0,2.7,1,4.1c1,1.4.4,1.9-.8,2.9s.5.4.5,1.8c0,1.3-.5.5-1.5-.1s-1.9,1.3-1.9,2.1-2.4-1.1-2.9-1.1c-.5,0,.1-1.3-1.2-2.4-1.4-1.1-2.4-1.3-2.4-2.4s-2.4-1.8-2.4-3,.3-4.3-.2-5.2,0-1.9.4-2.7c.5-.8-.5-2.1-1.9-2.1s-3.3-.5-5.2-.3c-1.9.1-3-.1-3.6-.7-.6-.5-2.4-1.7-4.7-2.3-2.4-.6-3.4-1.8-3.6-2.5-.2-.7-2.6-1.2-3.1-1.9-.5-.7-2.8-1.1-3.7-.9s-3.2-1.9-4.5-1.8c-1.4,0-4.6,1.4-5.1,1.5s0-1.1.5-1.7c.4-.5-1.1-2.8-1.5-4.3-.4-1.5-.9-3.2-2.5-3s-3.3-.6-3.8-.9c-.5-.3-.5-4.6-.1-6.4.4-1.8,2.4-4.6,2.4-5.7s1.3-1.7,2.4-2c1.1-.3.2-2.5,1.4-2.7,1.1-.1,1.2-.6,1.4-1.5s1.6-.3.8-1.1-.1-1,1.6-1,4.3-.6,4-2.4c-.4-1.8-4.9-.5-4.9-1.9s-5.8-1.5-5.4-2.4c.4-.8,5.8.6,7.7,1.4,2,.8,2.5.7,4.1.6,1.6,0,.5-2.1.8-3,.3-.8,3.3,1.3,5.1.8,1.8-.5,3.4-4,4.9-5,1.4-1,.1-1.9-2.7-1.7s-4.4-.8-5.9-2c-1.5-1.1-1.4-2.1.2-1.9,1.6.1,5.4,3.3,6.8,3.3,1.4,0,4-2.8,5.2-3.7,1.2-.9-1.1-1.3-2-2-.8-.7,1.4-1.1,2.7-1.1s1.8,1.1,2.2,1.6c.5.5,2.6-.4,3.6-.4s-.1-1.8-1.9-2.4,0-2,.6-.9,1.8.8,2.4,2.1c.9,1.8,1.4.6,3,0,1.5-.5,2.3-1.4,3.1-2.4.8-.9,1,.1,2-1.3,1-1.4-.5-2.8-1.7-3.7-1.2-.9,0-1.8-1.1-2.4-1.2-.6-1.4-1.8,0-1.4,1.5.3,2.7-.1,3.4-1.2.7-1.1-2.3-1.3-.9-2.1,1.4-.8.2-1.5-1.1-1.5s-2.5-.7-2.6-1.8c0-1.1-2.4-.4-3.9-1.1s-4.6-.5-5.4-.4c-.8,0-.8,3.2.3,3.3,1.1,0,2,1.3,1.1,1.7s.1,1.6-.6,1.5c-.8,0-2-.4-2.2,1.5-.2,2-.4,2.7-1.7,3.4s-.3-2.2-1.5-2.1c-1.2,0-1.4,2.4-.5,2.7.9.2,1.1,1,1.3,2.1.2,1.1-1.7.3-2.4,1.7-.8,1.4-.8-.6-1.9-1.5s-2.4-2.4-2.3-3.6c0-1,.6-1.4,1.4-1.5.8-.1,0-.9,0-2.3s-1.1-.9-2.3-2.4-2.5-1.4-3.2-.8c-.7.7-.2,2-1.3,2.4-1.1.5-.6,2.6-1.5,2.7s-.4-3.7-1.1-4.1-.7-1.3.5-1.4c1.1-.1,1.8-1.4.8-1.4s-2.7-1.1-3.4-1.4c-.7-.3-1.8,1.3-2.6.7-.8-.6,0-2.1.1-3,0-.8,1.2.4,2-.7s-2.1-1.1-2.1-2.2-2.3-1.4-3-1.8.5-2.3.1-3-3.2-3.3-4.4-3c-1.2.2-1.5-1.6-.8-1.5s1.2-.4,2.5-1.8,1.4-1.9.5-2.2c-.9-.3-1.4-1.2.2-1.1,1.6,0,4.4,1.1,5.3.5s3.8-5.2,4.9-6.8c1.1-1.6-.8-1.8-3.6-1.5s-3.3-1.1-5.6-1.2-6.5.5-7.1,1.1c-.6.7,1.1,1.3.9,2.1s-1.6-.5-2.2-.2c-.6.3.2,1.3,0,3.9-.2,2.7.5,2.8,1.3,3.8.8,1,.6,2.3.6,3.9s-1.6,1.6-2.1,2c-.5.4,1.4,1,1.1,2.1-.3,1.1-1.9-.6-2.8-.3-.9.3-1.7,2.9-.7,3.7,1,.8,1.4.7.6,1.7s-1.6,2.4.2,3.9,5.2,1.3,6.9,2.4-.8.5,0,1.8c.7,1.3-1.1,1.8-1.1,2.7,0,1,.8.5,1.7-1.2.9-1.7,1.6.4,1.5,1.9,0,1.4-1.4.6-2.4,2.1-1,1.4-1.9,1.7-3.3,1.4s-.6,2.1,0,3.3-.1,1.8-1.8,1.3c-1.7-.4-2.7-1.5-1.8-2.8s1.4-2.8.5-2.7c-1,.1-3.3,0-4-1.1-.7-1.1.5-.6,2.5-.4,2,.2.3-1.4,1.8-1.4s2.7.8,4-.3-.8-3.3-1.9-3c-1.1.4-2.7.8-2.7-.2s1.8-.3,2.8-.5-.5-1.6-2-1.2c-1.5.4-2.6.5-3.8-.8-1.2-1.3-3.4-2.1-4,.9s-2.7,1.4-3.5,2.4c-.8,1,1,1.7,3,1.8,2,0,3.6,2,2.6,2s-.5,1.4-1.6.9c-1.1-.5-2.1,0-1.4.9s-.3,1.3-.2,2.2c0,.9-1.6,0-3.2,0-1.6-.1-4.6.4-6.7.8-2.1.5-4.5-.3-5.4-1.3-.9-1-2.1-.8-3.6-.8s-1.1-1.4-3-1.5c-2,0-1.5-1.8-1.8-2.7-.2-1-4.2-.7-5.6.2-1.4.9-4.2.5-5,2.2s.7,1.4,1.5,1.4,1.1-1.4,3.2-1.1c2.1.3,3.6-2.2,4.6-1.3.9.9-3.6,2.7-5.6,3-2,.3-1.5,1.9.4,4.7,1.9,2.8-.8,1.2-.8,2.6s-3.6-.5-2.1-.9c1.4-.5.8-1.9-.4-2.8s-1.9,0-1.7-1c.1-1-1.2,0-2.3-.8s-1.6-1.5-3-.8c-1.4.8-3.1.5-6.3,1.1s-9,.4-10.1-.7c-1.1-1.1,2.7-3,3.9-2.7,1.1.3.5-1.2-1.3-2.6-1.8-1.4-5.6-2.2-5.5-1.4,0,.8-2.2,0-5-.4s-3.2-1.5-5-1.6c-1.8,0-4.6-.6-6.7-2.3-2.1-1.7-7.1-1.2-7.8.3s-2.3,1.4-3.9,1.4.8-1.9.1-2.2c-.8-.4,0-2.5-1.1-2.7-1.2-.1-2.4,5-4.6,4.9s-3.3-5.5-5.2-6.8c-1.9-1.4-3.6-1.4-2.1.6s-1.4.6-1.2,2c.1,1.4-2.6,3-2.5,2.2,0-.8-1.5-1.6-3.3.5-1.8,2.1-3.1,1.8-3.3,1.1-.1-.8-5.5,2-5.3,2.9.2.9-.8,1.6-2.3,1.5-1.4,0-.3-1.3.8-1.9,1.3-.7,4.8-3.5,6.6-3.8,1.8-.3,5.3-1.8,5.4-2.6,0-.8-1.8-.1-3-.4-1.2-.2-3.3,1.1-5.4,2.1s-4.4.6-3.8,1.8c.6,1.2-1.9-.1-2.4.7-.5.8-1.5,0-.8-.5.8-.5-1.8-1.3-1.8-.8s-.5,1.2-2.3,1.2-3.6,1.3-2.4,2.2c1.2.9,2,1.4,1.4,2s-2.5-1.6-5.2-1.4c-2.7.2-8-3-8-3.7s-3.7-.2-6.3-.5c-.6,0-1.1-.2-1.6-.3-2.2-.8-5.5-2.4-7.2-2-1.8.4-5.2.8-6.4.2-1.2-.6-2.9-1.1-5.4-.8-2.5.4-4.1-1.4-7.3-2.1-3.2-.8-7.7.2-8.7.6s-.8-1.1-2.2-1c-1.4.1-.3-.6-1.1-1.8-.8-1.1-4.6,0-5.9,0-1.4.1-1.8-.7-1.7-1.4,0-.7-1.2-.5-1.8.4s-2.1,1.1-2.7.5c-.6-.6,1.3-.8,1.4-1.5,0-.7-2-1.1-2.7-1.3s-2,.8-3.6,2.2c-1.6,1.4-3.9,1.3-5.4,1.1s-3.3.1-3.2,1c0,.8,1.8.8.8,1.8-1.1,1.1-1.4-1.4-2.5-.3-1.1,1.1-4.2,1.1-5,.9-.8-.1-3.3,2.6-4,3.3-.8.8.6,1.4-1.4,3.6-2,2.2-7.5,1.8-8.7,1.8s-.3,1.3-.9,2.1c-.6.8.7,1.6,3.8,2.4,3.1.8,5.2,4.9,5.6,5.9.4,1,4.2,0,5.8.1s-.2,2.4,1.1,3,3.3-.3,3.6.8c.4,1.1-2.6,0-4.1,1.1-1.5,1.1-2.3,1.7-2.9.8-.6-.8-3.1-.3-4.4-.1-1.3.1,0-1.6,0-2.4,0-.8-1.8-1.3-4.2.1-2.5,1.4-1.6.9-1.9,2.1-.3,1.1-1.4-.7-3,.3-1.6,1-4.2,1.7-4.6,2.7-.5,1,3.4,1.7,4.9,2,1.5.3-1.8,1.3-.6,1.7s.7,1.5,2.6,2.5c1.9,1,6.2,0,7.3,0s2.2,1.4,3.1.4c.9-1,4.3-3.7,6.1-2.1,1.8,1.6-1.9,1.4-1,2.4.9,1,2,3.3.4,4.6-1.7,1.2-3.3.4-4.2.3-.9,0-.4,1.7-1.8,2.8s-2.5-1.2-4.3-1.2-1.4,2.4-1.4,3.5c0,1.1-2.7-.2-3.4,2.5-.7,2.7-3.6.4-1.7,3,1.9,2.7,1.6,1,3.1,2.1,1.5,1.1-1.7,3-.2,3.3,1.5.3,3.2,3,4.2,4,1.1,1,2.4-.5,4-.6,1.6,0,.8-2.3,1.8-1.4.9.8,2.2,3.3,1.4,3.9s-.2,2.5-.3,3.4c-.2.9,3.5.6,3.7-.5.2-1.1,3.1-1.4,4.7.4,1.6,1.8,2.1,2.1,2.1.7s1.4-2.9,1.4-1.8c0,1.1,1.4,1.4,3.7.4,2.4-1.1,1.3,0,0,1.6-1.7,2.1,0,5.2-1.2,5.5-1.2.3-2.2,3.4-4.2,3.6-2,.2-5.3,3.9-5.8,4.6s-4.7-1.2-5.3.5-3.2,3.1-2.5,3.7c.5.5,4-1.3,4.1-2.2.2-.9.6-.8,1.2,0,.6.7,2.1-.3,2.8-.9s1.8-.4,2.5-.3c.7,0,1-.8,3-1.2s1.6-1,2.1-2.1c.5-1.1,5.3-3.3,6.2-3.6.9-.2.4-1.8,1.4-1.8,1,0,2.5-1.3,3.8-2.4,1.3-1.1,1.6-.6,2.6-1,1-.4.2-2.4,1.2-2.5,1-.1,1.8-.9,1.8-1.8s-2.5-.8-2.7-1.4c-.2-.5,2-2.5,2.8-2.4s2.2-.8,2.3-2.1,1.3-1.4,2.3-2.5.8-2,1.8-2.1,1.9-1.4,3-2.1,0,.8,2.1.8c2.1,0,1.6,2,0,1.3-1.5-.7-2.2-.6-3.6.7s-.3,1.7-1.4,3.1c-1.1,1.4-1.1,2.4.2,2.5s0,1.1-1.2,1.5-.4,1.1,1.4,1.1,4.3-2.5,6.8-3.7,4.2,0,4.9-.2c.7-.2-.8-1.4,0-1.7.8-.4-1-.6-1.5-2.1s.8-.5,1.1-1.7c.3-1.1,1.1-.7,1.9-.1s1.8-.5,2.5.9,1.4-.4,2.7.6-.2.8-1.5,1.1c-1.3.3-.6,2.1.4,1.2,1-.8,1.8-1.4,2.7-.5.9.8,1.3.4,2.1-.3s.8,0,.8.7,1.6.8,3.9,1.2c2.3.4,6.4-.1,7.4-.2,1.1,0,.7,1.6,3,2.1,2.4.5,3-2.4,4.2-1.4,1.2,1,0,1.4-.7,2.1-.7.8.8.8,1.7,1.2.9.4,3,1,4,2,1,1,1.6,2.1,4,3.3,2.4,1.2,0-3,2-1.7s1.2,0,2.7,1.4c1.5,1.4,1-.6.3-2.9-.7-2.3.7-.8,1.4.3.7,1.1.7,3.1.2,4.5-.5,1.4-2.7.2-2.5-.5.2-.8-2.3-.5-2.4.6,0,1.1,1.6,3.1,2.8,3.3,1.2.2.3,2.1,1.1,2.4,1,.3,1,2.3,1.6,2,.6-.3.4-2.7-.3-3.7-.7-1.1-.4-2.6.5-2.3.9.3,0,1.9.5,2.4s1-.5,2.1-1.1-.4-2.4,0-3.3c.4-.9,1.6.8,2.1,2.4.4,1.6-1.1,1.5-1.1,2.4s-1.4.5-1.9.9c-.5.5-.2,3.5.4,3.6.6,0,1-2.5,1.4-1.2.4,1.3,1.8-1.7,2.2-.5.4,1.2,2.2,2.6,2.9,2.3.7-.3-.3-1.6-1.4-1.7-1.1,0-.9-1.8,0-1.9,1,0,2.7,2.5,2.7,3.4,0,.9-.9.8-1.8,1.8-.8.9-2-1.5-3-1.4-1,0,0,1.6.5,2.7.5,1.1-1.2,2.5,0,3.3,1.3.8.9-.5,1.1-1.1s1.2.1,1.9.7c.6.5.8-1.2.8-1.9s1.1-.3,1.8.6.7-1,1.6-.8c.9.1.3,1.6.3,2.4s1.6-.7,1.4.2c0,.1,0,.3,0,.4,0,.7.7,1.1,1.4,1.7.9.8-1.7.8-.9,1.4.8.7-.1,1.8.6,2.6s2.1.5,3-.1,1.4.8.8,2c-.7,1.1.8,2,1.4,1.1.7-.8,2.1,1.4,2.8,1.8s1.4,1.5.2,1.5-1,2-.1,2.1c.8,0,.8,1.1.8,1.8s2.7,1.7,3.6,1.4c1-.3,1.9.6,2.4,1.4.5.8,2.3,1.4,3,.9.7-.5,1.1,1,1.3,2.1s1.7.5,2.6.4,1.4,1.2,2.1,1c1.3-.5,1.7,1.8,2.6,3.2.1.2.2.3.3.4,1.1,1.2.2,2.1.6,3.6s0,3.5-1.1,3.5-1.3-1.3-.5-1.8c.8-.5.4-2.1-.4-2.1s-.7-.6-.7-1.2c0-.5.1-1,.4-1.4.5-1-1.1-.3-2.1-1.4-1-1.1-3.6-.8-3.9-1.8-.4-1-2.7-4.6-4-4.5-1.3,0-3,.1-4.5-1-1.5-1.1-2.5-1.2-3.6-.5-1.1.7,1.1.8,1.1,1.6s.7,1.2,1.6,1.1c.9-.1,1.4,1.8,2.4,1.8.9,0,1.2,1.5,2.3,1.5s1.3,1.2,1.8,1.9c.5.7,1.8,0,1.8.8s1.2,1.2,1.5,1.9c0,0,0,.2,0,.3,0,.9.5,3,1.8,4.6,1.2,1.6.4,2.6,1.5,3.2,1.1.6,1.1,1.3,0,1.1s-.3.8-.7,3.1c-.4,2.3-.3,7-.5,8.4-.2,1.4-1.9,3.8-.9,5.3,1,1.5,1.7,3.6,1.1,5.5s-.5,3,.4,4.5c.8,1.4.1,4,1.1,4.5s1.8,1.6,2.6,3c.8,1.4,1.6.5,1.8,1.9.1,1.4.1,1.6,1.4,2.1s.5,1.9.5,2.7,1.6,2.1,3.6,3.9c2,1.7.3,3.2,1.8,3.2s2.8.8,4.2,1.8,1.9.4,2.9.6c1,.2,2.8,2.4,3.2,3.8.2.7.4,1.4.8,2.2.4.9,1,1.8,1.8,2.9,1.6,2,2.7,5.5,2.9,6.7.1,1.2,2.4,2.2,4.2,3.4,1.9,1.2,1.9,3.9,1.7,4.5s-2.6-.5-2.7.2c-.1.7,3,3.3,4.2,3.2,1.2-.1,1.8.6,3.7,2.3s1.8,3.6,1,4.2,1.5,1.9,3.9,3.5,3.4,3.6,3.6,4.4c.2.8,1.3,0,1.7-1.1.4-1.1-.8-1.4-.8-2.7s-2-1.1-2.9-1.2,0-2.1-.8-3-1.8-3.2-2.2-4.9c-.4-1.7-2.8-3.3-3.8-5.2-1-1.8-2.1-3.3-2.7-3.7s1-1.1.4-1.8-1.5-.6-2.7-1.1c-1.1-.5-1.9-1.4-1.9-2.7s-.8-4.1-1.1-5.1.8-.8,1.2-.4c.4.5.7.9,1.2.6.5-.3,1.4,0,1.8.8.4.8,1.7,0,2.3.5s-1.4.8.6,4.3c2,3.5.6,1.5.6,3.9s1.2,1.3,1.6.9,1.4.8,2.4,2c1,1.2,2.9,1.3,2.9,2s.4,2,1.7,2.3,1.5,1.7,2.4,1.8c.8.1,1,1.1.5,2-.4,1,0,1.8,2.1,2.7s1.1,1,2.8,2.6c1.7,1.6,6.4,6.8,7.4,8.2,1,1.4,1.3,2.6,1.7,3.7.4,1.1-.8,1.6-.1,2.5.6.9-1.1.5-1.1,1.2,0,.7,1.1,4.1,2.7,4.2s3.6,2.2,4.9,3.3c1.4,1.1,3.4.9,5.5,1.7s3.8,2.6,6.8,3.4c3,.8,5.9,2.1,7.7,3.3,1.9,1.2,4.2.7,6.9-.4s4.7.3,6.2.9c.8.3,2.2,1.6,3.7,2.9h0c1.5,1.3,3,2.7,3.8,3.2,1.4.9,3.8,0,4.8.8,0,0,0,0,.1,0,1.2.9,5.5,2.3,6.6,2.3s.9-.2,1.1-.5c.3-.2.5-.4,1,0,.5.4.4.8.3,1.3,0,.5,0,.9.5,1.3,1.2.7,2.9,3.3,4.2,4,.6.3,1,.9,1.2,1.4.2.6.1,1.1-.3,1.4-.7.5-.8,2.3.9,3s1.1-.4,2-.4.8,1.3,1.5,1.3,2.5.9,2.4,2.1c0,1.2.6,1.8,2,1.8s.5,0,.8,0c1.5.2,3.5.8,4.4,2,1.1,1.4,1.8.5,2.5,1.7.7,1.2,2.3,0,2.7-.7.4-.8-.8-1.1-1-1.9-.1-.8,1.5-.5,1.8-1.7.3-1.1,2.7-1.7,3.8-1.2,1.1.5,2,1.2,1,2.4-.7.9.8,2.4,2,3.6.4.4.8.8,1.1,1.1,1.1,1.1.4,2,.7,2.7.3.6.6,1.5,0,1.9s0,4.5.6,5.3c.7.8,0,1.4-.8,3s-1.4,2.2-2.8,2.3-1.3,2.2-1.8,2.2-.6.8-.7,1.4c0,.2,0,.3,0,.5,0,.7-1.1,1.1-2.4,1.2-1.3,0-1.1,1.5-1.1,2.5s-1.1,1-1.5,2,.1,1.3-.9,1.8-1.4,1.4-.8,2.4,0,1.7-.2,2.3c-.1.5.9.8,2,1.8s1.2-.4,1.7.4c.5.8-.3,2.1-1.5,2.1s-.2,0-.3,0c-1.1.2-2.3,1.8-2.8,3-.6,1.3,1.1,3.8,1.3,4.7s-.9,0-1.1.9c-.1.8,2.5,2,3.7,3s2.3,3.5,3.4,4.7c1.1,1.2,1.2,2.3,2.4,5.2,1.2,3,3.6,8,5.3,10.1,1.7,2.1,2.4,3.8,2,4.4-.4.6,0,2.3,1.3,3.1,1.2.8,2.2,2.2,5.4,3.8,3.2,1.6,9,4.6,9.9,6.1.8,1.4,3.6,2.8,4.1,3.1.1,0,.2.3.2.6,0,.8-.3,2.2,0,3.1.5,1.1.7,6.7.2,8.8-.5,2.1-.9,3.9-1.4,5.2s1.1,1.4.5,2-.4,2.1-.4,4.5-1.4,6.5-1.5,7.8-1.1,2.1-.9,3.6-.7,2.3-1.5,3,1.4,2.9,1.3,4.1c0,1.2-1.7,1.8-1.3,3.7.5,2.5,0,6.7,0,7.5s-1,.8-.8,2.3c.2,1.6-1,2-1.2,4.2-.2,2.3-2,5.5-2.7,7.3-.7,1.8-.7,2.7-1.6,2.7s-1.1,1-.5,2.5c.7,1.5-.5,2.8.5,4.3.9,1.5.6,2,.1,3.5s-1.1,1.5-1.1,2.9-1.1,2.5-.5,4c.6,1.5.5,2-.3,2s-1.1,1.2-1.4,3.7c-.3,2.5-.2,2.4,1.6,2.3,1.8-.2.4-6.2,1.5-6.2s.1-1,1.3-1.3.1,1.1.9,1.3,1.3.8.2,1.5c-1.1.7.2,2-.3,2.9-.5.8-1.3,1.8-.8,2.7.5,1-.5.9-.6,2.2,0,1.3.7,1.4.1,1.7s.7,1.3,0,1.4c-.8.2-.3,1.1.1,2,.5.9-1,.4-1.8,1s.8,1.4.3,2.3c-.5.8-1.7-.5-2.2-.9-.5-.5.8-1.4,1.5-2.3.7-.9-.7-3-1.8-2.5-1.1.5,1.1,1.8,1.1,2.7s-1.9-.2-1.8.8-1.3.7-2,1.4.9,1.4.1,1.7-2,1.3-2.1,2c0,.8.8.9.8.2s1.2-1,1.6,0,.9,0,2,.2c1.1.2.9,1.8.3,1.8-.6,0-1.2,1-1.1,2.1.1,1.1,2.3,0,3.2.3.9.3.6,1.9,0,1.4s-1.8-1.4-2.3-.5-1.4.5-2,.2c-.7-.3-3.1,1.3-2.3,1.9.8.6.8,1.6,1.3,1.5.5,0,1.4-.5,1.7-1.1.3-.6,1.4-1.2,1.4.2,0,1.4-1.4.7-1.8,1.4-.3.8-.9,1.4-1.8,2s0,1.8.8,1.4-.2.9.8,1.1c1,.1,1.3-.6,1.1-1.4s.5-2.4,1.4-1.6c.9.8-.5,1.7-.5,2.4s-.5,1.8-.5,2.6-1,.4-.9,1.3-2.1.3-1.1.9-.6,1.4,0,2,1-.8,1.8-.5c.8.3.7.5,1.8,0,1.1-.5,1.7.8.7,1.1-1,.3-2,1.4-1.6,1.6.5.2,1.8-.8,2,.2s1.1.7,1.1-.4c0-1.1,1.9-.2,2.2.8.3.9-1.9,1.4-3,1.2-1.1-.2-1.8,1.1-1,2s1.7,0,2.5-.8c.8-.8,4.9-.6,5.2.3s-1.9.2-2.1.7c-.2.5-1.9,1-2.1.4s-1.8.2-1.9,1.2c0,1-1.3,1,0,1.4s1-1.4,3.1-1.3c2.1.2,3.3-2,3.9-.8.6,1.2-1.8,2.2-2.6,1.4s-1.8.5-1.8,1.7c0,1.1-2.4-.3-3.6-.5-1.2-.2-.7,1.1.4,2.3s1.7-.2,3,.7c1.3.8,1.3,1.8,2.2.9s0-.8-.6-1.1,0-1.7,1.4-1c1.4.7,3.1-.6,2.7-2.4-.5-1.8,1.3-2.7,3-3.3,1.8-.6.8,1.1-.5,1.7-1.3.5-1.5.9-.5,2,1,1.1,2.3-.7,3.1.2.8.8-1.5.7-1.9,1.5-.4.8,1.4,1.8.1,2.4s-.7-2.5-1.4-2.8-1.4.4-.7,2.1-.9.2-1.7-.6c-.8-.8-1.8.4-.9,1.3s-1.7,0-1.7,1.4,1.1.2,2.5.5c1.4.3.8,2.3,1.8,3,1,.8.1-2.4,1.2-2.7s0,2.4,2.4,3.2.1-.5,1.2-1.2c1.1-.8,2.4,2.3,3.6,2.6s.4-1.4-.5-2.3c-.8-.9.8-.4,2,0s2,.5,2.3-.3c0-.3.3-.3.6-.2.5.2,1.1.5,1.6,0,.8-.8,3-.4,4.2-1.1,1.2-.8-.4-1-2.3-1.1-1.9,0-5.6-3.6-6.8-4.5s-.3-1.8-1.7-1.6c-1.4.2-.5-1.1.3-1.4.7-.3-.3-1.6-1.2-1.9h0c0,0-.2,0-.2,0-1,0-3.2.2-2.8-1.3,0-.3.2-.4.4-.5.9-.4,2.8.9,3.2.4.5-.5-1.9-2.5-1.8-3.2,0-.7-.4-1.8-.4-2.6s-.4-2.4.7-3.2,1.1-1.5,1.8-1.4,2-.6,2.1-2.4c0-1.8.9-2.5,2.4-3.8,1.6-1.4,4.4-2.7,4-3.3-.4-.6.6-2.6.6-3.3s-2.6-.6-3.4-.9c-.8-.3-3.9-2.4-2.4-5.2s4.7-3.1,5.6-3.2c.9,0,0-1.4.8-1.8.8-.5.9-1.2.9-2.3s0-3.3,1.4-3.5c1.4-.2,1.8-.9.9-1.1-.8-.2-1.2-1.2.1-1.4,1.4-.2.9,1.1,1.9,1.1s2.7-1.7,1.4-2.7-1.7.5-2.4.6c-.7.2-1.2-.9-1.9-.9s-.2-1.9-.5-2.6-.8-2.3-.1-3.2c.6-.8,3.2,1.3,5.5,1.4s4-1.1,4-2-1.1-2.3.3-3.3c1.4-.9.2-1.2-.1-2.4-.4-1.2.6-2,1.2-1.4.6.6,5.1.2,8.8-.5s6.3-2.1,6.5-3.2,2.6-3.6,3.1-4.5,0-2-1.4-2.3c-1.5-.2-1.4-2-.6-3,.8-1-.5-1.9-1.9-2-1.4-.2-3.7-1.1-2.4-2.3.6-.6.9-.5,1.2-.2.3.3.6.7,1.4.7,1.4-.2,2.7.4,4.4,1.1,1.7.8,1.1-.2,2.7,0,1.6.2,3.4.4,5.2-.7,1.2-.7,1.8-2,2.7-3.2.4-.6.9-1.1,1.6-1.6,2.1-1.5,1.6-2.4,2.6-4.2s.1-2.6,1.8-4.2c1.7-1.6-.3-2.7,1.8-3.6,2.1-1,1.8.9,0,3.1-1.8,2.2-2,2.8.2,1.1s3.1-4,4.4-6.7,2.3-3.5,3.4-3.6,1.1-3,1-4.9c-.1-2-.8-3.8,0-5.1.8-1.3,0-2.5,1.1-2.5s2.7-1.6,4.3-3.3c1.7-1.7,2.7-1.8,4.5-2,1.8-.2.8-.8,1.9-1.1,1.1-.3,1.9-1.4,2.7-2,.8-.7,3.9,0,5.7,0s3,.2,3-1,.8-2,1.9-2,1.5-.3,1.5-1.8.5-2.4,1.4-3.1c.9-.7,1.1-2.2,1.4-3.2.3-1,1.3-.4,1.3-1.8s.5-3,.5-4.2,1.2-1,1.8-1.8c.5-.8-.5-1.9.4-4.2.8-2.4,0-4.5,0-6.7s0-4.3.8-5c.8-.7.4-1.1-.2-1.4-.6-.3,0-1.1.6-1,.5.1,1.1,1.3,2.1.7,1-.6,1.9-3.2,2.7-5.3.8-2.1,2.2-2,3.3-2.5,1.1-.5,3.3-3,4.8-6.8s0-7.4-.7-9.9c-.6-2.6-1.4-2-3-2h0ZM351.1,268.2c2.3.3,3.9-1.3,4.7-.3,0,0,0,.1.1.2,1.1,2-2.9,3.2-6.7,3.3-1.2,0-2,.2-2.7.3-1.5.2-2,.3-2.4-.7-.6-1.5,4.5-3,7-2.7h0ZM345.8,273.5c0,.1,0,.2,0,.3-.6,1.2-5.2,3.5-7.9,4.8-2.9,1.5-6.8.8-6.8-1.5s2.1-1.8,2.6-.8c.2.4.7.1,1.4-.4,1.2-.8,2.8-2.3,4.2-2.2,2.3.1,2.9,1.5,4.4.5s1.8-1.5,2.1-.8h0ZM334.9,259.7c2.1.8,5.3-.9,6.4,1.7,1.1,2.6,3.5,4.5,1.2,4.7-2,.1-4.5-2.6-4.4-1.1s-1.1.8-1.1,3-1.5,5.5-2.4,5.3c0,0,0,0,0,0-.9-.4.5-3.8-1.3-4.4-1.8-.6-4,2.6-3.6.6.3-2,3-3.6,1.4-6.2s-4.7-2.6-5.3-.6c-.6,2-2.7,1.1-3.5,2.6-.8,1.5-1.5,4.9-.9,7.3.6,2.4-.1,3.6-2.4,5s-3.5-2.1-2.6-6.5c.6-3,2.3-5.9.8-5.9s2-3.6,5.2-4.4c3.2-.8,7.1-.5,7.1-1.4s.1-.3.4-.4c1-.3,3.5,0,5.2.7h0ZM314.9,247.2c2,0,7,.4,7.3,3,.3,2.6,3.3.1,3.6,2.6.3,2.1,2.3,3.7,1.9,4.8,0,.2-.2.4-.4.5-1.2.9-.9-1.4-3.2-1.4s-4.6,2.1-6.4,1.2-.9-2.1-2.6-2.1,1.2-3.2-1.2-1.8-6.1,4.7-7.7,3.2c-1.7-1.5-3.2.5-4.4-.8s4.2-4.6,6.8-4.4c.6,0,1.2-.2,1.8-.7,1.7-1.3,3-4.2,4.5-4.2h0ZM282,225.2c1.2,1.5,3,7.8,4.1,9.7s1.1,5.2-.3,5.3c-1.7.2.1-4.4-2.9-6.1-3.6-2-5.2-5.6-5.2-7.6s3-2.9,4.2-1.4h0ZM220.1,187.4c.2-1,1.2-2.7,2.7-2.7s1.4-2-1.1-3.2c-2.5-1.2,3.6-2,4.9,0,1.4,1.9,3.9,3.3,5.2,1.9,1.4-1.4,9.3-5.2,9.3-3.4s-5.9,3-8.2,5.1-2.2,1.5-4.2,1.9c-2.1.4-.4,2.4-2.9,2.6-2.5.2-8.4.4-9.3-1-.3-.5,3.3-.1,3.5-1.1h0ZM195.3,166.3c1.1-.1.4-1.4,1.9-2,1.6-.6-.3-1.5.2-2.2s3.7.7,3.7-.5c0-1.2-3.2-2.2-4.3-1.5-1.1.7-3.6,2.4-6.6,1.1-.9-.4,7.6-1.3,9.1-2.6,1.4-1.3,8-2.8,8.4-1.6.5,1.2-3.5,2-1.6,3.1,1.9,1.1,5.1.4,5.8-.8.7-1.1,3.9-1,1.9,1.5-2,2.5-2.7,2.8-4.7,2.5-2.1-.4-3.3.7-2.3,1.4,1,.7,1.1,1.3-1,1.8s-3.5,2.1-4.4,1.9c-.9-.2,3.6-3.4,2.5-4.2-1.1-.8-4,1.4-4,2.5,0,1-1.9,1.1-3.1,1-1.1,0-2.7-1.1-1.5-1.3h0ZM311.9,379.4c0,0,0,.1,0,.2,0,0,0-.1,0-.2ZM311.6,369.1h0,0ZM307.8,369.1c-.9,0-1.7,0-1.9,0,.2,0,1,0,1.9,0ZM308,369.1h.6-.6ZM310.3,369.1h-.1.1ZM311,381.2c.1,0,.1-.1.2-.2,0,0,0,.1,0,.1s0,0-.1,0ZM434.5,423.9c-.7.2-1.3.2-1.8.1.5.1,1,.1,1.8-.1ZM386.8,424.5h0,0ZM385.4,425c-.2,0-.3,0-.4.1.1,0,.3,0,.4-.1ZM380.7,469.7c-.3-.1-.7-.2-1.1-.2.4,0,.8.1,1.1.2ZM378.9,492.5s0,0,0,0c0,0-.1,0-.2,0,0,0,0-.1.1-.1ZM379.1,492.8c0,0,0-.1-.1-.2,0,0,0,.1.1.2ZM379.6,493.4c0,0,0-.1-.1-.2,0,0,0,.1.1.2ZM375.6,445.6c-.3,0-.5.2-.8.4.3-.2.6-.4.8-.4ZM377.3,445.8c-.5,0-1-.3-1.6-.2.6,0,1.1.2,1.6.2ZM379.5,469.5c-.5,0-1,0-1.5,0,.5,0,1,0,1.5,0ZM385.8,511.9c0,0,.2-.1.3-.1-.1,0-.2.1-.3.1ZM422.7,424.5c.2,0,.4,0,.6.1-.2,0-.4,0-.6-.1ZM418.8,500.2c-.2.1-.4.2-.6.2.2,0,.4,0,.6-.2h0ZM419.6,499.3c0,0,0-.1.1-.2,0,0,0,.1-.1.2ZM431,520.7c0-.2,0-.5.1-.7,0,.3,0,.5-.1.7ZM431.5,518.2c0-.4.1-.8.1-1.2,0,.4,0,.7-.1,1.2ZM431.5,423.3c.2.3.6.5,1,.6-.4-.1-.8-.4-1-.6ZM431.6,516.4c0-.5-.1-.9-.4-1,.3.2.4.5.4,1ZM424.5,424.9c.2,0,.4,0,.5.1-.2,0-.4,0-.5-.1ZM410.8,413.6c.2-.1.4-.2.8-.2-.4,0-.6,0-.8.2ZM410.5,413.9c0,0-.1.1-.2.2,0,0,0,0,0,0,0,0,.1-.1.2-.2h0ZM410,414.9c-.1.2-.3.4-.5.5.2,0,.4-.3.5-.5ZM401,508.4h0,0ZM402.5,508.6c.4,0,.7,0,.8,0-.1,0-.4,0-.8,0ZM420.4,539.4c-.1.2-.3.3-.4.5.1-.2.2-.3.4-.5ZM422.2,537.3c-.4.5-.9.9-1.2,1.4.4-.4.8-.9,1.2-1.4ZM358.1,432.1c0,.1.1.2.2.3-.1-.1-.2-.3-.4-.4,0,0,.1.1.2.2h0ZM358.9,434.6c.2-.1.3-.3.4-.5,0,.2-.2.3-.4.5ZM358.8,432.9c.1.1.1.2.2.3,0-.1-.1-.2-.2-.3ZM359.2,433.6c0,.1,0,.2,0,.3,0,0,0-.2,0-.3ZM376.2,469.6c.4-.1.9-.2,1.4-.2-.5,0-1,0-1.4.2ZM387.1,511.2c0,0,.1-.1.2-.2,0,0,0,0-.1.1,0,0,0,0,0,0h0ZM399.5,508.4h.3-.3Z"/>
    <path class="cls-1" d="M362.7,360.7c.6-.8-4.1-3.8-6.4-3.8s-9.7-5.2-16.5-6.7-12.8,3.4-12.1,4.2c.9,1.2,4.2-1.5,5.9-2.7,1.7-1.2,3.2.6,3.3,1.4s2.3,1.2,5.8,1.4c3.5.1,4,3,7.3,3.8,3.3.8,0,2.1,1.7,2.7,1.7.6,10.5.5,11.1-.3h0Z"/>
    <path class="cls-1" d="M348.6,367.4c.6,1.1,6.4,2.6,7,1.2.6-1.4-7.7-2.5-7-1.2Z"/>
    <path class="cls-1" d="M387.6,367.7c1.4,2.1,5.3.9,5.6,0,.6-1.5-7-2.1-5.6,0Z"/>
    <path class="cls-1" d="M409.3,629.6c1.8.9,5.6-3.6,4-4-1.7-.3-5.7,3.1-4,4Z"/>
    <path class="cls-1" d="M413.9,629.9c1.2.6,6.2-1.5,5.6-2.6-1.2-2.3-6.8,2-5.6,2.6Z"/>
    <path class="cls-1" d="M303.9,431c-1.5,2.3,1.5,4.5,2.1,3.5.8-1.2-.6-5.8-2.1-3.5Z"/>
    <path class="cls-1" d="M440.2,140.8c.1-1.6-1.7-.6-2.7-2.5s-6.2-2.7-6.7-1.2c-.2.6-1.8,1.5-.5,2.9,1.3,1.4,2.2.8,3.7,2.2,1.5,1.4,6.1.2,6.2-1.4h0Z"/>
    <path class="cls-1" d="M543.4,137.1c-1.3.7-4,.8-6.1.3-2-.5-5.3-2.2-7.6-.9-2.3,1.3-.9-1.9,1-2.2,1.9-.3,1.1-1.2.6-3.2-.5-2,3.2-.7,4.9,1.6s4.8,3.3,7.5,2.5,0-3,1.2-4.6c1.1-1.5-8.4-6.3-8.9-7.9-.5-1.6,2.4-.5,5.1.6,2.6,1.1,3.2-2.1,3.2-3.5s-5.7-1.5-8.2,0-5-1.8-1.5-2.2c3.4-.4.3-1.8,1.3-2.8,1-1,5.4,2.9,7.6,2.2,2.2-.7,3.8,0,5.8-1.4,1.9-1.5-3.4-2.9-4.6-4.2-1.1-1.3,5.6-.8,7.6-.7s2.5-2.9.9-2.3c-1.6.6-7.4-2-6.2-3.8,1.2-1.8,3.4.3,6-1,2.5-1.3.2-6.3-1.6-6.3s-6.1-.6-6.1-1.5-3.5-1.7-2.5-2.6c1-.9,2.3,1.1,4.7-.6,2.3-1.7,7.2.4,9.3,0,2.1-.4-.9-4.3-2.1-3.6-1.2.7-5.4.9-5.7-1.2-.3-2.1,4,0,4.7-1,.7-1-5.9-3.6-6.9-1.5-1,2.1-4.7,1.4-2.7.2,1.9-1.2,2.3-4.7,2.1-6.4s6.9-1.8,6.1-4.7c-.8-2.8,3.3-3.4,5.7-3.4s0-3-2.3-2.7c-2.2.3-4.6,2.8-5.7,1.8s2.6-2.8,4.7-2.8,6.9-.2,8.6-1.2-3-1.9-6.3-1.5c-3.2.4-3.2-1,1.6-1.1,4.9,0,4-1.1,7.5-1.5,3.4-.4,2.3-1.8,4.5-1.9,2.1,0,7.7-2.4,7.7-3.5s-8-3.3-11.7-3.3-6.8.6-7,3.2c-.2,2.6-5-.5-7,.4-2,.9-1-2.1-3-1.1-2,1-4.2,3.4-6.7,4.5-2.4,1-4.2,3.5-5.8,3.7s3.2-4.7,5.7-7.1c2.4-2.4,1.1-5.3-2.1-5-3.2.3-2.5,2.3-4.3,2.7-1.8.4-10.5,4.8-10.9,3.4-.4-1.3,7.2-3.5,7.1-4.5,0-.9-9.6-1-13.9-.4-4.2.6-11.7,3-11.8,1.8-.1-1.2,8.7-2.9,13.2-3.4,4.5-.5,12.7.3,16.1-1.1,3.4-1.4,8.6-1.5,9.5-2.6.9-1.1-4-2.6-6.4-2.5-2.4,0-4.9-.2-4.7-1.4.2-1.2-3.8-1.5-4.2-2.4-.4-.9-8-.2-9.6-1.2s-6.4-1.5-10.4-1.2c-4,.3-12.4.2-14.3.4-1.9.2-3.1.9-4.9.8-1.7,0-4.4.5-3.3,1.6,1.8,2-2.7,2.8-2.4,1.3.3-1.5-4-2.2-5.3-1.1-1.5,1.3-8.3-1.3-9.3,0-1,1.3-9,.9-11.3,1.3s3.6,2.1,3.4,3.1-7.6,0-6.1,1.8c1.5,1.8,6.4,3.1,8.7,5.5,2.3,2.3-1.8.9-4.5-.8s-6-1.1-7.6-2.8-7.7-3-9.2-2c-1.8,1.2,4.1,3.4,4.1,4.8s-4-.3-4.8.2c-.7.5-4.2-3.4-6.3-3.4s-.3,1.8-.3,4.3-4,4-2.8,2.3c1.1-1.7.3-6.2-1.8-7-2.1-.8-7.6,1.7-10.4,1.6-2.8,0-6.6.8-4.1,2.2s-.1,2.2-2.2.7-9.1,0-7.7,1c1.4,1,1.9,4,1,5.2s-3.9-1.2-6.6-1c-2.7.2-16.3,6.7-15.5,8.4s6.6.3,8.4,1.3c1.8,1-.6,4.8-2.8,6.3-2.2,1.5-10.5,0-10.7,1.9s-13.1,2.1-13.1,5.1.6,2.2,2,2.5c1.8.4,4-.2,5.7,1.6,1.6,1.8,6.2,1.9,9.3.7,3.1-1.2,5.5.2,5.4,2-.1,1.8-7.1-.7-9.2.6s-8.7.2-8.4,1.6c.3,1.4,3.5,1.1,6.2,1.6s.2,1.6.1,2.7c-.1,1.1,1.4.9,4,2.2,2.6,1.3,7,2.1,5.6.6-1.4-1.5,2.7-1.3,3.4-.4.7.9,2.6-1.3,4.6-.8,1.9.5,2.6-1.8,4.1-.8s8.6,1.6,11,2.9c2.4,1.3,5.8,1.6,5.5,3.5s2,3.3,4.8,4.6c2.7,1.2,3.2,3.8,3.1,5.6-.1,1.7,2.9,2.9,2.4,3.8-.5.8-.1,1.9,1.7,3.5s-2.8,2.8-1.7,4.2c1.1,1.4-1.6,4.2,1.6,4.7s2.7-2.2,5.2-2.2-.1,2.1,1.2,3.4c1.3,1.3,4,1,6.6,3.1s.9,3.1-1.4,1.4c-2.3-1.7-9.1-1.3-9.1-.7s7.5,4.9,9.2,4.2,4,2.5,3,3.5c-1,1-.5,3.5-.7,4.8-.2,1.2-2.7,0-4.4.2s-2.7.7-2.7,2.4-2.5,2.9-2.8,5.1c-.3,2.1,2,2,3.3,2.9s-2.4,1.5-2.6,3c-.2,1.5,3.4,4.2,4.8,5s.1,4.1.6,5.9c.5,1.7,2.2-.4,2,1.8-.2,2.2,1.6,2.1,1.7,3.4.1,1.3,3.2,1.1,2.6,2.9-.6,1.8.9,3.1,1.6,4.1s3.3,2.7,3.9,4.1,2,3,3.9,2.5c1.8-.5,1.9,1.2,3.3,1,1.4-.2,3.6.6,4,1.7.4,1.1,4.8,2.1,6,2.3,1.2.2,1.4-2,2.5-2.6s.7-5.1,1.7-5.4c1-.3.7-5-.3-5.4-1-.4-.6-2,1.7-1.7,2.3.3,1.5-2,2.6-2.3,1.1-.3.6-2.4,1.4-2.6.8-.2.7-1.6.1-2.4s.1-1.4,1.3-1.6.9-1.9-.7-2.5-1.1-2.4.5-1.3c1.6,1.1,2.8.3,1.9-.9-.9-1.2,1.1-1.8,3.2-2s3.2-1.3,2.8-2.9c-.4-1.6,2.4-1.5,1.7-.1s-.3,2.8.7,1.8c1-1,2.9-.3,6.4-1.3,3.4-1,6.8-3.9,7.6-6.6s4.8-2.4,4.2-4.2.7-2.5,3.2-1.3c2.5,1.2.5-.8,3.3-.8s2.3-1,5.1-1.1,9.8-1.3,12.2-3.3c2.4-2,7.6-3.8,9.7-5.1,2.1-1.3,2.6-2.4,1.3-1.7h0Z"/>
    <path class="cls-1" d="M488.4,639.3c.3,1.3,1.6.7,3,1.9s2.5,3.4,3.9,1.3c1.3-2.1-7-4-6.8-3.3h0Z"/>
    <path class="cls-1" d="M301.5,104.8c1.1,3,2.3.9,4,2.1,1.7,1.2,4.2,2,5.6.8,1.4-1.2,2-2.1,2.4-1.1.7,1.7,4.1,2,11.4,2.1,7.3.2,5.5-3,7.6-1.8,2.1,1.2,7,1.2,9.1.8,2.1-.5,3.2-3.8,3-5.5s-16.4-3-19.3-1.4-7.4-.8-9.7.4c-2.3,1.2-1.5-1.5-5.6-1.7s.3-2.3,1.1-3.2-6.2-3.3-9.1-2.7c-2.9.6-4.6-.9-7.3-2.1-2.7-1.2-10.1-.9-8.7,1.2,1.1,1.5,9.9,4.7,10.8,3.2s3.2,1.8,4.5,3.5c1.4,1.7-.9,2.3.1,5.3h0Z"/>
    <path class="cls-1" d="M372.9,129.1c-.5-1.4-4.4-1.5-5.2.1-.8,1.7-4-1.8-4-3.2s-4.9-.2-4.2-2.4-5.6-2.9-7.3-2.9-4.1,1.4-3.8,2.9c.3,1.5-1.8.9-2.1-.8-.3-1.7-4.4,1.8-5.6,1.8s.8-4.4.1-5.8c-.6-1.4-1.5-1.8-2.4-4.1s-5.5-1.4-6.7,0-5.2.8-7.3,2.9c-2.1,2.1.1,4.2,1.1,5s-3.2,2-1.8,3.2,3.5.6,3.6,2.6c.1,2-5-.6-5.8-2.3-.8-1.7.3-3.2-.8-4.4-1.1-1.2-.1-2.7,1.8-4.9s3.5-1.8,3.5-3-8.5-1.2-13.5,3.3c-5,4.6-3.5,10.6-3.2,11.9.3,1.2,4.7.6,7.3,1.4,2.6.8,1.2,1.8-.8,1.5s-5.3-.9-5.2.5c.1,1.4,4.2,3.9,6.7,3.3,1.6-.4,2.8-.2,3.5.8,1.1,1.4,4,.9,6.8,1.1,2.9.1,6.2,1.2,7.6,1.4,1.4.1,3-.8,3.5-1.5.5-.8,6.1,1.2,7.7,1.1,1.7-.1.6-1.7-.5-2.1s-.6-2.4.8-1.7,3.6,1.2,4.1,2.6c.4,1.2,1.7.6,1.8,1.7s5,2.3,5.2,3.5-4.7,1.8-3.3,2.9,3.5-1.4,5.3-1.5c1.8-.1,1.8,3.9,3.2,3.3,1.9-.8,3.3.8,5.2,3.3s-.1,5,0,5.9,3.6.6,5.6-.5c2-1.1,3.8,1.2,5.3,2.6,1.5,1.4-5.6,3.6-5,2.4.6-1.2-4.2-4.9-8.7-3.2-4.4,1.7-1.4,4.2-.9,5.8.5,1.5-4,3-8,1.7-4.1-1.4-2.9.9-4.5.9s-3.5,2.6-2,4.2,4.9.1,7.6.3c2.7.1,3,.9,3.3-.6s3.2-.8,5.2-.3c2,.4,1.5,3.2,4,3.5,2.4.3.5,2.7,2,4.4,1.5,1.7,6.4.8,8.2,2.6s9.5,5.4,10.6,4.1c1.2-1.5-6.7-8.5-9-9.1s2.3-1.4,5.2.9,7.1,3.3,9.3.6c2.1-2.7-1.8-2-1.8-3.9s-1.4-4.7-3.5-4.7-7.6-4.2-5.6-5.2-.6-2.1.9-3.8,3,1.5,4.9,1.7c1.8.1,2.1,2.4,5,4.9,2.9,2.4,3.2.8,3.6-.9.5-1.7,3.6-.3,3.5-2-.1-1.7,2.6-3.6,4.4-4.4s-1.5-2.6-4-2.4c-2.4.1-2.9-1.5-2.9-2.6s-4.6-3.6-6.1-3.2c-1.5.4-4.1-2-6.1-2.1-2-.1-4.9-1.7-4.6-3.8s4,.6,4.7-1.1c.8-1.7-3.8-.8-4-2-.1-1.2,1.1-.8,2-1.5.9-.8-.8-2.3-1.8-2.9s-1.4,1.2-2.4,1.2-.1-1.7.6-2.7c.8-1.1-3.5-2.3-5.3-1.7s-2.4-.5-2.4-1.7-3.2,0-4.4.9c-1.2.9-2.7-.9-1.2-1.1,1.5-.1,3.3-1.4,2.9-2.7h0Z"/>
    <path class="cls-1" d="M359.2,153.6c1.8-.3,1.5-3.1.5-4.6-.8-1.1-2.7-1.2-4.4-1.1-1.7.1-4.6,2.7-3,5.3,1.5,2.6,5.2.6,7,.3h0Z"/>
    <path class="cls-1" d="M305.7,54.8c2.1-1.4,3.8-.5,2,.5-1.8.9-1.2,1.5,1.4,1.4,2.6-.2-1.1.8-1.1,2.3s3,.6,3.2,2.1,6.7,2.1,8.7.3c2-1.8,1.2.5,1.1,1.7-.1,1.2,9.3,2.3,9.7.8.5-1.5,1.8-.9,3.6-.5,1.8.5,10.8-1.7,10.9-3.5.1-1.8,2.9.9,0,2.9-2.9,2-8.7,1.7-11.2,2.4s1.7,2.6,4.2,4.6-3.3.9-5.8-1.7-7.9-2.6-10.8-2.4c-2.9.2-2,5.5.1,5.5s4.2.8,6.4,4.1,6.7,2.6,6.7,4.1-5.9-1.2-9.3-1.8-8.7,1.5-8.8,3.9,4.9,2.1,8.2.2c3.3-2,.9.6-.8,2.1s4,2.7,4,4.6-4.1,1.2-4.6-.5-2-3.3-5.9-3c-4,.3-2.9,3-.5,3.3,2.4.3,2.6,2.1-.1,2.1s-8.9,1.7-7,3.5c2.1,2,9.9,0,11.2,1.2,1.4,1.2,5.2,1.7,6.1.3.9-1.4,4-.8,7-.8s3.8.4,5.2,1.7c1.4,1.2,3.8.8,5.5-.5,1.1-.8,2.4-1.2,3.8-1.2,2.1,0,2.6-1.4,1.5-3s-3.8,1.2-4.1,0c-.4-1.5-2.9-2-7.1-1.4-4.2.6-2.4-2.7.1-2s6.1.5,9-.3c2.9-.8.6-2.1.6-3.3s3.6-.5,6.4-.5,6.7-4.4,6.8-7c.1-2.6-6.1-2-9.1-2s2-2.3,7.8-2c5.8.3,3.2-2.3,4.2-3.2s3.8,1.1,6.7.5c2.9-.6.9-3,2.9-3s4.6-2.1,10.8-5.6c6.2-3.5,11.1-2.9,11.4-4.9.3-2-8.7,0-10.2-.6-1.5-.6,6.2-2.3,8-1.8,1.8.5,4.2,0,10.5-3s3.5-3.8.9-3.3-5.5-.5-5.3-2.1c.1-1.7-3.8-.2-4-1.1-.1-.9-3.8-.5-7.8,1.1s-.3-1.5,1.4-2.1c1.7-.6-10,0-12-1.4-2-1.4-4.2,2.3-6.1.5s-6.5-.3-5.9,1.1c.6,1.4-.8,1.4-2.6-.2-1.8-1.5-5.3.2-8.5-.3-3.2-.5-1.8,2.6-5.3,1.1-3.5-1.5-7.3-.8-6.2-.3s-.3,1.4-1.8.9c-1.5-.5-2.9.2-2.1,1.7.8,1.5-5.6-.5-5.6,1.2s-2.3,2.6-4.1,1.1-7.6-2-5.9-.6c1.7,1.4-5.2.6-3.3,2,1.8,1.4-2.3,2.4-2.3,1.7s-3.8-2.1-5.3-.8c-1.5,1.4-2,3-2.7,2.1s-4.1-.6-7.3.6.5,2.1,2.6.8h0Z"/>
    <path class="cls-1" d="M341.6,174.2c.3-1.5-5-2.1-4.7-3.8.3-1.7-5-3-6.7-3.9-1.7-.9-4.2-1.4-4.2-3.2s-3.6-.5-3.8,2.3c-.1,2.7-1.7,2.1-.9,4.7s-3.3,3.2-2.9,4.6c.5,1.4,2.4-.1,4.2-.1s-.5,2.5,1.8,2.7c1.8.1,5-2,5.8-3.2.8-1.2,2.3-1.7,4.4-.1,2.1,1.5,6.7,1.7,7,.1h0Z"/>
    <path class="cls-1" d="M330.6,182.6c2.4,1.5,6.1-2.6,5.8-3.8-.3-1.2-8.7,2-5.8,3.8Z"/>
    <path class="cls-1" d="M344,185.9c1.1-.1,3.2-3.9.5-3.8s-2.1,4-.5,3.8Z"/>
    <path class="cls-1" d="M297.8,85.7c-.3-.9-11.8.5-10,1.8,3,2.3,10.3-.9,10-1.8Z"/>
    <path class="cls-1" d="M227.8,85.5c.8-1.8-5-1.5-4.6-.9,1.1,1.4,3.8,2.7,4.6.9Z"/>
    <path class="cls-1" d="M240.4,84.8c2-.3,1.1-1.8-2.1-1.4s-8.7.4-8.7,2.7,1.1,2.7,4.6,3c3.5.3,6.5-3,4.9-3s-.6-1.1,1.4-1.4h0Z"/>
    <path class="cls-1" d="M233,81.9c1.5.6,3-1.4,4.1-.5,1.1.9,5.8,1.7,5.8-.8s-5.9-2.7-7.4-1.8-8.5,1.2-6.5,2.7c1.2.9,2.6-.3,4.1.3h0Z"/>
    <path class="cls-1" d="M258.4,77.2c1.8-1.2,5.2.8,4.6,2.1-.6,1.4-5.9-.3-5.5.9.1.4.8,2.3,4.4,1.2,3.6-1.1,6.7-.3,9.1,1.7,2.4,2,4.7,2.7,6.4.8s-2.1-2.3-1.4-3.8c.8-1.5-2.4-2.4-4.1-2.4s-2.3-3-3.6-2.4-2.3,1.7-2.3-.3-7.9-2.1-9.9-1.4c-2,.8.5,4.9,2.3,3.6h0Z"/>
    <path class="cls-1" d="M259.4,89.9c1.2-1.5-4.9-6.4-5.2-4.1s3.9,5.7,5.2,4.1Z"/>
    <path class="cls-1" d="M161.2,224.5c-2.7,1.4,3.8,8.4,5.2,7.5.9-.6-1.6-3.5-1.6-5.3s-.9-3.7-3.6-2.2h0Z"/>
    <path class="cls-1" d="M219.9,96.5c-2.1.2-2,2.3.5,2.3s3.2.8-.3.6-5,2.9-2.6,2.3,5.3-.6,3.5,0c-1.8.6-6.8,1-6.1,2,.5.6,2.4.5,4.4,1.2s3.2,1.2,4.7-.5,3.5-3.3,2.7-1.1c-.8,2.3,2.4.6,6.5.5s-.8,2.4-5,2.7-3.5,2.4-.1,3.2c3.3.8,10.5-2.1,12.1-3.8,1.7-1.7,3.2.9,4.9-.3,1.7-1.2,4.9.2,7.7-.4,2.9-.6,3.3-6.1,1.2-7-2.1-.9-2.1,1.1-3.8,1.4-1.7.3-2.6-1.8-3.9-3.2s-.5-3.9-2.4-3.7c-2,.3-6.2,3.5-3.6,3.8,2.6.3,1.7,1.7.3,2.3s3.2,1.7,2.6,2.6-7.6.2-7.9-1.4c-.3-1.5-5.8-4.2-8.1-3.6s-1.4-1.8-3.6-2c-2.3-.2-1.5,2-3.6,2.1h0Z"/>
    <path class="cls-1" d="M190.6,126.4c2.7.6,3,5.5,4.9,5.5s.3-1.5,2.3-1.5,1.5-1.1,3.3-.9c1.8.1,3.3-.5,3.3-2.6s1.4-2.9,3.2-3.3.1-2.7,2.7-3.3c2.6-.6,9.7-3.6,10.9-4.6,1.2-.9-1.5-2.1-4.2-3.8-2.7-1.7-4.9-2.1-7-.8-2.1,1.4-.5-1.5-2.1-.8-1.7.8-6.2-1.2-6.8-2-.6-.8-8.8,1.7-10.8,1.7s.1,2.1,1.5,3.2c1.4,1.1-3.3,4.4-2.4,5.2s-.9,2.7-3,5.2c-2.1,2.4,1.5,2.3,4.2,2.9h0Z"/>
    <path class="cls-1" d="M197.5,99.2c1.2-.6,1.5-.8,2.4-.5,1.6.6,2-.9,2.7-1.7.8-.8.5,2.7,2.4,2.7s1.4-3.6,2.9-2.6,2-.5,2.3-1.5c.3-1.1.3-2.9,2-3.2,1.7-.3.3,1.7,1.1,3,1.1,2,3,.2,3.2-.8.1-.9,2.9-.3,2.7-1.4-.1-1.1.8-1.4,0-2.6s1.2-.9,2.1-1.8-1.2-.2-2.7-1.5c-1.5-1.4-2.1.4-2.1,1.4s-2.9.2-4.6-.5-3.8,2-6.2,3.2-2.6,3.3-4.9,3.2c-2.3-.2-5.6,2-4.6,2.4,1.1.5,0,2.6,1.2,2h0Z"/>
    <path class="cls-1" d="M287.4,69.9c2.2,1.1.9,2.6,3.3,3.6s9.4-1.4,10,.3c.6,1.7-7.1,1.8-6.1,2.9,1.1,1.1,5.5,2.7,4.9,3.6-.6.9,7.3,3.5,8,2.3.8-1.2,2.9-.9,4.9-.2,2,.8,2.1-4.7,3.5-3.8,1.4.9,1.2-2,3.5-2.9,2.3-.9,5.6-.9,5.8-2,.1-.8-.6-1.8-3.3-1.5s-4.5-.8-3.3-2.3-3-2-1.5-3.2c1.5-1.2-2.9-2.4-2.4-.6.5,1.8-2.7.2-3.2-1.5s-6.7-2.3-10.8-5.9-8.4-1.2-5.9-.8c2.4.5,2.3,1.7.3,1.5-2-.2-5.5.2-2.3,1.4,3.2,1.2-.3,1.7-2.9,1.7s-2.7,3.3.6,3.8.9,2.4-1.8,1.7-3.6.6-1.2,1.8h0Z"/>
    <path class="cls-1" d="M208.9,101.5c2.7.3,5.5-2.1,5.3-3.5-.1-1.4-6.7,3.3-5.3,3.5Z"/>
    <path class="cls-1" d="M309.2,86.9c-2.7-1.4-6.2,1.5-3.3,2.6,2.4.9,6.1-1.2,3.3-2.6Z"/>
    <path class="cls-1" d="M294.5,102.1c-3-2.3-9.9,2.4-8.7,3.3,1.4,1.1,7.6,2.6,10.3,2.4,2.7-.2,1.4-3.5-1.7-5.8h0Z"/>
    <path class="cls-1" d="M276.7,129.1c3.3,2.3,2.3-1.8,6.1-1.7,3.8.2,4-6.1,4.6-8.3s-3-2.1-2.1-.5-.1,3.3-.5,1.4c-.3-2-3.2-.2-4.2-1.7s3.3-1.7,4.4-3.6-3.5-1.7-2.4-3.2c1.1-1.5-6.7.2-4.4,1.1,2.3.9.1,2.1-2,.6-2.1-1.5-8,1-5.9,2.7,1.7,1.4,6.7-.9,3.8,3-2.9,3.9-4.1-1.1-6.8-.6-2.7.5-1.5,3.8,2.6,5,4.1,1.2,3.6,3.5,7,5.8h0Z"/>
    <path class="cls-1" d="M340.2,114.1c-.9,2,2,2,2.1,4.2.1,2.3,3,3,5.2,1.7s8.2.4,8.2-1.4-6.4-4.7-8.6-4.2c-2.3.5-5.9-2.3-6.8-.3h0Z"/>
    <path class="cls-1" d="M272.8,92.5c-2.7-1.1-1.1,2.1,1.1,3.9,2.1,1.8-1.1.9-4-1.1-2.9-2-2.6,1.4-1.2,2.4,1.4,1.1-.3,2.6-2.1.2-1.8-2.4-2.7-5-5.6-5.2-2.9-.2-1.6,2.8-.5,4.2,1.5,2,3,2.4,5.5,3.8s6.4-.6,8.2-.2-2,2.7-.8,4.2,4.6.5,7.1.3c2.6-.2,1.4-1.7,2.9-2.7,1.5-1.1-1.5-.9-.3-3.5,1.2-2.6-3.8-6.7-4-5.2-.1,1.5-3.6-.3-6.4-1.4h0Z"/>
    <path class="cls-1" d="M285.5,84.9c2.3,0,4.1-.3,6.1-1.1,2-.8-1.1-.8.3-2.6,1.4-1.8-3.3-2-3.6-1.4-.3.6-6.2-3.6-7.1-2.3-.9,1.4,2.1,7.3,4.4,7.3h0Z"/>
    <path class="cls-1" d="M266.6,138.8c.9-1.1,4.7,2.1,4.9-.1s-4.2-3.3-6.1-4.6-2.6-.6-5.5-2.7c-2.9-2.1.8-3.2-1.4-4.9s-2.9-6.2-1.4-7.7c1.5-1.5,3.2-3.8.5-4.9-2.7-1.1-7.1.9-6.7,1.5.4.6,4.2,2.7,4.2,3.7s-3.5-2.6-4.7-1.8c-1.2.8-2.6-1.5-3.6,0s1.4,6.8,2.3,8.3-.9,1.5-2.1,1.8c-1.2.3-1.4-4.2-2.6-5.9s-6.1-3.6-6.4-2.4c-.3,1.2,3,1.2,2.6,2.9-.4,1.7-2.3-1.1-3.9.3-1.7,1.4-1.4.5-1.1-.9.3-1.4-2.4-2.9-5.5-2.6-3,.3-1.4,2.4-2.3,3.2s-5.5-.4-2.6-1.1,1.7-2.3.6-3.9-3.9.3-8.7,2-6.8,3.5-6.2,3.6c.6.2.8.9-1.1,2.4-1.8,1.5,0,2.9,1.7,2.9s.2,1.3,1.4,1.7c1.1.3,6.5-2.1,8.1-1.1,1.5,1.1-9,1.7-9,3.5s5.8,2.9,10,2.1,11.7.6,11.7,1.7-5,.8-8.8.6-10.3,1.1-10,2.3c.3,1.4.8,1.4,4.7,3.2,3.9,1.8,8.1-.9,7.9,1.7-.1,2.6,2.1,3.2,7.4,3.3s7.7-2.4,10.3-2.3c2.6.1,3.8-.3,5-2.1,1.2-1.8,2.3-.8,2.6.1.3.9,3.6.8,4.4,1.5,1.9,1.9,8.4,1.4,10.8.1,2.4-1.2-1.1-4.6-2.3-3-1.2,1.5-2.3.6-2.6-.1s2.4-1.2,3.3-2.3h0Z"/>
    <path class="cls-1" d="M279.2,70c1.1-1.8-6.4-3.2-4.6-1.7,1.1.9,3.5,3.5,4.6,1.7Z"/>
    <path class="cls-1" d="M262,104.5c1.1-1.2-2.3-3.8-3.2-1.7-.9,2.1,2.1,2.9,3.2,1.7Z"/>
    <path class="cls-1" d="M427.1,236.9c1.4-.8-.1-1.7-1.6-1.1s-5.6,6.2-5.6,7.7-.1,3.3-1.5,3.2c-1.4-.1-3,1.2-1.9,2,1.1.8-2.9,3.1-1,4.1,1.3.7,3.4-.3,5.3-.1,1.8.2,3.3.3,4.9-.8s1.5,1,3.1.8c1.6-.2-.9,1.3-.8,2.4.1,1.1,1.7-.6,2.9-1.2,1.2-.6,2.7,0,2.1,1-.6,1,3.3,2,4.2.4s-.9-4.1-1.5-3-1.5-.8-.2-1.8c1.3-1-.2-1.4-1.4-.8-1.2.6-.9-2.7.2-3.3,1.1-.6-2.7-1.8-2.7-.7s-2.7.4-3-.6c-.3-1-2.2-1.3-1.5-2,.7-.7-2.3-1.1-2.6.1-.3,1.2-1.2-.8.3-2.4,1.5-1.6,1-3,2.4-3.9h0Z"/>
    <path class="cls-1" d="M397.1,243.3c.3,1.2,9.1,4.9,9.4,3.2.3-1.7-9.7-4.2-9.4-3.2Z"/>
    <path class="cls-1" d="M94.1,202.5c0-.8-1.1-.8-2.7,1-1.5,1.8-2.8,2.7-3,3.5-.2.8-2-.1-2.5.9-.5,1.1.4,3.4,1.4,2.7,1.1-.8,1.1,0,1.8,0s3.8-2.1,4.5-3.2c.7-1.1-1.2-1.4-1.3-2.1,0-.7,1.6-.7,2.4-1.1.8-.5-.8-.8-.7-1.7h0Z"/>
    <path class="cls-1" d="M45.8,193.6c-.2-1.2-3.4,0-3,1.1s3.5,1.9,4.8,1.4c1.1-.4,1.5-1.6.7-2.4-.8-.8-2.3,1.1-2.4-.1h0Z"/>
    <path class="cls-1" d="M55.6,220.4c-1.7-.6-6.1,2.1-4.6,2.3,1.1.1,1.5-.9,2.7-.9s3.5-.8,1.8-1.4h0Z"/>
    <path class="cls-1" d="M42.7,227.2c1.8-.8,2.6-1.7,1.8-2.6s-3.2,3.2-1.8,2.6Z"/>
    <path class="cls-1" d="M567.3,171.5c2-.1,1.9-2.3,2.7-2.2s2.1-1.5,2.6-2.5c.5-1-.6-2.8-1.8-2.8s-2.1-1-1.9-1.7c.2-.7-.7-1.6-.6-2.1,0-.5-1.5,0-2.3.1s-2.5-2-3.3-1.6c-.8.4-.2,1.5-.4,2.1-.2.6-2-.6-2,.1s-.8.8-1.4,0-2-.3-2,.3c0,.6-.6.1-1.8-.6-1.2-.7-2.4.8-2.3,1.6,0,.8-.4,1-1.4-.7-1-1.7-2.1.1-1.6,1.1s.3,2-.5,1.6c-.8-.4-1.8.3-2.2,1-.5.7-2.1-2.1-.9-2.7,1.2-.7-3.7-3.4-5.2-3.4s-.5,1.1.5,1.9c1,.8-.7.6-1.3-.1s-1.6-.1-2.2.9-1.6,1.6-1.7,2.3c0,.7,1.7,1.5,3.3.8s3.3-.8,4.2,0-1.5,1.1-.7,1.7.2,1.1-1.8,1c-1.9-.1-4.2.4-3.9,1.1s4.9-.6,5,.1c0,.7,0,1.8,1.2,1.3,1.2-.5.4.9,1,1.2s.5,1.5-1.2,1.6-2.4.4-1.7,1.1c.9.9,2.6.2,4.3-.1,1.7-.4,4.2,1.7,6.2,2.5,2,.8,5.5-.3,5.9-1.4.4-1.1,3.1-.7,4.2-1.4s2.6-1.7,4.6-1.8h0Z"/>
    <path class="cls-1" d="M350.2,342.8c-.7-1.2-1.3-.4-1.3,1s1.1,1.5,1.2,2.3,1.2,1.8,1.4,1.4c.4-.8-.8-1.5-.9-2.1-.1-.6.4-1.4-.4-2.6h0Z"/>
    <path class="cls-1" d="M406.2,396.5c.4.4,1.9,0,2.6-.3s.6-1.3-.2-2c-.8-.7-3.3.4-2.5.7s-.4,1.2,0,1.6Z"/>
  </g>
  <g>
    <path class="cls-3" d="M273.5,372.1c-7.1,0-13-5.8-13-13s5.8-13,13-13,13,5.8,13,13-5.8,13-13,13ZM273.5,346.8c-6.8,0-12.3,5.5-12.3,12.3s5.5,12.3,12.3,12.3,12.3-5.5,12.3-12.3-5.5-12.3-12.3-12.3Z"/>
    <circle class="cls-3" cx="273.5" cy="359.1" r="7.1"/>
  </g>
  <g>
    <path class="cls-2" d="M357.6,471.3c-7.1,0-13-5.8-13-13s5.8-13,13-13,13,5.8,13,13-5.8,13-13,13ZM357.6,446c-6.8,0-12.3,5.5-12.3,12.3s5.5,12.3,12.3,12.3,12.3-5.5,12.3-12.3-5.5-12.3-12.3-12.3Z"/>
    <path class="cls-2" d="M364.7,458.3c0,3.9-3.2,7.1-7.1,7.1s-7.1-3.2-7.1-7.1,3.2-7.1,7.1-7.1,7.1,3.2,7.1,7.1Z"/>
  </g>
  <g>
    <path class="cls-3" d="M363.7,438.4c-7.1,0-13-5.8-13-13s5.8-13,13-13,13,5.8,13,13-5.8,13-13,13ZM363.7,413.1c-6.8,0-12.3,5.5-12.3,12.3s5.5,12.3,12.3,12.3,12.3-5.5,12.3-12.3-5.5-12.3-12.3-12.3Z"/>
    <path class="cls-3" d="M370.8,425.4c0,3.9-3.2,7.1-7.1,7.1s-7.1-3.2-7.1-7.1,3.2-7.1,7.1-7.1,7.1,3.2,7.1,7.1Z"/>
  </g>
  <g>
    <path class="cls-2" d="M322.4,398.8c-7.1,0-13-5.8-13-13s5.8-13,13-13,13,5.8,13,13-5.8,13-13,13ZM322.4,373.5c-6.8,0-12.3,5.5-12.3,12.3s5.5,12.3,12.3,12.3,12.3-5.5,12.3-12.3-5.5-12.3-12.3-12.3Z"/>
    <circle class="cls-2" cx="322.4" cy="385.8" r="7.1"/>
  </g>
  <g>
    <path class="cls-3" d="M725.8,504.7c0,6.9-5.2,11.1-13.4,11.1h-6.2v8.5h-7.1v-30.8h13.3c8.2,0,13.4,4.3,13.4,11.2h0ZM718.6,504.7c0-3.4-2.2-5.4-6.5-5.4h-5.8v10.7h5.8c4.3,0,6.5-2,6.5-5.3Z"/>
    <path class="cls-3" d="M730.9,493.5h7.1v30.8h-7.1v-30.8Z"/>
    <path class="cls-3" d="M772,504.7c0,6.9-5.2,11.1-13.4,11.1h-6.2v8.5h-7.1v-30.8h13.3c8.2,0,13.4,4.3,13.4,11.2h0ZM764.8,504.7c0-3.4-2.2-5.4-6.5-5.4h-5.8v10.7h5.8c4.3,0,6.5-2,6.5-5.3Z"/>
    <path class="cls-3" d="M788,508.9c0-9.3,7.1-15.9,16.7-15.9s9.8,1.9,12.7,5.4l-4.6,4.2c-2.1-2.4-4.7-3.6-7.7-3.6-5.8,0-9.8,4.1-9.8,9.9s4.1,9.9,9.8,9.9,5.7-1.2,7.7-3.6l4.6,4.2c-2.9,3.6-7.3,5.5-12.7,5.5-9.5,0-16.7-6.6-16.7-15.9h0Z"/>
    <path class="cls-3" d="M819.1,512.4c0-7.1,5.5-12.2,13-12.2s13,5.1,13,12.2-5.5,12.2-13,12.2-13-5.1-13-12.2ZM838.1,512.4c0-4.1-2.6-6.6-6-6.6s-6.1,2.5-6.1,6.6,2.6,6.6,6.1,6.6,6-2.5,6-6.6Z"/>
    <path class="cls-3" d="M849.6,491.7h6.9v32.6h-6.9v-32.6Z"/>
    <path class="cls-3" d="M861.1,512.4c0-7.1,5.5-12.2,13-12.2s13,5.1,13,12.2-5.5,12.2-13,12.2-13-5.1-13-12.2ZM880.1,512.4c0-4.1-2.6-6.6-6-6.6s-6.1,2.5-6.1,6.6,2.6,6.6,6.1,6.6,6-2.5,6-6.6Z"/>
    <path class="cls-3" d="M931.6,510.7v13.5h-6.9v-12.5c0-3.8-1.7-5.6-4.5-5.6s-5.2,2-5.2,6.2v11.9h-6.9v-12.5c0-3.8-1.6-5.6-4.5-5.6s-5.2,2-5.2,6.2v11.9h-6.9v-23.7h6.5v2.7c1.8-2,4.4-3.1,7.4-3.1s6.1,1.3,7.8,3.9c1.9-2.4,5-3.9,8.5-3.9,5.6,0,9.7,3.2,9.7,10.5h0Z"/>
    <path class="cls-3" d="M963.5,512.4c0,7.4-5.2,12.2-11.8,12.2s-5.7-1-7.4-3.1v2.7h-6.5v-32.6h6.9v11.5c1.8-1.9,4.2-2.9,7.1-2.9,6.6,0,11.8,4.8,11.8,12.2h0ZM956.6,512.4c0-4.1-2.6-6.6-6-6.6s-6,2.5-6,6.6,2.6,6.6,6,6.6,6-2.5,6-6.6Z"/>
    <path class="cls-3" d="M967.3,493.5c0-2.1,1.7-3.8,4.3-3.8s4.3,1.6,4.3,3.7-1.7,4-4.3,4-4.3-1.7-4.3-3.8h0ZM968.1,500.6h6.9v23.7h-6.9v-23.7Z"/>
    <path class="cls-3" d="M1002.3,510.8v13.5h-6.4v-2.9c-1.3,2.1-3.7,3.3-7.2,3.3-5.5,0-8.8-3.1-8.8-7.2s3-7.1,10.2-7.1h5.5c0-2.9-1.8-4.7-5.5-4.7s-5.1.8-6.8,2.2l-2.5-4.8c2.6-1.9,6.4-2.9,10.2-2.9,7.2,0,11.4,3.3,11.4,10.5h0ZM995.4,516.8v-2.4h-4.7c-3.2,0-4.2,1.2-4.2,2.8s1.5,2.9,3.9,2.9,4.3-1.1,5.1-3.2Z"/>
  </g>
  <g>
    <path class="cls-3" d="M725.8,196.9c0,6.9-5.2,11.1-13.4,11.1h-6.2v8.5h-7.1v-30.8h13.3c8.2,0,13.4,4.3,13.4,11.2h0ZM718.6,196.9c0-3.4-2.2-5.4-6.5-5.4h-5.8v10.7h5.8c4.3,0,6.5-2,6.5-5.3Z"/>
    <path class="cls-3" d="M730.9,185.7h7.1v30.8h-7.1v-30.8Z"/>
    <path class="cls-3" d="M772,196.9c0,6.9-5.2,11.1-13.4,11.1h-6.2v8.5h-7.1v-30.8h13.3c8.2,0,13.4,4.3,13.4,11.2h0ZM764.8,196.9c0-3.4-2.2-5.4-6.5-5.4h-5.8v10.7h5.8c4.3,0,6.5-2,6.5-5.3Z"/>
    <path class="cls-3" d="M817.9,216.5v-18.5s-9.1,15.2-9.1,15.2h-3.2l-9-14.8v18.1h-6.7v-30.8h5.9l11.5,19.1,11.3-19.1h5.8v30.8c0,0-6.6,0-6.6,0h0Z"/>
    <path class="cls-3" d="M854.5,206.6h-17.9c.7,3,3.2,4.8,6.8,4.8s4.3-.8,5.9-2.3l3.7,4c-2.2,2.5-5.5,3.8-9.8,3.8-8.2,0-13.5-5.1-13.5-12.2s5.4-12.2,12.6-12.2,12.3,4.7,12.3,12.3,0,1.3-.1,1.9h0ZM836.5,202.6h11.7c-.5-3-2.7-4.9-5.8-4.9s-5.4,1.9-5.8,4.9h0ZM843.5,189.8h-5.4l5.9-6.3h7.4l-8,6.3Z"/>
    <path class="cls-3" d="M873.5,216.5l-5.2-7.3-5.4,7.3h-7.5l9.1-11.9-8.8-11.7h7.7l5,6.9,5.2-6.9h7.3l-8.8,11.6,9.2,12.1h-7.8Z"/>
    <path class="cls-3" d="M883.8,185.7c0-2.1,1.7-3.8,4.3-3.8s4.3,1.6,4.3,3.7-1.7,4-4.3,4-4.3-1.7-4.3-3.8h0ZM884.7,192.8h6.9v23.7h-6.9v-23.7Z"/>
    <path class="cls-3" d="M896.1,204.7c0-7.1,5.5-12.2,13.2-12.2s8.9,2.1,10.6,6l-5.3,2.9c-1.3-2.2-3.2-3.2-5.3-3.2-3.5,0-6.2,2.4-6.2,6.5s2.7,6.5,6.2,6.5,4-1,5.3-3.2l5.3,2.9c-1.7,3.8-5.6,6-10.6,6-7.7,0-13.2-5.1-13.2-12.2h0Z"/>
    <path class="cls-3" d="M921.8,204.7c0-7.1,5.5-12.2,13-12.2s13,5.1,13,12.2-5.5,12.2-13,12.2-13-5.1-13-12.2ZM940.9,204.7c0-4.1-2.6-6.5-6-6.5s-6.1,2.5-6.1,6.5,2.6,6.5,6.1,6.5,6-2.5,6-6.5Z"/>
  </g>
  <g>
    <path class="cls-3" d="M725.8,300.9c0,6.9-5.2,11.1-13.4,11.1h-6.2v8.5h-7.1v-30.8h13.3c8.2,0,13.4,4.3,13.4,11.2h0ZM718.6,300.9c0-3.4-2.2-5.4-6.5-5.4h-5.8v10.7h5.8c4.3,0,6.5-2,6.5-5.3Z"/>
    <path class="cls-3" d="M730.9,289.7h7.1v30.8h-7.1v-30.8Z"/>
    <path class="cls-3" d="M772,300.9c0,6.9-5.2,11.1-13.4,11.1h-6.2v8.5h-7.1v-30.8h13.3c8.2,0,13.4,4.3,13.4,11.2h0ZM764.8,300.9c0-3.4-2.2-5.4-6.5-5.4h-5.8v10.7h5.8c4.3,0,6.5-2,6.5-5.3Z"/>
    <path class="cls-3" d="M788,305.1c0-9.3,7.1-15.9,16.7-15.9s9.8,1.9,12.7,5.5l-4.6,4.2c-2.1-2.4-4.7-3.6-7.7-3.6-5.8,0-9.8,4-9.8,9.9s4.1,9.9,9.8,9.9,5.7-1.2,7.7-3.6l4.6,4.2c-2.9,3.6-7.3,5.5-12.7,5.5-9.5,0-16.7-6.6-16.7-15.9h0Z"/>
    <path class="cls-3" d="M843.9,310.6h-17.9c.7,3,3.2,4.8,6.8,4.8s4.3-.8,5.9-2.3l3.7,4c-2.2,2.5-5.5,3.8-9.8,3.8-8.2,0-13.5-5.1-13.5-12.2s5.4-12.2,12.6-12.2,12.3,4.7,12.3,12.3,0,1.3-.1,1.9h0ZM825.9,306.6h11.7c-.5-3-2.7-4.9-5.8-4.9s-5.4,1.9-5.8,4.9h0Z"/>
    <path class="cls-3" d="M872.8,306.9v13.5h-6.9v-12.5c0-3.8-1.8-5.6-4.8-5.6s-5.7,2-5.7,6.4v11.7h-6.9v-23.7h6.5v2.8c1.8-2,4.6-3.1,7.8-3.1,5.6,0,9.8,3.2,9.8,10.5h0Z"/>
    <path class="cls-3" d="M894.2,319.3c-1.4,1-3.5,1.5-5.6,1.5-5.6,0-8.8-2.9-8.8-8.5v-9.7h-3.7v-5.3h3.7v-5.8h6.9v5.8h5.9v5.3h-5.9v9.6c0,2,1.1,3.1,3,3.1s2-.3,2.8-.9l1.8,4.8h0Z"/>
    <path class="cls-3" d="M912.8,296.5v6.3c-.6,0-1,0-1.5,0-3.8,0-6.3,2.1-6.3,6.6v11.2h-6.9v-23.7h6.5v3.1c1.7-2.3,4.5-3.5,8.1-3.5h0Z"/>
    <path class="cls-3" d="M914.9,308.6c0-7.1,5.5-12.2,13-12.2s13,5.1,13,12.2-5.5,12.2-13,12.2-13-5.1-13-12.2ZM933.9,308.6c0-4.1-2.6-6.5-6-6.5s-6.1,2.5-6.1,6.5,2.6,6.5,6.1,6.5,6-2.5,6-6.5Z"/>
    <path class="cls-3" d="M966,307v13.5h-6.4v-3c-1.3,2.1-3.7,3.3-7.2,3.3-5.5,0-8.8-3.1-8.8-7.2s3-7.1,10.2-7.1h5.5c0-3-1.8-4.7-5.5-4.7s-5.1.8-6.8,2.2l-2.5-4.8c2.6-1.9,6.4-2.9,10.2-2.9,7.2,0,11.4,3.3,11.4,10.5h0ZM959.1,313v-2.4h-4.7c-3.2,0-4.2,1.2-4.2,2.8s1.5,2.9,3.9,2.9,4.3-1.1,5.1-3.2h0Z"/>
    <path class="cls-3" d="M1012.1,306.9v13.5h-6.9v-12.5c0-3.8-1.7-5.6-4.5-5.6s-5.2,2-5.2,6.2v11.9h-6.9v-12.5c0-3.8-1.6-5.6-4.5-5.6s-5.2,2-5.2,6.2v11.9h-6.9v-23.7h6.5v2.7c1.8-2,4.4-3.1,7.4-3.1s6.1,1.3,7.8,3.9c1.9-2.4,5-3.9,8.5-3.9,5.6,0,9.7,3.2,9.7,10.5h0Z"/>
    <path class="cls-3" d="M1041.6,310.6h-17.9c.7,3,3.2,4.8,6.8,4.8s4.3-.8,5.9-2.3l3.7,4c-2.2,2.5-5.5,3.8-9.8,3.8-8.2,0-13.5-5.1-13.5-12.2s5.4-12.2,12.6-12.2,12.3,4.7,12.3,12.3,0,1.3-.1,1.9h0ZM1023.6,306.6h11.7c-.5-3-2.7-4.9-5.8-4.9s-5.4,1.9-5.8,4.9ZM1030.7,293.8h-5.4l5.9-6.3h7.4l-8,6.3Z"/>
    <path class="cls-3" d="M1061,296.5v6.3c-.6,0-1,0-1.5,0-3.8,0-6.3,2.1-6.3,6.6v11.2h-6.9v-23.7h6.6v3.1c1.7-2.3,4.5-3.5,8.1-3.5Z"/>
    <path class="cls-3" d="M1064.2,289.7c0-2.1,1.7-3.8,4.3-3.8s4.3,1.6,4.3,3.7-1.7,4-4.3,4-4.3-1.7-4.3-3.8h0ZM1065.1,296.8h6.9v23.7h-6.9v-23.7Z"/>
    <path class="cls-3" d="M1076.6,308.6c0-7.1,5.5-12.2,13.2-12.2s8.9,2.1,10.6,6l-5.3,2.9c-1.3-2.2-3.2-3.2-5.3-3.2-3.5,0-6.2,2.4-6.2,6.5s2.7,6.5,6.2,6.5,4.1-1,5.3-3.2l5.3,2.9c-1.7,3.8-5.6,6-10.6,6-7.7,0-13.2-5.1-13.2-12.2h0Z"/>
    <path class="cls-3" d="M1125.2,307v13.5h-6.4v-3c-1.3,2.1-3.7,3.3-7.2,3.3-5.5,0-8.8-3.1-8.8-7.2s2.9-7.1,10.2-7.1h5.4c0-3-1.8-4.7-5.4-4.7s-5.1.8-6.8,2.2l-2.5-4.8c2.6-1.9,6.4-2.9,10.2-2.9,7.2,0,11.4,3.3,11.4,10.5h0ZM1118.4,313v-2.4h-4.7c-3.2,0-4.2,1.2-4.2,2.8s1.4,2.9,3.9,2.9,4.3-1.1,5.1-3.2h0Z"/>
  </g>
  <g>
    <path class="cls-3" d="M725.8,404.8c0,6.9-5.2,11.1-13.4,11.1h-6.2v8.5h-7.1v-30.8h13.3c8.2,0,13.4,4.3,13.4,11.2h0ZM718.6,404.8c0-3.4-2.2-5.4-6.5-5.4h-5.8v10.7h5.8c4.3,0,6.5-2,6.5-5.3Z"/>
    <path class="cls-3" d="M730.9,393.7h7.1v30.8h-7.1v-30.8Z"/>
    <path class="cls-3" d="M772,404.8c0,6.9-5.2,11.1-13.4,11.1h-6.2v8.5h-7.1v-30.8h13.3c8.2,0,13.4,4.3,13.4,11.2h0ZM764.8,404.8c0-3.4-2.2-5.4-6.5-5.4h-5.8v10.7h5.8c4.3,0,6.5-2,6.5-5.3Z"/>
    <path class="cls-3" d="M816.6,404.8c0,6.9-5.2,11.1-13.4,11.1h-6.2v8.5h-7.1v-30.8h13.3c8.2,0,13.4,4.3,13.4,11.2h0ZM809.4,404.8c0-3.4-2.2-5.4-6.5-5.4h-5.8v10.7h5.8c4.3,0,6.5-2,6.5-5.3Z"/>
    <path class="cls-3" d="M844.2,414.6h-17.9c.7,3,3.2,4.8,6.8,4.8s4.3-.8,5.9-2.3l3.7,4c-2.2,2.5-5.5,3.8-9.8,3.8-8.2,0-13.5-5.1-13.5-12.2s5.4-12.2,12.6-12.2,12.3,4.7,12.3,12.3,0,1.3-.1,1.9h0ZM826.2,410.6h11.7c-.5-3-2.7-4.9-5.8-4.9s-5.4,1.9-5.8,4.9h0Z"/>
    <path class="cls-3" d="M863.6,400.4v6.3c-.6,0-1,0-1.5,0-3.8,0-6.3,2.1-6.3,6.6v11.2h-6.9v-23.7h6.5v3.1c1.7-2.3,4.5-3.5,8.1-3.5h0Z"/>
    <path class="cls-3" d="M891.7,400.8v23.7h-6.5v-2.8c-1.8,2.1-4.4,3.2-7.3,3.2-5.9,0-10.1-3.3-10.1-10.6v-13.4h6.9v12.4c0,4,1.8,5.7,4.8,5.7s5.5-2,5.5-6.4v-11.7h6.9ZM881,397.8h-5.4l5.9-6.3h7.4l-8,6.3Z"/>
  </g>
  <path class="cls-3" d="M571.3,360.1h-297.9v-2h295.9v-162.1c0-.6.4-1,1-1h106.8c.6,0,1,.4,1,1h0c0,.6-.4,1-1,1h-104.8c-.6,0-1,.4-1,1v162.1Z"/>
  <polygon class="cls-2" points="606.5 387.1 323.5 387.1 323.5 385.1 604.5 385.1 604.5 301.5 677.1 301.5 677.1 303.5 606.5 303.5 606.5 387.1"/>
  <polygon class="cls-3" points="677.1 517.7 569.4 517.7 569.4 428.1 363.6 428.1 363.6 426.1 571.4 426.1 571.4 515.7 677.1 515.7 677.1 517.7"/>
  <polygon class="cls-2" points="606.5 459.6 357.3 459.6 357.3 457.6 604.5 457.6 604.5 407.2 677.1 407.2 677.1 409.2 606.5 409.2 606.5 459.6"/>
</svg>