<?xml version="1.0" encoding="UTF-8"?>
<svg id="Layer_1" xmlns="http://www.w3.org/2000/svg" version="1.1" viewBox="0 0 152.17 101.02">
  <!-- Generator: Adobe Illustrator 29.1.0, SVG Export Plug-In . SVG Version: 2.1.0 Build 142)  -->
  <defs>
    <style>
      .st0 {
        fill: #178c8d;
      }

      .st1 {
        fill: #122041;
      }

      .st2 {
        fill: #8787aa;
      }
    </style>
  </defs>
  <g id="Group_7">
    <g id="Group_6">
      <g id="Grupo_6223-2">
        <g id="Group_5">
          <path id="Path_33" class="st2" d="M131.08,14.48l-28.88-2.03,7.1,32.62,31.58-2.63-9.79-27.96ZM115.11,37.51l-4.62-18.65,17.36.74,5.56,17.03-8.71.42-9.59.46Z"/>
        </g>
      </g>
    </g>
  </g>
  <g id="Group_11">
    <g id="Grupo_6224">
      <g id="Group_10">
        <path id="Path_34" class="st0" d="M104.09,21.18l-14.01-10.82-4.93,4.08,17.13,13.17-13.32,14.88,7.22,5.44,10.8-13.51,5.43-6.81-8.32-6.43Z"/>
      </g>
    </g>
  </g>
  <g id="Group_16">
    <g id="Grupo_6225">
      <g id="Group_15">
        <path id="Path_35" class="st0" d="M138.35,27.61l5.5-9.88-4.68-3.7-8.57,13.57,19.79,15.41,1.78-4.6-13.82-10.81Z"/>
      </g>
    </g>
  </g>
  <g id="Grupo_6226">
    <g id="Group_20">
      <path id="Path_36" class="st1" d="M124.4,37.24l8.14,6.28v-.04l13.41,10.35-2.28,5.89-16.41-12.59-9.66,17.31-7.06-5.32,9.21-14.58,4.65-7.3Z"/>
    </g>
  </g>
  <g id="Group_26">
    <g id="Grupo_6227">
      <g id="Group_25">
        <path id="Path_37" class="st1" d="M129.28,6.55l-4.75-3.75-7.55,8.42L102.63,0l-3.82,3.17,12.82,9.99h.05l7.57,5.9,4.07-5.08h.02l5.93-7.42Z"/>
      </g>
    </g>
  </g>
  <g id="Grupo_6231">
    <g id="Grupo_6230">
      <g id="Group_32">
        <g id="Group_31">
          <g id="Grupo_6229">
            <g id="Grupo_6228">
              <g id="Group_30">
                <path id="Path_38" class="st1" d="M37.01,101.02h-9.13v-22.14l-6.49,15.39h-6.23l-6.49-15.39v22.14H0v-35.38h10.62l7.88,17.77,7.85-17.77h10.64v35.38Z"/>
                <path id="Path_39" class="st1" d="M70.2,101.02h-25.59v-35.38h25.59v6.84h-16.47v6.89h15.33v6.85h-15.33v7.95h16.47v6.85Z"/>
                <path id="Path_40" class="st1" d="M97.68,101.02h-20.75v-6.84h5.8v-21.69h-5.8v-6.84h20.75v6.84h-5.8v21.69h5.8v6.85Z"/>
              </g>
            </g>
          </g>
        </g>
      </g>
    </g>
  </g>
</svg>